<svg fill="none" height="67" viewBox="0 0 67 67" width="67" xmlns="http://www.w3.org/2000/svg"><g stroke-miterlimit="10"><path d="m7.35229 23.1591c2.95451-7.2386 8.56821-12.8523 15.80681-15.80681" stroke="#323232"/><path d="m33.5001 66c2.4476 0 4.4318-1.9842 4.4318-4.4318 0-2.4477-1.9842-4.4318-4.4318-4.4318-2.4477 0-4.4319 1.9841-4.4319 4.4318 0 2.4476 1.9842 4.4318 4.4319 4.4318z" stroke="#1476f2"/><path d="m33.5001 9.86364c2.4476 0 4.4318-1.9842 4.4318-4.43182 0-2.44763-1.9842-4.43182-4.4318-4.43182-2.4477 0-4.4319 1.98419-4.4319 4.43182 0 2.44762 1.9842 4.43182 4.4319 4.43182z" stroke="#1476f2"/><path d="m61.5682 37.9319c2.4476 0 4.4318-1.9842 4.4318-4.4318 0-2.4477-1.9842-4.4319-4.4318-4.4319-2.4477 0-4.4318 1.9842-4.4318 4.4319 0 2.4476 1.9841 4.4318 4.4318 4.4318z" stroke="#1476f2"/><path d="m5.43182 37.9319c2.44762 0 4.43182-1.9842 4.43182-4.4318 0-2.4477-1.9842-4.4319-4.43182-4.4319-2.44763 0-4.43182 1.9842-4.43182 4.4319 0 2.4476 1.98419 4.4318 4.43182 4.4318z" stroke="#1476f2"/><g stroke="#323232"><path d="m15.7727 5.72729 7.3864 1.62501-1.625 7.5341"/><path d="m60.091 44.1364c-2.8068 7.2386-8.5682 12.8522-15.8068 15.8068"/><path d="m51.8183 61.5682-7.5341-1.6249 1.625-7.3864"/><path d="m23.1592 60.091c-7.0909-2.9545-12.8523-8.7159-15.65908-15.8068"/><path d="m5.87512 51.6705 1.625-7.3863 7.38638 1.625"/><path d="m44.2842 7.35229c7.0909 2.80681 12.8523 8.56821 15.8068 15.80681"/><path d="m61.5682 15.625-1.4772 7.5341-7.5341-1.625"/></g><path d="m37.9319 33.5001c0 2.5113-2.0682 4.4318-4.4318 4.4318-2.5114 0-4.4319-2.0682-4.4319-4.4318 0-2.5114 2.0682-4.4319 4.4319-4.4319 2.5113 0 4.4318 1.9205 4.4318 4.4319z" stroke="#1476f2"/><path d="m43.8409 33.5c0-.8863-.1477-1.625-.2954-2.3636l2.9545-1.625-2.9545-5.1704-2.9546 1.625c-1.1818-1.1819-2.6591-1.9205-4.1364-2.3637v-3.3977h-5.909v3.3977c-1.625.4432-2.9546 1.3296-4.1364 2.3637l-2.9546-1.625-2.9545 5.1704 2.9545 1.7727c-.1477.7387-.2954 1.4773-.2954 2.3637 0 .8863.1477 1.625.2954 2.3636l-2.9545 1.7727 2.9545 5.1705 2.9546-1.7727c1.1818 1.0341 2.5114 1.9204 4.1364 2.3636v3.25h5.909v-3.3977c1.625-.4432 2.9546-1.3296 4.1364-2.3637l2.9546 1.7728 2.9545-5.1705-2.9545-1.625c.1477-.8864.2954-1.7727.2954-2.5114z" stroke="#1476f2"/></g></svg>