<svg fill="none" height="67" viewBox="0 0 74 67" width="74" xmlns="http://www.w3.org/2000/svg"><g stroke-miterlimit="10"><g stroke="#323232" stroke-linejoin="round"><path d="m10.8334 5.64286h38.6905v-4.64286l7.738 7.73809-7.738 7.73811v-4.6429h-27.8572"/><path d="m54.1666 33.5h10.8334v-4.6428l7.7381 7.7381-7.7381 7.7381v-4.6429h-9.2858"/><path d="m46.4285 55.1667h7.7381v-4.6429l7.7381 7.7381-7.7381 7.7381v-4.6429h-30.9524"/><path d="m0 52.0714h18.5714"/></g><path d="m32.5 41.2381c2.5642 0 4.6429-2.0787 4.6429-4.6428 0-2.5642-2.0787-4.6429-4.6429-4.6429-2.5641 0-4.6428 2.0787-4.6428 4.6429 0 2.5641 2.0787 4.6428 4.6428 4.6428z" stroke="#1476f2"/><path d="m50.762 32.4167-2.0119-5.1071-4.6429 1.5476c-.9286-1.3929-2.0119-2.4762-3.25-3.4048l1.7024-4.7976-4.9524-2.1667-2.3214 4.4881c-1.5476-.3095-3.0953-.3095-4.6429-.1547l-2.1666-4.4881-5.1072 2.0119 1.3929 4.7976c-1.3929.9286-2.4762 2.0119-3.4048 3.25l-4.7976-1.7024-2.1667 4.9524 4.4881 2.3214c-.3095 1.5476-.3095 3.0953-.1547 4.6429l-4.4881 2.1667 2.0119 5.1071 4.7976-1.3929c.9286 1.3929 2.0119 2.4762 3.25 3.4048l-1.7024 4.7976 4.9524 2.1667 2.3214-4.4881c1.5476.3095 3.0952.3095 4.6429.1548l2.1666 4.488 5.1072-2.0119-1.5476-4.7976c1.3928-.9285 2.4762-2.0119 3.4047-3.25l4.7976 1.7024 2.1667-4.9524-4.4881-2.3214c.3095-1.5476.3095-3.0952.1548-4.6429z" stroke="#1476f2"/><path d="m18.5714 19.5714h-13.92858" stroke="#323232" stroke-linejoin="round"/></g></svg>