<svg fill="none" height="64" viewBox="0 0 61 64" width="61" xmlns="http://www.w3.org/2000/svg"><g stroke-miterlimit="10"><g stroke="#323232"><path d="m60.0652 48.1956-19.5-14.1304v24.0217c0 .7065.7065.9892 1.2717.4239l5.5109-5.2282 5.2283 9.3261c.4239.7065 1.5543.8478 2.2608.2826l2.2609-1.4131c.8478-.5652 1.1304-1.5543.7065-2.2608l-5.0869-8.7609h6.6413c.8478 0 1.2717-1.837.7065-2.2609z"/><path d="m40.5652 27.8478v-4.2392"/><path d="m34.9131 33.5h-4.2391"/><path d="m50.4565 33.5h-4.2391"/><path d="m36.3261 29.2609-2.8261-2.8261"/><path d="m36.3261 37.7391-2.8261 2.8261"/><path d="m44.8043 29.2609 2.8261-2.8261"/></g><path d="m19.3696 26.4348v1.413c0 1.5544 1.2717 2.8261 2.8261 2.8261h2.826c1.5544 0 2.8261-1.2717 2.8261-2.8261v-.8478c0-1.2718-.7065-2.2609-1.9782-2.6848l-4.6631-1.5544c-1.1304-.4239-1.9782-1.413-1.9782-2.6847v-.7066c0-1.5543 1.2717-2.826 2.8261-2.826h2.826c1.5544 0 2.8261 1.2717 2.8261 2.826v1.4131" stroke="#2a82f2"/><path d="m23.6086 16.5435v-4.2392" stroke="#2a82f2"/><path d="m23.6086 30.674v4.2391" stroke="#2a82f2"/><path d="m32.087 44.5217c-2.5435.9892-5.5109 1.6957-8.4783 1.6957-12.4348 0-22.6087-10.1739-22.6087-22.6087s10.1739-22.6087 22.6087-22.6087c12.0109 0 21.9022 9.3261 22.6087 21.1957" stroke="#2a82f2"/></g></svg>