
<svg width="46" height="46" viewBox="0 0 46 46" fill="none" xmlns="http://www.w3.org/2000/svg">
  <g clip-path="url(#clip0_905_9873)">
    <circle cx="22.8333" cy="23.4507" r="21.85" stroke="#1476F2" stroke-width="1.3"/>
  <g clip-path="url(#clip1_905_9873)">
    <path fill-rule="evenodd" clip-rule="evenodd" d="M24.905 20.0354C25.7495 18.9144 26.0995 18.4509 27.3425 18.4509H29.8425C30.776 18.4509 32.3425 18.7104 32.3425 20.4509V22.4509C32.3425 23.1079 31.878 23.6349 31.3425 23.8474V20.9509H30.3425V25.9509H31.3425V24.8944C32.4535 24.6484 33.3425 23.6124 33.3425 22.4509V20.4509C33.3425 18.2389 31.5345 17.4509 29.8425 17.4509H27.3425C25.6005 17.4509 25.0065 18.2394 24.1065 19.4334L23.944 19.6489L24.741 20.2529L24.905 20.0354Z" fill="#1476F2"/>
    <path fill-rule="evenodd" clip-rule="evenodd" d="M27.3425 23.9507V21.4507C27.3425 21.1747 27.1185 20.9507 26.8425 20.9507H26.3425C26.265 20.9507 26.188 20.9687 26.119 21.0032L25.119 21.5032L25.566 22.3982L26.3425 22.0097V23.9507H27.3425ZM24.8425 34.9507V34.7397C24.8425 33.9802 25.674 33.4507 26.4195 33.4507H28.752C29.4875 33.4507 30.3425 32.8017 30.3425 31.9652V31.9122C30.3425 31.0757 29.5025 30.4507 28.752 30.4507H27.819C27.5845 30.4507 27.3425 30.3102 27.3425 30.0752V29.6087C27.3425 29.3102 27.635 28.9507 27.819 28.9507H31.3425V28.8457C32.749 30.5367 33.661 32.6447 33.82 34.9507H24.8425ZM22.9215 23.8667C22.1835 23.8667 21.4445 23.9347 20.724 24.0692L20.907 25.0522C21.567 24.9292 22.245 24.8667 22.9215 24.8667C25.8575 24.8667 28.5405 26.0487 30.5155 27.9507H27.819C26.9875 27.9507 26.3425 28.8422 26.3425 29.6087V30.0752C26.3425 30.8467 26.991 31.4507 27.819 31.4507H28.752C29.017 31.4507 29.3425 31.7052 29.3425 31.9122V31.9652C29.3425 32.1787 29.0115 32.4507 28.752 32.4507H26.4195C25.175 32.4507 23.8425 33.3702 23.8425 34.7397V34.9507H16.8425V34.5062C16.8425 34.0182 17.074 33.9507 17.324 33.9507H20.589C21.507 33.9507 22.3425 33.1042 22.3425 32.1742V31.7077C22.3425 31.3437 22.5625 30.9507 22.918 30.9507H22.9195C23.797 30.9492 24.3425 30.3457 24.3425 29.3757V28.9092C24.3425 27.9822 23.8245 27.4507 22.9215 27.4507H20.8425V28.4507H22.9215C23.258 28.4507 23.3425 28.5047 23.3425 28.9092V29.3757C23.3425 29.9507 23.086 29.9507 22.916 29.9507H22.914C22.032 29.9532 21.3425 30.7237 21.3425 31.7077V32.1742C21.3425 32.5442 20.948 32.9507 20.589 32.9507H17.324C16.424 32.9507 15.8425 33.5612 15.8425 34.5062V34.9507H12.0255C12.16 33.1772 12.784 31.3352 13.771 29.8242L12.9335 29.2772C11.752 31.0862 11.0475 33.3322 11.0005 35.4397C10.9975 35.5742 11.0485 35.7042 11.143 35.8002C11.237 35.8967 11.3655 35.9507 11.5 35.9507H34.3425C34.477 35.9507 34.6055 35.8967 34.6995 35.8007C34.7935 35.7047 34.845 35.5747 34.8425 35.4402C34.7095 29.0587 29.362 23.8667 22.9215 23.8667Z" fill="#1476F2"/>
    <path fill-rule="evenodd" clip-rule="evenodd" d="M14.3425 25.3844V31.4509H15.3425V20.4509H14.3425V24.3324C13.8225 24.0999 13.3425 23.5509 13.3425 22.9509V20.9509C13.3425 18.5714 15.425 18.4509 15.8425 18.4509H18.3425C19.713 18.4509 20.5695 18.9754 21.5075 19.8219C22.0945 20.3514 23.1815 21.4784 23.7735 22.0989C23.358 22.3114 22.718 22.4944 22.1475 22.0549C21.3345 21.4284 20.1855 20.5529 20.1855 20.5529C20.0985 20.4864 19.992 20.4509 19.8825 20.4509H19.3425C19.0665 20.4509 18.8425 20.6744 18.8425 20.9509V31.4509H19.8425V21.5489C20.229 21.8439 20.9665 22.4069 21.5375 22.8469C22.7985 23.8184 24.2715 23.0879 24.8745 22.5664C24.9775 22.4769 25.0395 22.3499 25.0465 22.2139C25.0535 22.0779 25.0045 21.9449 24.9115 21.8459C24.835 21.7644 23.037 19.8549 22.1775 19.0794C21.24 18.2334 20.127 17.4509 18.3425 17.4509H15.8425C14.1005 17.4509 12.3425 18.5329 12.3425 20.9509V22.9509C12.3425 24.1584 13.3315 25.1314 14.3425 25.3844Z" fill="#1476F2"/>
    <path fill-rule="evenodd" clip-rule="evenodd" d="M16.3421 31.4507H17.3423V24.4505H16.3421V31.4507Z" fill="#1476F2"/>
    <path fill-rule="evenodd" clip-rule="evenodd" d="M15.8425 14.0508C15.8425 13.3623 16.478 12.9508 17.0925 12.9508C17.707 12.9508 18.3425 13.3623 18.3425 14.0508V14.8508C18.3425 15.5393 17.707 15.9508 17.0925 15.9508C16.478 15.9508 15.8425 15.5393 15.8425 14.8508V14.0508ZM17.0925 16.9508C18.354 16.9508 19.3425 16.0283 19.3425 14.8508V14.0508C19.3425 12.8733 18.354 11.9508 17.0925 11.9508C15.831 11.9508 14.8425 12.8733 14.8425 14.0508V14.8508C14.8425 16.0283 15.831 16.9508 17.0925 16.9508ZM27.8425 14.0508C27.8425 13.3623 28.478 12.9508 29.0925 12.9508C29.707 12.9508 30.3425 13.3623 30.3425 14.0508V14.8508C30.3425 15.5393 29.707 15.9508 29.0925 15.9508C28.478 15.9508 27.8425 15.5393 27.8425 14.8508V14.0508ZM29.0925 16.9508C30.354 16.9508 31.3425 16.0283 31.3425 14.8508V14.0508C31.3425 12.8733 30.354 11.9508 29.0925 11.9508C27.831 11.9508 26.8425 12.8733 26.8425 14.0508V14.8508C26.8425 16.0283 27.831 16.9508 29.0925 16.9508Z" fill="#1476F2"/>
  </g>
  </g>
  <defs>
    <clipPath id="clip0_905_9873">
      <rect width="45" height="45" fill="white" transform="translate(0.333313 0.950684)"/>
    </clipPath>
    <clipPath id="clip1_905_9873">
      <rect width="24" height="24" fill="white" transform="translate(11.0003 11.9507)"/>
    </clipPath>
  </defs>
</svg>
