
<svg width="46" height="46" viewBox="0 0 46 46" fill="none" xmlns="http://www.w3.org/2000/svg">
  <g clip-path="url(#clip0_905_9851)">
    <circle cx="23.1667" cy="23.4507" r="21.85" stroke="#1476F2" stroke-width="1.3"/>
    <g clip-path="url(#clip1_905_9851)">
      <path fill-rule="evenodd" clip-rule="evenodd" d="M27.5002 18.0509H28.5004V15.5507H27.5002V18.0509Z" fill="#1476F2"/>
      <path fill-rule="evenodd" clip-rule="evenodd" d="M23.0002 16.0507H32.5002V12.5507H23.0002V16.0507ZM24.0002 15.0507H31.5002V13.5507H24.0002V15.0507Z" fill="#1476F2"/>
      <path fill-rule="evenodd" clip-rule="evenodd" d="M23.5 25.0505H25V24.0509H23.5V25.0505Z" fill="#1476F2"/>
      <path fill-rule="evenodd" clip-rule="evenodd" d="M26.0002 25.0505H27.5002V24.0509H26.0002V25.0505Z" fill="#1476F2"/>
      <path fill-rule="evenodd" clip-rule="evenodd" d="M28.5004 25.0505H30.0004V24.0509H28.5004V25.0505Z" fill="#1476F2"/>
      <path fill-rule="evenodd" clip-rule="evenodd" d="M23.5 27.0509H25V26.0507H23.5V27.0509Z" fill="#1476F2"/>
      <path fill-rule="evenodd" clip-rule="evenodd" d="M26.0002 27.0509H27.5002V26.0507H26.0002V27.0509Z" fill="#1476F2"/>
      <path fill-rule="evenodd" clip-rule="evenodd" d="M28.5004 27.0509H30.0004V26.0507H28.5004V27.0509Z" fill="#1476F2"/>
      <path fill-rule="evenodd" clip-rule="evenodd" d="M24.0002 22.0507H29.5002V20.5507H24.0002V22.0507ZM23.0002 23.0507H30.5002V19.5507H23.0002V23.0507Z" fill="#1476F2"/>
      <path fill-rule="evenodd" clip-rule="evenodd" d="M16 23.0507H22V22.0505H16V23.0507Z" fill="#1476F2"/>
      <path fill-rule="evenodd" clip-rule="evenodd" d="M17.5002 22.0507H20.5002V16.0507H17.5002V22.0507ZM16.5002 23.0507H21.5002V15.0507H16.5002V23.0507ZM11.0002 35.9507H35.0002V28.1507H11.0002V35.9507ZM12.0002 34.9761H34.0002V29.1257H12.0002V34.9761Z" fill="#1476F2"/>
      <path fill-rule="evenodd" clip-rule="evenodd" d="M33.0004 34.0505H32.0002V31.0505H14.0002V34.0505H13V30.0509H33.0004V34.0505Z" fill="#1476F2"/>
      <path fill-rule="evenodd" clip-rule="evenodd" d="M22 33.0509H24.0004V32.0507H22V33.0509Z" fill="#1476F2"/>
      <path fill-rule="evenodd" clip-rule="evenodd" d="M13.5004 28.5509H12.5002V25.8845L14.0002 23.8841V17.5505H16.5004V18.5507H15.0004V24.2171L13.5004 26.2169V28.5509Z" fill="#1476F2"/>
      <path fill-rule="evenodd" clip-rule="evenodd" d="M34 28.5509H33.0004V26.2169L31.5004 24.2171V18.5507H21.0004V17.5505H32.5V23.8841L34 25.8845V28.5509Z" fill="#1476F2"/>
    </g>
  </g>
  <defs>
    <clipPath id="clip0_905_9851">
      <rect width="45" height="45" fill="white" transform="translate(0.666656 0.950684)"/>
    </clipPath>
    <clipPath id="clip1_905_9851">
      <rect width="24" height="24" fill="white" transform="translate(11.0002 11.9507)"/>
    </clipPath>
  </defs>
</svg>
