<svg xmlns="http://www.w3.org/2000/svg" width="45" height="46" viewBox="0 0 45 46" fill="none">
  <g clip-path="url(#clip0_905_9832)">
    <circle cx="22.5" cy="23.4507" r="21.85" stroke="#1476F2" stroke-width="1.3"/>
    <path d="M35.9999 20.7878L35.3486 16.8998L31.4606 17.5512" stroke="#1476F2" stroke-width="1.3" stroke-linecap="round" stroke-linejoin="round"/>
    <path d="M35.3487 16.8998L31.5417 22.2379C31.4078 22.4285 31.2034 22.5578 30.9738 22.5971C30.7442 22.6364 30.5085 22.5824 30.3188 22.4472L28.2151 20.9475C27.8211 20.6669 27.2743 20.7586 26.9933 21.1523L23.5463 25.9898" stroke="#1476F2" stroke-width="1.3" stroke-linecap="round" stroke-linejoin="round"/>
    <path fill-rule="evenodd" clip-rule="evenodd" d="M29.25 26.8257V32.7319C29.25 34.5959 27.739 36.1069 25.875 36.1069H17.4375C15.5735 36.1069 14.0625 34.5959 14.0625 32.7319V14.1694C14.0625 12.3055 15.5735 10.7944 17.4375 10.7944H25.875C27.739 10.7944 29.25 12.3055 29.25 14.1694" stroke="#1476F2" stroke-width="1.3" stroke-linecap="round" stroke-linejoin="round"/>
    <path d="M14.0625 31.0444H29.25" stroke="#1476F2" stroke-width="1.3" stroke-linecap="round" stroke-linejoin="round"/>
  </g>
  <defs>
    <clipPath id="clip0_905_9832">
      <rect width="45" height="45" fill="white" transform="translate(0 0.950684)"/>
    </clipPath>
  </defs>
</svg>