<svg width="45" height="46" viewBox="0 0 45 46" fill="none" xmlns="http://www.w3.org/2000/svg">
<path fill-rule="evenodd" clip-rule="evenodd" d="M30.4502 26.0979C29.8886 26.7265 27.4093 29.1266 26.8541 29.3584H20.0543C19.5955 29.3584 19.2937 29.4968 19.0844 29.6529L15.8547 26.4237L17.4532 24.8247C17.9051 24.4041 18.6075 23.9781 19.0761 23.9781H21.5217C21.7159 23.9781 22.0871 24.2623 22.3327 24.4501C22.6868 24.7215 22.9935 24.9563 23.3393 24.9563H25.9238C26.5993 24.9563 26.9021 25.3246 26.9021 25.69C26.9021 26.0554 26.5993 26.4237 25.9238 26.4237H22.0108V27.4019H25.9238C27.2082 27.4019 27.8803 26.5406 27.8803 25.69C27.8803 25.5643 27.8607 25.4396 27.8319 25.3158L29.5732 24.4119C29.6632 24.3655 29.7365 24.2916 29.783 24.2016C30.3538 23.0908 30.7808 22.6447 31.4152 22.4975C31.9444 22.3752 32.3964 22.4804 32.6625 22.6325C32.0975 23.7452 30.7573 25.7536 30.4502 26.0979ZM17.6087 33.0689L12.4309 27.8911L14.1849 26.1371L19.3627 31.3149L17.6087 33.0689ZM20.0543 19.576H22.4999V23.3618C22.1991 23.1612 21.8739 22.9998 21.5217 22.9998H20.0543V19.576ZM23.4782 23.9781V12.7282H25.9238V23.9781L23.3809 23.9825C23.3784 23.982 23.3745 23.979 23.3721 23.9781H23.4782ZM26.9021 16.1521H29.3477V22.9922C29.2564 23.1228 29.1356 23.3305 28.9852 23.6151L27.3315 24.4731C27.2092 24.3625 27.0644 24.2691 26.9021 24.1918V16.1521ZM31.1936 21.5452C30.862 21.622 30.5803 21.754 30.3259 21.9257V15.1739H26.9021V11.75H22.4999V18.5977H19.0761V22.9998C18.2656 22.9998 17.3358 23.597 16.7738 24.1214L15.1631 25.7321L14.5307 25.0996C14.3394 24.9084 14.0303 24.9084 13.839 25.0996L11.3934 27.5452C11.2022 27.736 11.2022 28.0456 11.3934 28.2369L17.2629 34.1063C17.3583 34.2017 17.4835 34.2497 17.6087 34.2497C17.7339 34.2497 17.8592 34.2017 17.9545 34.1063L20.4001 31.6607C20.5914 31.4695 20.5914 31.1599 20.4001 30.9691L19.8054 30.3738C19.8709 30.3518 19.9467 30.3367 20.0543 30.3367H26.9021C27.8138 30.3367 31.1481 26.7851 31.1799 26.749C31.5649 26.3171 33.2337 23.8171 33.7106 22.7024C33.7791 22.543 33.7571 22.3586 33.6534 22.2192C33.2734 21.7076 32.3426 21.2747 31.1936 21.5452Z" fill="#1476F2" stroke="#1476F2" stroke-width="0.3"/>
<path fill-rule="evenodd" clip-rule="evenodd" d="M15.1018 29.512L15.7935 28.8204L14.8152 27.8422L14.1236 28.5338L15.1018 29.512Z" fill="#1476F2" stroke="#1476F2" stroke-width="0.3"/>
<rect x="0.65" y="1.15" width="43.7" height="43.7" rx="21.85" stroke="#1476F2" stroke-width="1.3"/>
</svg>
