<svg width="32" height="32" viewBox="0 0 32 32" fill="none" xmlns="http://www.w3.org/2000/svg">
<path fill-rule="evenodd" clip-rule="evenodd" d="M15.7851 11.4042H15.8007H15.8028C16.5521 11.4042 17.1624 12.0139 17.1638 12.7642C17.1642 13.1278 17.0232 13.4699 16.7665 13.7276C16.5099 13.985 16.1684 14.1273 15.7905 14.1276C15.427 14.1273 15.0855 13.985 14.8288 13.7276C14.5722 13.4699 14.4309 13.1278 14.4316 12.7642C14.4326 12.0163 15.0392 11.4083 15.7851 11.4042ZM15.8059 14.8085C16.3512 14.8078 16.8636 14.5947 17.2486 14.2083C17.6339 13.8219 17.8453 13.3086 17.8447 12.7632C17.8426 11.6558 16.9565 10.753 15.8273 10.7254L15.7953 10.7234H15.7922C14.6682 10.7234 13.7524 11.6378 13.7507 12.7632C13.7497 13.3086 13.9614 13.8219 14.3464 14.2083C14.7318 14.5947 15.2442 14.8078 15.8059 14.8085ZM19.447 17.5427L19.3139 18.2106C21.6931 18.6845 23.2914 19.6469 23.2914 20.6062C23.2914 21.9093 20.3556 23.3105 15.9869 23.319C11.6165 23.3105 8.68102 21.9093 8.68102 20.6062C8.68102 19.6469 10.2793 18.6845 12.6582 18.2106L12.5251 17.5427C9.69174 18.1071 8.00017 19.252 8.00017 20.6062C8.00017 22.5003 11.5076 23.991 15.9869 23.9999C20.4645 23.991 23.9723 22.5003 23.9723 20.6062C23.9723 19.252 22.2807 18.1071 19.447 17.5427Z" fill="#1476F2" stroke="#1476F2" stroke-width="0.4"/>
<path fill-rule="evenodd" clip-rule="evenodd" d="M15.802 8.68085C18.0546 8.68085 19.8871 10.5134 19.8871 12.7663C19.8885 13.8431 19.7108 14.4916 19.1825 15.3369C18.6997 16.1093 16.5731 19.2123 15.802 20.335C15.031 19.2123 12.9043 16.1093 12.4216 15.3369C11.8933 14.4916 11.7156 13.8431 11.7169 12.766C11.7169 10.5134 13.5494 8.68085 15.802 8.68085ZM15.5215 21.1292L15.802 21.5367L16.0826 21.1292C16.2078 20.9471 19.1624 16.654 19.7598 15.6977C20.4376 14.6131 20.5694 13.8015 20.568 12.766C20.568 10.1379 18.4301 8 15.802 8C13.174 8 11.0361 10.1379 11.0361 12.7656C11.0347 13.8015 11.1665 14.6131 11.8443 15.6977C12.4417 16.654 15.3963 20.9471 15.5215 21.1292Z" fill="#1476F2" stroke="#1476F2" stroke-width="0.4"/>
<rect x="0.65" y="0.65" width="30.7" height="30.7" rx="15.35" stroke="#1476F2" stroke-width="1.3"/>
</svg>
