<svg width="32" height="32" viewBox="0 0 32 32" fill="none" xmlns="http://www.w3.org/2000/svg">
<g clip-path="url(#clip0_1765_1951)">
<circle cx="16" cy="16" r="15.35" fill="white" stroke="#1476F2" stroke-width="1.3"/>
<path d="M22.5887 11.1003H19.7709V9.53096C19.7709 7.49754 18.0774 5.85 16.0028 5.85C13.9282 5.85 12.2346 7.49754 12.2346 9.53096V11.1003H9.41681C9.1094 11.1003 8.85 11.3487 8.85 11.6571V22.3635C8.85 24.1148 10.31 25.5346 12.0957 25.5346H19.9041C21.6896 25.5346 23.1499 24.115 23.1499 22.3635V11.6588C23.1566 11.3409 22.893 11.1004 22.5887 11.1003C22.5887 11.1003 22.5887 11.1003 22.5887 11.1003ZM13.3688 9.53115C13.3688 8.12048 14.5486 6.96393 16.0031 6.96393C17.4576 6.96393 18.6374 8.12048 18.6374 9.53115V11.1005L13.3688 11.1003V9.53115ZM9.98956 12.2138H12.2405V13.2244C12.2405 13.5332 12.5003 13.7812 12.8073 13.7812C13.1147 13.7812 13.3741 13.5329 13.3741 13.2244V12.2138H18.643V13.2244C18.643 13.5332 18.9028 13.7812 19.2098 13.7812C19.5173 13.7812 19.7767 13.5329 19.7767 13.2244V12.2138H22.0276V21.1449H9.98976L9.98956 12.2138ZM22.0222 22.3637C22.0222 23.4975 21.076 24.4212 19.9101 24.4212H12.1016C10.9308 24.4212 9.98955 23.4927 9.98955 22.3637V22.2587H22.0222V22.3637Z" fill="#1476F2" stroke="#1476F2" stroke-width="0.3"/>
</g>
<defs>
<clipPath id="clip0_1765_1951">
<rect width="32" height="32" fill="white"/>
</clipPath>
</defs>
</svg>
