<svg xmlns="http://www.w3.org/2000/svg" width="68" height="64" viewBox="0 0 68 64" fill="none">
  <path d="M62.2575 62.9507H5.8939C3.49844 62.9507 1.66663 61.1189 1.66663 58.7235V55.9053H27.0303L28.4394 57.3144H39.7121L41.1212 55.9053H66.4848V58.7235C66.4848 61.1189 64.653 62.9507 62.2575 62.9507Z" stroke="#1476F2" stroke-width="1.5" stroke-miterlimit="10" stroke-linejoin="round"/>
  <path d="M5.89392 55.9052V48.8597" stroke="#1476F2" stroke-width="1.5" stroke-miterlimit="10" stroke-linejoin="round"/>
  <path d="M39.712 16.4507H59.4393C60.9893 16.4507 62.2575 17.7189 62.2575 19.2689V55.9052" stroke="#1476F2" stroke-width="1.5" stroke-miterlimit="10" stroke-linejoin="round"/>
  <path d="M29.8485 33.3597H19.9849" stroke="#1476F2" stroke-width="1.5" stroke-miterlimit="10" stroke-linejoin="round"/>
  <path d="M53.803 33.3597H43.9393" stroke="#1476F2" stroke-width="1.5" stroke-miterlimit="10" stroke-linejoin="round"/>
  <path d="M24.2121 37.587L19.9849 33.3597L24.2121 29.1324" stroke="#1476F2" stroke-width="1.5" stroke-miterlimit="10" stroke-linejoin="round"/>
  <path d="M49.5757 37.587L53.803 33.3597L49.5757 29.1324" stroke="#1476F2" stroke-width="1.5" stroke-miterlimit="10" stroke-linejoin="round"/>
  <path d="M36.8939 29.1325V2.35977C36.8939 1.51432 36.3303 0.950684 35.4848 0.950684H8.71208L1.66663 7.99614V44.6325C1.66663 45.478 2.23026 46.0416 3.07572 46.0416H35.4848C36.3303 46.0416 36.8939 45.478 36.8939 44.6325V37.587" stroke="#1476F2" stroke-width="1.5" stroke-miterlimit="10" stroke-linejoin="round"/>
  <path d="M4.48486 9.40528H10.1212V3.76892" stroke="#1476F2" stroke-width="1.5" stroke-miterlimit="10" stroke-linejoin="round"/>
  <path d="M32.6666 33.3597H35.4848" stroke="#1476F2" stroke-width="1.5" stroke-miterlimit="10" stroke-linejoin="round"/>
  <path d="M38.303 33.3597H41.1212" stroke="#1476F2" stroke-width="1.5" stroke-miterlimit="10" stroke-linejoin="round"/>
</svg>