<svg xmlns="http://www.w3.org/2000/svg" width="56" height="64" viewBox="0 0 56 64" fill="none">
  <path d="M26.7305 54.6672C29.105 54.6672 30.688 52.6885 30.688 50.1821V48.7311C30.688 46.2247 29.105 44.246 26.7305 44.246C24.3561 44.246 22.7731 46.2247 22.7731 48.7311V50.1821C22.7731 52.6885 24.3561 54.6672 26.7305 54.6672Z" stroke="#1476F2" stroke-width="1.5" stroke-miterlimit="10" stroke-linejoin="round"/>
  <path d="M12.2199 57.3055C14.5944 57.3055 16.1773 55.3268 16.1773 52.8204V51.3694C16.1773 48.863 14.5944 46.8843 12.2199 46.8843C9.84543 46.8843 8.26245 48.863 8.26245 51.3694V52.8204C8.26245 55.3268 9.84543 57.3055 12.2199 57.3055Z" stroke="#1476F2" stroke-width="1.5" stroke-miterlimit="10" stroke-linejoin="round"/>
  <path d="M34.6455 63.9014V58.6248C34.6455 55.3269 29.5008 54.6674 26.7306 54.6674C23.9604 54.6674 18.8157 55.3269 18.8157 58.6248V63.9014" stroke="#1476F2" stroke-width="1.5" stroke-miterlimit="10" stroke-linejoin="round"/>
  <path d="M18.8157 58.8886C17.1008 57.7014 14.0668 57.3057 12.2199 57.3057C9.44973 57.3057 4.30505 57.9652 4.30505 61.2631V63.9014" stroke="#1476F2" stroke-width="1.5" stroke-miterlimit="10" stroke-linejoin="round"/>
  <path d="M41.2413 57.3055C38.8668 57.3055 37.2838 55.3268 37.2838 52.8204V51.3694C37.2838 48.863 38.8668 46.8843 41.2413 46.8843C43.6157 46.8843 45.1987 48.863 45.1987 51.3694V52.8204C45.1987 55.3268 43.6157 57.3055 41.2413 57.3055Z" stroke="#1476F2" stroke-width="1.5" stroke-miterlimit="10" stroke-linejoin="round"/>
  <path d="M34.6455 58.8886C36.3604 57.7014 39.3944 57.3057 41.2413 57.3057C44.0115 57.3057 49.1561 57.9652 49.1561 61.2631V63.9014" stroke="#1476F2" stroke-width="1.5" stroke-miterlimit="10" stroke-linejoin="round"/>
  <path d="M5.62419 1.90137H35.9646C38.2072 1.90137 39.9221 3.61626 39.9221 5.85881V24.3269C39.9221 26.5695 38.2072 28.2843 35.9646 28.2843H18.8157L13.2753 35.6716C12.4838 36.7269 10.9008 36.1992 10.9008 34.8801V28.2843H5.62419C3.38164 28.2843 1.66675 26.5695 1.66675 24.3269V5.85881C1.66675 3.61626 3.38164 1.90137 5.62419 1.90137Z" stroke="#1476F2" stroke-width="1.5" stroke-miterlimit="10" stroke-linejoin="round"/>
  <path d="M24.0923 30.9227V32.2418C24.0923 34.4844 25.8072 36.1993 28.0497 36.1993H38.6029L44.1433 42.6631C44.9348 43.5865 46.5178 43.0588 46.5178 41.7397V36.1993H50.4753C52.7178 36.1993 54.4327 34.4844 54.4327 32.2418V13.7737C54.4327 11.5312 52.7178 9.81628 50.4753 9.81628H42.5604" stroke="#1476F2" stroke-width="1.5" stroke-miterlimit="10" stroke-linejoin="round"/>
</svg>