<svg xmlns="http://www.w3.org/2000/svg" width="59" height="64" viewBox="0 0 59 64" fill="none">
  <path d="M40.5745 55.9865V52.029C40.5745 48.3354 33.0553 46.7524 29.3617 46.7524C25.6681 46.7524 18.1489 48.3354 18.1489 52.029V55.9865" stroke="#1476F2" stroke-width="1.5" stroke-miterlimit="10" stroke-linejoin="round"/>
  <path d="M29.3617 42.795C32.1319 42.795 33.9787 40.5524 33.9787 37.7822V36.0673C33.9787 33.2971 32.1319 31.0546 29.3617 31.0546C26.5914 31.0546 24.7446 33.2971 24.7446 36.0673V37.7822C24.7446 40.5524 26.5914 42.795 29.3617 42.795Z" stroke="#1476F2" stroke-width="1.5" stroke-miterlimit="10" stroke-linejoin="round"/>
  <path d="M9.57442 45.4333C6.80421 45.4333 4.9574 43.1908 4.9574 40.2887V38.5738C4.9574 35.8036 6.80421 33.4291 9.57442 33.4291C12.3446 33.4291 14.1914 35.6716 14.1914 38.5738V40.2887C14.1914 43.0589 12.3446 45.4333 9.57442 45.4333Z" stroke="#1476F2" stroke-width="1.5" stroke-miterlimit="10" stroke-linejoin="round"/>
  <path d="M49.1489 45.4333C51.9191 45.4333 53.7659 43.1908 53.7659 40.2887V38.5738C53.7659 35.8036 51.9191 33.4291 49.1489 33.4291C46.3787 33.4291 44.5319 35.6716 44.5319 38.5738V40.2887C44.5319 43.0589 46.3787 45.4333 49.1489 45.4333Z" stroke="#1476F2" stroke-width="1.5" stroke-miterlimit="10" stroke-linejoin="round"/>
  <path d="M57.7234 63.9014V53.3482C57.7234 51.2376 55.8766 49.3907 53.7659 49.3907H49.8085L43.2127 55.9865H35.2978C35.2978 55.9865 34.7702 61.2631 39.2553 61.2631C41.8936 61.2631 47.1702 61.2631 47.1702 61.2631L52.4468 55.9865" stroke="#1476F2" stroke-width="1.5" stroke-miterlimit="10" stroke-linejoin="round"/>
  <path d="M1 63.9014V53.3482C1 51.2376 2.71489 49.3907 4.95745 49.3907H8.91489L15.5106 55.9865H23.4255C23.4255 55.9865 23.9532 61.2631 19.4681 61.2631C16.8298 61.2631 11.5532 61.2631 11.5532 61.2631L6.2766 55.9865" stroke="#1476F2" stroke-width="1.5" stroke-miterlimit="10" stroke-linejoin="round"/>
  <path d="M48.4894 59.944V63.9014" stroke="#1476F2" stroke-width="1.5" stroke-miterlimit="10" stroke-linejoin="round"/>
  <path d="M10.234 59.944V63.9014" stroke="#1476F2" stroke-width="1.5" stroke-miterlimit="10" stroke-linejoin="round"/>
  <path d="M19.4681 61.2631H39.2554" stroke="#1476F2" stroke-width="1.5" stroke-miterlimit="10" stroke-linejoin="round"/>
  <path d="M12.8723 1.90137H47.1702C48.6212 1.90137 49.8085 3.0886 49.8085 4.53966V23.0077C49.8085 24.4588 48.6212 25.646 47.1702 25.646H41.8936V31.3184C41.8936 32.5056 40.3106 33.1652 39.5191 32.2418L33.9787 25.646H12.8723C11.4212 25.646 10.234 24.4588 10.234 23.0077V4.53966C10.234 3.0886 11.4212 1.90137 12.8723 1.90137Z" stroke="#1476F2" stroke-width="1.5" stroke-miterlimit="10" stroke-linejoin="round"/>
</svg>