<svg xmlns="http://www.w3.org/2000/svg" width="63" height="64" viewBox="0 0 63 64" fill="none">
  <path d="M29.6377 62.9507L1.33337 50.8202V31.9507" stroke="#1476F2" stroke-width="1.5" stroke-miterlimit="10" stroke-linejoin="round"/>
  <path d="M39.0724 29.2551V25.2116V23.8638L29.6377 19.8203L20.2029 23.8638" stroke="#1476F2" stroke-width="1.5" stroke-miterlimit="10" stroke-linejoin="round"/>
  <path d="M29.6377 62.9508L39.0725 58.9073V56.2117" stroke="#1476F2" stroke-width="1.5" stroke-miterlimit="10" stroke-linejoin="round"/>
  <path d="M10.7682 26.5593L1.33337 30.6028V31.9506L10.7682 35.9941" stroke="#1476F2" stroke-width="1.5" stroke-miterlimit="10" stroke-linejoin="round"/>
  <path d="M39.0724 25.2117L29.6377 29.2551L20.2029 25.2117" stroke="#1476F2" stroke-width="1.5" stroke-miterlimit="10" stroke-linejoin="round"/>
  <path d="M10.7682 4.99416L20.203 0.950684L29.6378 4.99416V6.34199L20.203 10.3855L10.7682 6.34199V4.99416Z" stroke="#1476F2" stroke-width="1.5" stroke-miterlimit="10" stroke-linejoin="round"/>
  <path d="M10.7682 6.34204V54.8638" stroke="#1476F2" stroke-width="1.5" stroke-miterlimit="10" stroke-linejoin="round"/>
  <path d="M20.2029 10.3855V58.9072" stroke="#1476F2" stroke-width="1.5" stroke-miterlimit="10" stroke-linejoin="round"/>
  <path d="M29.6377 29.2551V62.9508" stroke="#1476F2" stroke-width="1.5" stroke-miterlimit="10" stroke-linejoin="round"/>
  <path d="M29.6377 4.99414V19.8202" stroke="#1476F2" stroke-width="1.5" stroke-miterlimit="10" stroke-linejoin="round"/>
  <path d="M45.8117 53.5159C51.7667 53.5159 56.5943 48.6884 56.5943 42.7333C56.5943 36.7782 51.7667 31.9507 45.8117 31.9507C39.8566 31.9507 35.0291 36.7782 35.0291 42.7333C35.0291 48.6884 39.8566 53.5159 45.8117 53.5159Z" stroke="#1476F2" stroke-width="1.5" stroke-miterlimit="10" stroke-linejoin="round"/>
  <path d="M54.0333 49.6072L61.9855 57.5593" stroke="#1476F2" stroke-width="1.5" stroke-miterlimit="10" stroke-linejoin="round"/>
  <path d="M40.4203 42.7333C40.4203 39.7681 42.8464 37.342 45.8116 37.342" stroke="#1476F2" stroke-width="1.5" stroke-miterlimit="10"/>
</svg>