<svg width="45" height="45" viewBox="0 0 45 45" fill="none" xmlns="http://www.w3.org/2000/svg">
<rect x="0.65" y="0.65" width="43.7" height="43.7" rx="21.85" stroke="#1476F2" stroke-width="1.3"/>
<path fill-rule="evenodd" clip-rule="evenodd" d="M25.7955 34.1989H19.8114L20.5594 29.8904H25.0475L25.7955 34.1989V34.1989Z" stroke="#1476F2" stroke-width="1.3" stroke-linecap="round" stroke-linejoin="round"/>
<path d="M17.5674 34.1987H28.0395" stroke="#1476F2" stroke-width="1.3" stroke-linecap="round" stroke-linejoin="round"/>
<path fill-rule="evenodd" clip-rule="evenodd" d="M11.5834 13.6562C11.5834 13.104 12.0311 12.6562 12.5834 12.6562H33.0235C33.5758 12.6562 34.0235 13.104 34.0235 13.6563V28.8903C34.0235 29.4426 33.5758 29.8903 33.0235 29.8903H12.5834C12.0311 29.8903 11.5834 29.4426 11.5834 28.8903V13.6562Z" stroke="#1476F2" stroke-width="1.3" stroke-linecap="round" stroke-linejoin="round"/>
<path d="M11.5834 23.9063L17.1662 19.2551C17.364 19.0901 17.6324 18.9975 17.9122 18.9975C18.192 18.9975 18.4604 19.0901 18.6582 19.2551L21.3849 21.5273C21.5827 21.6923 21.8511 21.785 22.131 21.785C22.4108 21.785 22.6792 21.6923 22.877 21.5273L28.4584 16.875" stroke="#1476F2" stroke-width="1.3" stroke-linecap="round" stroke-linejoin="round"/>
<path d="M11.5834 27.0179H34.0235" stroke="#1476F2" stroke-width="1.3" stroke-linecap="round" stroke-linejoin="round"/>
</svg>
