<svg height="84" viewBox="0 0 81 84" width="81" xmlns="http://www.w3.org/2000/svg" xmlns:xlink="http://www.w3.org/1999/xlink"><filter id="a" height="113.3%" width="104.3%" x="-2.1%" y="-5.8%"><feOffset dy="3" in="SourceAlpha" result="shadowOffsetOuter1"/><feGaussianBlur in="shadowOffsetOuter1" result="shadowBlurOuter1" stdDeviation="7.5"/><feColorMatrix in="shadowBlurOuter1" result="shadowMatrixOuter1" values="0 0 0 0 0 0 0 0 0 0 0 0 0 0 0 0 0 0 0.03 0"/><feMerge><feMergeNode in="shadowMatrixOuter1"/><feMergeNode in="SourceGraphic"/></feMerge></filter><g fill="none" fill-rule="evenodd" filter="url(#a)" stroke-linejoin="round" transform="translate(-380 -220)"><path d="m422.045 239.45c0-2.474.217-7.45-6.153-7.45-5.075 0-9.69 5.47-9.843 8.69-3.827.515-7.462 4.287-6.957 9.106-3.637 1.798-6.275 11.402-1.53 15.957-.862 3.917 1.792 12.89 9.717 12.183 1.93 10.462 14.766 10.15 14.766 2.483v-6.208m-7.727-26.011c-4.416 0-8.5-.729-8.5-7.714" stroke="#323232"/><path d="m406.59 256.724c2.081 1.324 5.602.8 7.492-1.133 1.396-1.426 2.886-3.69 4.424-3.525h19.767m-22.409 21.591c.915-1.837 3.112-2.314 6.224-2.314h16.185" stroke="#3f7fe7"/><path d="m408.91 270.571c-2.053-.321-3.865-2.253-3.865-3.857m2.319 10.8c0-4.712 2.603-10.8 9.272-10.8" stroke="#323232"/><path d="m402.727 252.829c2.134 0 3.864 1.551 3.864 3.743 0 1.73-1.075 3.426-2.575 3.97m25.757-19.285h-7.518c-3.406 0-6.758-.467-7.937-3.086" stroke="#3f7fe7"/><path d="m422.045 244.343v7.714m0 3.086v13.886" stroke="#323232"/><path d="m422.045 261.314h7.728m-5.409 20.057h4.636m17-29.314a3.86 3.86 0 0 1 -3.864 3.857 3.86 3.86 0 0 1 -3.863-3.857 3.86 3.86 0 0 1 3.863-3.857 3.86 3.86 0 0 1 3.864 3.857zm-9.273-10.028a3.86 3.86 0 0 1 -3.863 3.857 3.86 3.86 0 0 1 -3.864-3.857 3.86 3.86 0 0 1 3.864-3.858 3.86 3.86 0 0 1 3.863 3.858zm0 20.057a3.86 3.86 0 0 1 -3.863 3.857 3.86 3.86 0 0 1 -3.864-3.857 3.86 3.86 0 0 1 3.864-3.857 3.86 3.86 0 0 1 3.863 3.857zm0 19.285a3.86 3.86 0 0 1 -3.863 3.858 3.86 3.86 0 0 1 -3.864-3.859 3.86 3.86 0 0 1 3.864-3.857 3.86 3.86 0 0 1 3.863 3.857zm9.273-10.028a3.86 3.86 0 0 1 -3.864 3.857 3.86 3.86 0 0 1 -3.863-3.857 3.86 3.86 0 0 1 3.863-3.857 3.86 3.86 0 0 1 3.864 3.857z" stroke="#3f7fe7"/></g></svg>