<svg enable-background="new 0 0 85 84" viewBox="0 0 85 84" xmlns="http://www.w3.org/2000/svg"><g fill="none"><g stroke="#505050"><path d="m49.2 67.2-4.7 4.6 4.7 4.7"/><path d="m44.5 71.8h26.3c2.6 0 4.6-2.1 4.6-4.7v-27.9"/><path d="m36.8 14.4 4.7-4.6-4.7-4.7"/><path d="m41.5 9.8h-26.3c-2.6 0-4.6 2.1-4.6 4.7v27.9"/></g><path d="m19.8 61h46.4v-40.4h-46.4z" stroke="#1476f2"/><path d="m24.5 25.3h3.1m1.5 0h3.1m-12.4 4.6h46.4" stroke="#1476f2"/><path d="m26 54.8h15.5v-18.7h-15.5z" stroke="#505050"/><path d="m46.1 36.1h15.5m-15.5 6.3h15.5m-15.5 6.2h9.3m20.1-12.5v-3.1m0-3.1v-3.1m-65 28v-3.1m0-3.1v-3.1" stroke="#505050"/></g></svg>