<svg xmlns="http://www.w3.org/2000/svg" width="57" height="50" viewBox="0 0 57 50" fill="none">
  <path d="M55.2826 42.0435H1.71739C0.986956 42.0435 0.5 41.5565 0.5 40.8261V1.86957C0.5 1.13913 0.986956 0.652176 1.71739 0.652176H55.2826C56.013 0.652176 56.5 1.13913 56.5 1.86957V40.8261C56.5 41.5565 56.013 42.0435 55.2826 42.0435Z" stroke="#323232" stroke-miterlimit="10"/>
  <path d="M34.587 44.4783V49.3478" stroke="#323232" stroke-miterlimit="10"/>
  <path d="M23.6304 49.3478V44.4783" stroke="#323232" stroke-miterlimit="10"/>
  <path d="M39.4565 49.3478H18.7609" stroke="#323232" stroke-miterlimit="10"/>
  <path d="M0.5 34.7391H56.5" stroke="#323232" stroke-miterlimit="10"/>
  <path d="M27.2826 38.3913H30.9348" stroke="#323232" stroke-miterlimit="10"/>
  <path d="M4.15218 5.52174H13.8913" stroke="#1476F2" stroke-miterlimit="10"/>
  <path d="M9.02174 10.3913H12.6739" stroke="#1476F2" stroke-miterlimit="10"/>
  <path d="M13.8913 10.3913H28.5" stroke="#1476F2" stroke-miterlimit="10"/>
  <path d="M9.02174 15.2609H19.9783" stroke="#1476F2" stroke-miterlimit="10"/>
  <path d="M21.1956 15.2609H26.0652" stroke="#1476F2" stroke-miterlimit="10"/>
  <path d="M9.02174 25H12.6739" stroke="#1476F2" stroke-miterlimit="10"/>
  <path d="M13.8913 25H37.0217" stroke="#1476F2" stroke-miterlimit="10"/>
  <path d="M9.02174 29.8696H19.9783" stroke="#1476F2" stroke-miterlimit="10"/>
  <path d="M21.1956 29.8696H26.0652" stroke="#1476F2" stroke-miterlimit="10"/>
  <path d="M4.15218 20.1304H15.1087" stroke="#1476F2" stroke-miterlimit="10"/>
</svg>