<svg width="20" height="21" viewBox="0 0 20 21" fill="none" xmlns="http://www.w3.org/2000/svg">
<path fill-rule="evenodd" clip-rule="evenodd" d="M13.33 3.47719C11.7184 2.7591 9.91785 2.5812 8.19688 2.97003C6.47592 3.35886 4.92674 4.29358 3.78041 5.63479C2.63408 6.976 1.95201 8.65183 1.83592 10.4124C1.71983 12.1729 2.17595 13.9238 3.13624 15.4039C4.09654 16.884 5.50956 18.014 7.16457 18.6255C8.81958 19.2369 10.6279 19.297 12.3198 18.7967C14.0118 18.2965 15.4967 17.2627 16.5531 15.8496C17.6095 14.4365 18.1808 12.7197 18.1818 10.9554V10.1195C18.1818 9.61744 18.5888 9.21043 19.0909 9.21043C19.593 9.21043 20 9.61744 20 10.1195V10.9559C19.9988 13.1123 19.3005 15.2111 18.0093 16.9382C16.7182 18.6654 14.9033 19.9289 12.8354 20.5403C10.7674 21.1517 8.55726 21.0783 6.53447 20.331C4.51168 19.5837 2.78465 18.2025 1.61096 16.3935C0.437266 14.5844 -0.120209 12.4445 0.0216768 10.2927C0.163562 8.14097 0.997207 6.09273 2.39828 4.45348C3.79935 2.81423 5.69278 1.67179 7.79619 1.19655C9.89959 0.721317 12.1003 0.938744 14.07 1.81641C14.5286 2.02075 14.7347 2.55819 14.5304 3.0168C14.326 3.47541 13.7886 3.68153 13.33 3.47719Z" fill="#5EC792"/>
<path fill-rule="evenodd" clip-rule="evenodd" d="M19.7334 3.03969C20.0886 3.39453 20.0889 3.97014 19.7341 4.32534L10.6432 13.4253C10.4727 13.596 10.2414 13.6919 10.0002 13.6919C9.75905 13.692 9.52773 13.5962 9.35719 13.4257L6.62991 10.6984C6.27489 10.3434 6.27489 9.76776 6.62991 9.41274C6.98494 9.05771 7.56054 9.05771 7.91556 9.41274L9.99969 11.4969L18.4478 3.04033C18.8026 2.68513 19.3782 2.68484 19.7334 3.03969Z" fill="#5EC792"/>
</svg>
