<svg width="45" height="45" viewBox="0 0 45 45" fill="none" xmlns="http://www.w3.org/2000/svg">
<rect x="0.65" y="0.65" width="43.7" height="43.7" rx="21.85" stroke="#1476F2" stroke-width="1.3"/>
<g clip-path="url(#clip0_42_4616)">
<path fill-rule="evenodd" clip-rule="evenodd" d="M21.375 25.533C21.375 24.5273 24.0497 23.625 25.3125 23.625C26.5753 23.625 29.25 24.5273 29.25 25.533C29.4598 25.1717 29.7139 24.8159 30.0125 24.4657C29.0266 23.1023 26.3043 22.5 25.3125 22.5C24.3689 22.5 21.8585 23.0453 20.7679 24.2726C21.1751 25.0528 21.375 25.533 21.375 25.533ZM23.625 18.5526C23.625 17.6273 24.3821 16.8752 25.3125 16.8752C26.2429 16.8752 27 17.6273 27 18.5526V19.1382C27 20.0629 26.2429 20.8155 25.3125 20.8155C24.3821 20.8155 23.625 20.0629 23.625 19.1382V18.5526ZM25.3125 21.9405C26.8633 21.9405 28.125 20.6834 28.125 19.1382V18.5526C28.125 17.0069 26.8633 15.7502 25.3125 15.7502C23.7617 15.7502 22.5 17.0069 22.5 18.5526V19.1382C22.5 20.6834 23.7617 21.9405 25.3125 21.9405ZM31.2984 15.4688C31.1601 15.4688 31.0316 15.5184 30.9365 15.6089L29.8134 16.6669C29.7988 16.7114 29.8391 16.9697 30.0871 17.2308L30.1654 17.3138C30.358 17.5163 30.5755 17.6086 30.696 17.6086C30.719 17.6086 30.7288 17.6053 30.7288 17.6053L31.8384 16.5563C32.0563 16.3491 32.0502 15.9858 31.8238 15.7472L31.7451 15.6642C31.6274 15.54 31.4643 15.4688 31.2984 15.4688ZM30.696 18.5461C30.2873 18.5461 29.8349 18.3267 29.4857 17.9588L29.407 17.8763C28.8149 17.2524 28.7104 16.4217 29.1693 15.9863L30.2924 14.9278C30.861 14.3883 31.867 14.4305 32.4252 15.0188L32.5035 15.1017C33.0862 15.7144 33.0768 16.6725 32.4829 17.2369L31.3593 18.2953C31.1873 18.4594 30.9571 18.5461 30.696 18.5461ZM20.7805 33.6077L20.1074 32.9547C20.1454 32.9158 21.0327 32.0022 21.5287 31.5339L21.6787 31.3923L21.8845 31.4078C25.0246 31.6342 26.4126 29.7245 26.9329 29.0041C27.0102 28.8972 27.0716 28.8128 27.119 28.7575L27.8315 29.3673C27.7959 29.4086 27.7509 29.4728 27.6927 29.5534C27.1574 30.2955 25.5482 32.5216 22.0265 32.3552C21.5296 32.8361 20.7885 33.5992 20.7805 33.6077Z" fill="#1476F2"/>
<path fill-rule="evenodd" clip-rule="evenodd" d="M31.3538 24.3077C31.2146 24.3077 31.0852 24.3653 30.9985 24.4661L30.0568 25.5489C30.0577 25.5798 30.1172 25.7908 30.3441 25.9867L30.4233 26.0552C30.6005 26.208 30.7777 26.2623 30.8757 26.2623C30.9066 26.2623 30.9193 26.2567 30.9193 26.2567L31.8408 25.1908C32.011 24.993 31.98 24.6831 31.7696 24.5017L31.6913 24.4347C31.5966 24.3527 31.4771 24.3077 31.3538 24.3077ZM30.8757 27.1998C30.5194 27.1998 30.1313 27.0409 29.8107 26.7644L29.7314 26.6964C29.1202 26.1691 28.9514 25.3952 29.348 24.9353L30.2893 23.852C30.7763 23.2881 31.7255 23.2253 32.3035 23.7245L32.3818 23.7916C32.9836 24.3109 33.0586 25.2138 32.5491 25.8044L31.6078 26.8872C31.4344 27.0883 31.1743 27.1998 30.8757 27.1998ZM21.3553 30.1547L20.4703 29.8453C21.4678 26.9962 20.3676 24.5208 19.6467 23.6104L19.4897 23.4117L19.5694 23.1717C19.934 22.0748 20.092 21.2845 20.2209 19.9195C20.2706 19.3926 20.0953 18.8447 19.6997 18.2906C19.62 18.1795 19.4662 18.1608 19.3603 18.1767C19.2689 18.1917 19.1611 18.24 19.1325 18.3318C18.8644 19.1911 18.6722 19.8309 18.5156 20.3522C18.2269 21.3154 18.0525 21.8972 17.7384 22.7128C17.4572 23.4436 17.4337 24.3951 17.4145 25.1597C17.3986 25.8192 17.3864 26.2959 17.2359 26.6189C17.1928 26.7112 16.8286 27.3018 16.1531 28.3743L15.36 27.8756C15.8184 27.1467 16.3359 26.3161 16.3922 26.2106C16.454 26.077 16.4672 25.5553 16.4775 25.1367C16.4981 24.2995 16.5239 23.2579 16.8633 22.3758C17.1647 21.5929 17.3255 21.0567 17.618 20.0831C17.775 19.559 17.9676 18.9154 18.2376 18.0525C18.3689 17.6329 18.7425 17.3264 19.2126 17.2514C19.7086 17.1726 20.1886 17.3615 20.4628 17.7459C20.993 18.4884 21.2255 19.2492 21.1542 20.0076C21.0272 21.3558 20.8715 22.1775 20.535 23.234C21.4036 24.4697 22.4212 27.1087 21.3553 30.1547Z" fill="#1476F2"/>
<path fill-rule="evenodd" clip-rule="evenodd" d="M31.3825 21.3162C31.2381 21.3162 31.1041 21.3757 31.0146 21.4803L30.0564 22.5818C30.0546 22.617 30.1136 22.8349 30.3499 23.0384L30.43 23.1078C30.6124 23.2648 30.7956 23.3206 30.8964 23.3206C30.9297 23.3206 30.9438 23.3154 30.9438 23.3154L31.8836 22.2274C31.9666 22.1318 32.0064 22.0053 31.9947 21.8721C31.9825 21.7343 31.9174 21.6078 31.811 21.5164L31.7294 21.4451C31.6333 21.3626 31.5096 21.3162 31.3825 21.3162ZM30.8964 24.2581C30.536 24.2581 30.1427 24.0978 29.8178 23.8179L29.7377 23.7481C29.1189 23.2151 28.9474 22.4332 29.3477 21.9687L30.3058 20.8662C30.798 20.2957 31.7585 20.2329 32.343 20.7364L32.4246 20.8071C32.7152 21.0579 32.8947 21.4071 32.9285 21.7901C32.9627 22.1778 32.8431 22.5514 32.5928 22.8415L31.6347 23.9431C31.4603 24.1456 31.1974 24.2581 30.8964 24.2581Z" fill="#1476F2"/>
<path fill-rule="evenodd" clip-rule="evenodd" d="M31.3823 18.4433C31.2384 18.4433 31.1043 18.5033 31.0143 18.6078L30.0562 19.7094C30.0544 19.7445 30.1139 19.962 30.3497 20.1659L30.4308 20.2358C30.6726 20.4448 30.9436 20.4425 30.9436 20.4425L31.8834 19.355C32.0601 19.1506 32.0278 18.8305 31.8108 18.643L31.7311 18.5741C31.6331 18.4897 31.5093 18.4433 31.3823 18.4433ZM30.8962 21.3856C30.5353 21.3856 30.142 21.2253 29.8176 20.9455L29.7365 20.8747C29.1183 20.3417 28.9472 19.5598 29.3475 19.0958L30.3056 17.9937C30.7978 17.4228 31.7587 17.3591 32.3433 17.8644L32.4229 17.9328C33.0319 18.4578 33.1078 19.3709 32.5926 19.9691L31.6345 21.0706C31.4597 21.2736 31.1967 21.3856 30.8962 21.3856Z" fill="#1476F2"/>
<path fill-rule="evenodd" clip-rule="evenodd" d="M24.1942 28.125H25.6005V27.1873H24.1942V28.125Z" fill="#1476F2"/>
<path fill-rule="evenodd" clip-rule="evenodd" d="M19.9753 17.8125H19.0378V13.1245C19.0378 12.6239 19.2328 12.1533 19.5872 11.7989C19.9411 11.445 20.4122 11.25 20.9128 11.25H28.8816C29.9157 11.25 30.7566 12.0909 30.7566 13.125V15.4688H29.8191V13.125C29.8191 12.608 29.3986 12.1875 28.8816 12.1875H20.9128C20.6625 12.1875 20.4267 12.285 20.25 12.4622C20.0728 12.6389 19.9753 12.8742 19.9753 13.1245V17.8125ZM28.8816 29.5312H20.9128V28.5938H28.8816C29.3986 28.5938 29.8191 28.1733 29.8191 27.6562V26.7188H30.7566V27.6562C30.7566 28.6903 29.9157 29.5312 28.8816 29.5312Z" fill="#1476F2"/>
<path fill-rule="evenodd" clip-rule="evenodd" d="M20.5813 33.6127L14.8191 27.8505L13.1383 29.5312L16.5566 32.9501L15.894 33.6127L11.8125 29.5312L14.8191 26.5247L21.2439 32.9501L20.5813 33.6127Z" fill="#1476F2"/>
<path fill-rule="evenodd" clip-rule="evenodd" d="M14.9564 30.3311L14.4878 29.8626L15.1504 29.2L15.6195 29.6685L14.9564 30.3311Z" fill="#1476F2"/>
<path fill-rule="evenodd" clip-rule="evenodd" d="M21.3817 26.7188H29.8192V25.7811H21.3817V26.7188Z" fill="#1476F2"/>
<path fill-rule="evenodd" clip-rule="evenodd" d="M19.5063 14.5311H30.2878V13.5939H19.5063V14.5311Z" fill="#1476F2"/>
</g>
<defs>
<clipPath id="clip0_42_4616">
<rect width="22.5" height="22.5" fill="white" transform="translate(11.25 11.25)"/>
</clipPath>
</defs>
</svg>
