<svg width="45" height="45" viewBox="0 0 45 45" fill="none" xmlns="http://www.w3.org/2000/svg">
<g clip-path="url(#clip0_4_3745)">
<circle cx="22.5" cy="22.5" r="21.85" fill="white" stroke="#1476F2" stroke-width="1.3"/>
<path fill-rule="evenodd" clip-rule="evenodd" d="M22.4998 36.5625L11.7127 24.4174C9.77 22.3202 9.28903 19.1161 10.5188 16.464V16.464C11.4361 14.4835 13.1795 13.0998 15.2042 12.7452C17.229 12.3906 19.2882 13.1085 20.7385 14.6744L22.4998 16.5756L24.261 14.6744C25.7117 13.1085 27.7712 12.3907 29.7962 12.7453C31.8213 13.0998 33.565 14.4835 34.4828 16.464V16.464C35.7107 19.1168 35.229 22.3201 33.2868 24.4174L22.4998 36.5625Z" stroke="#1476F2" stroke-width="1.3" stroke-linecap="round" stroke-linejoin="round"/>
<path d="M5.625 27.546H16.0462C16.5269 27.546 16.9396 27.2039 17.0288 26.7316L18.5346 18.7599C18.7454 17.6438 20.3583 17.6874 20.5084 18.8133L21.7642 28.2316C21.9116 29.3369 23.4842 29.408 23.7307 28.3205L24.3372 25.6445C24.5727 24.6059 26.0523 24.6059 26.2878 25.6445L26.5422 26.767C26.6454 27.2226 27.0503 27.546 27.5175 27.546H39.375" stroke="#1476F2" stroke-width="1.3"/>
</g>
<defs>
<clipPath id="clip0_4_3745">
<rect width="45" height="45" fill="white"/>
</clipPath>
</defs>
</svg>
