<svg width="45" height="45" viewBox="0 0 45 45" fill="none" xmlns="http://www.w3.org/2000/svg">
<rect x="0.65" y="0.65" width="43.7" height="43.7" rx="21.85" stroke="#1476F2" stroke-width="1.3"/>
<g clip-path="url(#clip0_41_3445)">
<path fill-rule="evenodd" clip-rule="evenodd" d="M13.3977 32.7273H31.8068V15.3409H13.3977V32.7273ZM13.3977 14.3182H31.8068V12.2727H13.3977V14.3182ZM32.3182 11.25C32.601 11.25 32.8295 11.4791 32.8295 11.7614V33.2386C32.8295 33.5209 32.601 33.75 32.3182 33.75H12.8864C12.6036 33.75 12.375 33.5209 12.375 33.2386V11.7614C12.375 11.4791 12.6036 11.25 12.8864 11.25H32.3182ZM14.4205 13.8068H15.4432V12.7841H14.4205V13.8068ZM16.4659 13.8068H17.4886V12.7841H16.4659V13.8068ZM23.1136 28.4177V22.8556L27.7159 21.1441V26.744L23.1136 28.4177ZM17.4886 21.1441L22.0909 22.8556V28.4177L17.4886 26.744V21.1441ZM22.6023 18.9534L26.6824 20.4369L22.6023 21.9541L18.5221 20.4369L22.6023 18.9534ZM28.4022 19.9741L22.7772 17.9286C22.6641 17.8877 22.5404 17.8877 22.4274 17.9286L16.8024 19.9741C16.6004 20.0477 16.4659 20.2395 16.4659 20.4548V27.1025C16.4659 27.3173 16.6004 27.5095 16.8024 27.5832L22.4274 29.6286C22.4841 29.6491 22.5435 29.6593 22.6023 29.6593C22.6611 29.6593 22.7204 29.6491 22.7772 29.6286L28.4022 27.5832C28.6041 27.5095 28.7386 27.3173 28.7386 27.1025V20.4548C28.7386 20.2395 28.6041 20.0477 28.4022 19.9741Z" fill="#1476F2"/>
</g>
<defs>
<clipPath id="clip0_41_3445">
<rect width="22.5" height="22.5" fill="white" transform="translate(11.25 11.25)"/>
</clipPath>
</defs>
</svg>
