<svg width="45" height="45" viewBox="0 0 45 45" fill="none" xmlns="http://www.w3.org/2000/svg">
<rect x="0.65" y="0.65" width="43.7" height="43.7" rx="21.85" stroke="#1476F2" stroke-width="1.3"/>
<g clip-path="url(#clip0_42_4629)">
<path fill-rule="evenodd" clip-rule="evenodd" d="M11.25 11.6248V31.2524H30.8777V30.2954H12.2074V15.4545H32.7926V28.3801H33.75V11.6248H11.25ZM12.2074 14.4976H32.7926V12.5827H12.2074V14.4976Z" fill="#1476F2"/>
<path fill-rule="evenodd" clip-rule="evenodd" d="M13.1649 14.0186V13.0612H14.1224V14.0186H13.1649ZM15.0798 14.0186V13.0612H16.0373V14.0186H15.0798ZM16.9947 14.0186V13.0612H17.9522V14.0186H16.9947ZM27.0479 25.508V23.5931H28.0053V25.508H27.0479ZM17.9522 25.508V21.6782H18.9096V25.508H17.9522ZM16.0373 25.508V23.1143H16.9947V25.508H16.0373ZM14.1224 25.508V20.242H15.0798V25.508H14.1224ZM25.133 25.508V20.242H26.0904V25.508H25.133ZM23.2181 25.508V21.6782H24.1756V25.508H23.2181Z" fill="#1476F2"/>
<path fill-rule="evenodd" clip-rule="evenodd" d="M25.6117 27.9015C22.972 27.9015 20.8245 25.754 20.8245 23.1143C20.8245 20.4746 22.972 18.3271 25.6117 18.3271C28.2514 18.3271 30.3989 20.4746 30.3989 23.1143C30.3989 25.754 28.2514 27.9015 25.6117 27.9015ZM31.3564 23.1143C31.3564 19.9466 28.7794 17.3696 25.6117 17.3696C22.444 17.3696 19.867 19.9466 19.867 23.1143C19.867 26.282 22.444 28.859 25.6117 28.859C27.0234 28.859 28.316 28.3448 29.3175 27.497L32.9328 31.1123L33.6097 30.4354L29.9944 26.8201C30.8422 25.8186 31.3564 24.5261 31.3564 23.1143Z" fill="#1476F2"/>
</g>
<defs>
<clipPath id="clip0_42_4629">
<rect width="22.5" height="22.5" fill="white" transform="translate(11.25 11.25)"/>
</clipPath>
</defs>
</svg>
