<svg width="45" height="45" viewBox="0 0 45 45" fill="none" xmlns="http://www.w3.org/2000/svg">
<g clip-path="url(#clip0_42_4647)">
<circle cx="22.5" cy="22.5" r="21.85" stroke="#1476F2" stroke-width="1.3"/>
<path fill-rule="evenodd" clip-rule="evenodd" d="M25.4621 34.1988H19.4781L20.2261 29.8903H24.7141L25.4621 34.1988V34.1988Z" stroke="#1476F2" stroke-width="1.3" stroke-linecap="round" stroke-linejoin="round"/>
<path d="M17.2341 34.1988H27.7061" stroke="#1476F2" stroke-width="1.3" stroke-linecap="round" stroke-linejoin="round"/>
<path fill-rule="evenodd" clip-rule="evenodd" d="M11.25 13.6562C11.25 13.104 11.6977 12.6562 12.25 12.6562H32.6902C33.2424 12.6562 33.6902 13.104 33.6902 13.6563V28.8903C33.6902 29.4426 33.2424 29.8903 32.6902 29.8903H12.25C11.6977 29.8903 11.25 29.4426 11.25 28.8903V13.6562Z" stroke="#1476F2" stroke-width="1.3" stroke-linecap="round" stroke-linejoin="round"/>
<path d="M11.25 23.9063L16.8328 19.2551C17.0306 19.0901 17.299 18.9975 17.5788 18.9975C17.8587 18.9975 18.127 19.0901 18.3248 19.2551L21.0516 21.5273C21.2494 21.6923 21.5177 21.785 21.7976 21.785C22.0774 21.785 22.3458 21.6923 22.5436 21.5273L28.125 16.875" stroke="#1476F2" stroke-width="1.3" stroke-linecap="round" stroke-linejoin="round"/>
<path d="M11.25 27.018H33.6902" stroke="#1476F2" stroke-width="1.3" stroke-linecap="round" stroke-linejoin="round"/>
</g>
<defs>
<clipPath id="clip0_42_4647">
<rect width="45" height="45" fill="white"/>
</clipPath>
</defs>
</svg>
