<svg width="45" height="45" viewBox="0 0 45 45" fill="none" xmlns="http://www.w3.org/2000/svg">
<rect x="0.65" y="0.65" width="43.7" height="43.7" rx="21.85" stroke="#1476F2" stroke-width="1.3"/>
<path fill-rule="evenodd" clip-rule="evenodd" d="M31.875 32.8125C32.392 32.8125 32.8125 32.392 32.8125 31.875V30H20.1562V31.875C20.1562 32.392 20.5767 32.8125 21.0937 32.8125H31.875ZM20.1562 29.0625H32.8125V14.5312H20.1562V29.0625ZM21.0937 12.1875C20.5767 12.1875 20.1562 12.608 20.1562 13.125V13.5938H32.8125V13.125C32.8125 12.608 32.392 12.1875 31.875 12.1875H21.0937ZM31.875 11.25C32.9091 11.25 33.75 12.0909 33.75 13.125V31.875C33.75 32.9091 32.9091 33.75 31.875 33.75H21.0937C20.0597 33.75 19.2188 32.9091 19.2188 31.875V13.125C19.2188 12.0909 20.0597 11.25 21.0937 11.25H31.875Z" fill="#1476F2"/>
<path fill-rule="evenodd" clip-rule="evenodd" d="M25.3125 31.8752H27.6564V30.9375H25.3125V31.8752Z" fill="#1476F2"/>
<path fill-rule="evenodd" clip-rule="evenodd" d="M22.0386 17.8286L21.1807 18.6864C21.0931 18.774 21.0434 18.8931 21.0434 19.0178C21.0434 19.142 21.0931 19.2611 21.1807 19.3492L22.8387 21.0062C23.0215 21.1895 23.3182 21.1895 23.5015 21.0062L24.3654 20.1423C24.5206 20.2164 24.6804 20.282 24.8436 20.3397V21.5626C24.8436 21.8214 25.0536 22.0314 25.3123 22.0314H27.6561C27.9153 22.0314 28.1248 21.8214 28.1248 21.5626V20.3397C28.2884 20.282 28.4482 20.2164 28.6034 20.1423L29.4678 21.0062C29.6506 21.1895 29.9473 21.1895 30.1306 21.0062L31.7876 19.3492C31.8757 19.2611 31.925 19.142 31.925 19.0178C31.925 18.8931 31.8757 18.774 31.7876 18.6864L30.9303 17.8286C31.0062 17.6832 31.0756 17.53 31.1365 17.3439H31.8748V16.4064H30.7765C30.5553 16.4064 30.3645 16.5611 30.3181 16.7772C30.2356 17.1643 30.1236 17.3607 29.9417 17.6776C29.8371 17.8609 29.8681 18.092 30.0171 18.2415L30.7934 19.0178L29.7992 20.012L29.0229 19.2362C28.8734 19.0867 28.6418 19.0557 28.4586 19.1607C28.1712 19.3253 27.8595 19.4537 27.5328 19.5428C27.3289 19.5986 27.1873 19.7837 27.1873 19.9951V21.0939H25.7811V19.9951C25.7811 19.7837 25.64 19.5986 25.4361 19.5428C25.1089 19.4537 24.7976 19.3253 24.5098 19.1607C24.3261 19.0557 24.095 19.0867 23.9459 19.2362L23.1701 20.012L22.1754 19.0178L22.9512 18.2415C23.1012 18.092 23.1204 17.8407 23.015 17.6575C22.8453 17.3607 22.7332 17.1643 22.6507 16.7772C22.6043 16.5611 22.4131 16.4064 22.1923 16.4064H21.0936V17.3439H21.8328C21.8923 17.5276 21.9617 17.6809 22.0386 17.8286Z" fill="#1476F2"/>
<path fill-rule="evenodd" clip-rule="evenodd" d="M26.5105 17.5781C27.6735 17.5781 28.6199 16.6317 28.6199 15.4688H27.6824C27.6824 16.1147 27.1564 16.6406 26.5105 16.6406C25.8645 16.6406 25.3386 16.1147 25.3386 15.4688H24.4011C24.4011 16.6317 25.3475 17.5781 26.5105 17.5781ZM16.875 15.4688V16.7077C16.5666 16.807 16.2675 16.9308 15.9797 17.078L15.1041 16.2023C14.9208 16.0191 14.6241 16.0191 14.4412 16.2023L12.4523 18.1912C12.2691 18.3741 12.2691 18.6708 12.4523 18.8541L13.328 19.7297C13.1808 20.0175 13.057 20.3166 12.9577 20.625H11.7188C11.46 20.625 11.25 20.835 11.25 21.0937V23.9062C11.25 24.165 11.46 24.375 11.7188 24.375H12.9577C13.057 24.6834 13.1808 24.9825 13.328 25.2703L12.4523 26.1459C12.2691 26.3292 12.2691 26.6259 12.4523 26.8087L14.4412 28.7977C14.6241 28.9809 14.9208 28.9809 15.1041 28.7977L15.9797 27.922C16.2675 28.0692 16.5666 28.193 16.875 28.2923V29.5312C16.875 29.79 17.085 30 17.3438 30H18.75V29.0625H17.8125V27.9408C17.8125 27.727 17.6677 27.54 17.4609 27.487C16.9941 27.3666 16.5483 27.1819 16.1353 26.9381C15.9506 26.8289 15.7162 26.8589 15.5658 27.0103L14.7727 27.8034L13.4466 26.4773L14.2397 25.6842C14.3911 25.5333 14.4206 25.2989 14.3119 25.1147C14.0681 24.7017 13.8834 24.2559 13.763 23.7891C13.71 23.5823 13.523 23.4375 13.3092 23.4375H12.1875V21.5625H13.3092C13.523 21.5625 13.71 21.4177 13.763 21.2109C13.8834 20.7441 14.0681 20.2983 14.3119 19.8853C14.4206 19.7011 14.3911 19.4667 14.2397 19.3158L13.4466 18.5227L14.7727 17.1966L15.5658 17.9897C15.7167 18.1416 15.9516 18.1711 16.1353 18.0619C16.5483 17.8181 16.9941 17.6334 17.4609 17.513C17.6677 17.46 17.8125 17.273 17.8125 17.0592V15.9375H18.75V15H17.3438C17.085 15 16.875 15.21 16.875 15.4688Z" fill="#1476F2"/>
<path fill-rule="evenodd" clip-rule="evenodd" d="M15.4688 22.5C15.4688 24.3094 16.9406 25.7812 18.75 25.7812V24.8437C17.4577 24.8437 16.4063 23.7923 16.4063 22.5C16.4063 21.2077 17.4577 20.1562 18.75 20.1562V19.2188C16.9406 19.2188 15.4688 20.6906 15.4688 22.5Z" fill="#1476F2"/>
</svg>
