
<svg width="45" height="46" viewBox="0 0 45 46" fill="none" xmlns="http://www.w3.org/2000/svg">
  <rect x="0.65" y="1.60068" width="43.7" height="43.7" rx="21.85" stroke="#1476F2" stroke-width="1.3"/>
  <g clip-path="url(#clip0_911_10935)">
    <path fill-rule="evenodd" clip-rule="evenodd" d="M21.9836 14.0888L26.8024 18.9057L25.81 19.8985C25.585 20.1235 25.3727 20.3743 25.3492 20.6813C25.3216 21.0362 25.5583 21.2729 25.6717 21.3863C25.8386 21.5532 26.0481 21.6244 26.2511 21.6933C26.582 21.8058 26.7231 21.8738 26.7897 22.1016C26.8427 22.2826 26.702 22.6599 26.3636 22.9876C26.0327 23.3297 25.6502 23.4516 25.4884 23.4029C25.2606 23.3368 25.1927 23.1952 25.0797 22.8647C25.0108 22.6618 24.94 22.4522 24.7731 22.2854C24.6597 22.1719 24.4488 21.961 24.1244 21.961C23.793 21.961 23.5249 22.1837 23.2849 22.4237L21.9747 23.7338L20.5961 22.3562C20.5272 22.2868 20.4817 22.2357 20.4517 22.1987C20.4864 22.1752 20.6003 22.1368 20.6758 22.111C21.0222 21.9929 21.603 21.7955 21.813 21.0783C21.9752 20.5233 21.715 19.8118 21.1605 19.2769C20.6238 18.7219 19.9009 18.4529 19.3478 18.6141C18.6306 18.8246 18.4333 19.4049 18.3156 19.7513C18.2894 19.8287 18.2495 19.9454 18.2336 19.9693C18.2317 19.9712 18.2294 19.973 18.2275 19.9754C18.1909 19.9454 18.1399 19.8999 18.0705 19.831L17.1559 18.9169L21.9836 14.0888ZM18.2477 20.9565C18.572 20.9565 18.783 20.7455 18.8969 20.6316C19.0633 20.4657 19.1345 20.2557 19.203 20.0532C19.3159 19.7222 19.3839 19.5807 19.6108 19.5141C19.8109 19.4579 20.2052 19.6379 20.4981 19.9402C20.8253 20.2562 20.9659 20.633 20.913 20.8149C20.8464 21.0422 20.7049 21.1107 20.3734 21.2237C20.1714 21.2926 19.9619 21.3638 19.795 21.5302C19.6816 21.6437 19.4449 21.8804 19.4725 22.2352C19.4959 22.5427 19.7083 22.7935 19.9333 23.019L21.9747 25.0594L23.9477 23.0865C24.017 23.0176 24.0681 22.9721 24.1047 22.9426C24.1281 22.9772 24.1666 23.0907 24.1924 23.1662C24.31 23.5126 24.5074 24.0929 25.225 24.3029C25.3342 24.3347 25.4505 24.3512 25.5705 24.3512C26.058 24.3512 26.6064 24.0849 27.0264 23.6504C27.5917 23.1043 27.8524 22.3927 27.6897 21.8377C27.4797 21.1205 26.8989 20.9232 26.5525 20.8055C26.4752 20.7793 26.3584 20.7394 26.3345 20.7235L26.3294 20.7183C26.3589 20.6808 26.4044 20.6302 26.4728 20.5613L28.128 18.9057L21.9836 12.7632L15.8303 18.9169L17.4077 20.4938C17.6481 20.7343 17.9163 20.9565 18.2477 20.9565Z" fill="#1476F2" stroke="#1476F2" stroke-width="0.1"/>
    <path fill-rule="evenodd" clip-rule="evenodd" d="M31.7308 23.3301C31.6853 23.2846 31.6516 23.2476 31.6258 23.2185C31.6699 23.1998 31.7383 23.1763 31.7917 23.1581C32.1199 23.047 32.6697 22.8599 32.8694 22.177C33.0236 21.6496 32.778 20.9756 32.2549 20.4707C31.7397 19.9373 31.0671 19.6926 30.5374 19.8454C29.8549 20.0456 29.6683 20.5949 29.5563 20.9226C29.5371 20.9793 29.5122 21.0529 29.4972 21.0904C29.4682 21.0646 29.4307 21.0304 29.3842 20.984L28.7692 20.369L28.1064 21.0318L28.7214 21.6468C28.9352 21.8606 29.1738 22.0617 29.4705 22.0846C29.8071 22.1057 30.0419 21.884 30.1511 21.7752C30.3114 21.6149 30.3817 21.4073 30.4441 21.2249C30.5467 20.9226 30.6044 20.8031 30.8008 20.7454C30.9588 20.6995 31.2996 20.8317 31.5925 21.134C31.8841 21.4152 32.0149 21.7579 31.9694 21.914C31.9117 22.1104 31.7922 22.1681 31.4899 22.2702C31.3075 22.3326 31.0999 22.4029 30.9396 22.5632C30.3667 23.136 30.6832 23.6076 31.068 23.9929L32.2619 25.1863L31.0047 26.4431C30.9592 26.4881 30.9222 26.5227 30.8932 26.5476C30.8744 26.504 30.8505 26.4351 30.8322 26.3812C30.7207 26.0531 30.5336 25.5042 29.8507 25.304C29.3214 25.1498 28.6497 25.3949 28.1444 25.9176C27.6105 26.4337 27.3653 27.1077 27.52 27.6346C27.7197 28.3171 28.2686 28.5037 28.5967 28.6152C28.6544 28.6345 28.728 28.6598 28.7655 28.6743C28.7397 28.7043 28.705 28.7418 28.6586 28.7882L27.8332 29.6132L23.4321 25.2135L22.7692 25.8763L27.8332 30.9388L29.3214 29.451C29.5352 29.2377 29.7367 28.9987 29.7592 28.702C29.786 28.3574 29.5586 28.1301 29.4503 28.0218C29.29 27.861 29.0824 27.7907 28.8991 27.7279C28.5967 27.6252 28.4777 27.5676 28.42 27.3707C28.3741 27.2151 28.5049 26.8729 28.8072 26.5804C29.0885 26.2888 29.4321 26.1581 29.5872 26.204C29.7846 26.2617 29.8422 26.3812 29.9444 26.6831C30.0072 26.8663 30.078 27.074 30.2374 27.2334C30.3386 27.3346 30.5491 27.5451 30.8636 27.5456C31.1833 27.5456 31.4392 27.3342 31.6675 27.1059L33.5875 25.1863L31.7308 23.3301ZM17.3946 32.7514L12.5758 27.9345L13.5682 26.9417C13.7932 26.7167 14.0055 26.4659 14.0289 26.1584C14.0566 25.8031 13.8199 25.5668 13.7064 25.4539C13.5396 25.287 13.33 25.2157 13.1271 25.1468C12.7961 25.0343 12.655 24.9664 12.5885 24.7385C12.5355 24.5576 12.6761 24.1803 13.0146 23.8526C13.2953 23.5624 13.6985 23.381 13.8897 23.4373C14.1175 23.5034 14.1855 23.6449 14.2985 23.9754C14.3674 24.1784 14.4386 24.3884 14.605 24.5543C14.7185 24.6682 14.9294 24.8796 15.2542 24.8792C15.5852 24.8792 15.8533 24.6565 16.0938 24.4165L17.4035 23.1064L18.7821 24.484C18.851 24.5534 18.8964 24.6045 18.9264 24.641C18.8917 24.6649 18.7778 24.7034 18.7024 24.7292C18.3555 24.8473 17.7752 25.0446 17.5652 25.7618C17.4035 26.3164 17.6636 27.0279 18.2177 27.5632C18.7549 28.1182 19.4777 28.3873 20.0303 28.226C20.7471 28.0151 20.9444 27.4357 21.0625 27.0893C21.0888 27.012 21.1286 26.8953 21.145 26.8709L21.1507 26.8653C21.1877 26.8953 21.2383 26.9407 21.3077 27.0092L22.2222 27.9232L17.3946 32.7514ZM21.131 25.8837C20.8066 25.8837 20.5957 26.0946 20.4827 26.2076C20.3153 26.3745 20.2441 26.5845 20.1752 26.787C20.0622 27.1179 19.9942 27.2595 19.7669 27.326C19.5714 27.3814 19.1735 27.2023 18.8805 26.9004C18.5528 26.5835 18.4122 26.2062 18.4652 26.0248C18.5317 25.7979 18.6733 25.7295 19.0042 25.6165C19.2067 25.5481 19.4163 25.4764 19.5836 25.3095C20.1775 24.7142 19.8466 24.2234 19.4449 23.8212L17.4035 21.7807L15.431 23.7537C15.3616 23.8226 15.3105 23.8681 15.2739 23.8971C15.2505 23.8634 15.2116 23.7495 15.1858 23.6735C15.0677 23.3271 14.8703 22.7473 14.1536 22.5373C13.6014 22.3756 12.8758 22.6479 12.3517 23.1898C11.7864 23.7359 11.5258 24.4474 11.6885 25.0024C11.8985 25.7196 12.4792 25.917 12.8257 26.0346C12.903 26.0609 13.0197 26.1007 13.0441 26.1171C13.046 26.119 13.0474 26.1204 13.0488 26.1218C13.0192 26.1593 12.9738 26.2099 12.9053 26.2789L11.2502 27.9345L17.3946 34.077L23.5478 27.9232L21.9705 26.3464C21.73 26.1059 21.4619 25.8837 21.131 25.8837Z" fill="#1476F2" stroke="#1476F2" stroke-width="0.1"/>
  </g>
  <defs>
    <clipPath id="clip0_911_10935">
      <rect width="22.5" height="22.5" fill="white" transform="translate(11.25 12.2007)"/>
    </clipPath>
  </defs>
</svg>
