<svg width="45" height="46" viewBox="0 0 45 46" fill="none" xmlns="http://www.w3.org/2000/svg">
  <g clip-path="url(#clip0_2616_7477)">
    <circle cx="22.5" cy="23" r="21.85" stroke="#1476F2" stroke-width="1.3"/>
    <path d="M35.9999 20.3371L35.3486 16.4491L31.4606 17.1005" stroke="#1476F2" stroke-width="1.3" stroke-linecap="round" stroke-linejoin="round"/>
    <path d="M35.3487 16.4491L31.5417 21.7872C31.4078 21.9778 31.2034 22.1071 30.9738 22.1464C30.7442 22.1857 30.5085 22.1317 30.3188 21.9965L28.2151 20.4968C27.8211 20.2163 27.2743 20.3079 26.9933 20.7016L23.5463 25.5391" stroke="#1476F2" stroke-width="1.3" stroke-linecap="round" stroke-linejoin="round"/>
    <path fill-rule="evenodd" clip-rule="evenodd" d="M29.25 26.375V32.2813C29.25 34.1452 27.739 35.6562 25.875 35.6562H17.4375C15.5735 35.6562 14.0625 34.1452 14.0625 32.2813V13.7188C14.0625 11.8548 15.5735 10.3438 17.4375 10.3438H25.875C27.739 10.3438 29.25 11.8548 29.25 13.7188" stroke="#1476F2" stroke-width="1.3" stroke-linecap="round" stroke-linejoin="round"/>
    <path d="M14.0625 30.5938H29.25" stroke="#1476F2" stroke-width="1.3" stroke-linecap="round" stroke-linejoin="round"/>
  </g>
  <defs>
    <clipPath id="clip0_2616_7477">
      <rect width="45" height="45" fill="white" transform="translate(0 0.5)"/>
    </clipPath>
  </defs>
</svg>
