<svg width="45" height="46" viewBox="0 0 45 46" fill="none" xmlns="http://www.w3.org/2000/svg">
  <path fill-rule="evenodd" clip-rule="evenodd" d="M12.9536 15.2532C12.8984 15.3084 12.8462 15.4056 12.8462 15.5689V27.0689H18.8077C18.9403 27.0689 19.0675 27.1216 19.1612 27.2153L19.9379 27.992H25.0621L25.8388 27.2153C25.9325 27.1216 26.0597 27.0689 26.1923 27.0689H32.1538V15.5689C32.1538 15.4056 32.1016 15.3084 32.0464 15.2532C31.9913 15.1981 31.8941 15.1458 31.7308 15.1458H13.2692C13.1059 15.1458 13.0087 15.1981 12.9536 15.2532ZM33.1538 27.0689V15.5689C33.1538 15.1783 33.0215 14.814 32.7536 14.5461C32.4856 14.2782 32.1213 14.1458 31.7308 14.1458H13.2692C12.8787 14.1458 12.5144 14.2782 12.2464 14.5461C11.9785 14.814 11.8462 15.1783 11.8462 15.5689V27.0689H10.5C10.2239 27.0689 10 27.2927 10 27.5689V29.415C10 30.7066 11.0546 31.7612 12.3462 31.7612H32.6538C33.9454 31.7612 35 30.7066 35 29.415V27.5689C35 27.2927 34.7761 27.0689 34.5 27.0689H33.1538ZM11 28.0689V29.415C11 30.1543 11.6069 30.7612 12.3462 30.7612H32.6538C33.3931 30.7612 34 30.1543 34 29.415V28.0689H26.3994L25.6228 28.8455C25.529 28.9393 25.4018 28.992 25.2692 28.992H19.7308C19.5982 28.992 19.471 28.9393 19.3772 28.8455L18.6006 28.0689H11Z" fill="#1476F2" stroke="#1476F2" stroke-width="0.3" stroke-miterlimit="10" stroke-linejoin="round"/>
  <rect x="0.65" y="1.15" width="43.7" height="43.7" rx="21.85" stroke="#1476F2" stroke-width="1.3"/>
</svg>
