<svg width="45" height="46" viewBox="0 0 45 46" fill="none" xmlns="http://www.w3.org/2000/svg">
  <g clip-path="url(#clip0_2616_7493)">
    <circle cx="22.5" cy="23" r="21.85" stroke="#1476F2" stroke-width="1.3"/>
    <path d="M13.3766 18.9749C15.851 21.5404 19.6557 22.3051 22.9291 20.8949" stroke="#1476F2" stroke-width="1.3" stroke-linecap="round" stroke-linejoin="round"/>
    <path fill-rule="evenodd" clip-rule="evenodd" d="M17.8126 26.75C20.6603 26.75 22.9689 24.4415 22.9689 21.5938C22.9689 18.746 20.6603 16.4375 17.8126 16.4375C14.9649 16.4375 12.6564 18.746 12.6564 21.5938C12.6564 24.4415 14.9649 26.75 17.8126 26.75Z" stroke="#1476F2" stroke-width="1.3" stroke-linecap="round" stroke-linejoin="round"/>
    <path fill-rule="evenodd" clip-rule="evenodd" d="M22.5 37.0625C30.2665 37.0625 36.5625 30.7665 36.5625 23C36.5625 15.2335 30.2665 8.9375 22.5 8.9375C14.7335 8.9375 8.4375 15.2335 8.4375 23C8.4375 30.7665 14.7335 37.0625 22.5 37.0625Z" stroke="#1476F2" stroke-width="1.3" stroke-linecap="round" stroke-linejoin="round"/>
    <path d="M26.2349 36.5602C26.0314 33.1178 23.7534 30.1459 20.4821 29.055C17.2109 27.9641 13.605 28.974 11.3762 31.6052" stroke="#1476F2" stroke-width="1.3" stroke-linecap="round" stroke-linejoin="round"/>
    <path fill-rule="evenodd" clip-rule="evenodd" d="M29.5311 27.6876C31.3433 27.6876 32.8123 26.2186 32.8123 24.4064C32.8123 22.5942 31.3433 21.1251 29.5311 21.1251C27.7189 21.1251 26.2498 22.5942 26.2498 24.4064C26.2498 26.2186 27.7189 27.6876 29.5311 27.6876Z" stroke="#1476F2" stroke-width="1.3" stroke-linecap="round" stroke-linejoin="round"/>
    <path d="M34.0941 30.9598C32.93 29.345 30.999 28.4657 29.0167 28.6478C27.0343 28.8299 25.2959 30.0462 24.4454 31.846" stroke="#1476F2" stroke-width="1.3" stroke-linecap="round" stroke-linejoin="round"/>
  </g>
  <defs>
    <clipPath id="clip0_2616_7493">
      <rect width="45" height="45" fill="white" transform="translate(0 0.5)"/>
    </clipPath>
  </defs>
</svg>
