<svg width="45" height="46" viewBox="0 0 45 46" fill="none" xmlns="http://www.w3.org/2000/svg">
  <g clip-path="url(#clip0_2616_7509)">
    <circle cx="22.5" cy="23" r="21.85" stroke="#1476F2" stroke-width="1.3"/>
    <path d="M19.2187 31.625L19.8749 27.6875" stroke="#1476F2" stroke-width="1.3" stroke-linecap="round" stroke-linejoin="round"/>
    <path d="M17.2501 31.625H19.8751" stroke="#1476F2" stroke-width="1.3" stroke-linecap="round" stroke-linejoin="round"/>
    <path d="M12.6562 23.6562H31.6406" stroke="#1476F2" stroke-width="1.3" stroke-linecap="round" stroke-linejoin="round"/>
    <path d="M25.3125 27.6875H15.2812C13.8315 27.6875 12.6562 26.5122 12.6562 25.0625V17.1875C12.6562 15.7378 13.8315 14.5625 15.2812 14.5625H29.7187C31.1685 14.5625 32.3437 15.7378 32.3437 17.1875L32.3438 25.1094" stroke="#1476F2" stroke-width="1.3" stroke-linecap="round" stroke-linejoin="round"/>
    <path fill-rule="evenodd" clip-rule="evenodd" d="M31.8021 26.9166L25.125 33.5938L21.8438 34.25L22.5 30.9688L29.1771 24.2916C29.8998 23.569 31.0715 23.569 31.7942 24.2916L31.8021 24.2995C32.5248 25.0222 32.5248 26.1939 31.8021 26.9166Z" stroke="#1476F2" stroke-width="1.3" stroke-linecap="round" stroke-linejoin="round"/>
  </g>
  <defs>
    <clipPath id="clip0_2616_7509">
      <rect width="45" height="45" fill="white" transform="translate(0 0.5)"/>
    </clipPath>
  </defs>
</svg>
