
<svg width="45" height="46" viewBox="0 0 45 46" fill="none" xmlns="http://www.w3.org/2000/svg">
  <rect x="0.65" y="1.10068" width="43.7" height="43.7" rx="21.85" stroke="#1476F2" stroke-width="1.3"/>
  <path fill-rule="evenodd" clip-rule="evenodd" d="M30.3482 24.7722C30.3482 25.723 27.3164 27.049 22.3795 27.049C17.4425 27.049 14.4107 25.723 14.4107 24.7722V22.04H13.5V24.7722C13.5 26.8427 18.075 27.9597 22.3795 27.9597C26.684 27.9597 31.2589 26.8427 31.2589 24.7722V22.04H30.3482V24.7722Z" fill="#1476F2" stroke="#1476F2" stroke-width="0.3"/>
  <path fill-rule="evenodd" clip-rule="evenodd" d="M30.3482 29.3257C30.3482 30.2765 27.3164 31.6025 22.3795 31.6025C17.4425 31.6025 14.4107 30.2765 14.4107 29.3257V26.5935H13.5V29.3257C13.5 31.3962 18.075 32.5132 22.3795 32.5132C26.684 32.5132 31.2589 31.3962 31.2589 29.3257V26.5935H30.3482V29.3257ZM30.3482 20.2185C30.3482 21.1693 27.3164 22.4953 22.3795 22.4953C17.4425 22.4953 14.4107 21.1693 14.4107 20.2185V16.5757C14.4107 15.6249 17.4425 14.2989 22.3795 14.2989C27.3164 14.2989 30.3482 15.6249 30.3482 16.5757V20.2185ZM22.3795 13.3882C18.075 13.3882 13.5 14.5052 13.5 16.5757V20.2185C13.5 22.2891 18.075 23.406 22.3795 23.406C26.684 23.406 31.2589 22.2891 31.2589 20.2185V16.5757C31.2589 14.5052 26.684 13.3882 22.3795 13.3882Z" fill="#1476F2" stroke="#1476F2" stroke-width="0.3"/>
  <path fill-rule="evenodd" clip-rule="evenodd" d="M22.3794 17.9418C19.283 17.9418 16.8077 17.2605 15.524 16.623L15.1188 17.439C16.8751 18.3111 19.6569 18.8525 22.3794 18.8525C25.102 18.8525 27.8838 18.3111 29.6401 17.439L29.2348 16.623C27.9512 17.2605 25.4759 17.9418 22.3794 17.9418Z" fill="#1476F2" stroke="#1476F2" stroke-width="0.3"/>
</svg>
