<svg width="45" height="46" viewBox="0 0 45 46" fill="none" xmlns="http://www.w3.org/2000/svg">
  <g clip-path="url(#clip0_2616_7518)">
    <circle cx="22.5" cy="23" r="21.85" stroke="#1476F2" stroke-width="1.3"/>
    <path fill-rule="evenodd" clip-rule="evenodd" d="M32.3438 31.4375C32.3438 32.2142 31.7142 32.8438 30.9375 32.8438H15.4688C14.6921 32.8438 14.0625 32.2142 14.0625 31.4375V13.1562C14.0625 12.3796 14.6921 11.75 15.4688 11.75H25.4334C25.8061 11.7501 26.1636 11.8981 26.4272 12.1616L31.9322 17.6666C32.1956 17.9302 32.3437 18.2876 32.3438 18.6603V31.4375Z" stroke="#1476F2" stroke-width="1.3" stroke-linecap="round" stroke-linejoin="round"/>
    <path d="M32.3438 18.7812H26.7188C25.9421 18.7812 25.3125 18.1517 25.3125 17.375V11.75" stroke="#1476F2" stroke-width="1.3" stroke-linecap="round" stroke-linejoin="round"/>
    <path d="M21.0178 20.0543L19.0191 22.7187C18.8967 22.8816 18.7097 22.9834 18.5065 22.9978C18.3032 23.0122 18.1038 22.9378 17.9597 22.7937L16.875 21.7099" stroke="#1476F2" stroke-width="1.3" stroke-linecap="round" stroke-linejoin="round"/>
    <path d="M21.0178 26.3824L19.0191 29.0468C18.8967 29.2097 18.7097 29.3116 18.5065 29.326C18.3032 29.3404 18.1038 29.2659 17.9597 29.1218L16.875 28.0371" stroke="#1476F2" stroke-width="1.3" stroke-linecap="round" stroke-linejoin="round"/>
    <path d="M23.9062 23H28.125" stroke="#1476F2" stroke-width="1.3" stroke-linecap="round" stroke-linejoin="round"/>
    <path d="M23.9062 28.625H28.125" stroke="#1476F2" stroke-width="1.3" stroke-linecap="round" stroke-linejoin="round"/>
  </g>
  <defs>
    <clipPath id="clip0_2616_7518">
      <rect width="45" height="45" fill="white" transform="translate(0 0.5)"/>
    </clipPath>
  </defs>
</svg>
