<svg width="45" height="46" viewBox="0 0 45 46" fill="none" xmlns="http://www.w3.org/2000/svg">
  <g clip-path="url(#clip0_2616_7504)">
    <circle cx="22.5" cy="23" r="21.85" stroke="#1476F2" stroke-width="1.3"/>
    <path fill-rule="evenodd" clip-rule="evenodd" d="M30.9375 27.2188L34.6624 23.494C35.3211 22.835 35.3211 21.7668 34.6624 21.1079L32.2875 18.7386C31.5485 20.4923 29.7269 21.534 27.8407 21.2818C25.9545 21.0295 24.4707 19.5457 24.2185 17.6595C23.9662 15.7733 25.0079 13.9517 26.7616 13.2127L24.3923 10.8378C23.7334 10.1791 22.6652 10.1791 22.0062 10.8378L18.2814 14.5627C18.2814 12.2327 16.3926 10.344 14.0627 10.344C11.7327 10.344 9.84395 12.2327 9.84395 14.5627C9.84395 16.8926 11.7327 18.7814 14.0627 18.7814L10.3378 22.5062C9.67906 23.1652 9.67906 24.2334 10.3378 24.8923L12.7127 27.2616C13.4517 25.5079 15.2733 24.4662 17.1595 24.7185C19.0457 24.9707 20.5295 26.4545 20.7817 28.3407C21.034 30.2269 19.9923 32.0485 18.2386 32.7875L20.6079 35.1579C21.2668 35.8166 22.335 35.8166 22.994 35.1579L26.7188 31.4375C26.7188 33.7675 28.6076 35.6563 30.9375 35.6563C33.2675 35.6563 35.1562 33.7675 35.1562 31.4375C35.1562 29.1076 33.2675 27.2188 30.9375 27.2188Z" stroke="#1476F2" stroke-width="1.3" stroke-linecap="round" stroke-linejoin="round"/>
  </g>
  <defs>
    <clipPath id="clip0_2616_7504">
      <rect width="45" height="45" fill="white" transform="translate(0 0.5)"/>
    </clipPath>
  </defs>
</svg>
