<svg width="67" height="74" viewBox="0 0 67 74" fill="none" xmlns="http://www.w3.org/2000/svg"><path d="M46.8185 43.5456C46.8185 42.9319 46.7571 42.3387 46.6753 41.7456L49.8662 38.7796L45.9389 31.9683L41.7662 33.2364C40.8253 32.5001 39.7617 31.8864 38.6366 31.416L37.6548 27.1819H29.8003L28.8184 31.416C27.6934 31.866 26.6298 32.5001 25.6889 33.2364L21.5162 31.9683L17.5889 38.7796L20.7798 41.7456C20.698 42.3387 20.6366 42.9319 20.6366 43.5456C20.6366 44.1592 20.698 44.7524 20.7798 45.3456L17.5889 48.3115L21.5162 55.1229L25.6889 53.8547C26.6298 54.591 27.6934 55.2047 28.8184 55.6751L29.8003 59.9092H37.6548L38.6366 55.6751C39.7617 55.2251 40.8253 54.591 41.7662 53.8547L45.9389 55.1229L49.8662 48.3115L46.6753 45.3456C46.7571 44.7524 46.8185 44.1592 46.8185 43.5456Z" stroke="#323232"/><path d="M33.7265 48.4547C36.4377 48.4547 38.6356 46.2568 38.6356 43.5456C38.6356 40.8344 36.4377 38.6365 33.7265 38.6365C31.0153 38.6365 28.8174 40.8344 28.8174 43.5456C28.8174 46.2568 31.0153 48.4547 33.7265 48.4547Z" stroke="#323232"/><path d="M34.414 10.8182C37.1252 10.8182 39.3231 8.62033 39.3231 5.9091C39.3231 3.19788 37.1252 1 34.414 1C31.7028 1 29.5049 3.19788 29.5049 5.9091C29.5049 8.62033 31.7028 10.8182 34.414 10.8182Z" stroke="#2A82F2"/><path d="M27.3926 20.6363V15.7272C27.3926 13.0068 30.3217 10.8181 33.9381 10.8181C37.5544 10.8181 40.4835 13.0068 40.4835 15.7272V20.6363" stroke="#2A82F2"/><path d="M7.54582 63.1822C10.257 63.1822 12.4549 60.9843 12.4549 58.2731C12.4549 55.5619 10.257 53.364 7.54582 53.364C4.8346 53.364 2.63672 55.5619 2.63672 58.2731C2.63672 60.9843 4.8346 63.1822 7.54582 63.1822Z" stroke="#2A82F2"/><path d="M1 73.0001V68.091C1 65.3705 3.92501 63.1819 7.54547 63.1819C11.1659 63.1819 14.0909 65.3705 14.0909 68.091V73.0001" stroke="#2A82F2"/><path d="M59.9091 63.1822C62.6203 63.1822 64.8182 60.9843 64.8182 58.2731C64.8182 55.5619 62.6203 53.364 59.9091 53.364C57.1979 53.364 55 55.5619 55 58.2731C55 60.9843 57.1979 63.1822 59.9091 63.1822Z" stroke="#2A82F2"/><path d="M53.3633 73.0001V68.091C53.3633 65.3705 56.2883 63.1819 59.9088 63.1819C63.5292 63.1819 66.4542 65.3705 66.4542 68.091V73.0001" stroke="#2A82F2"/><path d="M4.45655 46.9408C4.33382 45.8362 4.27246 44.6908 4.27246 43.5453C4.27246 32.6021 10.2452 23.0498 19.0816 17.9771" stroke="#323232"/><path d="M46.9002 69.8909C42.932 71.875 38.4729 73 33.7275 73C28.982 73 24.5229 71.875 20.5547 69.8909" stroke="#323232"/><path d="M62.9971 46.9408C63.1198 45.8362 63.1812 44.6908 63.1812 43.5453C63.1812 32.6021 57.2085 23.0498 48.3721 17.9771" stroke="#323232"/></svg>