<svg width="71" height="73" viewBox="0 0 71 73" fill="none" xmlns="http://www.w3.org/2000/svg"><path d="M17.3636 66.4546V63.1818C17.3636 61.3205 12.8636 58.2932 9.1818 58.2932C5.49999 58.2932 1 61.3205 1 63.1818V73" stroke="#2387FD"/><path d="M9.18252 58.2112C12.128 58.2112 14.0916 55.7157 14.0916 52.6271V50.7657C14.0916 47.6771 12.128 45.1816 9.18252 45.1816C6.23707 45.1816 4.27344 47.6771 4.27344 50.7657V52.6271C4.27344 55.7157 6.23707 58.2112 9.18252 58.2112Z" stroke="#2387FD"/><path d="M37.0003 53.3632V50.0905C37.0003 48.2292 32.5003 45.2019 28.8185 45.2019C25.1367 45.2019 20.6367 48.2292 20.6367 50.0905V56.636" stroke="#2387FD"/><path d="M28.8183 45.1206C31.7637 45.1206 33.7273 42.6251 33.7273 39.5365V37.6751C33.7273 34.5865 31.7637 32.0911 28.8183 32.0911C25.8728 32.0911 23.9092 34.5865 23.9092 37.6751V39.5365C23.9092 42.6251 25.8728 45.1206 28.8183 45.1206Z" stroke="#2387FD"/><path d="M46.8177 30.4547V25.5456C46.8177 23.6842 42.3177 20.657 38.6359 20.657C34.9541 20.657 30.4541 23.6842 30.4541 25.5456V27.182" stroke="#2387FD"/><path d="M38.6366 20.5747C41.5821 20.5747 43.5457 18.0792 43.5457 14.9906V13.1292C43.5457 10.0406 41.5821 7.54517 38.6366 7.54517C35.6912 7.54517 33.7275 10.0406 33.7275 13.1292V14.9906C33.7275 18.0792 35.6912 20.5747 38.6366 20.5747Z" stroke="#2387FD"/><path d="M59.0085 61.7703C62.9972 56.9635 64.8176 51.0726 64.8176 43.5454V15.7272H69.7267L60.5222 1L51.7267 15.7272H56.6358V43.5454C56.6358 60.4203 42.5222 71.3635 27.1813 71.3635H12.4541" stroke="#323232"/><path d="M36.2021 61.1771C44.7726 56.9635 45.468 48.618 45.7135 45.5499C45.918 43.0953 45.9794 42.2976 45.9794 42.2976" stroke="#323232"/></svg>