<svg width="81" height="74" viewBox="0 0 81 74" fill="none" xmlns="http://www.w3.org/2000/svg"><path d="M58.951 72.9999C70.5893 72.9999 80.0241 63.5652 80.0241 51.9268C80.0241 40.2885 70.5893 30.8538 58.951 30.8538C47.3127 30.8538 37.8779 40.2885 37.8779 51.9268C37.8779 63.5652 47.3127 72.9999 58.951 72.9999Z" stroke="#323232"/><path d="M39.6337 18.5609C35.6167 18.5609 32.6094 15.2024 32.6094 11.0317V8.52923C32.6094 4.35852 35.6167 1 39.6337 1C43.6508 1 46.6581 4.35852 46.6581 8.52923V11.0317C46.6581 15.2024 43.6508 18.5609 39.6337 18.5609Z" stroke="#2A82F2"/><path d="M27.3418 29.0976V25.5854C27.3418 20.7781 35.2661 18.561 39.6344 18.561C43.3661 18.561 49.6441 20.1415 51.4441 23.5659" stroke="#2A82F2"/><path d="M13.2939 34.3658C9.27683 34.3658 6.26953 31.0073 6.26953 26.8366V24.3342C6.26953 20.1635 9.27683 16.8049 13.2939 16.8049C17.3109 16.8049 20.3182 20.1635 20.3182 24.3342V26.8366C20.3182 31.0073 17.3109 34.3658 13.2939 34.3658Z" stroke="#2A82F2"/><path d="M24.6853 38.7559C22.4901 35.7706 16.7609 34.3657 13.2926 34.3657C8.92435 34.3657 1 36.5828 1 41.3901V44.9023" stroke="#2A82F2"/><path d="M22.0742 62.463C18.0571 62.463 15.0498 59.1045 15.0498 54.9338V52.4313C15.0498 48.2826 18.0571 44.9021 22.0742 44.9021C26.0912 44.9021 29.0985 48.2606 29.0985 52.4313V54.9338C29.0985 59.1045 26.0912 62.463 22.0742 62.463Z" stroke="#2A82F2"/><path d="M9.78125 72.9997V69.4875C9.78125 64.6802 17.7056 62.4631 22.0739 62.4631C26.4421 62.4631 34.3665 64.6363 34.3665 69.4436V72.9997" stroke="#2A82F2"/><path d="M58.9502 41.3899V62.463" stroke="#323232"/><path d="M69.4862 51.9268H48.4131" stroke="#323232"/></svg>