<?xml version="1.0" encoding="utf-8"?>
<!-- Generator: Adobe Illustrator 19.1.0, SVG Export Plug-In . SVG Version: 6.00 Build 0)  -->
<svg version="1.1" id="Layer_1" xmlns="http://www.w3.org/2000/svg" xmlns:xlink="http://www.w3.org/1999/xlink" xml:space="preserve">
<style type="text/css">
	.st0{fill:#ffffff;}
</style>
<g>
	<path class="st0" d="M7,31.8V7.7c0-0.9,0.7-1.6,1.6-1.6c0.9,0,1.6,0.7,1.6,1.6v23.7c0,10.3,5.5,16.2,14.7,16.2
		c8.8,0,14.5-5.3,14.5-15.9V7.7c0-0.9,0.7-1.6,1.6-1.6c0.9,0,1.6,0.7,1.6,1.6v23.7c0,12.5-7.3,19.1-17.8,19.1C14.4,50.6,7,44,7,31.8
		z"/>
	<path class="st0" d="M51.6,47.6l15.5-19.9L52.3,8.8C52,8.4,51.7,8,51.7,7.6c0-0.7,0.7-1.5,1.6-1.5c0.6,0,1,0.3,1.4,0.8l14.4,18.6
		L83.3,7.1c0.4-0.6,0.9-1,1.6-1c0.8,0,1.4,0.7,1.4,1.5c0,0.4-0.2,0.7-0.4,1.1L71,27.6l15.4,19.8c0.4,0.4,0.6,0.8,0.6,1.2
		c0,0.7-0.7,1.5-1.6,1.5c-0.6,0-1-0.3-1.4-0.8L69,29.8L54.1,49.1c-0.4,0.6-0.9,1-1.6,1c-0.8,0-1.4-0.7-1.4-1.5
		C51.1,48.3,51.3,47.9,51.6,47.6z"/>
</g>

<defs>
	<mask id="mask" maskUnits="userSpaceOnUse">
		<g>
			<path class="st0" d="M7,31.8V7.7c0-0.9,0.7-1.6,1.6-1.6c0.9,0,1.6,0.7,1.6,1.6v23.7c0,10.3,5.5,16.2,14.7,16.2
				c8.8,0,14.5-5.3,14.5-15.9V7.7c0-0.9,0.7-1.6,1.6-1.6c0.9,0,1.6,0.7,1.6,1.6v23.7c0,12.5-7.3,19.1-17.8,19.1C14.4,50.6,7,44,7,31.8
				z"/>
			<path class="st0" d="M51.6,47.6l15.5-19.9L52.3,8.8C52,8.4,51.7,8,51.7,7.6c0-0.7,0.7-1.5,1.6-1.5c0.6,0,1,0.3,1.4,0.8l14.4,18.6
				L83.3,7.1c0.4-0.6,0.9-1,1.6-1c0.8,0,1.4,0.7,1.4,1.5c0,0.4-0.2,0.7-0.4,1.1L71,27.6l15.4,19.8c0.4,0.4,0.6,0.8,0.6,1.2
				c0,0.7-0.7,1.5-1.6,1.5c-0.6,0-1-0.3-1.4-0.8L69,29.8L54.1,49.1c-0.4,0.6-0.9,1-1.6,1c-0.8,0-1.4-0.7-1.4-1.5
				C51.1,48.3,51.3,47.9,51.6,47.6z"/>
		</g>
	</mask>

</defs>
</svg>
