<?xml version="1.0" encoding="utf-8"?>
<!-- Generator: Adobe Illustrator 19.1.0, SVG Export Plug-In . SVG Version: 6.00 Build 0)  -->
<svg version="1.1" id="Layer_1" xmlns="http://www.w3.org/2000/svg" xmlns:xlink="http://www.w3.org/1999/xlink" xml:space="preserve">
<style type="text/css">
	.st0{fill:#ffffff;}
</style>
<g>
	<path class="st0" d="M22.1,32.1L4.2,22.8c-0.6-0.3-0.8-0.7-0.8-1.2v-0.1c0-0.5,0.2-0.9,0.8-1.2l17.9-9.3c0.2-0.1,0.4-0.2,0.6-0.2
		c0.6,0,0.9,0.5,0.9,1c0,0.5-0.3,0.8-0.7,1L6.2,21.6L23,30.3c0.4,0.2,0.7,0.5,0.7,1c0,0.6-0.4,1-0.9,1
		C22.5,32.3,22.3,32.2,22.1,32.1z"/>
	<path class="st0" d="M27.4,41L46.8,2.9c0.2-0.3,0.5-0.6,0.9-0.6c0.5,0,0.9,0.4,0.9,0.9c0,0.2,0,0.4-0.1,0.6L29.1,41.8
		c-0.2,0.3-0.5,0.6-0.9,0.6c-0.5,0-0.9-0.4-0.9-0.9C27.3,41.4,27.3,41.1,27.4,41z"/>
	<path class="st0" d="M54.4,11.1l17.9,9.3c0.6,0.3,0.8,0.7,0.8,1.2v0.1c0,0.5-0.2,0.9-0.8,1.2l-17.9,9.3c-0.2,0.1-0.4,0.2-0.6,0.2
		c-0.6,0-0.9-0.5-0.9-1c0-0.5,0.3-0.8,0.7-1l16.8-8.6L53.5,13c-0.4-0.2-0.7-0.5-0.7-1c0-0.6,0.4-1,0.9-1C54,11,54.3,11.1,54.4,11.1z
		"/>
</g>

<defs>
	<mask id="mask" maskUnits="userSpaceOnUse">
		<g>
			<path class="st0" d="M22.1,32.1L4.2,22.8c-0.6-0.3-0.8-0.7-0.8-1.2v-0.1c0-0.5,0.2-0.9,0.8-1.2l17.9-9.3c0.2-0.1,0.4-0.2,0.6-0.2
				c0.6,0,0.9,0.5,0.9,1c0,0.5-0.3,0.8-0.7,1L6.2,21.6L23,30.3c0.4,0.2,0.7,0.5,0.7,1c0,0.6-0.4,1-0.9,1
				C22.5,32.3,22.3,32.2,22.1,32.1z"/>
			<path class="st0" d="M27.4,41L46.8,2.9c0.2-0.3,0.5-0.6,0.9-0.6c0.5,0,0.9,0.4,0.9,0.9c0,0.2,0,0.4-0.1,0.6L29.1,41.8
				c-0.2,0.3-0.5,0.6-0.9,0.6c-0.5,0-0.9-0.4-0.9-0.9C27.3,41.4,27.3,41.1,27.4,41z"/>
			<path class="st0" d="M54.4,11.1l17.9,9.3c0.6,0.3,0.8,0.7,0.8,1.2v0.1c0,0.5-0.2,0.9-0.8,1.2l-17.9,9.3c-0.2,0.1-0.4,0.2-0.6,0.2
				c-0.6,0-0.9-0.5-0.9-1c0-0.5,0.3-0.8,0.7-1l16.8-8.6L53.5,13c-0.4-0.2-0.7-0.5-0.7-1c0-0.6,0.4-1,0.9-1C54,11,54.3,11.1,54.4,11.1z
				"/>
		</g>
	</mask>
</defs>

</svg>
