<?xml version="1.0" encoding="utf-8"?>
<!-- Generator: Adobe Illustrator 19.1.0, SVG Export Plug-In . SVG Version: 6.00 Build 0)  -->
<svg version="1.1" id="Layer_1" xmlns="http://www.w3.org/2000/svg" xmlns:xlink="http://www.w3.org/1999/xlink" xml:space="preserve">
<style type="text/css">
	.st0{fill:#ffffff;}
</style>
<g>
	<path class="st0" d="M14.2,10.9l-4.6,1.6c-0.2,0.1-0.4,0.1-0.5,0.1c-0.5,0-0.9-0.4-0.9-0.9c0-0.5,0.3-0.7,0.8-0.9L13.9,9
		c0.4-0.2,0.8-0.3,1.3-0.3h0.1c0.6,0,1,0.5,1,1v26.4c0,0.6-0.4,1-1,1c-0.6,0-1-0.5-1-1V10.9z"/>
	<path class="st0" d="M23.1,23.1L23.1,23.1c0-7.8,4.5-14.6,11.7-14.6s11.6,6.7,11.6,14.4V23c0,7.7-4.5,14.5-11.7,14.5
		S23.1,30.8,23.1,23.1z M44.1,23.1L44.1,23.1c0-6.6-3.7-12.7-9.5-12.7c-5.8,0-9.4,6-9.4,12.5V23c0,6.5,3.7,12.6,9.5,12.6
		C40.5,35.6,44.1,29.6,44.1,23.1z"/>
	<path class="st0" d="M60.3,23.9h-7.9c-0.5,0-1-0.4-1-1s0.4-1,1-1h7.9v-7.8c0-0.6,0.4-1,1-1s1,0.4,1,1V22h7.9c0.5,0,1,0.4,1,1
		s-0.4,1-1,1h-7.9v7.8c0,0.6-0.4,1-1,1s-1-0.4-1-1V23.9z"/>
</g>

<defs>
	<mask id="mask" maskUnits="userSpaceOnUse">
		<g>
			<path class="st0" d="M14.2,10.9l-4.6,1.6c-0.2,0.1-0.4,0.1-0.5,0.1c-0.5,0-0.9-0.4-0.9-0.9c0-0.5,0.3-0.7,0.8-0.9L13.9,9
				c0.4-0.2,0.8-0.3,1.3-0.3h0.1c0.6,0,1,0.5,1,1v26.4c0,0.6-0.4,1-1,1c-0.6,0-1-0.5-1-1V10.9z"/>
			<path class="st0" d="M23.1,23.1L23.1,23.1c0-7.8,4.5-14.6,11.7-14.6s11.6,6.7,11.6,14.4V23c0,7.7-4.5,14.5-11.7,14.5
				S23.1,30.8,23.1,23.1z M44.1,23.1L44.1,23.1c0-6.6-3.7-12.7-9.5-12.7c-5.8,0-9.4,6-9.4,12.5V23c0,6.5,3.7,12.6,9.5,12.6
				C40.5,35.6,44.1,29.6,44.1,23.1z"/>
			<path class="st0" d="M60.3,23.9h-7.9c-0.5,0-1-0.4-1-1s0.4-1,1-1h7.9v-7.8c0-0.6,0.4-1,1-1s1,0.4,1,1V22h7.9c0.5,0,1,0.4,1,1
				s-0.4,1-1,1h-7.9v7.8c0,0.6-0.4,1-1,1s-1-0.4-1-1V23.9z"/>
		</g>
	</mask>
</defs>

</svg>
