<?xml version="1.0" encoding="utf-8"?>
<!-- Generator: Adobe Illustrator 19.1.0, SVG Export Plug-In . SVG Version: 6.00 Build 0)  -->
<svg version="1.1" id="Layer_1" xmlns="http://www.w3.org/2000/svg" xmlns:xlink="http://www.w3.org/1999/xlink"  xml:space="preserve">
<style type="text/css">
	.st0{fill:#ffffff;stroke:#ffffff;stroke-miterlimit:10;}
</style>
<g>
<path class="st0" d="M71.6,58.9l-4.4-4.4c-0.4-0.4-0.9-0.4-1.3,0c-0.4,0.4-0.4,0.9,0,1.3l3.7,3.7L66,63.3c-0.4,0.4-0.4,0.9,0,1.3
	c0.2,0.2,0.4,0.3,0.6,0.3s0.5-0.1,0.6-0.3l4.4-4.4C72,59.8,72,59.2,71.6,58.9z"/>
<path class="st0" d="M10.7,36.9C10.7,26,19,17,29.6,15.8l4,4c0.2,0.2,0.4,0.3,0.6,0.3c0.2,0,0.5-0.1,0.6-0.3c0.4-0.4,0.4-0.9,0-1.3
	L32,15.6c0.1,0,0.3,0,0.4-0.1c0.1,0.1,0.2,0.1,0.4,0.1c11.7,0,21.3,9.5,21.3,21.3c0,11.7-9.5,21.3-21.3,21.3c-0.1,0-0.3,0-0.4,0.1
	c-0.1-0.1-0.2-0.1-0.4-0.1C20.3,58.2,10.7,48.6,10.7,36.9z M33,60h33.2c0.5,0,0.9-0.2,0.9-0.8s-0.4-0.8-0.9-0.8H41
	c8.7-3.3,14.9-11.7,14.9-21.6c0-12.7-10.4-23.1-23.1-23.1c-0.1,0-0.3,0-0.4,0.1c-0.1-0.1-0.2-0.1-0.4-0.1l2.8-2.8
	c0.4-0.4,0.4-0.9,0-1.3c-0.4-0.4-0.9-0.4-1.3,0L29.3,14C17.8,15.3,8.9,25.1,8.9,36.9c0,9.9,6.2,18.3,14.9,21.6H5.2
	c-0.5,0-0.9,0.2-0.9,0.8S4.7,60,5.2,60h26.5c0.1,0,0.2,0,0.2,0c0,0,0,0,0,0h0.7c0,0,0,0,0,0C32.8,60,32.9,60,33,60z"/>
</g>
<defs>
	<mask id="mask" maskUnits="userSpaceOnUse">
		<g>
		<path class="st0" d="M71.6,58.9l-4.4-4.4c-0.4-0.4-0.9-0.4-1.3,0c-0.4,0.4-0.4,0.9,0,1.3l3.7,3.7L66,63.3c-0.4,0.4-0.4,0.9,0,1.3
		c0.2,0.2,0.4,0.3,0.6,0.3s0.5-0.1,0.6-0.3l4.4-4.4C72,59.8,72,59.2,71.6,58.9z"/>
		<path class="st0" d="M10.7,36.9C10.7,26,19,17,29.6,15.8l4,4c0.2,0.2,0.4,0.3,0.6,0.3c0.2,0,0.5-0.1,0.6-0.3c0.4-0.4,0.4-0.9,0-1.3
		L32,15.6c0.1,0,0.3,0,0.4-0.1c0.1,0.1,0.2,0.1,0.4,0.1c11.7,0,21.3,9.5,21.3,21.3c0,11.7-9.5,21.3-21.3,21.3c-0.1,0-0.3,0-0.4,0.1
		c-0.1-0.1-0.2-0.1-0.4-0.1C20.3,58.2,10.7,48.6,10.7,36.9z M33,60h33.2c0.5,0,0.9-0.2,0.9-0.8s-0.4-0.8-0.9-0.8H41
		c8.7-3.3,14.9-11.7,14.9-21.6c0-12.7-10.4-23.1-23.1-23.1c-0.1,0-0.3,0-0.4,0.1c-0.1-0.1-0.2-0.1-0.4-0.1l2.8-2.8
		c0.4-0.4,0.4-0.9,0-1.3c-0.4-0.4-0.9-0.4-1.3,0L29.3,14C17.8,15.3,8.9,25.1,8.9,36.9c0,9.9,6.2,18.3,14.9,21.6H5.2
		c-0.5,0-0.9,0.2-0.9,0.8S4.7,60,5.2,60h26.5c0.1,0,0.2,0,0.2,0c0,0,0,0,0,0h0.7c0,0,0,0,0,0C32.8,60,32.9,60,33,60z"/>
	</g>
	</mask>

</defs>
</svg>
