<svg width="767" height="249" viewBox="0 0 767 249" fill="none" xmlns="http://www.w3.org/2000/svg"><path d="M76 152.939V124.766" stroke="#1476F2" stroke-opacity=".3"/><path d="M181.286 183.543V155.37" stroke="#1476F2" stroke-opacity=".3"/><path d="M306.875 156.673V128.5" stroke="#1476F2" stroke-opacity=".3"/><path d="M422.962 186.543V158.37" stroke="#1476F2" stroke-opacity=".3"/><path d="M554.662 152.132V123.959" stroke="#1476F2" stroke-opacity=".3"/><path d="M685.682 177.718V149.545" stroke="#1476F2" stroke-opacity=".3"/><path d="M735.579 39.2292C697.223 181.791 738.357 152.228 74.7038 152.228" stroke="#F8E8CB" stroke-width="8" stroke-linecap="round" stroke-linejoin="round"/><path opacity=".1" d="M76.9716 168.944C86.3448 168.944 93.9433 161.345 93.9433 151.972C93.9433 142.599 86.3448 135 76.9716 135C67.5985 135 60 142.599 60 151.972C60 161.345 67.5985 168.944 76.9716 168.944Z" fill="url(#paint0_linear)"/><path d="M76.9717 162.155C82.5956 162.155 87.1547 157.596 87.1547 151.972C87.1547 146.348 82.5956 141.789 76.9717 141.789C71.3478 141.789 66.7887 146.348 66.7887 151.972C66.7887 157.596 71.3478 162.155 76.9717 162.155Z" fill="#53A0FD"/><path opacity=".1" d="M734.561 58.5766C743.934 58.5766 751.533 50.9781 751.533 41.6049C751.533 32.2318 743.934 24.6333 734.561 24.6333C725.188 24.6333 717.589 32.2318 717.589 41.6049C717.589 50.9781 725.188 58.5766 734.561 58.5766Z" fill="url(#paint1_linear)"/><path d="M734.561 51.7878C740.185 51.7878 744.744 47.2288 744.744 41.6049C744.744 35.981 740.185 31.4219 734.561 31.4219C728.937 31.4219 724.378 35.981 724.378 41.6049C724.378 47.2288 728.937 51.7878 734.561 51.7878Z" fill="#53A0FD"/><path opacity=".1" d="M181.285 163.801C188.034 163.801 193.505 158.33 193.505 151.581C193.505 144.832 188.034 139.362 181.285 139.362C174.537 139.362 169.066 144.832 169.066 151.581C169.066 158.33 174.537 163.801 181.285 163.801Z" fill="url(#paint2_linear)"/><path d="M181.285 157.691C184.66 157.691 187.395 154.955 187.395 151.581C187.395 148.207 184.66 145.471 181.285 145.471C177.911 145.471 175.175 148.207 175.175 151.581C175.175 154.955 177.911 157.691 181.285 157.691Z" fill="#53A0FD"/><path opacity=".1" d="M306.876 164.801C313.625 164.801 319.095 159.33 319.095 152.581C319.095 145.832 313.625 140.362 306.876 140.362C300.127 140.362 294.656 145.832 294.656 152.581C294.656 159.33 300.127 164.801 306.876 164.801Z" fill="url(#paint3_linear)"/><path d="M306.876 158.691C310.25 158.691 312.986 155.955 312.986 152.581C312.986 149.207 310.25 146.471 306.876 146.471C303.501 146.471 300.766 149.207 300.766 152.581C300.766 155.955 303.501 158.691 306.876 158.691Z" fill="#53A0FD"/><path opacity=".1" d="M422.962 165.801C429.71 165.801 435.181 160.33 435.181 153.581C435.181 146.832 429.71 141.362 422.962 141.362C416.213 141.362 410.742 146.832 410.742 153.581C410.742 160.33 416.213 165.801 422.962 165.801Z" fill="url(#paint4_linear)"/><path d="M422.962 159.691C426.336 159.691 429.071 156.955 429.071 153.581C429.071 150.207 426.336 147.471 422.962 147.471C419.587 147.471 416.852 150.207 416.852 153.581C416.852 156.955 419.587 159.691 422.962 159.691Z" fill="#53A0FD"/><path opacity=".1" d="M554.661 166.439C561.41 166.439 566.881 160.969 566.881 154.22C566.881 147.471 561.41 142 554.661 142C547.913 142 542.442 147.471 542.442 154.22C542.442 160.969 547.913 166.439 554.661 166.439Z" fill="url(#paint5_linear)"/><path d="M554.661 160.33C558.036 160.33 560.771 157.594 560.771 154.22C560.771 150.845 558.036 148.11 554.661 148.11C551.287 148.11 548.552 150.845 548.552 154.22C548.552 157.594 551.287 160.33 554.661 160.33Z" fill="#53A0FD"/><path opacity=".1" d="M685.683 149.545C692.431 149.545 697.902 144.074 697.902 137.325C697.902 130.576 692.431 125.105 685.683 125.105C678.934 125.105 673.463 130.576 673.463 137.325C673.463 144.074 678.934 149.545 685.683 149.545Z" fill="url(#paint6_linear)"/><path d="M685.683 143.435C689.057 143.435 691.793 140.7 691.793 137.325C691.793 133.951 689.057 131.216 685.683 131.216C682.309 131.216 679.573 133.951 679.573 137.325C679.573 140.7 682.309 143.435 685.683 143.435Z" fill="#53A0FD"/><path d="M153 58.0002L0 58.0002V125H153V58.0002Z" fill="url(#paint7_linear)"/><path d="M437 53.0002L179 53.0002V129H437V53.0002Z" fill="url(#paint8_linear)"/><path d="M284 174L129 174V249H284V174Z" fill="url(#paint9_linear)"/><path d="M493 174L337 174V241H493V174Z" fill="url(#paint10_linear)"/><path d="M736 160L635 160V200H736V160Z" fill="url(#paint11_linear)"/><path d="M638 74.0002L480 74.0002V132H638V74.0002Z" fill="url(#paint12_linear)"/><path d="M21.316 77.2002H25.6C26.6453 77.2002 27.574 77.4056 28.386 77.8162C29.198 78.2176 29.828 78.7916 30.276 79.5382C30.724 80.2756 30.948 81.1296 30.948 82.1002C30.948 83.0709 30.724 83.9296 30.276 84.6762C29.828 85.4136 29.198 85.9876 28.386 86.3982C27.574 86.7996 26.6453 87.0002 25.6 87.0002H21.316V77.2002ZM25.516 85.4602C26.2347 85.4602 26.8647 85.3249 27.406 85.0542C27.9567 84.7742 28.3767 84.3822 28.666 83.8782C28.9647 83.3649 29.114 82.7722 29.114 82.1002C29.114 81.4282 28.9647 80.8402 28.666 80.3362C28.3767 79.8229 27.9567 79.4309 27.406 79.1602C26.8647 78.8802 26.2347 78.7402 25.516 78.7402H23.136V85.4602H25.516ZM32.1519 79.5242H33.9019V87.0002H32.1519V79.5242ZM33.0339 78.2922C32.7166 78.2922 32.4506 78.1942 32.2359 77.9982C32.0212 77.7929 31.9139 77.5409 31.9139 77.2422C31.9139 76.9436 32.0212 76.6962 32.2359 76.5002C32.4506 76.2949 32.7166 76.1922 33.0339 76.1922C33.3512 76.1922 33.6172 76.2902 33.8319 76.4862C34.0466 76.6729 34.1539 76.9109 34.1539 77.2002C34.1539 77.5082 34.0466 77.7696 33.8319 77.9842C33.6266 78.1896 33.3606 78.2922 33.0339 78.2922ZM37.9463 87.0982C37.3396 87.0982 36.7469 87.0189 36.1683 86.8602C35.5896 86.7016 35.1276 86.5009 34.7823 86.2582L35.4543 84.9282C35.7903 85.1522 36.1916 85.3342 36.6583 85.4742C37.1343 85.6049 37.6009 85.6702 38.0583 85.6702C39.1036 85.6702 39.6263 85.3949 39.6263 84.8442C39.6263 84.5829 39.4909 84.4009 39.2203 84.2982C38.9589 84.1956 38.5343 84.0976 37.9463 84.0042C37.3303 83.9109 36.8263 83.8036 36.4343 83.6822C36.0516 83.5609 35.7156 83.3509 35.4263 83.0522C35.1463 82.7442 35.0063 82.3196 35.0063 81.7782C35.0063 81.0689 35.3003 80.5042 35.8883 80.0842C36.4856 79.6549 37.2883 79.4402 38.2963 79.4402C38.8096 79.4402 39.3229 79.5009 39.8363 79.6222C40.3496 79.7342 40.7696 79.8882 41.0963 80.0842L40.4243 81.4142C39.7896 81.0409 39.0756 80.8542 38.2823 80.8542C37.7689 80.8542 37.3769 80.9336 37.1063 81.0922C36.8449 81.2416 36.7143 81.4422 36.7143 81.6942C36.7143 81.9742 36.8543 82.1749 37.1343 82.2962C37.4236 82.4082 37.8669 82.5156 38.4643 82.6182C39.0616 82.7116 39.5516 82.8189 39.9343 82.9402C40.3169 83.0616 40.6436 83.2669 40.9143 83.5562C41.1943 83.8456 41.3343 84.2562 41.3343 84.7882C41.3343 85.4882 41.0309 86.0482 40.4243 86.4682C39.8176 86.8882 38.9916 87.0982 37.9463 87.0982ZM45.7089 87.0982C44.9342 87.0982 44.2389 86.9349 43.6229 86.6082C43.0069 86.2816 42.5262 85.8289 42.1809 85.2502C41.8355 84.6622 41.6629 83.9996 41.6629 83.2622C41.6629 82.5249 41.8355 81.8669 42.1809 81.2882C42.5262 80.7096 43.0022 80.2569 43.6089 79.9302C44.2249 79.6036 44.9249 79.4402 45.7089 79.4402C46.4462 79.4402 47.0902 79.5896 47.6409 79.8882C48.2009 80.1869 48.6209 80.6162 48.9009 81.1762L47.5569 81.9602C47.3422 81.6149 47.0715 81.3582 46.7449 81.1902C46.4275 81.0129 46.0775 80.9242 45.6949 80.9242C45.0415 80.9242 44.5002 81.1389 44.0709 81.5682C43.6415 81.9882 43.4269 82.5529 43.4269 83.2622C43.4269 83.9716 43.6369 84.5409 44.0569 84.9702C44.4862 85.3902 45.0322 85.6002 45.6949 85.6002C46.0775 85.6002 46.4275 85.5162 46.7449 85.3482C47.0715 85.1709 47.3422 84.9096 47.5569 84.5642L48.9009 85.3482C48.6115 85.9082 48.1869 86.3422 47.6269 86.6502C47.0762 86.9489 46.4369 87.0982 45.7089 87.0982ZM53.1018 87.0982C52.3458 87.0982 51.6644 86.9349 51.0578 86.6082C50.4511 86.2816 49.9751 85.8289 49.6298 85.2502C49.2938 84.6622 49.1258 83.9996 49.1258 83.2622C49.1258 82.5249 49.2938 81.8669 49.6298 81.2882C49.9751 80.7096 50.4511 80.2569 51.0578 79.9302C51.6644 79.6036 52.3458 79.4402 53.1018 79.4402C53.8671 79.4402 54.5531 79.6036 55.1598 79.9302C55.7664 80.2569 56.2378 80.7096 56.5738 81.2882C56.9191 81.8669 57.0918 82.5249 57.0918 83.2622C57.0918 83.9996 56.9191 84.6622 56.5738 85.2502C56.2378 85.8289 55.7664 86.2816 55.1598 86.6082C54.5531 86.9349 53.8671 87.0982 53.1018 87.0982ZM53.1018 85.6002C53.7458 85.6002 54.2778 85.3856 54.6978 84.9562C55.1178 84.5269 55.3278 83.9622 55.3278 83.2622C55.3278 82.5622 55.1178 81.9976 54.6978 81.5682C54.2778 81.1389 53.7458 80.9242 53.1018 80.9242C52.4578 80.9242 51.9258 81.1389 51.5058 81.5682C51.0951 81.9976 50.8898 82.5622 50.8898 83.2622C50.8898 83.9622 51.0951 84.5269 51.5058 84.9562C51.9258 85.3856 52.4578 85.6002 53.1018 85.6002ZM64.9976 79.5242L61.7916 87.0002H59.9856L56.7796 79.5242H58.5996L60.9236 85.0682L63.3176 79.5242H64.9976ZM72.3518 83.3042C72.3518 83.4256 72.3424 83.5982 72.3238 83.8222H66.4578C66.5604 84.3729 66.8264 84.8116 67.2558 85.1382C67.6944 85.4556 68.2358 85.6142 68.8798 85.6142C69.7011 85.6142 70.3778 85.3436 70.9098 84.8022L71.8478 85.8802C71.5118 86.2816 71.0871 86.5849 70.5738 86.7902C70.0604 86.9956 69.4818 87.0982 68.8378 87.0982C68.0164 87.0982 67.2931 86.9349 66.6678 86.6082C66.0424 86.2816 65.5571 85.8289 65.2118 85.2502C64.8758 84.6622 64.7078 83.9996 64.7078 83.2622C64.7078 82.5342 64.8711 81.8809 65.1978 81.3022C65.5338 80.7142 65.9958 80.2569 66.5838 79.9302C67.1718 79.6036 67.8344 79.4402 68.5718 79.4402C69.2998 79.4402 69.9484 79.6036 70.5178 79.9302C71.0964 80.2476 71.5444 80.7002 71.8618 81.2882C72.1884 81.8669 72.3518 82.5389 72.3518 83.3042ZM68.5718 80.8402C68.0118 80.8402 67.5358 81.0082 67.1438 81.3442C66.7611 81.6709 66.5278 82.1096 66.4438 82.6602H70.6858C70.6111 82.1189 70.3824 81.6802 69.9998 81.3442C69.6171 81.0082 69.1411 80.8402 68.5718 80.8402ZM75.1363 80.6162C75.6403 79.8322 76.5269 79.4402 77.7963 79.4402V81.1062C77.6469 81.0782 77.5116 81.0642 77.3903 81.0642C76.7089 81.0642 76.1769 81.2649 75.7943 81.6662C75.4116 82.0582 75.2203 82.6276 75.2203 83.3742V87.0002H73.4703V79.5242H75.1363V80.6162ZM85.9918 79.5242L82.4918 87.6022C82.1651 88.4142 81.7684 88.9836 81.3018 89.3102C80.8351 89.6462 80.2704 89.8142 79.6078 89.8142C79.2344 89.8142 78.8658 89.7536 78.5018 89.6322C78.1378 89.5109 77.8391 89.3429 77.6057 89.1282L78.3057 87.8402C78.4738 87.9989 78.6698 88.1249 78.8938 88.2182C79.1271 88.3116 79.3604 88.3582 79.5938 88.3582C79.9018 88.3582 80.1538 88.2789 80.3498 88.1202C80.5551 87.9616 80.7418 87.6956 80.9098 87.3222L81.0358 87.0282L77.7737 79.5242H79.5938L81.9458 85.0542L84.3118 79.5242H85.9918ZM94.0296 77.2002C94.879 77.2002 95.6163 77.3402 96.2416 77.6202C96.8763 77.9002 97.3616 78.3016 97.6976 78.8242C98.0336 79.3469 98.2016 79.9676 98.2016 80.6862C98.2016 81.3956 98.0336 82.0162 97.6976 82.5482C97.3616 83.0709 96.8763 83.4722 96.2416 83.7522C95.6163 84.0322 94.879 84.1722 94.0296 84.1722H91.8176V87.0002H89.9976V77.2002H94.0296ZM93.9456 82.6322C94.739 82.6322 95.341 82.4642 95.7516 82.1282C96.1623 81.7922 96.3676 81.3116 96.3676 80.6862C96.3676 80.0609 96.1623 79.5802 95.7516 79.2442C95.341 78.9082 94.739 78.7402 93.9456 78.7402H91.8176V82.6322H93.9456ZM103.667 79.4402C104.61 79.4402 105.366 79.7156 105.935 80.2662C106.505 80.8169 106.789 81.6336 106.789 82.7162V87.0002H105.039V82.9402C105.039 82.2869 104.885 81.7969 104.577 81.4702C104.269 81.1342 103.831 80.9662 103.261 80.9662C102.617 80.9662 102.109 81.1622 101.735 81.5542C101.362 81.9369 101.175 82.4922 101.175 83.2202V87.0002H99.4253V76.6122H101.175V80.3922C101.465 80.0842 101.819 79.8509 102.239 79.6922C102.669 79.5242 103.145 79.4402 103.667 79.4402ZM111.303 79.4402C112.404 79.4402 113.244 79.7062 113.823 80.2382C114.411 80.7609 114.705 81.5542 114.705 82.6182V87.0002H113.053V86.0902C112.838 86.4169 112.53 86.6689 112.129 86.8462C111.737 87.0142 111.261 87.0982 110.701 87.0982C110.141 87.0982 109.651 87.0049 109.231 86.8182C108.811 86.6222 108.484 86.3562 108.251 86.0202C108.027 85.6749 107.915 85.2876 107.915 84.8582C107.915 84.1862 108.162 83.6496 108.657 83.2482C109.161 82.8376 109.949 82.6322 111.023 82.6322H112.955V82.5202C112.955 81.9976 112.796 81.5962 112.479 81.3162C112.171 81.0362 111.709 80.8962 111.093 80.8962C110.673 80.8962 110.257 80.9616 109.847 81.0922C109.445 81.2229 109.105 81.4049 108.825 81.6382L108.139 80.3642C108.531 80.0656 109.002 79.8369 109.553 79.6782C110.103 79.5196 110.687 79.4402 111.303 79.4402ZM111.065 85.8242C111.503 85.8242 111.891 85.7262 112.227 85.5302C112.572 85.3249 112.815 85.0356 112.955 84.6622V83.7942H111.149C110.141 83.7942 109.637 84.1256 109.637 84.7882C109.637 85.1056 109.763 85.3576 110.015 85.5442C110.267 85.7309 110.617 85.8242 111.065 85.8242ZM118.698 87.0982C118.092 87.0982 117.499 87.0189 116.92 86.8602C116.342 86.7016 115.88 86.5009 115.534 86.2582L116.206 84.9282C116.542 85.1522 116.944 85.3342 117.41 85.4742C117.886 85.6049 118.353 85.6702 118.81 85.6702C119.856 85.6702 120.378 85.3949 120.378 84.8442C120.378 84.5829 120.243 84.4009 119.972 84.2982C119.711 84.1956 119.286 84.0976 118.698 84.0042C118.082 83.9109 117.578 83.8036 117.186 83.6822C116.804 83.5609 116.468 83.3509 116.178 83.0522C115.898 82.7442 115.758 82.3196 115.758 81.7782C115.758 81.0689 116.052 80.5042 116.64 80.0842C117.238 79.6549 118.04 79.4402 119.048 79.4402C119.562 79.4402 120.075 79.5009 120.588 79.6222C121.102 79.7342 121.522 79.8882 121.848 80.0842L121.176 81.4142C120.542 81.0409 119.828 80.8542 119.034 80.8542C118.521 80.8542 118.129 80.9336 117.858 81.0922C117.597 81.2416 117.466 81.4422 117.466 81.6942C117.466 81.9742 117.606 82.1749 117.886 82.2962C118.176 82.4082 118.619 82.5156 119.216 82.6182C119.814 82.7116 120.304 82.8189 120.686 82.9402C121.069 83.0616 121.396 83.2669 121.666 83.5562C121.946 83.8456 122.086 84.2562 122.086 84.7882C122.086 85.4882 121.783 86.0482 121.176 86.4682C120.57 86.8882 119.744 87.0982 118.698 87.0982ZM130.059 83.3042C130.059 83.4256 130.049 83.5982 130.031 83.8222H124.165C124.267 84.3729 124.533 84.8116 124.963 85.1382C125.401 85.4556 125.943 85.6142 126.587 85.6142C127.408 85.6142 128.085 85.3436 128.617 84.8022L129.555 85.8802C129.219 86.2816 128.794 86.5849 128.281 86.7902C127.767 86.9956 127.189 87.0982 126.545 87.0982C125.723 87.0982 125 86.9349 124.375 86.6082C123.749 86.2816 123.264 85.8289 122.919 85.2502C122.583 84.6622 122.415 83.9996 122.415 83.2622C122.415 82.5342 122.578 81.8809 122.905 81.3022C123.241 80.7142 123.703 80.2569 124.291 79.9302C124.879 79.6036 125.541 79.4402 126.279 79.4402C127.007 79.4402 127.655 79.6036 128.225 79.9302C128.803 80.2476 129.251 80.7002 129.569 81.2882C129.895 81.8669 130.059 82.5389 130.059 83.3042ZM126.279 80.8402C125.719 80.8402 125.243 81.0082 124.851 81.3442C124.468 81.6709 124.235 82.1096 124.151 82.6602H128.393C128.318 82.1189 128.089 81.6802 127.707 81.3442C127.324 81.0082 126.848 80.8402 126.279 80.8402ZM35.638 97.2002L32.39 107H30.458L28.036 99.7482L25.572 107H23.626L20.378 97.2002H22.268L24.704 104.648L27.238 97.2002H28.918L31.396 104.69L33.902 97.2002H35.638ZM39.1896 107.098C38.4336 107.098 37.7523 106.935 37.1456 106.608C36.539 106.282 36.063 105.829 35.7176 105.25C35.3816 104.662 35.2136 104 35.2136 103.262C35.2136 102.525 35.3816 101.867 35.7176 101.288C36.063 100.71 36.539 100.257 37.1456 99.9302C37.7523 99.6036 38.4336 99.4402 39.1896 99.4402C39.955 99.4402 40.641 99.6036 41.2476 99.9302C41.8543 100.257 42.3256 100.71 42.6616 101.288C43.007 101.867 43.1796 102.525 43.1796 103.262C43.1796 104 43.007 104.662 42.6616 105.25C42.3256 105.829 41.8543 106.282 41.2476 106.608C40.641 106.935 39.955 107.098 39.1896 107.098ZM39.1896 105.6C39.8336 105.6 40.3656 105.386 40.7856 104.956C41.2056 104.527 41.4156 103.962 41.4156 103.262C41.4156 102.562 41.2056 101.998 40.7856 101.568C40.3656 101.139 39.8336 100.924 39.1896 100.924C38.5456 100.924 38.0136 101.139 37.5936 101.568C37.183 101.998 36.9776 102.562 36.9776 103.262C36.9776 103.962 37.183 104.527 37.5936 104.956C38.0136 105.386 38.5456 105.6 39.1896 105.6ZM45.9566 100.616C46.4606 99.8322 47.3472 99.4402 48.6166 99.4402V101.106C48.4672 101.078 48.3319 101.064 48.2106 101.064C47.5292 101.064 46.9972 101.265 46.6146 101.666C46.2319 102.058 46.0406 102.628 46.0406 103.374V107H44.2906V99.5242H45.9566V100.616ZM52.5906 103.794L51.2886 105.026V107H49.5386V96.6122H51.2886V102.884L54.9146 99.5242H57.0146L53.8926 102.66L57.3086 107H55.1806L52.5906 103.794ZM59.9541 107.098C59.3474 107.098 58.7548 107.019 58.1761 106.86C57.5974 106.702 57.1354 106.501 56.7901 106.258L57.4621 104.928C57.7981 105.152 58.1994 105.334 58.6661 105.474C59.1421 105.605 59.6088 105.67 60.0661 105.67C61.1114 105.67 61.6341 105.395 61.6341 104.844C61.6341 104.583 61.4988 104.401 61.2281 104.298C60.9668 104.196 60.5421 104.098 59.9541 104.004C59.3381 103.911 58.8341 103.804 58.4421 103.682C58.0594 103.561 57.7234 103.351 57.4341 103.052C57.1541 102.744 57.0141 102.32 57.0141 101.778C57.0141 101.069 57.3081 100.504 57.8961 100.084C58.4934 99.6549 59.2961 99.4402 60.3041 99.4402C60.8174 99.4402 61.3308 99.5009 61.8441 99.6222C62.3574 99.7342 62.7774 99.8882 63.1041 100.084L62.4321 101.414C61.7974 101.041 61.0834 100.854 60.2901 100.854C59.7768 100.854 59.3848 100.934 59.1141 101.092C58.8528 101.242 58.7221 101.442 58.7221 101.694C58.7221 101.974 58.8621 102.175 59.1421 102.296C59.4314 102.408 59.8748 102.516 60.4721 102.618C61.0694 102.712 61.5594 102.819 61.9421 102.94C62.3248 103.062 62.6514 103.267 62.9221 103.556C63.2021 103.846 63.3421 104.256 63.3421 104.788C63.3421 105.488 63.0388 106.048 62.4321 106.468C61.8254 106.888 60.9994 107.098 59.9541 107.098ZM68.5287 99.4402C69.4713 99.4402 70.2273 99.7156 70.7967 100.266C71.366 100.817 71.6507 101.634 71.6507 102.716V107H69.9007V102.94C69.9007 102.287 69.7467 101.797 69.4387 101.47C69.1307 101.134 68.692 100.966 68.1227 100.966C67.4787 100.966 66.97 101.162 66.5967 101.554C66.2233 101.937 66.0367 102.492 66.0367 103.22V107H64.2867V96.6122H66.0367V100.392C66.326 100.084 66.6807 99.8509 67.1007 99.6922C67.53 99.5242 68.006 99.4402 68.5287 99.4402ZM76.7365 107.098C75.9805 107.098 75.2992 106.935 74.6925 106.608C74.0858 106.282 73.6098 105.829 73.2645 105.25C72.9285 104.662 72.7605 104 72.7605 103.262C72.7605 102.525 72.9285 101.867 73.2645 101.288C73.6098 100.71 74.0858 100.257 74.6925 99.9302C75.2992 99.6036 75.9805 99.4402 76.7365 99.4402C77.5018 99.4402 78.1878 99.6036 78.7945 99.9302C79.4012 100.257 79.8725 100.71 80.2085 101.288C80.5538 101.867 80.7265 102.525 80.7265 103.262C80.7265 104 80.5538 104.662 80.2085 105.25C79.8725 105.829 79.4012 106.282 78.7945 106.608C78.1878 106.935 77.5018 107.098 76.7365 107.098ZM76.7365 105.6C77.3805 105.6 77.9125 105.386 78.3325 104.956C78.7525 104.527 78.9625 103.962 78.9625 103.262C78.9625 102.562 78.7525 101.998 78.3325 101.568C77.9125 101.139 77.3805 100.924 76.7365 100.924C76.0925 100.924 75.5605 101.139 75.1405 101.568C74.7298 101.998 74.5245 102.562 74.5245 103.262C74.5245 103.962 74.7298 104.527 75.1405 104.956C75.5605 105.386 76.0925 105.6 76.7365 105.6ZM85.9815 99.4402C86.7095 99.4402 87.3581 99.5989 87.9275 99.9162C88.5061 100.234 88.9588 100.682 89.2855 101.26C89.6121 101.839 89.7755 102.506 89.7755 103.262C89.7755 104.018 89.6121 104.69 89.2855 105.278C88.9588 105.857 88.5061 106.305 87.9275 106.622C87.3581 106.94 86.7095 107.098 85.9815 107.098C84.9735 107.098 84.1755 106.762 83.5875 106.09V109.716H81.8375V99.5242H83.5035V100.504C83.7928 100.15 84.1475 99.8836 84.5675 99.7062C84.9968 99.5289 85.4681 99.4402 85.9815 99.4402ZM85.7855 105.6C86.4295 105.6 86.9568 105.386 87.3675 104.956C87.7875 104.527 87.9975 103.962 87.9975 103.262C87.9975 102.562 87.7875 101.998 87.3675 101.568C86.9568 101.139 86.4295 100.924 85.7855 100.924C85.3655 100.924 84.9875 101.022 84.6515 101.218C84.3155 101.405 84.0495 101.676 83.8535 102.03C83.6575 102.385 83.5595 102.796 83.5595 103.262C83.5595 103.729 83.6575 104.14 83.8535 104.494C84.0495 104.849 84.3155 105.124 84.6515 105.32C84.9875 105.507 85.3655 105.6 85.7855 105.6Z" fill="#fff"/><path d="M200.316 76.2002H202.136V86.0002H200.316V76.2002ZM208.55 85.5942C208.345 85.7622 208.093 85.8882 207.794 85.9722C207.505 86.0562 207.197 86.0982 206.87 86.0982C206.049 86.0982 205.414 85.8836 204.966 85.4542C204.518 85.0249 204.294 84.3996 204.294 83.5782V79.9802H203.062V78.5802H204.294V76.8722H206.044V78.5802H208.046V79.9802H206.044V83.5362C206.044 83.9002 206.133 84.1802 206.31 84.3762C206.488 84.5629 206.744 84.6562 207.08 84.6562C207.472 84.6562 207.799 84.5536 208.06 84.3482L208.55 85.5942ZM216.209 82.3042C216.209 82.4256 216.2 82.5982 216.181 82.8222H210.315C210.418 83.3729 210.684 83.8116 211.113 84.1382C211.552 84.4556 212.093 84.6142 212.737 84.6142C213.559 84.6142 214.235 84.3436 214.767 83.8022L215.705 84.8802C215.369 85.2816 214.945 85.5849 214.431 85.7902C213.918 85.9956 213.339 86.0982 212.695 86.0982C211.874 86.0982 211.151 85.9349 210.525 85.6082C209.9 85.2816 209.415 84.8289 209.069 84.2502C208.733 83.6622 208.565 82.9996 208.565 82.2622C208.565 81.5342 208.729 80.8809 209.055 80.3022C209.391 79.7142 209.853 79.2569 210.441 78.9302C211.029 78.6036 211.692 78.4402 212.429 78.4402C213.157 78.4402 213.806 78.6036 214.375 78.9302C214.954 79.2476 215.402 79.7002 215.719 80.2882C216.046 80.8669 216.209 81.5389 216.209 82.3042ZM212.429 79.8402C211.869 79.8402 211.393 80.0082 211.001 80.3442C210.619 80.6709 210.385 81.1096 210.301 81.6602H214.543C214.469 81.1189 214.24 80.6802 213.857 80.3442C213.475 80.0082 212.999 79.8402 212.429 79.8402ZM218.994 79.6162C219.498 78.8322 220.384 78.4402 221.654 78.4402V80.1062C221.504 80.0782 221.369 80.0642 221.248 80.0642C220.566 80.0642 220.034 80.2649 219.652 80.6662C219.269 81.0582 219.078 81.6276 219.078 82.3742V86.0002H217.328V78.5242H218.994V79.6162ZM225.391 78.4402C226.492 78.4402 227.332 78.7062 227.911 79.2382C228.499 79.7609 228.793 80.5542 228.793 81.6182V86.0002H227.141V85.0902C226.926 85.4169 226.618 85.6689 226.217 85.8462C225.825 86.0142 225.349 86.0982 224.789 86.0982C224.229 86.0982 223.739 86.0049 223.319 85.8182C222.899 85.6222 222.572 85.3562 222.339 85.0202C222.115 84.6749 222.003 84.2876 222.003 83.8582C222.003 83.1862 222.25 82.6496 222.745 82.2482C223.249 81.8376 224.037 81.6322 225.111 81.6322H227.043V81.5202C227.043 80.9976 226.884 80.5962 226.567 80.3162C226.259 80.0362 225.797 79.8962 225.181 79.8962C224.761 79.8962 224.345 79.9616 223.935 80.0922C223.533 80.2229 223.193 80.4049 222.913 80.6382L222.227 79.3642C222.619 79.0656 223.09 78.8369 223.641 78.6782C224.191 78.5196 224.775 78.4402 225.391 78.4402ZM225.153 84.8242C225.591 84.8242 225.979 84.7262 226.315 84.5302C226.66 84.3249 226.903 84.0356 227.043 83.6622V82.7942H225.237C224.229 82.7942 223.725 83.1256 223.725 83.7882C223.725 84.1056 223.851 84.3576 224.103 84.5442C224.355 84.7309 224.705 84.8242 225.153 84.8242ZM234.97 85.5942C234.765 85.7622 234.513 85.8882 234.214 85.9722C233.925 86.0562 233.617 86.0982 233.29 86.0982C232.469 86.0982 231.834 85.8836 231.386 85.4542C230.938 85.0249 230.714 84.3996 230.714 83.5782V79.9802H229.482V78.5802H230.714V76.8722H232.464V78.5802H234.466V79.9802H232.464V83.5362C232.464 83.9002 232.553 84.1802 232.73 84.3762C232.907 84.5629 233.164 84.6562 233.5 84.6562C233.892 84.6562 234.219 84.5536 234.48 84.3482L234.97 85.5942ZM235.847 78.5242H237.597V86.0002H235.847V78.5242ZM236.729 77.2922C236.412 77.2922 236.146 77.1942 235.931 76.9982C235.717 76.7929 235.609 76.5409 235.609 76.2422C235.609 75.9436 235.717 75.6962 235.931 75.5002C236.146 75.2949 236.412 75.1922 236.729 75.1922C237.047 75.1922 237.313 75.2902 237.527 75.4862C237.742 75.6729 237.849 75.9109 237.849 76.2002C237.849 76.5082 237.742 76.7696 237.527 76.9842C237.322 77.1896 237.056 77.2922 236.729 77.2922ZM246.332 78.5242L243.126 86.0002H241.32L238.114 78.5242H239.934L242.258 84.0682L244.652 78.5242H246.332ZM253.686 82.3042C253.686 82.4256 253.676 82.5982 253.658 82.8222H247.792C247.894 83.3729 248.16 83.8116 248.59 84.1382C249.028 84.4556 249.57 84.6142 250.214 84.6142C251.035 84.6142 251.712 84.3436 252.244 83.8022L253.182 84.8802C252.846 85.2816 252.421 85.5849 251.908 85.7902C251.394 85.9956 250.816 86.0982 250.172 86.0982C249.35 86.0982 248.627 85.9349 248.002 85.6082C247.376 85.2816 246.891 84.8289 246.546 84.2502C246.21 83.6622 246.042 82.9996 246.042 82.2622C246.042 81.5342 246.205 80.8809 246.532 80.3022C246.868 79.7142 247.33 79.2569 247.918 78.9302C248.506 78.6036 249.168 78.4402 249.906 78.4402C250.634 78.4402 251.282 78.6036 251.852 78.9302C252.43 79.2476 252.878 79.7002 253.196 80.2882C253.522 80.8669 253.686 81.5389 253.686 82.3042ZM249.906 79.8402C249.346 79.8402 248.87 80.0082 248.478 80.3442C248.095 80.6709 247.862 81.1096 247.778 81.6602H252.02C251.945 81.1189 251.716 80.6802 251.334 80.3442C250.951 80.0082 250.475 79.8402 249.906 79.8402ZM258.279 76.2002H262.563C263.608 76.2002 264.537 76.4056 265.349 76.8162C266.161 77.2176 266.791 77.7916 267.239 78.5382C267.687 79.2756 267.911 80.1296 267.911 81.1002C267.911 82.0709 267.687 82.9296 267.239 83.6762C266.791 84.4136 266.161 84.9876 265.349 85.3982C264.537 85.7996 263.608 86.0002 262.563 86.0002H258.279V76.2002ZM262.479 84.4602C263.198 84.4602 263.828 84.3249 264.369 84.0542C264.92 83.7742 265.34 83.3822 265.629 82.8782C265.928 82.3649 266.077 81.7722 266.077 81.1002C266.077 80.4282 265.928 79.8402 265.629 79.3362C265.34 78.8229 264.92 78.4309 264.369 78.1602C263.828 77.8802 263.198 77.7402 262.479 77.7402H260.099V84.4602H262.479ZM276.143 82.3042C276.143 82.4256 276.133 82.5982 276.115 82.8222H270.249C270.351 83.3729 270.617 83.8116 271.047 84.1382C271.485 84.4556 272.027 84.6142 272.671 84.6142C273.492 84.6142 274.169 84.3436 274.701 83.8022L275.639 84.8802C275.303 85.2816 274.878 85.5849 274.365 85.7902C273.851 85.9956 273.273 86.0982 272.629 86.0982C271.807 86.0982 271.084 85.9349 270.459 85.6082C269.833 85.2816 269.348 84.8289 269.003 84.2502C268.667 83.6622 268.499 82.9996 268.499 82.2622C268.499 81.5342 268.662 80.8809 268.989 80.3022C269.325 79.7142 269.787 79.2569 270.375 78.9302C270.963 78.6036 271.625 78.4402 272.363 78.4402C273.091 78.4402 273.739 78.6036 274.309 78.9302C274.887 79.2476 275.335 79.7002 275.653 80.2882C275.979 80.8669 276.143 81.5389 276.143 82.3042ZM272.363 79.8402C271.803 79.8402 271.327 80.0082 270.935 80.3442C270.552 80.6709 270.319 81.1096 270.235 81.6602H274.477C274.402 81.1189 274.173 80.6802 273.791 80.3442C273.408 80.0082 272.932 79.8402 272.363 79.8402ZM284.125 78.5242L280.919 86.0002H279.113L275.907 78.5242H277.727L280.051 84.0682L282.445 78.5242H284.125ZM291.479 82.3042C291.479 82.4256 291.469 82.5982 291.451 82.8222H285.585C285.687 83.3729 285.953 83.8116 286.383 84.1382C286.821 84.4556 287.363 84.6142 288.007 84.6142C288.828 84.6142 289.505 84.3436 290.037 83.8022L290.975 84.8802C290.639 85.2816 290.214 85.5849 289.701 85.7902C289.187 85.9956 288.609 86.0982 287.965 86.0982C287.143 86.0982 286.42 85.9349 285.795 85.6082C285.169 85.2816 284.684 84.8289 284.339 84.2502C284.003 83.6622 283.835 82.9996 283.835 82.2622C283.835 81.5342 283.998 80.8809 284.325 80.3022C284.661 79.7142 285.123 79.2569 285.711 78.9302C286.299 78.6036 286.961 78.4402 287.699 78.4402C288.427 78.4402 289.075 78.6036 289.645 78.9302C290.223 79.2476 290.671 79.7002 290.989 80.2882C291.315 80.8669 291.479 81.5389 291.479 82.3042ZM287.699 79.8402C287.139 79.8402 286.663 80.0082 286.271 80.3442C285.888 80.6709 285.655 81.1096 285.571 81.6602H289.813C289.738 81.1189 289.509 80.6802 289.127 80.3442C288.744 80.0082 288.268 79.8402 287.699 79.8402ZM292.597 75.6122H294.347V86.0002H292.597V75.6122ZM299.442 86.0982C298.686 86.0982 298.004 85.9349 297.398 85.6082C296.791 85.2816 296.315 84.8289 295.97 84.2502C295.634 83.6622 295.466 82.9996 295.466 82.2622C295.466 81.5249 295.634 80.8669 295.97 80.2882C296.315 79.7096 296.791 79.2569 297.398 78.9302C298.004 78.6036 298.686 78.4402 299.442 78.4402C300.207 78.4402 300.893 78.6036 301.5 78.9302C302.106 79.2569 302.578 79.7096 302.914 80.2882C303.259 80.8669 303.432 81.5249 303.432 82.2622C303.432 82.9996 303.259 83.6622 302.914 84.2502C302.578 84.8289 302.106 85.2816 301.5 85.6082C300.893 85.9349 300.207 86.0982 299.442 86.0982ZM299.442 84.6002C300.086 84.6002 300.618 84.3856 301.038 83.9562C301.458 83.5269 301.668 82.9622 301.668 82.2622C301.668 81.5622 301.458 80.9976 301.038 80.5682C300.618 80.1389 300.086 79.9242 299.442 79.9242C298.798 79.9242 298.266 80.1389 297.846 80.5682C297.435 80.9976 297.23 81.5622 297.23 82.2622C297.23 82.9622 297.435 83.5269 297.846 83.9562C298.266 84.3856 298.798 84.6002 299.442 84.6002ZM308.687 78.4402C309.415 78.4402 310.063 78.5989 310.633 78.9162C311.211 79.2336 311.664 79.6816 311.991 80.2602C312.317 80.8389 312.481 81.5062 312.481 82.2622C312.481 83.0182 312.317 83.6902 311.991 84.2782C311.664 84.8569 311.211 85.3049 310.633 85.6222C310.063 85.9396 309.415 86.0982 308.687 86.0982C307.679 86.0982 306.881 85.7622 306.293 85.0902V88.7162H304.543V78.5242H306.209V79.5042C306.498 79.1496 306.853 78.8836 307.273 78.7062C307.702 78.5289 308.173 78.4402 308.687 78.4402ZM308.491 84.6002C309.135 84.6002 309.662 84.3856 310.073 83.9562C310.493 83.5269 310.703 82.9622 310.703 82.2622C310.703 81.5622 310.493 80.9976 310.073 80.5682C309.662 80.1389 309.135 79.9242 308.491 79.9242C308.071 79.9242 307.693 80.0222 307.357 80.2182C307.021 80.4049 306.755 80.6756 306.559 81.0302C306.363 81.3849 306.265 81.7956 306.265 82.2622C306.265 82.7289 306.363 83.1396 306.559 83.4942C306.755 83.8489 307.021 84.1242 307.357 84.3202C307.693 84.5069 308.071 84.6002 308.491 84.6002ZM323.014 78.4402C323.956 78.4402 324.703 78.7156 325.254 79.2662C325.804 79.8076 326.08 80.6242 326.08 81.7162V86.0002H324.33V81.9402C324.33 81.2869 324.185 80.7969 323.896 80.4702C323.606 80.1342 323.191 79.9662 322.65 79.9662C322.062 79.9662 321.59 80.1622 321.236 80.5542C320.881 80.9369 320.704 81.4876 320.704 82.2062V86.0002H318.954V81.9402C318.954 81.2869 318.809 80.7969 318.52 80.4702C318.23 80.1342 317.815 79.9662 317.274 79.9662C316.676 79.9662 316.2 80.1576 315.846 80.5402C315.5 80.9229 315.328 81.4782 315.328 82.2062V86.0002H313.578V78.5242H315.244V79.4762C315.524 79.1402 315.874 78.8836 316.294 78.7062C316.714 78.5289 317.18 78.4402 317.694 78.4402C318.254 78.4402 318.748 78.5476 319.178 78.7622C319.616 78.9676 319.962 79.2756 320.214 79.6862C320.522 79.2942 320.918 78.9909 321.404 78.7762C321.889 78.5522 322.426 78.4402 323.014 78.4402ZM334.85 82.3042C334.85 82.4256 334.84 82.5982 334.822 82.8222H328.956C329.058 83.3729 329.324 83.8116 329.754 84.1382C330.192 84.4556 330.734 84.6142 331.378 84.6142C332.199 84.6142 332.876 84.3436 333.408 83.8022L334.346 84.8802C334.01 85.2816 333.585 85.5849 333.072 85.7902C332.558 85.9956 331.98 86.0982 331.336 86.0982C330.514 86.0982 329.791 85.9349 329.166 85.6082C328.54 85.2816 328.055 84.8289 327.71 84.2502C327.374 83.6622 327.206 82.9996 327.206 82.2622C327.206 81.5342 327.369 80.8809 327.696 80.3022C328.032 79.7142 328.494 79.2569 329.082 78.9302C329.67 78.6036 330.332 78.4402 331.07 78.4402C331.798 78.4402 332.446 78.6036 333.016 78.9302C333.594 79.2476 334.042 79.7002 334.36 80.2882C334.686 80.8669 334.85 81.5389 334.85 82.3042ZM331.07 79.8402C330.51 79.8402 330.034 80.0082 329.642 80.3442C329.259 80.6709 329.026 81.1096 328.942 81.6602H333.184C333.109 81.1189 332.88 80.6802 332.498 80.3442C332.115 80.0082 331.639 79.8402 331.07 79.8402ZM340.21 78.4402C341.153 78.4402 341.909 78.7156 342.478 79.2662C343.048 79.8169 343.332 80.6336 343.332 81.7162V86.0002H341.582V81.9402C341.582 81.2869 341.428 80.7969 341.12 80.4702C340.812 80.1342 340.374 79.9662 339.804 79.9662C339.16 79.9662 338.652 80.1622 338.278 80.5542C337.905 80.9369 337.718 81.4922 337.718 82.2202V86.0002H335.968V78.5242H337.634V79.4902C337.924 79.1449 338.288 78.8836 338.726 78.7062C339.165 78.5289 339.66 78.4402 340.21 78.4402ZM349.484 85.5942C349.278 85.7622 349.026 85.8882 348.728 85.9722C348.438 86.0562 348.13 86.0982 347.804 86.0982C346.982 86.0982 346.348 85.8836 345.9 85.4542C345.452 85.0249 345.228 84.3996 345.228 83.5782V79.9802H343.996V78.5802H345.228V76.8722H346.978V78.5802H348.98V79.9802H346.978V83.5362C346.978 83.9002 347.066 84.1802 347.244 84.3762C347.421 84.5629 347.678 84.6562 348.014 84.6562C348.406 84.6562 348.732 84.5536 348.994 84.3482L349.484 85.5942ZM350.921 80.7642C350.604 80.7642 350.333 80.6569 350.109 80.4422C349.885 80.2182 349.773 79.9382 349.773 79.6022C349.773 79.2569 349.88 78.9769 350.095 78.7622C350.319 78.5476 350.594 78.4402 350.921 78.4402C351.248 78.4402 351.518 78.5476 351.733 78.7622C351.957 78.9769 352.069 79.2569 352.069 79.6022C352.069 79.9382 351.957 80.2182 351.733 80.4422C351.509 80.6569 351.238 80.7642 350.921 80.7642ZM350.921 86.0982C350.604 86.0982 350.333 85.9909 350.109 85.7762C349.885 85.5522 349.773 85.2722 349.773 84.9362C349.773 84.5909 349.88 84.3109 350.095 84.0962C350.319 83.8816 350.594 83.7742 350.921 83.7742C351.248 83.7742 351.518 83.8816 351.733 84.0962C351.957 84.3109 352.069 84.5909 352.069 84.9362C352.069 85.2722 351.957 85.5522 351.733 85.7762C351.509 85.9909 351.238 86.0982 350.921 86.0982ZM204.53 106.14C203.177 106.14 202.122 105.762 201.366 105.006C200.61 104.241 200.232 103.149 200.232 101.73V96.2002H202.052V101.66C202.052 103.583 202.883 104.544 204.544 104.544C206.196 104.544 207.022 103.583 207.022 101.66V96.2002H208.814V101.73C208.814 103.149 208.436 104.241 207.68 105.006C206.933 105.762 205.883 106.14 204.53 106.14ZM210.8 96.2002H212.62V106H210.8V96.2002ZM217.593 94.2122H219.161L214.541 107.4H212.973L217.593 94.2122ZM223.555 106.14C222.202 106.14 221.147 105.762 220.391 105.006C219.635 104.241 219.257 103.149 219.257 101.73V96.2002H221.077V101.66C221.077 103.583 221.908 104.544 223.569 104.544C225.221 104.544 226.047 103.583 226.047 101.66V96.2002H227.839V101.73C227.839 103.149 227.461 104.241 226.705 105.006C225.959 105.762 224.909 106.14 223.555 106.14ZM235.863 106L233.203 102.276L230.571 106H228.499L232.139 101.002L228.695 96.2002H230.753L233.259 99.6862L235.737 96.2002H237.711L234.281 100.932L237.963 106H235.863ZM242.14 96.2002H246.424C247.47 96.2002 248.398 96.4056 249.21 96.8162C250.022 97.2176 250.652 97.7916 251.1 98.5382C251.548 99.2756 251.772 100.13 251.772 101.1C251.772 102.071 251.548 102.93 251.1 103.676C250.652 104.414 250.022 104.988 249.21 105.398C248.398 105.8 247.47 106 246.424 106H242.14V96.2002ZM246.34 104.46C247.059 104.46 247.689 104.325 248.23 104.054C248.781 103.774 249.201 103.382 249.49 102.878C249.789 102.365 249.938 101.772 249.938 101.1C249.938 100.428 249.789 99.8402 249.49 99.3362C249.201 98.8229 248.781 98.4309 248.23 98.1602C247.689 97.8802 247.059 97.7402 246.34 97.7402H243.96V104.46H246.34ZM260.004 102.304C260.004 102.426 259.995 102.598 259.976 102.822H254.11C254.213 103.373 254.479 103.812 254.908 104.138C255.347 104.456 255.888 104.614 256.532 104.614C257.353 104.614 258.03 104.344 258.562 103.802L259.5 104.88C259.164 105.282 258.739 105.585 258.226 105.79C257.713 105.996 257.134 106.098 256.49 106.098C255.669 106.098 254.945 105.935 254.32 105.608C253.695 105.282 253.209 104.829 252.864 104.25C252.528 103.662 252.36 103 252.36 102.262C252.36 101.534 252.523 100.881 252.85 100.302C253.186 99.7142 253.648 99.2569 254.236 98.9302C254.824 98.6036 255.487 98.4402 256.224 98.4402C256.952 98.4402 257.601 98.6036 258.17 98.9302C258.749 99.2476 259.197 99.7002 259.514 100.288C259.841 100.867 260.004 101.539 260.004 102.304ZM256.224 99.8402C255.664 99.8402 255.188 100.008 254.796 100.344C254.413 100.671 254.18 101.11 254.096 101.66H258.338C258.263 101.119 258.035 100.68 257.652 100.344C257.269 100.008 256.793 99.8402 256.224 99.8402ZM263.433 106.098C262.826 106.098 262.233 106.019 261.655 105.86C261.076 105.702 260.614 105.501 260.269 105.258L260.941 103.928C261.277 104.152 261.678 104.334 262.145 104.474C262.621 104.605 263.087 104.67 263.545 104.67C264.59 104.67 265.113 104.395 265.113 103.844C265.113 103.583 264.977 103.401 264.707 103.298C264.445 103.196 264.021 103.098 263.433 103.004C262.817 102.911 262.313 102.804 261.921 102.682C261.538 102.561 261.202 102.351 260.913 102.052C260.633 101.744 260.493 101.32 260.493 100.778C260.493 100.069 260.787 99.5042 261.375 99.0842C261.972 98.6549 262.775 98.4402 263.783 98.4402C264.296 98.4402 264.809 98.5009 265.323 98.6222C265.836 98.7342 266.256 98.8882 266.583 99.0842L265.911 100.414C265.276 100.041 264.562 99.8542 263.769 99.8542C263.255 99.8542 262.863 99.9336 262.593 100.092C262.331 100.242 262.201 100.442 262.201 100.694C262.201 100.974 262.341 101.175 262.621 101.296C262.91 101.408 263.353 101.516 263.951 101.618C264.548 101.712 265.038 101.819 265.421 101.94C265.803 102.062 266.13 102.267 266.401 102.556C266.681 102.846 266.821 103.256 266.821 103.788C266.821 104.488 266.517 105.048 265.911 105.468C265.304 105.888 264.478 106.098 263.433 106.098ZM267.765 98.5242H269.515V106H267.765V98.5242ZM268.647 97.2922C268.33 97.2922 268.064 97.1942 267.849 96.9982C267.635 96.7929 267.527 96.5409 267.527 96.2422C267.527 95.9436 267.635 95.6962 267.849 95.5002C268.064 95.2949 268.33 95.1922 268.647 95.1922C268.965 95.1922 269.231 95.2902 269.445 95.4862C269.66 95.6729 269.767 95.9109 269.767 96.2002C269.767 96.5082 269.66 96.7696 269.445 96.9842C269.24 97.1896 268.974 97.2922 268.647 97.2922ZM278.67 98.5242V104.866C278.67 107.498 277.326 108.814 274.638 108.814C273.919 108.814 273.238 108.721 272.594 108.534C271.95 108.357 271.418 108.096 270.998 107.75L271.782 106.434C272.108 106.705 272.519 106.92 273.014 107.078C273.518 107.246 274.026 107.33 274.54 107.33C275.361 107.33 275.963 107.144 276.346 106.77C276.728 106.397 276.92 105.828 276.92 105.062V104.67C276.621 104.997 276.257 105.244 275.828 105.412C275.398 105.58 274.927 105.664 274.414 105.664C273.704 105.664 273.06 105.515 272.482 105.216C271.912 104.908 271.46 104.479 271.124 103.928C270.797 103.378 270.634 102.748 270.634 102.038C270.634 101.329 270.797 100.704 271.124 100.162C271.46 99.6116 271.912 99.1869 272.482 98.8882C273.06 98.5896 273.704 98.4402 274.414 98.4402C274.955 98.4402 275.445 98.5289 275.884 98.7062C276.332 98.8836 276.705 99.1542 277.004 99.5182V98.5242H278.67ZM274.68 104.18C275.342 104.18 275.884 103.984 276.304 103.592C276.733 103.191 276.948 102.673 276.948 102.038C276.948 101.413 276.733 100.904 276.304 100.512C275.884 100.12 275.342 99.9242 274.68 99.9242C274.008 99.9242 273.457 100.12 273.028 100.512C272.608 100.904 272.398 101.413 272.398 102.038C272.398 102.673 272.608 103.191 273.028 103.592C273.457 103.984 274.008 104.18 274.68 104.18ZM284.65 98.4402C285.592 98.4402 286.348 98.7156 286.918 99.2662C287.487 99.8169 287.772 100.634 287.772 101.716V106H286.022V101.94C286.022 101.287 285.868 100.797 285.56 100.47C285.252 100.134 284.813 99.9662 284.244 99.9662C283.6 99.9662 283.091 100.162 282.718 100.554C282.344 100.937 282.158 101.492 282.158 102.22V106H280.408V98.5242H282.074V99.4902C282.363 99.1449 282.727 98.8836 283.166 98.7062C283.604 98.5289 284.099 98.4402 284.65 98.4402ZM290.003 103.774C290.33 103.774 290.601 103.882 290.815 104.096C291.03 104.311 291.137 104.591 291.137 104.936C291.137 105.086 291.114 105.244 291.067 105.412C291.03 105.571 290.946 105.814 290.815 106.14L290.101 108.114H288.967L289.527 105.972C289.322 105.888 289.159 105.758 289.037 105.58C288.925 105.394 288.869 105.179 288.869 104.936C288.869 104.591 288.977 104.311 289.191 104.096C289.406 103.882 289.677 103.774 290.003 103.774ZM295.759 96.2002H300.043C301.089 96.2002 302.017 96.4056 302.829 96.8162C303.641 97.2176 304.271 97.7916 304.719 98.5382C305.167 99.2756 305.391 100.13 305.391 101.1C305.391 102.071 305.167 102.93 304.719 103.676C304.271 104.414 303.641 104.988 302.829 105.398C302.017 105.8 301.089 106 300.043 106H295.759V96.2002ZM299.959 104.46C300.678 104.46 301.308 104.325 301.849 104.054C302.4 103.774 302.82 103.382 303.109 102.878C303.408 102.365 303.557 101.772 303.557 101.1C303.557 100.428 303.408 99.8402 303.109 99.3362C302.82 98.8229 302.4 98.4309 301.849 98.1602C301.308 97.8802 300.678 97.7402 299.959 97.7402H297.579V104.46H299.959ZM313.623 102.304C313.623 102.426 313.614 102.598 313.595 102.822H307.729C307.832 103.373 308.098 103.812 308.527 104.138C308.966 104.456 309.507 104.614 310.151 104.614C310.973 104.614 311.649 104.344 312.181 103.802L313.119 104.88C312.783 105.282 312.359 105.585 311.845 105.79C311.332 105.996 310.753 106.098 310.109 106.098C309.288 106.098 308.565 105.935 307.939 105.608C307.314 105.282 306.829 104.829 306.483 104.25C306.147 103.662 305.979 103 305.979 102.262C305.979 101.534 306.143 100.881 306.469 100.302C306.805 99.7142 307.267 99.2569 307.855 98.9302C308.443 98.6036 309.106 98.4402 309.843 98.4402C310.571 98.4402 311.22 98.6036 311.789 98.9302C312.368 99.2476 312.816 99.7002 313.133 100.288C313.46 100.867 313.623 101.539 313.623 102.304ZM309.843 99.8402C309.283 99.8402 308.807 100.008 308.415 100.344C308.033 100.671 307.799 101.11 307.715 101.66H311.957C311.883 101.119 311.654 100.68 311.271 100.344C310.889 100.008 310.413 99.8402 309.843 99.8402ZM321.605 98.5242L318.399 106H316.593L313.387 98.5242H315.207L317.531 104.068L319.925 98.5242H321.605ZM328.959 102.304C328.959 102.426 328.95 102.598 328.931 102.822H323.065C323.168 103.373 323.434 103.812 323.863 104.138C324.302 104.456 324.843 104.614 325.487 104.614C326.309 104.614 326.985 104.344 327.517 103.802L328.455 104.88C328.119 105.282 327.695 105.585 327.181 105.79C326.668 105.996 326.089 106.098 325.445 106.098C324.624 106.098 323.901 105.935 323.275 105.608C322.65 105.282 322.165 104.829 321.819 104.25C321.483 103.662 321.315 103 321.315 102.262C321.315 101.534 321.479 100.881 321.805 100.302C322.141 99.7142 322.603 99.2569 323.191 98.9302C323.779 98.6036 324.442 98.4402 325.179 98.4402C325.907 98.4402 326.556 98.6036 327.125 98.9302C327.704 99.2476 328.152 99.7002 328.469 100.288C328.796 100.867 328.959 101.539 328.959 102.304ZM325.179 99.8402C324.619 99.8402 324.143 100.008 323.751 100.344C323.369 100.671 323.135 101.11 323.051 101.66H327.293C327.219 101.119 326.99 100.68 326.607 100.344C326.225 100.008 325.749 99.8402 325.179 99.8402ZM330.078 95.6122H331.828V106H330.078V95.6122ZM336.922 106.098C336.166 106.098 335.485 105.935 334.878 105.608C334.271 105.282 333.795 104.829 333.45 104.25C333.114 103.662 332.946 103 332.946 102.262C332.946 101.525 333.114 100.867 333.45 100.288C333.795 99.7096 334.271 99.2569 334.878 98.9302C335.485 98.6036 336.166 98.4402 336.922 98.4402C337.687 98.4402 338.373 98.6036 338.98 98.9302C339.587 99.2569 340.058 99.7096 340.394 100.288C340.739 100.867 340.912 101.525 340.912 102.262C340.912 103 340.739 103.662 340.394 104.25C340.058 104.829 339.587 105.282 338.98 105.608C338.373 105.935 337.687 106.098 336.922 106.098ZM336.922 104.6C337.566 104.6 338.098 104.386 338.518 103.956C338.938 103.527 339.148 102.962 339.148 102.262C339.148 101.562 338.938 100.998 338.518 100.568C338.098 100.139 337.566 99.9242 336.922 99.9242C336.278 99.9242 335.746 100.139 335.326 100.568C334.915 100.998 334.71 101.562 334.71 102.262C334.71 102.962 334.915 103.527 335.326 103.956C335.746 104.386 336.278 104.6 336.922 104.6ZM346.167 98.4402C346.895 98.4402 347.544 98.5989 348.113 98.9162C348.692 99.2336 349.144 99.6816 349.471 100.26C349.798 100.839 349.961 101.506 349.961 102.262C349.961 103.018 349.798 103.69 349.471 104.278C349.144 104.857 348.692 105.305 348.113 105.622C347.544 105.94 346.895 106.098 346.167 106.098C345.159 106.098 344.361 105.762 343.773 105.09V108.716H342.023V98.5242H343.689V99.5042C343.978 99.1496 344.333 98.8836 344.753 98.7062C345.182 98.5289 345.654 98.4402 346.167 98.4402ZM345.971 104.6C346.615 104.6 347.142 104.386 347.553 103.956C347.973 103.527 348.183 102.962 348.183 102.262C348.183 101.562 347.973 100.998 347.553 100.568C347.142 100.139 346.615 99.9242 345.971 99.9242C345.551 99.9242 345.173 100.022 344.837 100.218C344.501 100.405 344.235 100.676 344.039 101.03C343.843 101.385 343.745 101.796 343.745 102.262C343.745 102.729 343.843 103.14 344.039 103.494C344.235 103.849 344.501 104.124 344.837 104.32C345.173 104.507 345.551 104.6 345.971 104.6ZM360.494 98.4402C361.437 98.4402 362.183 98.7156 362.734 99.2662C363.285 99.8076 363.56 100.624 363.56 101.716V106H361.81V101.94C361.81 101.287 361.665 100.797 361.376 100.47C361.087 100.134 360.671 99.9662 360.13 99.9662C359.542 99.9662 359.071 100.162 358.716 100.554C358.361 100.937 358.184 101.488 358.184 102.206V106H356.434V101.94C356.434 101.287 356.289 100.797 356 100.47C355.711 100.134 355.295 99.9662 354.754 99.9662C354.157 99.9662 353.681 100.158 353.326 100.54C352.981 100.923 352.808 101.478 352.808 102.206V106H351.058V98.5242H352.724V99.4762C353.004 99.1402 353.354 98.8836 353.774 98.7062C354.194 98.5289 354.661 98.4402 355.174 98.4402C355.734 98.4402 356.229 98.5476 356.658 98.7622C357.097 98.9676 357.442 99.2756 357.694 99.6862C358.002 99.2942 358.399 98.9909 358.884 98.7762C359.369 98.5522 359.906 98.4402 360.494 98.4402ZM372.33 102.304C372.33 102.426 372.321 102.598 372.302 102.822H366.436C366.539 103.373 366.805 103.812 367.234 104.138C367.673 104.456 368.214 104.614 368.858 104.614C369.68 104.614 370.356 104.344 370.888 103.802L371.826 104.88C371.49 105.282 371.066 105.585 370.552 105.79C370.039 105.996 369.46 106.098 368.816 106.098C367.995 106.098 367.272 105.935 366.646 105.608C366.021 105.282 365.536 104.829 365.19 104.25C364.854 103.662 364.686 103 364.686 102.262C364.686 101.534 364.85 100.881 365.176 100.302C365.512 99.7142 365.974 99.2569 366.562 98.9302C367.15 98.6036 367.813 98.4402 368.55 98.4402C369.278 98.4402 369.927 98.6036 370.496 98.9302C371.075 99.2476 371.523 99.7002 371.84 100.288C372.167 100.867 372.33 101.539 372.33 102.304ZM368.55 99.8402C367.99 99.8402 367.514 100.008 367.122 100.344C366.74 100.671 366.506 101.11 366.422 101.66H370.664C370.59 101.119 370.361 100.68 369.978 100.344C369.596 100.008 369.12 99.8402 368.55 99.8402ZM377.691 98.4402C378.633 98.4402 379.389 98.7156 379.959 99.2662C380.528 99.8169 380.813 100.634 380.813 101.716V106H379.063V101.94C379.063 101.287 378.909 100.797 378.601 100.47C378.293 100.134 377.854 99.9662 377.285 99.9662C376.641 99.9662 376.132 100.162 375.759 100.554C375.385 100.937 375.199 101.492 375.199 102.22V106H373.449V98.5242H375.115V99.4902C375.404 99.1449 375.768 98.8836 376.207 98.7062C376.645 98.5289 377.14 98.4402 377.691 98.4402ZM386.964 105.594C386.759 105.762 386.507 105.888 386.208 105.972C385.919 106.056 385.611 106.098 385.284 106.098C384.463 106.098 383.828 105.884 383.38 105.454C382.932 105.025 382.708 104.4 382.708 103.578V99.9802H381.476V98.5802H382.708V96.8722H384.458V98.5802H386.46V99.9802H384.458V103.536C384.458 103.9 384.547 104.18 384.724 104.376C384.902 104.563 385.158 104.656 385.494 104.656C385.886 104.656 386.213 104.554 386.474 104.348L386.964 105.594ZM388.552 103.774C388.879 103.774 389.149 103.882 389.364 104.096C389.579 104.311 389.686 104.591 389.686 104.936C389.686 105.086 389.663 105.244 389.616 105.412C389.579 105.571 389.495 105.814 389.364 106.14L388.65 108.114H387.516L388.076 105.972C387.871 105.888 387.707 105.758 387.586 105.58C387.474 105.394 387.418 105.179 387.418 104.936C387.418 104.591 387.525 104.311 387.74 104.096C387.955 103.882 388.225 103.774 388.552 103.774ZM404.654 106.98C404.328 107.363 403.945 107.652 403.506 107.848C403.077 108.044 402.606 108.142 402.092 108.142C401.42 108.142 400.804 107.988 400.244 107.68C399.684 107.382 399.045 106.859 398.326 106.112C397.421 106.038 396.609 105.776 395.89 105.328C395.172 104.871 394.612 104.278 394.21 103.55C393.809 102.813 393.608 101.996 393.608 101.1C393.608 100.148 393.837 99.2896 394.294 98.5242C394.752 97.7496 395.382 97.1476 396.184 96.7182C396.987 96.2796 397.888 96.0602 398.886 96.0602C399.885 96.0602 400.786 96.2796 401.588 96.7182C402.391 97.1476 403.021 97.7449 403.478 98.5102C403.936 99.2756 404.164 100.139 404.164 101.1C404.164 101.875 404.01 102.594 403.702 103.256C403.394 103.91 402.965 104.47 402.414 104.936C401.864 105.394 401.224 105.725 400.496 105.93C400.767 106.22 401.033 106.43 401.294 106.56C401.556 106.691 401.836 106.756 402.134 106.756C402.778 106.756 403.338 106.495 403.814 105.972L404.654 106.98ZM395.442 101.1C395.442 101.754 395.592 102.346 395.89 102.878C396.189 103.401 396.6 103.812 397.122 104.11C397.645 104.4 398.233 104.544 398.886 104.544C399.54 104.544 400.128 104.4 400.65 104.11C401.173 103.812 401.584 103.401 401.882 102.878C402.181 102.346 402.33 101.754 402.33 101.1C402.33 100.447 402.181 99.8589 401.882 99.3362C401.584 98.8042 401.173 98.3936 400.65 98.1042C400.128 97.8056 399.54 97.6562 398.886 97.6562C398.233 97.6562 397.645 97.8056 397.122 98.1042C396.6 98.3936 396.189 98.8042 395.89 99.3362C395.592 99.8589 395.442 100.447 395.442 101.1ZM411.75 103.732H406.85L405.884 106H404.008L408.418 96.2002H410.21L414.634 106H412.73L411.75 103.732ZM411.148 102.304L409.3 98.0202L407.466 102.304H411.148Z" fill="#fff"/><path d="M154.348 207.2C155.197 207.2 155.935 207.34 156.56 207.62C157.195 207.9 157.68 208.302 158.016 208.824C158.352 209.347 158.52 209.968 158.52 210.686C158.52 211.396 158.352 212.016 158.016 212.548C157.68 213.071 157.195 213.472 156.56 213.752C155.935 214.032 155.197 214.172 154.348 214.172H152.136V217H150.316V207.2H154.348ZM154.264 212.632C155.057 212.632 155.659 212.464 156.07 212.128C156.481 211.792 156.686 211.312 156.686 210.686C156.686 210.061 156.481 209.58 156.07 209.244C155.659 208.908 155.057 208.74 154.264 208.74H152.136V212.632H154.264ZM161.205 210.616C161.709 209.832 162.595 209.44 163.865 209.44V211.106C163.715 211.078 163.58 211.064 163.459 211.064C162.777 211.064 162.245 211.265 161.863 211.666C161.48 212.058 161.289 212.628 161.289 213.374V217H159.539V209.524H161.205V210.616ZM168.078 217.098C167.322 217.098 166.641 216.935 166.034 216.608C165.428 216.282 164.952 215.829 164.606 215.25C164.27 214.662 164.102 214 164.102 213.262C164.102 212.525 164.27 211.867 164.606 211.288C164.952 210.71 165.428 210.257 166.034 209.93C166.641 209.604 167.322 209.44 168.078 209.44C168.844 209.44 169.53 209.604 170.136 209.93C170.743 210.257 171.214 210.71 171.55 211.288C171.896 211.867 172.068 212.525 172.068 213.262C172.068 214 171.896 214.662 171.55 215.25C171.214 215.829 170.743 216.282 170.136 216.608C169.53 216.935 168.844 217.098 168.078 217.098ZM168.078 215.6C168.722 215.6 169.254 215.386 169.674 214.956C170.094 214.527 170.304 213.962 170.304 213.262C170.304 212.562 170.094 211.998 169.674 211.568C169.254 211.139 168.722 210.924 168.078 210.924C167.434 210.924 166.902 211.139 166.482 211.568C166.072 211.998 165.866 212.562 165.866 213.262C165.866 213.962 166.072 214.527 166.482 214.956C166.902 215.386 167.434 215.6 168.078 215.6ZM172.409 219.814C171.672 219.814 171.112 219.67 170.729 219.38L171.233 218.078C171.495 218.274 171.835 218.372 172.255 218.372C172.582 218.372 172.829 218.27 172.997 218.064C173.175 217.868 173.263 217.574 173.263 217.182V209.524H175.013V217.14C175.013 217.971 174.785 218.624 174.327 219.1C173.87 219.576 173.231 219.814 172.409 219.814ZM174.131 208.292C173.814 208.292 173.548 208.194 173.333 207.998C173.119 207.793 173.011 207.541 173.011 207.242C173.011 206.944 173.119 206.696 173.333 206.5C173.548 206.295 173.814 206.192 174.131 206.192C174.449 206.192 174.715 206.29 174.929 206.486C175.144 206.673 175.251 206.911 175.251 207.2C175.251 207.508 175.144 207.77 174.929 207.984C174.724 208.19 174.458 208.292 174.131 208.292ZM183.774 213.304C183.774 213.426 183.764 213.598 183.746 213.822H177.88C177.982 214.373 178.248 214.812 178.678 215.138C179.116 215.456 179.658 215.614 180.302 215.614C181.123 215.614 181.8 215.344 182.332 214.802L183.27 215.88C182.934 216.282 182.509 216.585 181.996 216.79C181.482 216.996 180.904 217.098 180.26 217.098C179.438 217.098 178.715 216.935 178.09 216.608C177.464 216.282 176.979 215.829 176.634 215.25C176.298 214.662 176.13 214 176.13 213.262C176.13 212.534 176.293 211.881 176.62 211.302C176.956 210.714 177.418 210.257 178.006 209.93C178.594 209.604 179.256 209.44 179.994 209.44C180.722 209.44 181.37 209.604 181.94 209.93C182.518 210.248 182.966 210.7 183.284 211.288C183.61 211.867 183.774 212.539 183.774 213.304ZM179.994 210.84C179.434 210.84 178.958 211.008 178.566 211.344C178.183 211.671 177.95 212.11 177.866 212.66H182.108C182.033 212.119 181.804 211.68 181.422 211.344C181.039 211.008 180.563 210.84 179.994 210.84ZM188.322 217.098C187.547 217.098 186.852 216.935 186.236 216.608C185.62 216.282 185.139 215.829 184.794 215.25C184.449 214.662 184.276 214 184.276 213.262C184.276 212.525 184.449 211.867 184.794 211.288C185.139 210.71 185.615 210.257 186.222 209.93C186.838 209.604 187.538 209.44 188.322 209.44C189.059 209.44 189.703 209.59 190.254 209.888C190.814 210.187 191.234 210.616 191.514 211.176L190.17 211.96C189.955 211.615 189.685 211.358 189.358 211.19C189.041 211.013 188.691 210.924 188.308 210.924C187.655 210.924 187.113 211.139 186.684 211.568C186.255 211.988 186.04 212.553 186.04 213.262C186.04 213.972 186.25 214.541 186.67 214.97C187.099 215.39 187.645 215.6 188.308 215.6C188.691 215.6 189.041 215.516 189.358 215.348C189.685 215.171 189.955 214.91 190.17 214.564L191.514 215.348C191.225 215.908 190.8 216.342 190.24 216.65C189.689 216.949 189.05 217.098 188.322 217.098ZM197.054 216.594C196.849 216.762 196.597 216.888 196.298 216.972C196.009 217.056 195.701 217.098 195.374 217.098C194.553 217.098 193.918 216.884 193.47 216.454C193.022 216.025 192.798 215.4 192.798 214.578V210.98H191.566V209.58H192.798V207.872H194.548V209.58H196.55V210.98H194.548V214.536C194.548 214.9 194.637 215.18 194.814 215.376C194.991 215.563 195.248 215.656 195.584 215.656C195.976 215.656 196.303 215.554 196.564 215.348L197.054 216.594ZM201.406 207.2H203.226V217H201.406V207.2ZM209.388 209.44C210.331 209.44 211.087 209.716 211.656 210.266C212.225 210.817 212.51 211.634 212.51 212.716V217H210.76V212.94C210.76 212.287 210.606 211.797 210.298 211.47C209.99 211.134 209.551 210.966 208.982 210.966C208.338 210.966 207.829 211.162 207.456 211.554C207.083 211.937 206.896 212.492 206.896 213.22V217H205.146V209.524H206.812V210.49C207.101 210.145 207.465 209.884 207.904 209.706C208.343 209.529 208.837 209.44 209.388 209.44ZM214.168 209.524H215.918V217H214.168V209.524ZM215.05 208.292C214.732 208.292 214.466 208.194 214.252 207.998C214.037 207.793 213.93 207.541 213.93 207.242C213.93 206.944 214.037 206.696 214.252 206.5C214.466 206.295 214.732 206.192 215.05 206.192C215.367 206.192 215.633 206.29 215.848 206.486C216.062 206.673 216.17 206.911 216.17 207.2C216.17 207.508 216.062 207.77 215.848 207.984C215.642 208.19 215.376 208.292 215.05 208.292ZM222.146 216.594C221.941 216.762 221.689 216.888 221.39 216.972C221.101 217.056 220.793 217.098 220.466 217.098C219.645 217.098 219.01 216.884 218.562 216.454C218.114 216.025 217.89 215.4 217.89 214.578V210.98H216.658V209.58H217.89V207.872H219.64V209.58H221.642V210.98H219.64V214.536C219.64 214.9 219.729 215.18 219.906 215.376C220.083 215.563 220.34 215.656 220.676 215.656C221.068 215.656 221.395 215.554 221.656 215.348L222.146 216.594ZM223.023 209.524H224.773V217H223.023V209.524ZM223.905 208.292C223.588 208.292 223.322 208.194 223.107 207.998C222.892 207.793 222.785 207.541 222.785 207.242C222.785 206.944 222.892 206.696 223.107 206.5C223.322 206.295 223.588 206.192 223.905 206.192C224.222 206.192 224.488 206.29 224.703 206.486C224.918 206.673 225.025 206.911 225.025 207.2C225.025 207.508 224.918 207.77 224.703 207.984C224.498 208.19 224.232 208.292 223.905 208.292ZM229.363 209.44C230.465 209.44 231.305 209.706 231.883 210.238C232.471 210.761 232.765 211.554 232.765 212.618V217H231.113V216.09C230.899 216.417 230.591 216.669 230.189 216.846C229.797 217.014 229.321 217.098 228.761 217.098C228.201 217.098 227.711 217.005 227.291 216.818C226.871 216.622 226.545 216.356 226.311 216.02C226.087 215.675 225.975 215.288 225.975 214.858C225.975 214.186 226.223 213.65 226.717 213.248C227.221 212.838 228.01 212.632 229.083 212.632H231.015V212.52C231.015 211.998 230.857 211.596 230.539 211.316C230.231 211.036 229.769 210.896 229.153 210.896C228.733 210.896 228.318 210.962 227.907 211.092C227.506 211.223 227.165 211.405 226.885 211.638L226.199 210.364C226.591 210.066 227.063 209.837 227.613 209.678C228.164 209.52 228.747 209.44 229.363 209.44ZM229.125 215.824C229.564 215.824 229.951 215.726 230.287 215.53C230.633 215.325 230.875 215.036 231.015 214.662V213.794H229.209C228.201 213.794 227.697 214.126 227.697 214.788C227.697 215.106 227.823 215.358 228.075 215.544C228.327 215.731 228.677 215.824 229.125 215.824ZM238.943 216.594C238.737 216.762 238.485 216.888 238.187 216.972C237.897 217.056 237.589 217.098 237.263 217.098C236.441 217.098 235.807 216.884 235.359 216.454C234.911 216.025 234.687 215.4 234.687 214.578V210.98H233.455V209.58H234.687V207.872H236.437V209.58H238.439V210.98H236.437V214.536C236.437 214.9 236.525 215.18 236.703 215.376C236.88 215.563 237.137 215.656 237.473 215.656C237.865 215.656 238.191 215.554 238.453 215.348L238.943 216.594ZM239.82 209.524H241.57V217H239.82V209.524ZM240.702 208.292C240.385 208.292 240.119 208.194 239.904 207.998C239.689 207.793 239.582 207.541 239.582 207.242C239.582 206.944 239.689 206.696 239.904 206.5C240.119 206.295 240.385 206.192 240.702 206.192C241.019 206.192 241.285 206.29 241.5 206.486C241.715 206.673 241.822 206.911 241.822 207.2C241.822 207.508 241.715 207.77 241.5 207.984C241.295 208.19 241.029 208.292 240.702 208.292ZM246.664 217.098C245.908 217.098 245.227 216.935 244.62 216.608C244.014 216.282 243.538 215.829 243.192 215.25C242.856 214.662 242.688 214 242.688 213.262C242.688 212.525 242.856 211.867 243.192 211.288C243.538 210.71 244.014 210.257 244.62 209.93C245.227 209.604 245.908 209.44 246.664 209.44C247.43 209.44 248.116 209.604 248.722 209.93C249.329 210.257 249.8 210.71 250.136 211.288C250.482 211.867 250.654 212.525 250.654 213.262C250.654 214 250.482 214.662 250.136 215.25C249.8 215.829 249.329 216.282 248.722 216.608C248.116 216.935 247.43 217.098 246.664 217.098ZM246.664 215.6C247.308 215.6 247.84 215.386 248.26 214.956C248.68 214.527 248.89 213.962 248.89 213.262C248.89 212.562 248.68 211.998 248.26 211.568C247.84 211.139 247.308 210.924 246.664 210.924C246.02 210.924 245.488 211.139 245.068 211.568C244.658 211.998 244.452 212.562 244.452 213.262C244.452 213.962 244.658 214.527 245.068 214.956C245.488 215.386 246.02 215.6 246.664 215.6ZM256.007 209.44C256.95 209.44 257.706 209.716 258.275 210.266C258.845 210.817 259.129 211.634 259.129 212.716V217H257.379V212.94C257.379 212.287 257.225 211.797 256.917 211.47C256.609 211.134 256.171 210.966 255.601 210.966C254.957 210.966 254.449 211.162 254.075 211.554C253.702 211.937 253.515 212.492 253.515 213.22V217H251.765V209.524H253.431V210.49C253.721 210.145 254.085 209.884 254.523 209.706C254.962 209.529 255.457 209.44 256.007 209.44Z" fill="#fff"/><path d="M362.53 203.14C361.177 203.14 360.122 202.762 359.366 202.006C358.61 201.241 358.232 200.149 358.232 198.73V193.2H360.052V198.66C360.052 200.583 360.883 201.544 362.544 201.544C364.196 201.544 365.022 200.583 365.022 198.66V193.2H366.814V198.73C366.814 200.149 366.436 201.241 365.68 202.006C364.933 202.762 363.883 203.14 362.53 203.14ZM370.942 203.098C370.336 203.098 369.743 203.019 369.164 202.86C368.586 202.702 368.124 202.501 367.778 202.258L368.45 200.928C368.786 201.152 369.188 201.334 369.654 201.474C370.13 201.605 370.597 201.67 371.054 201.67C372.1 201.67 372.622 201.395 372.622 200.844C372.622 200.583 372.487 200.401 372.216 200.298C371.955 200.196 371.53 200.098 370.942 200.004C370.326 199.911 369.822 199.804 369.43 199.682C369.048 199.561 368.712 199.351 368.422 199.052C368.142 198.744 368.002 198.32 368.002 197.778C368.002 197.069 368.296 196.504 368.884 196.084C369.482 195.655 370.284 195.44 371.292 195.44C371.806 195.44 372.319 195.501 372.832 195.622C373.346 195.734 373.766 195.888 374.092 196.084L373.42 197.414C372.786 197.041 372.072 196.854 371.278 196.854C370.765 196.854 370.373 196.934 370.102 197.092C369.841 197.242 369.71 197.442 369.71 197.694C369.71 197.974 369.85 198.175 370.13 198.296C370.42 198.408 370.863 198.516 371.46 198.618C372.058 198.712 372.548 198.819 372.93 198.94C373.313 199.062 373.64 199.267 373.91 199.556C374.19 199.846 374.33 200.256 374.33 200.788C374.33 201.488 374.027 202.048 373.42 202.468C372.814 202.888 371.988 203.098 370.942 203.098ZM382.303 199.304C382.303 199.426 382.294 199.598 382.275 199.822H376.409C376.512 200.373 376.778 200.812 377.207 201.138C377.646 201.456 378.187 201.614 378.831 201.614C379.652 201.614 380.329 201.344 380.861 200.802L381.799 201.88C381.463 202.282 381.038 202.585 380.525 202.79C380.012 202.996 379.433 203.098 378.789 203.098C377.968 203.098 377.244 202.935 376.619 202.608C375.994 202.282 375.508 201.829 375.163 201.25C374.827 200.662 374.659 200 374.659 199.262C374.659 198.534 374.822 197.881 375.149 197.302C375.485 196.714 375.947 196.257 376.535 195.93C377.123 195.604 377.786 195.44 378.523 195.44C379.251 195.44 379.9 195.604 380.469 195.93C381.048 196.248 381.496 196.7 381.813 197.288C382.14 197.867 382.303 198.539 382.303 199.304ZM378.523 196.84C377.963 196.84 377.487 197.008 377.095 197.344C376.712 197.671 376.479 198.11 376.395 198.66H380.637C380.562 198.119 380.334 197.68 379.951 197.344C379.568 197.008 379.092 196.84 378.523 196.84ZM385.087 196.616C385.591 195.832 386.478 195.44 387.747 195.44V197.106C387.598 197.078 387.463 197.064 387.341 197.064C386.66 197.064 386.128 197.265 385.745 197.666C385.363 198.058 385.171 198.628 385.171 199.374V203H383.421V195.524H385.087V196.616ZM398.568 200.732H393.668L392.702 203H390.826L395.236 193.2H397.028L401.452 203H399.548L398.568 200.732ZM397.966 199.304L396.118 195.02L394.284 199.304H397.966ZM405.33 203.098C404.555 203.098 403.86 202.935 403.244 202.608C402.628 202.282 402.147 201.829 401.802 201.25C401.457 200.662 401.284 200 401.284 199.262C401.284 198.525 401.457 197.867 401.802 197.288C402.147 196.71 402.623 196.257 403.23 195.93C403.846 195.604 404.546 195.44 405.33 195.44C406.067 195.44 406.711 195.59 407.262 195.888C407.822 196.187 408.242 196.616 408.522 197.176L407.178 197.96C406.963 197.615 406.693 197.358 406.366 197.19C406.049 197.013 405.699 196.924 405.316 196.924C404.663 196.924 404.121 197.139 403.692 197.568C403.263 197.988 403.048 198.553 403.048 199.262C403.048 199.972 403.258 200.541 403.678 200.97C404.107 201.39 404.653 201.6 405.316 201.6C405.699 201.6 406.049 201.516 406.366 201.348C406.693 201.171 406.963 200.91 407.178 200.564L408.522 201.348C408.233 201.908 407.808 202.342 407.248 202.65C406.697 202.949 406.058 203.098 405.33 203.098ZM412.793 203.098C412.018 203.098 411.323 202.935 410.707 202.608C410.091 202.282 409.61 201.829 409.265 201.25C408.92 200.662 408.747 200 408.747 199.262C408.747 198.525 408.92 197.867 409.265 197.288C409.61 196.71 410.086 196.257 410.693 195.93C411.309 195.604 412.009 195.44 412.793 195.44C413.53 195.44 414.174 195.59 414.725 195.888C415.285 196.187 415.705 196.616 415.985 197.176L414.641 197.96C414.426 197.615 414.156 197.358 413.829 197.19C413.512 197.013 413.162 196.924 412.779 196.924C412.126 196.924 411.584 197.139 411.155 197.568C410.726 197.988 410.511 198.553 410.511 199.262C410.511 199.972 410.721 200.541 411.141 200.97C411.57 201.39 412.116 201.6 412.779 201.6C413.162 201.6 413.512 201.516 413.829 201.348C414.156 201.171 414.426 200.91 414.641 200.564L415.985 201.348C415.696 201.908 415.271 202.342 414.711 202.65C414.16 202.949 413.521 203.098 412.793 203.098ZM423.854 199.304C423.854 199.426 423.844 199.598 423.826 199.822H417.96C418.062 200.373 418.328 200.812 418.758 201.138C419.196 201.456 419.738 201.614 420.382 201.614C421.203 201.614 421.88 201.344 422.412 200.802L423.35 201.88C423.014 202.282 422.589 202.585 422.076 202.79C421.562 202.996 420.984 203.098 420.34 203.098C419.518 203.098 418.795 202.935 418.17 202.608C417.544 202.282 417.059 201.829 416.714 201.25C416.378 200.662 416.21 200 416.21 199.262C416.21 198.534 416.373 197.881 416.7 197.302C417.036 196.714 417.498 196.257 418.086 195.93C418.674 195.604 419.336 195.44 420.074 195.44C420.802 195.44 421.45 195.604 422.02 195.93C422.598 196.248 423.046 196.7 423.364 197.288C423.69 197.867 423.854 198.539 423.854 199.304ZM420.074 196.84C419.514 196.84 419.038 197.008 418.646 197.344C418.263 197.671 418.03 198.11 417.946 198.66H422.188C422.113 198.119 421.884 197.68 421.502 197.344C421.119 197.008 420.643 196.84 420.074 196.84ZM429.116 195.44C429.844 195.44 430.493 195.599 431.062 195.916C431.641 196.234 432.094 196.682 432.42 197.26C432.747 197.839 432.91 198.506 432.91 199.262C432.91 200.018 432.747 200.69 432.42 201.278C432.094 201.857 431.641 202.305 431.062 202.622C430.493 202.94 429.844 203.098 429.116 203.098C428.108 203.098 427.31 202.762 426.722 202.09V205.716H424.972V195.524H426.638V196.504C426.928 196.15 427.282 195.884 427.702 195.706C428.132 195.529 428.603 195.44 429.116 195.44ZM428.92 201.6C429.564 201.6 430.092 201.386 430.502 200.956C430.922 200.527 431.132 199.962 431.132 199.262C431.132 198.562 430.922 197.998 430.502 197.568C430.092 197.139 429.564 196.924 428.92 196.924C428.5 196.924 428.122 197.022 427.786 197.218C427.45 197.405 427.184 197.676 426.988 198.03C426.792 198.385 426.694 198.796 426.694 199.262C426.694 199.729 426.792 200.14 426.988 200.494C427.184 200.849 427.45 201.124 427.786 201.32C428.122 201.507 428.5 201.6 428.92 201.6ZM438.501 202.594C438.296 202.762 438.044 202.888 437.745 202.972C437.456 203.056 437.148 203.098 436.821 203.098C436 203.098 435.365 202.884 434.917 202.454C434.469 202.025 434.245 201.4 434.245 200.578V196.98H433.013V195.58H434.245V193.872H435.995V195.58H437.997V196.98H435.995V200.536C435.995 200.9 436.084 201.18 436.261 201.376C436.439 201.563 436.695 201.656 437.031 201.656C437.423 201.656 437.75 201.554 438.011 201.348L438.501 202.594ZM442.234 195.44C443.336 195.44 444.176 195.706 444.754 196.238C445.342 196.761 445.636 197.554 445.636 198.618V203H443.984V202.09C443.77 202.417 443.462 202.669 443.06 202.846C442.668 203.014 442.192 203.098 441.632 203.098C441.072 203.098 440.582 203.005 440.162 202.818C439.742 202.622 439.416 202.356 439.182 202.02C438.958 201.675 438.846 201.288 438.846 200.858C438.846 200.186 439.094 199.65 439.588 199.248C440.092 198.838 440.881 198.632 441.954 198.632H443.886V198.52C443.886 197.998 443.728 197.596 443.41 197.316C443.102 197.036 442.64 196.896 442.024 196.896C441.604 196.896 441.189 196.962 440.778 197.092C440.377 197.223 440.036 197.405 439.756 197.638L439.07 196.364C439.462 196.066 439.934 195.837 440.484 195.678C441.035 195.52 441.618 195.44 442.234 195.44ZM441.996 201.824C442.435 201.824 442.822 201.726 443.158 201.53C443.504 201.325 443.746 201.036 443.886 200.662V199.794H442.08C441.072 199.794 440.568 200.126 440.568 200.788C440.568 201.106 440.694 201.358 440.946 201.544C441.198 201.731 441.548 201.824 441.996 201.824ZM451.562 195.44C452.505 195.44 453.261 195.716 453.83 196.266C454.399 196.817 454.684 197.634 454.684 198.716V203H452.934V198.94C452.934 198.287 452.78 197.797 452.472 197.47C452.164 197.134 451.725 196.966 451.156 196.966C450.512 196.966 450.003 197.162 449.63 197.554C449.257 197.937 449.07 198.492 449.07 199.22V203H447.32V195.524H448.986V196.49C449.275 196.145 449.639 195.884 450.078 195.706C450.517 195.529 451.011 195.44 451.562 195.44ZM459.84 203.098C459.065 203.098 458.37 202.935 457.754 202.608C457.138 202.282 456.657 201.829 456.312 201.25C455.966 200.662 455.794 200 455.794 199.262C455.794 198.525 455.966 197.867 456.312 197.288C456.657 196.71 457.133 196.257 457.74 195.93C458.356 195.604 459.056 195.44 459.84 195.44C460.577 195.44 461.221 195.59 461.772 195.888C462.332 196.187 462.752 196.616 463.032 197.176L461.688 197.96C461.473 197.615 461.202 197.358 460.876 197.19C460.558 197.013 460.208 196.924 459.826 196.924C459.172 196.924 458.631 197.139 458.202 197.568C457.772 197.988 457.558 198.553 457.558 199.262C457.558 199.972 457.768 200.541 458.188 200.97C458.617 201.39 459.163 201.6 459.826 201.6C460.208 201.6 460.558 201.516 460.876 201.348C461.202 201.171 461.473 200.91 461.688 200.564L463.032 201.348C462.742 201.908 462.318 202.342 461.758 202.65C461.207 202.949 460.568 203.098 459.84 203.098ZM470.901 199.304C470.901 199.426 470.891 199.598 470.873 199.822H465.007C465.109 200.373 465.375 200.812 465.805 201.138C466.243 201.456 466.785 201.614 467.429 201.614C468.25 201.614 468.927 201.344 469.459 200.802L470.397 201.88C470.061 202.282 469.636 202.585 469.123 202.79C468.609 202.996 468.031 203.098 467.387 203.098C466.565 203.098 465.842 202.935 465.217 202.608C464.591 202.282 464.106 201.829 463.761 201.25C463.425 200.662 463.257 200 463.257 199.262C463.257 198.534 463.42 197.881 463.747 197.302C464.083 196.714 464.545 196.257 465.133 195.93C465.721 195.604 466.383 195.44 467.121 195.44C467.849 195.44 468.497 195.604 469.067 195.93C469.645 196.248 470.093 196.7 470.411 197.288C470.737 197.867 470.901 198.539 470.901 199.304ZM467.121 196.84C466.561 196.84 466.085 197.008 465.693 197.344C465.31 197.671 465.077 198.11 464.993 198.66H469.235C469.16 198.119 468.931 197.68 468.549 197.344C468.166 197.008 467.69 196.84 467.121 196.84ZM360.304 214.74H357.056V213.2H365.372V214.74H362.124V223H360.304V214.74ZM372.27 219.304C372.27 219.426 372.26 219.598 372.242 219.822H366.376C366.478 220.373 366.744 220.812 367.174 221.138C367.612 221.456 368.154 221.614 368.798 221.614C369.619 221.614 370.296 221.344 370.828 220.802L371.766 221.88C371.43 222.282 371.005 222.585 370.492 222.79C369.978 222.996 369.4 223.098 368.756 223.098C367.934 223.098 367.211 222.935 366.586 222.608C365.96 222.282 365.475 221.829 365.13 221.25C364.794 220.662 364.626 220 364.626 219.262C364.626 218.534 364.789 217.881 365.116 217.302C365.452 216.714 365.914 216.257 366.502 215.93C367.09 215.604 367.752 215.44 368.49 215.44C369.218 215.44 369.866 215.604 370.436 215.93C371.014 216.248 371.462 216.7 371.78 217.288C372.106 217.867 372.27 218.539 372.27 219.304ZM368.49 216.84C367.93 216.84 367.454 217.008 367.062 217.344C366.679 217.671 366.446 218.11 366.362 218.66H370.604C370.529 218.119 370.3 217.68 369.918 217.344C369.535 217.008 369.059 216.84 368.49 216.84ZM375.698 223.098C375.092 223.098 374.499 223.019 373.92 222.86C373.342 222.702 372.88 222.501 372.534 222.258L373.206 220.928C373.542 221.152 373.944 221.334 374.41 221.474C374.886 221.605 375.353 221.67 375.81 221.67C376.856 221.67 377.378 221.395 377.378 220.844C377.378 220.583 377.243 220.401 376.972 220.298C376.711 220.196 376.286 220.098 375.698 220.004C375.082 219.911 374.578 219.804 374.186 219.682C373.804 219.561 373.468 219.351 373.178 219.052C372.898 218.744 372.758 218.32 372.758 217.778C372.758 217.069 373.052 216.504 373.64 216.084C374.238 215.655 375.04 215.44 376.048 215.44C376.562 215.44 377.075 215.501 377.588 215.622C378.102 215.734 378.522 215.888 378.848 216.084L378.176 217.414C377.542 217.041 376.828 216.854 376.034 216.854C375.521 216.854 375.129 216.934 374.858 217.092C374.597 217.242 374.466 217.442 374.466 217.694C374.466 217.974 374.606 218.175 374.886 218.296C375.176 218.408 375.619 218.516 376.216 218.618C376.814 218.712 377.304 218.819 377.686 218.94C378.069 219.062 378.396 219.267 378.666 219.556C378.946 219.846 379.086 220.256 379.086 220.788C379.086 221.488 378.783 222.048 378.176 222.468C377.57 222.888 376.744 223.098 375.698 223.098ZM384.525 222.594C384.319 222.762 384.067 222.888 383.769 222.972C383.479 223.056 383.171 223.098 382.845 223.098C382.023 223.098 381.389 222.884 380.941 222.454C380.493 222.025 380.269 221.4 380.269 220.578V216.98H379.037V215.58H380.269V213.872H382.019V215.58H384.021V216.98H382.019V220.536C382.019 220.9 382.107 221.18 382.285 221.376C382.462 221.563 382.719 221.656 383.055 221.656C383.447 221.656 383.773 221.554 384.035 221.348L384.525 222.594ZM385.402 215.524H387.152V223H385.402V215.524ZM386.284 214.292C385.967 214.292 385.701 214.194 385.486 213.998C385.271 213.793 385.164 213.541 385.164 213.242C385.164 212.944 385.271 212.696 385.486 212.5C385.701 212.295 385.967 212.192 386.284 212.192C386.601 212.192 386.867 212.29 387.082 212.486C387.297 212.673 387.404 212.911 387.404 213.2C387.404 213.508 387.297 213.77 387.082 213.984C386.877 214.19 386.611 214.292 386.284 214.292ZM393.128 215.44C394.071 215.44 394.827 215.716 395.396 216.266C395.966 216.817 396.25 217.634 396.25 218.716V223H394.5V218.94C394.5 218.287 394.346 217.797 394.038 217.47C393.73 217.134 393.292 216.966 392.722 216.966C392.078 216.966 391.57 217.162 391.196 217.554C390.823 217.937 390.636 218.492 390.636 219.22V223H388.886V215.524H390.552V216.49C390.842 216.145 391.206 215.884 391.644 215.706C392.083 215.529 392.578 215.44 393.128 215.44ZM405.396 215.524V221.866C405.396 224.498 404.052 225.814 401.364 225.814C400.645 225.814 399.964 225.721 399.32 225.534C398.676 225.357 398.144 225.096 397.724 224.75L398.508 223.434C398.835 223.705 399.245 223.92 399.74 224.078C400.244 224.246 400.753 224.33 401.266 224.33C402.087 224.33 402.689 224.144 403.072 223.77C403.455 223.397 403.646 222.828 403.646 222.062V221.67C403.347 221.997 402.983 222.244 402.554 222.412C402.125 222.58 401.653 222.664 401.14 222.664C400.431 222.664 399.787 222.515 399.208 222.216C398.639 221.908 398.186 221.479 397.85 220.928C397.523 220.378 397.36 219.748 397.36 219.038C397.36 218.329 397.523 217.704 397.85 217.162C398.186 216.612 398.639 216.187 399.208 215.888C399.787 215.59 400.431 215.44 401.14 215.44C401.681 215.44 402.171 215.529 402.61 215.706C403.058 215.884 403.431 216.154 403.73 216.518V215.524H405.396ZM401.406 221.18C402.069 221.18 402.61 220.984 403.03 220.592C403.459 220.191 403.674 219.673 403.674 219.038C403.674 218.413 403.459 217.904 403.03 217.512C402.61 217.12 402.069 216.924 401.406 216.924C400.734 216.924 400.183 217.12 399.754 217.512C399.334 217.904 399.124 218.413 399.124 219.038C399.124 219.673 399.334 220.191 399.754 220.592C400.183 220.984 400.734 221.18 401.406 221.18Z" fill="#fff"/><path d="M661.316 174.505H663.136V182.765H668.26V184.305H661.316V174.505ZM671.891 176.745C672.992 176.745 673.832 177.011 674.411 177.543C674.999 178.066 675.293 178.859 675.293 179.923V184.305H673.641V183.395C673.426 183.722 673.118 183.974 672.717 184.151C672.325 184.319 671.849 184.403 671.289 184.403C670.729 184.403 670.239 184.31 669.819 184.123C669.399 183.927 669.072 183.661 668.839 183.325C668.615 182.98 668.503 182.592 668.503 182.163C668.503 181.491 668.75 180.954 669.245 180.553C669.749 180.142 670.537 179.937 671.611 179.937H673.543V179.825C673.543 179.302 673.384 178.901 673.067 178.621C672.759 178.341 672.297 178.201 671.681 178.201C671.261 178.201 670.845 178.266 670.435 178.397C670.033 178.528 669.693 178.71 669.413 178.943L668.727 177.669C669.119 177.37 669.59 177.142 670.141 176.983C670.691 176.824 671.275 176.745 671.891 176.745ZM671.653 183.129C672.091 183.129 672.479 183.031 672.815 182.835C673.16 182.63 673.403 182.34 673.543 181.967V181.099H671.737C670.729 181.099 670.225 181.43 670.225 182.093C670.225 182.41 670.351 182.662 670.603 182.849C670.855 183.036 671.205 183.129 671.653 183.129ZM684.214 176.829V184.305H682.548V183.353C682.268 183.689 681.918 183.95 681.498 184.137C681.078 184.314 680.625 184.403 680.14 184.403C679.141 184.403 678.353 184.128 677.774 183.577C677.205 183.017 676.92 182.191 676.92 181.099V176.829H678.67V180.861C678.67 181.533 678.819 182.037 679.118 182.373C679.426 182.7 679.86 182.863 680.42 182.863C681.045 182.863 681.54 182.672 681.904 182.289C682.277 181.897 682.464 181.337 682.464 180.609V176.829H684.214ZM690.185 176.745C691.128 176.745 691.884 177.02 692.453 177.571C693.022 178.122 693.307 178.938 693.307 180.021V184.305H691.557V180.245C691.557 179.592 691.403 179.102 691.095 178.775C690.787 178.439 690.348 178.271 689.779 178.271C689.135 178.271 688.626 178.467 688.253 178.859C687.88 179.242 687.693 179.797 687.693 180.525V184.305H685.943V176.829H687.609V177.795C687.898 177.45 688.262 177.188 688.701 177.011C689.14 176.834 689.634 176.745 690.185 176.745ZM698.463 184.403C697.688 184.403 696.993 184.24 696.377 183.913C695.761 183.586 695.28 183.134 694.935 182.555C694.589 181.967 694.417 181.304 694.417 180.567C694.417 179.83 694.589 179.172 694.935 178.593C695.28 178.014 695.756 177.562 696.363 177.235C696.979 176.908 697.679 176.745 698.463 176.745C699.2 176.745 699.844 176.894 700.395 177.193C700.955 177.492 701.375 177.921 701.655 178.481L700.311 179.265C700.096 178.92 699.825 178.663 699.499 178.495C699.181 178.318 698.831 178.229 698.449 178.229C697.795 178.229 697.254 178.444 696.825 178.873C696.395 179.293 696.181 179.858 696.181 180.567C696.181 181.276 696.391 181.846 696.811 182.275C697.24 182.695 697.786 182.905 698.449 182.905C698.831 182.905 699.181 182.821 699.499 182.653C699.825 182.476 700.096 182.214 700.311 181.869L701.655 182.653C701.365 183.213 700.941 183.647 700.381 183.955C699.83 184.254 699.191 184.403 698.463 184.403ZM706.779 176.745C707.721 176.745 708.477 177.02 709.047 177.571C709.616 178.122 709.901 178.938 709.901 180.021V184.305H708.151V180.245C708.151 179.592 707.997 179.102 707.689 178.775C707.381 178.439 706.942 178.271 706.373 178.271C705.729 178.271 705.22 178.467 704.847 178.859C704.473 179.242 704.287 179.797 704.287 180.525V184.305H702.537V173.917H704.287V177.697C704.576 177.389 704.931 177.156 705.351 176.997C705.78 176.829 706.256 176.745 706.779 176.745Z" fill="#fff"/><path d="M714.476 17.4808C713.72 17.4808 712.987 17.3735 712.278 17.1588C711.578 16.9442 711.023 16.6595 710.612 16.3048L711.242 14.8908C711.643 15.2082 712.133 15.4695 712.712 15.6748C713.3 15.8708 713.888 15.9688 714.476 15.9688C715.204 15.9688 715.745 15.8522 716.1 15.6188C716.464 15.3855 716.646 15.0775 716.646 14.6948C716.646 14.4148 716.543 14.1862 716.338 14.0088C716.142 13.8222 715.89 13.6775 715.582 13.5748C715.274 13.4722 714.854 13.3555 714.322 13.2248C713.575 13.0475 712.969 12.8702 712.502 12.6928C712.045 12.5155 711.648 12.2402 711.312 11.8668C710.985 11.4842 710.822 10.9708 710.822 10.3268C710.822 9.78549 710.967 9.29549 711.256 8.85682C711.555 8.40882 711.998 8.05415 712.586 7.79282C713.183 7.53149 713.911 7.40082 714.77 7.40082C715.367 7.40082 715.955 7.47549 716.534 7.62482C717.113 7.77415 717.612 7.98882 718.032 8.26882L717.458 9.68282C717.029 9.43082 716.581 9.23949 716.114 9.10882C715.647 8.97815 715.195 8.91282 714.756 8.91282C714.037 8.91282 713.501 9.03415 713.146 9.27682C712.801 9.51949 712.628 9.84149 712.628 10.2428C712.628 10.5228 712.726 10.7515 712.922 10.9288C713.127 11.1062 713.384 11.2462 713.692 11.3488C714 11.4515 714.42 11.5682 714.952 11.6988C715.68 11.8668 716.277 12.0442 716.744 12.2308C717.211 12.4082 717.607 12.6835 717.934 13.0568C718.27 13.4302 718.438 13.9342 718.438 14.5688C718.438 15.1102 718.289 15.6002 717.99 16.0388C717.701 16.4775 717.257 16.8275 716.66 17.0888C716.063 17.3502 715.335 17.4808 714.476 17.4808ZM726.75 9.86482V17.3408H725.084V16.3888C724.804 16.7248 724.454 16.9862 724.034 17.1728C723.614 17.3502 723.162 17.4388 722.676 17.4388C721.678 17.4388 720.889 17.1635 720.31 16.6128C719.741 16.0528 719.456 15.2268 719.456 14.1348V9.86482H721.206V13.8968C721.206 14.5688 721.356 15.0728 721.654 15.4088C721.962 15.7355 722.396 15.8988 722.956 15.8988C723.582 15.8988 724.076 15.7075 724.44 15.3248C724.814 14.9328 725 14.3728 725 13.6448V9.86482H726.75ZM732.623 9.78082C733.351 9.78082 734 9.93949 734.569 10.2568C735.148 10.5742 735.6 11.0222 735.927 11.6008C736.254 12.1795 736.417 12.8468 736.417 13.6028C736.417 14.3588 736.254 15.0308 735.927 15.6188C735.6 16.1975 735.148 16.6455 734.569 16.9628C734 17.2802 733.351 17.4388 732.623 17.4388C731.615 17.4388 730.817 17.1028 730.229 16.4308V20.0568H728.479V9.86482H730.145V10.8448C730.434 10.4902 730.789 10.2242 731.209 10.0468C731.638 9.86949 732.11 9.78082 732.623 9.78082ZM732.427 15.9408C733.071 15.9408 733.598 15.7262 734.009 15.2968C734.429 14.8675 734.639 14.3028 734.639 13.6028C734.639 12.9028 734.429 12.3382 734.009 11.9088C733.598 11.4795 733.071 11.2648 732.427 11.2648C732.007 11.2648 731.629 11.3628 731.293 11.5588C730.957 11.7455 730.691 12.0162 730.495 12.3708C730.299 12.7255 730.201 13.1362 730.201 13.6028C730.201 14.0695 730.299 14.4802 730.495 14.8348C730.691 15.1895 730.957 15.4648 731.293 15.6608C731.629 15.8475 732.007 15.9408 732.427 15.9408ZM741.658 9.78082C742.386 9.78082 743.035 9.93949 743.604 10.2568C744.183 10.5742 744.636 11.0222 744.962 11.6008C745.289 12.1795 745.452 12.8468 745.452 13.6028C745.452 14.3588 745.289 15.0308 744.962 15.6188C744.636 16.1975 744.183 16.6455 743.604 16.9628C743.035 17.2802 742.386 17.4388 741.658 17.4388C740.65 17.4388 739.852 17.1028 739.264 16.4308V20.0568H737.514V9.86482H739.18V10.8448C739.47 10.4902 739.824 10.2242 740.244 10.0468C740.674 9.86949 741.145 9.78082 741.658 9.78082ZM741.462 15.9408C742.106 15.9408 742.634 15.7262 743.044 15.2968C743.464 14.8675 743.674 14.3028 743.674 13.6028C743.674 12.9028 743.464 12.3382 743.044 11.9088C742.634 11.4795 742.106 11.2648 741.462 11.2648C741.042 11.2648 740.664 11.3628 740.328 11.5588C739.992 11.7455 739.726 12.0162 739.53 12.3708C739.334 12.7255 739.236 13.1362 739.236 13.6028C739.236 14.0695 739.334 14.4802 739.53 14.8348C739.726 15.1895 739.992 15.4648 740.328 15.6608C740.664 15.8475 741.042 15.9408 741.462 15.9408ZM749.909 17.4388C749.153 17.4388 748.472 17.2755 747.865 16.9488C747.259 16.6222 746.783 16.1695 746.437 15.5908C746.101 15.0028 745.933 14.3402 745.933 13.6028C745.933 12.8655 746.101 12.2075 746.437 11.6288C746.783 11.0502 747.259 10.5975 747.865 10.2708C748.472 9.94415 749.153 9.78082 749.909 9.78082C750.675 9.78082 751.361 9.94415 751.967 10.2708C752.574 10.5975 753.045 11.0502 753.381 11.6288C753.727 12.2075 753.899 12.8655 753.899 13.6028C753.899 14.3402 753.727 15.0028 753.381 15.5908C753.045 16.1695 752.574 16.6222 751.967 16.9488C751.361 17.2755 750.675 17.4388 749.909 17.4388ZM749.909 15.9408C750.553 15.9408 751.085 15.7262 751.505 15.2968C751.925 14.8675 752.135 14.3028 752.135 13.6028C752.135 12.9028 751.925 12.3382 751.505 11.9088C751.085 11.4795 750.553 11.2648 749.909 11.2648C749.265 11.2648 748.733 11.4795 748.313 11.9088C747.903 12.3382 747.697 12.9028 747.697 13.6028C747.697 14.3028 747.903 14.8675 748.313 15.2968C748.733 15.7262 749.265 15.9408 749.909 15.9408ZM756.676 10.9568C757.18 10.1728 758.067 9.78082 759.336 9.78082V11.4468C759.187 11.4188 759.052 11.4048 758.93 11.4048C758.249 11.4048 757.717 11.6055 757.334 12.0068C756.952 12.3988 756.76 12.9682 756.76 13.7148V17.3408H755.01V9.86482H756.676V10.9568ZM765.026 16.9348C764.82 17.1028 764.568 17.2288 764.27 17.3128C763.98 17.3968 763.672 17.4388 763.346 17.4388C762.524 17.4388 761.89 17.2242 761.442 16.7948C760.994 16.3655 760.77 15.7402 760.77 14.9188V11.3208H759.538V9.92082H760.77V8.21282H762.52V9.92082H764.522V11.3208H762.52V14.8768C762.52 15.2408 762.608 15.5208 762.786 15.7168C762.963 15.9035 763.22 15.9968 763.556 15.9968C763.948 15.9968 764.274 15.8942 764.536 15.6888L765.026 16.9348Z" fill="#1476F2"/><path d="M510.318 108L510.304 101.504L507.084 106.88H506.272L503.052 101.588V108H501.316V98.2002H502.814L506.706 104.696L510.528 98.2002H512.026L512.04 108H510.318ZM523.016 98.2002L518.746 108H516.954L512.67 98.2002H514.644L517.906 105.76L521.196 98.2002H523.016ZM527.52 98.2002C528.369 98.2002 529.107 98.3402 529.732 98.6202C530.367 98.9002 530.852 99.3016 531.188 99.8242C531.524 100.347 531.692 100.968 531.692 101.686C531.692 102.396 531.524 103.016 531.188 103.548C530.852 104.071 530.367 104.472 529.732 104.752C529.107 105.032 528.369 105.172 527.52 105.172H525.308V108H523.488V98.2002H527.52ZM527.436 103.632C528.229 103.632 528.831 103.464 529.242 103.128C529.653 102.792 529.858 102.312 529.858 101.686C529.858 101.061 529.653 100.58 529.242 100.244C528.831 99.9082 528.229 99.7402 527.436 99.7402H525.308V103.632H527.436ZM535.339 96.2122H536.907L532.287 109.4H530.719L535.339 96.2122ZM539.852 108.14C539.096 108.14 538.363 108.033 537.654 107.818C536.954 107.604 536.399 107.319 535.988 106.964L536.618 105.55C537.019 105.868 537.509 106.129 538.088 106.334C538.676 106.53 539.264 106.628 539.852 106.628C540.58 106.628 541.121 106.512 541.476 106.278C541.84 106.045 542.022 105.737 542.022 105.354C542.022 105.074 541.919 104.846 541.714 104.668C541.518 104.482 541.266 104.337 540.958 104.234C540.65 104.132 540.23 104.015 539.698 103.884C538.951 103.707 538.345 103.53 537.878 103.352C537.421 103.175 537.024 102.9 536.688 102.526C536.361 102.144 536.198 101.63 536.198 100.986C536.198 100.445 536.343 99.9549 536.632 99.5162C536.931 99.0682 537.374 98.7136 537.962 98.4522C538.559 98.1909 539.287 98.0602 540.146 98.0602C540.743 98.0602 541.331 98.1349 541.91 98.2842C542.489 98.4336 542.988 98.6482 543.408 98.9282L542.834 100.342C542.405 100.09 541.957 99.8989 541.49 99.7682C541.023 99.6376 540.571 99.5722 540.132 99.5722C539.413 99.5722 538.877 99.6936 538.522 99.9362C538.177 100.179 538.004 100.501 538.004 100.902C538.004 101.182 538.102 101.411 538.298 101.588C538.503 101.766 538.76 101.906 539.068 102.008C539.376 102.111 539.796 102.228 540.328 102.358C541.056 102.526 541.653 102.704 542.12 102.89C542.587 103.068 542.983 103.343 543.31 103.716C543.646 104.09 543.814 104.594 543.814 105.228C543.814 105.77 543.665 106.26 543.366 106.698C543.077 107.137 542.633 107.487 542.036 107.748C541.439 108.01 540.711 108.14 539.852 108.14ZM548.248 108.098C547.492 108.098 546.811 107.935 546.204 107.608C545.598 107.282 545.122 106.829 544.776 106.25C544.44 105.662 544.272 105 544.272 104.262C544.272 103.525 544.44 102.867 544.776 102.288C545.122 101.71 545.598 101.257 546.204 100.93C546.811 100.604 547.492 100.44 548.248 100.44C549.014 100.44 549.7 100.604 550.306 100.93C550.913 101.257 551.384 101.71 551.72 102.288C552.066 102.867 552.238 103.525 552.238 104.262C552.238 105 552.066 105.662 551.72 106.25C551.384 106.829 550.913 107.282 550.306 107.608C549.7 107.935 549.014 108.098 548.248 108.098ZM548.248 106.6C548.892 106.6 549.424 106.386 549.844 105.956C550.264 105.527 550.474 104.962 550.474 104.262C550.474 103.562 550.264 102.998 549.844 102.568C549.424 102.139 548.892 101.924 548.248 101.924C547.604 101.924 547.072 102.139 546.652 102.568C546.242 102.998 546.036 103.562 546.036 104.262C546.036 104.962 546.242 105.527 546.652 105.956C547.072 106.386 547.604 106.6 548.248 106.6ZM556.387 98.9282C555.65 98.9282 555.281 99.3296 555.281 100.132V100.58H557.339V101.98H555.337V108H553.587V101.98H552.355V100.58H553.587V100.104C553.587 99.3016 553.821 98.6716 554.287 98.2142C554.754 97.7476 555.412 97.5142 556.261 97.5142C556.933 97.5142 557.461 97.6496 557.843 97.9202L557.353 99.2362C557.055 99.0309 556.733 98.9282 556.387 98.9282ZM562.449 107.594C562.243 107.762 561.991 107.888 561.693 107.972C561.403 108.056 561.095 108.098 560.769 108.098C559.947 108.098 559.313 107.884 558.865 107.454C558.417 107.025 558.193 106.4 558.193 105.578V101.98H556.961V100.58H558.193V98.8722H559.943V100.58H561.945V101.98H559.943V105.536C559.943 105.9 560.031 106.18 560.209 106.376C560.386 106.563 560.643 106.656 560.979 106.656C561.371 106.656 561.697 106.554 561.959 106.348L562.449 107.594ZM566.8 98.2002H568.62V106.46H573.744V108H566.8V98.2002ZM577.375 100.44C578.476 100.44 579.316 100.706 579.895 101.238C580.483 101.761 580.777 102.554 580.777 103.618V108H579.125V107.09C578.91 107.417 578.602 107.669 578.201 107.846C577.809 108.014 577.333 108.098 576.773 108.098C576.213 108.098 575.723 108.005 575.303 107.818C574.883 107.622 574.556 107.356 574.323 107.02C574.099 106.675 573.987 106.288 573.987 105.858C573.987 105.186 574.234 104.65 574.729 104.248C575.233 103.838 576.022 103.632 577.095 103.632H579.027V103.52C579.027 102.998 578.868 102.596 578.551 102.316C578.243 102.036 577.781 101.896 577.165 101.896C576.745 101.896 576.33 101.962 575.919 102.092C575.518 102.223 575.177 102.405 574.897 102.638L574.211 101.364C574.603 101.066 575.074 100.837 575.625 100.678C576.176 100.52 576.759 100.44 577.375 100.44ZM577.137 106.824C577.576 106.824 577.963 106.726 578.299 106.53C578.644 106.325 578.887 106.036 579.027 105.662V104.794H577.221C576.213 104.794 575.709 105.126 575.709 105.788C575.709 106.106 575.835 106.358 576.087 106.544C576.339 106.731 576.689 106.824 577.137 106.824ZM589.699 100.524V108H588.033V107.048C587.753 107.384 587.403 107.646 586.983 107.832C586.563 108.01 586.11 108.098 585.625 108.098C584.626 108.098 583.837 107.823 583.259 107.272C582.689 106.712 582.405 105.886 582.405 104.794V100.524H584.155V104.556C584.155 105.228 584.304 105.732 584.603 106.068C584.911 106.395 585.345 106.558 585.905 106.558C586.53 106.558 587.025 106.367 587.389 105.984C587.762 105.592 587.949 105.032 587.949 104.304V100.524H589.699ZM595.669 100.44C596.612 100.44 597.368 100.716 597.937 101.266C598.507 101.817 598.791 102.634 598.791 103.716V108H597.041V103.94C597.041 103.287 596.887 102.797 596.579 102.47C596.271 102.134 595.833 101.966 595.263 101.966C594.619 101.966 594.111 102.162 593.737 102.554C593.364 102.937 593.177 103.492 593.177 104.22V108H591.427V100.524H593.093V101.49C593.383 101.145 593.747 100.884 594.185 100.706C594.624 100.529 595.119 100.44 595.669 100.44ZM603.947 108.098C603.172 108.098 602.477 107.935 601.861 107.608C601.245 107.282 600.764 106.829 600.419 106.25C600.074 105.662 599.901 105 599.901 104.262C599.901 103.525 600.074 102.867 600.419 102.288C600.764 101.71 601.24 101.257 601.847 100.93C602.463 100.604 603.163 100.44 603.947 100.44C604.684 100.44 605.328 100.59 605.879 100.888C606.439 101.187 606.859 101.616 607.139 102.176L605.795 102.96C605.58 102.615 605.31 102.358 604.983 102.19C604.666 102.013 604.316 101.924 603.933 101.924C603.28 101.924 602.738 102.139 602.309 102.568C601.88 102.988 601.665 103.553 601.665 104.262C601.665 104.972 601.875 105.541 602.295 105.97C602.724 106.39 603.27 106.6 603.933 106.6C604.316 106.6 604.666 106.516 604.983 106.348C605.31 106.171 605.58 105.91 605.795 105.564L607.139 106.348C606.85 106.908 606.425 107.342 605.865 107.65C605.314 107.949 604.675 108.098 603.947 108.098ZM612.263 100.44C613.206 100.44 613.962 100.716 614.531 101.266C615.1 101.817 615.385 102.634 615.385 103.716V108H613.635V103.94C613.635 103.287 613.481 102.797 613.173 102.47C612.865 102.134 612.426 101.966 611.857 101.966C611.213 101.966 610.704 102.162 610.331 102.554C609.958 102.937 609.771 103.492 609.771 104.22V108H608.021V97.6122H609.771V101.392C610.06 101.084 610.415 100.851 610.835 100.692C611.264 100.524 611.74 100.44 612.263 100.44Z" fill="#fff"/><defs><linearGradient id="paint0_linear" x1="95.408" y1="119.453" x2="30.37" y2="119.453" gradientUnits="userSpaceOnUse"><stop stop-color="#2A82F2"/><stop offset="1" stop-color="#005ED7"/></linearGradient><linearGradient id="paint1_linear" x1="752.997" y1="9.086" x2="687.96" y2="9.086" gradientUnits="userSpaceOnUse"><stop stop-color="#2A82F2"/><stop offset="1" stop-color="#005ED7"/></linearGradient><linearGradient id="paint2_linear" x1="194.56" y1="128.168" x2="147.733" y2="128.168" gradientUnits="userSpaceOnUse"><stop stop-color="#2A82F2"/><stop offset="1" stop-color="#005ED7"/></linearGradient><linearGradient id="paint3_linear" x1="320.15" y1="129.168" x2="273.323" y2="129.168" gradientUnits="userSpaceOnUse"><stop stop-color="#2A82F2"/><stop offset="1" stop-color="#005ED7"/></linearGradient><linearGradient id="paint4_linear" x1="436.236" y1="130.168" x2="389.409" y2="130.168" gradientUnits="userSpaceOnUse"><stop stop-color="#2A82F2"/><stop offset="1" stop-color="#005ED7"/></linearGradient><linearGradient id="paint5_linear" x1="567.936" y1="130.806" x2="521.109" y2="130.806" gradientUnits="userSpaceOnUse"><stop stop-color="#2A82F2"/><stop offset="1" stop-color="#005ED7"/></linearGradient><linearGradient id="paint6_linear" x1="698.957" y1="113.912" x2="652.13" y2="113.912" gradientUnits="userSpaceOnUse"><stop stop-color="#2A82F2"/><stop offset="1" stop-color="#005ED7"/></linearGradient><linearGradient id="paint7_linear" x1="197.692" y1="114.872" x2="47.496" y2="85.849" gradientUnits="userSpaceOnUse"><stop offset=".174" stop-color="#53A0FD"/><stop offset="1" stop-color="#2A82F2"/></linearGradient><linearGradient id="paint8_linear" x1="512.363" y1="117.512" x2="269.662" y2="47.792" gradientUnits="userSpaceOnUse"><stop offset=".174" stop-color="#53A0FD"/><stop offset="1" stop-color="#2A82F2"/></linearGradient><linearGradient id="paint9_linear" x1="329.276" y1="237.663" x2="176.119" y2="210.878" gradientUnits="userSpaceOnUse"><stop offset=".174" stop-color="#53A0FD"/><stop offset="1" stop-color="#2A82F2"/></linearGradient><linearGradient id="paint10_linear" x1="538.568" y1="230.872" x2="385.645" y2="200.742" gradientUnits="userSpaceOnUse"><stop offset=".174" stop-color="#53A0FD"/><stop offset="1" stop-color="#2A82F2"/></linearGradient><linearGradient id="paint11_linear" x1="765.503" y1="193.954" x2="667.142" y2="172.937" gradientUnits="userSpaceOnUse"><stop offset=".174" stop-color="#53A0FD"/><stop offset="1" stop-color="#2A82F2"/></linearGradient><linearGradient id="paint12_linear" x1="684.153" y1="123.233" x2="531.375" y2="88.015" gradientUnits="userSpaceOnUse"><stop offset=".174" stop-color="#53A0FD"/><stop offset="1" stop-color="#2A82F2"/></linearGradient></defs></svg>