<?xml version="1.0" encoding="UTF-8"?> <svg xmlns="http://www.w3.org/2000/svg" width="46" height="45" viewBox="0 0 46 45"><g fill="none" fill-rule="evenodd" stroke-linejoin="round" stroke-width="2"><path stroke="#73AFFB" d="M43.027 22.006l-3.073-1.827c.26-.7.456-1.426.583-2.18h3.179v-4h-3.179a11.933 11.933 0 0 0-.583-2.178l2.753-1.59-2-3.463-2.744 1.584a12.072 12.072 0 0 0-1.599-1.598l1.585-2.745-3.465-2-1.589 2.754a11.912 11.912 0 0 0-2.179-.583V1h-4v3.18c-.752.127-1.48.323-2.178.583l-1.589-2.754-3.465 2 1.585 2.745a12.072 12.072 0 0 0-1.599 1.598l-2.744-1.584-2 3.464 2.753 1.589c-.26.699-.456 1.426-.583 2.179h-3.18v4h3.18c.127.753.323 1.48.583 2.179l-2.753 1.589 2 3.464"></path><path stroke="#1476F2" d="M15 39c.383-.383.776-1 2-1h14.717c1.11 0 7.222-6.129 8-7 .747-.838 4.077-5.841 5-8-.58-.781-2.148-1.43-4-1-1.768.411-2.808 1.68-4 4l-4.584 2.38"></path><path stroke="#1476F2" d="M20.716 32h9c4 0 4-5 0-5h-6c-.833 0-2.396-2-3.717-2h-5c-1.35 0-3.029 1.096-4 2-1.498 1.499-4.14 4-4.14 4"></path><path stroke="#1476F2" d="M12 44l4-4L5 29l-4 4zM32.716 16a4 4 0 1 1-8 0 4 4 0 0 1 8 0z"></path></g></svg> 