<?xml version="1.0" encoding="UTF-8"?> <svg xmlns="http://www.w3.org/2000/svg" width="46" height="43" viewBox="0 0 46 43"><g fill="none" fill-rule="evenodd" stroke-width="2"><path stroke="#1476F2" stroke-linejoin="round" d="M23.314 20.903l3.157 7.546 7.933.512-5.983 5.493L30.169 42l-6.854-3.834L16.459 42l1.745-7.546-5.982-5.493 7.935-.512z"></path><path stroke="#73AFFB" stroke-linejoin="round" d="M30.405 25.015l2.618-.169 2.611-6.242 2.612 6.242 6.563.424-4.948 4.544 1.444 6.242-5.67-3.17-3.173 1.773M15.404 25.015l-2.617-.169-2.612-6.242-2.612 6.242L1 25.27l4.95 4.544-1.446 6.242 5.671-3.17 3.172 1.773"></path><path stroke="#1476F2" d="M30.254 22v-5.5c0-1.522-3.854-3.501-7.002-3.501-3.148 0-6.998 1.979-6.998 3.501V22M23.254 1c-2.068 0-4 1.451-4 3.241V6.76c0 1.789 1.932 3.24 4 3.24s4-1.451 4-3.24V4.241c0-1.79-1.932-3.241-4-3.241z"></path></g></svg> 