<?xml version="1.0" encoding="UTF-8"?> <svg xmlns="http://www.w3.org/2000/svg" width="48" height="50" viewBox="0 0 48 50"><g fill="none" fill-rule="evenodd" stroke-linecap="round" stroke-linejoin="round" stroke-width="2.101"><path stroke="#73AFFB" d="M24.061 2v11.556M27.213 10.404l-3.152 3.152-3.151-3.152M24.061 48.224V36.668M27.213 39.82l-3.152-3.152-3.151 3.151M46.122 25.112H34.567M37.718 21.96l-3.151 3.152 3.151 3.151M2 25.112h11.556M10.404 21.96l3.152 3.152-3.152 3.151"></path><path stroke="#1476F2" d="M39.819 9.354l-8.404 8.404M35.617 17.758h-4.202v-4.202M8.303 9.354l8.404 8.404M12.505 17.758h4.202v-4.202M39.819 40.87l-8.404-8.404M35.617 32.466h-4.202v4.202M8.303 40.87l8.404-8.404M12.505 32.466h4.202v4.202"></path></g></svg> 