<svg fill="none" height="60" viewBox="0 0 60 60" width="60" xmlns="http://www.w3.org/2000/svg" xmlns:xlink="http://www.w3.org/1999/xlink"><mask id="a" height="60" maskUnits="userSpaceOnUse" width="60" x="0" y="0"><path d="m0 0h60v60h-60z" fill="#c4c4c4"/></mask><g mask="url(#a)" stroke="#1476f2" stroke-linecap="round" stroke-width="1.5"><path d="m9.97562 55.0001c3.43498 0 6.21948-2.7846 6.21948-6.2196 0-3.4349-2.7845-6.2195-6.21948-6.2195-3.43495 0-6.21952 2.7846-6.21952 6.2195 0 3.435 2.78457 6.2196 6.21952 6.2196z"/><path d="m47.2927 55.0001c3.4349 0 6.2195-2.7846 6.2195-6.2196 0-3.4349-2.7846-6.2195-6.2195-6.2195s-6.2195 2.7846-6.2195 6.2195c0 3.435 2.7846 6.2196 6.2195 6.2196z"/><path d="m28.6342 40.0731c3.4349 0 6.2195-2.7846 6.2195-6.2196 0-3.4349-2.7846-6.2195-6.2195-6.2195-3.435 0-6.2196 2.7846-6.2196 6.2195 0 3.435 2.7846 6.2196 6.2196 6.2196z"/><path d="m15 52.5122h27"/><path d="m8.73171 42.5611 14.92679-12.439"/><path d="m48.5366 42.5611-14.9268-12.439"/><path d="m21.2951 28.878-5.3488-11.9414c-1.617-3.7317 1.1196-7.96101 5.2244-7.96101 2.2391 0 4.2293 1.36831 5.2244 3.35851l5.722 12.8122"/><path d="m18.6829 8.97561v-2.48781c0-1.36829 1.1195-2.4878 2.4878-2.4878h31.0976v11.1951h-23.878"/><path d="m52.2683 6.48779 4.9756 1.24391v3.7317l-4.9756 1.2439"/><path d="m19.9268 13.9512h2.4878"/></g></svg>