<?xml version="1.0" encoding="UTF-8"?>
<svg id="_图层_1" data-name="图层_1" xmlns="http://www.w3.org/2000/svg" version="1.1" viewBox="0 0 640 640">
  <!-- Generator: Adobe Illustrator 29.1.0, SVG Export Plug-In . SVG Version: 2.1.0 Build 142)  -->
  <defs>
    <style>
      .st0 {
        fill: #545453;
      }
    </style>
  </defs>
  <path class="st0" d="M320,64c-17.7,0-32,14.3-32,32v3.2c-73,14.8-128,79.4-128,156.8v21.7c0,48.1-16.4,94.8-46.4,132.4l-9.8,12.2c-5.1,6.3-7.8,14.1-7.8,22.2,0,19.6,15.9,35.5,35.5,35.5h376.9c19.6,0,35.5-15.9,35.5-35.5s-2.7-15.9-7.8-22.2l-9.8-12.2c-29.9-37.6-46.3-84.3-46.3-132.4v-21.7c0-77.4-55-142-128-156.8v-3.2c0-17.7-14.3-32-32-32ZM258,528c7.1,27.6,32.2,48,62,48s54.9-20.4,62-48h-124Z"/>
</svg>