<?xml version="1.0" encoding="UTF-8"?>
<svg id="_图层_1" data-name="图层_1" xmlns="http://www.w3.org/2000/svg" version="1.1" viewBox="0 0 640 640">
  <!-- Generator: Adobe Illustrator 29.1.0, SVG Export Plug-In . SVG Version: 2.1.0 Build 142)  -->
  <defs>
    <style>
      .st0 {
        fill: #545453;
      }
    </style>
  </defs>
  <path class="st0" d="M415.9,344h-190.9c2.9,64.5,17.2,123.9,37.5,167.4,11.4,24.5,23.7,41.8,35.1,52.4,11.2,10.5,18.9,12.2,22.9,12.2s11.7-1.7,22.9-12.2c11.4-10.6,23.7-28,35.1-52.4,20.3-43.5,34.6-102.9,37.5-167.4h-.1ZM224.9,296h190.9c-2.8-64.5-17.1-123.9-37.4-167.4-11.4-24.4-23.7-41.8-35.1-52.4-11.2-10.5-18.9-12.2-22.9-12.2s-11.7,1.7-22.9,12.2c-11.4,10.6-23.7,28-35.1,52.4-20.3,43.5-34.6,102.9-37.5,167.4ZM176.9,296c3.5-85.6,25.6-165.1,57.9-217.3-92.1,32.6-159.9,116.5-169.3,217.3h111.4ZM65.5,344c9.4,100.8,77.2,184.7,169.3,217.3-32.3-52.2-54.4-131.7-57.9-217.3h-111.4ZM463.9,344c-3.5,85.6-25.6,165.1-57.9,217.3,92.1-32.7,159.9-116.5,169.3-217.3h-111.4ZM575.3,296c-9.4-100.8-77.2-184.7-169.3-217.3,32.3,52.2,54.4,131.7,57.9,217.3h111.4Z"/>
</svg>