<svg fill="none" height="60" viewBox="0 0 60 60" width="60" xmlns="http://www.w3.org/2000/svg" xmlns:xlink="http://www.w3.org/1999/xlink"><mask id="a" height="60" maskUnits="userSpaceOnUse" width="60" x="0" y="0"><path d="m0 0h60v60h-60z" fill="#c4c4c4"/></mask><g mask="url(#a)" stroke="#1476f2" stroke-linecap="round" stroke-width="1.5"><path d="m36.3333 40.8333v11.6111c0 1.1612-.95 2.1112-2.1111 2.1112h-21.1111c-1.1611 0-2.1111-.95-2.1111-2.1112v-44.33329c0-1.16111.95-2.11111 2.1111-2.11111h21.1111c1.1611 0 2.1111.95 2.1111 2.11111v6.33329"/><path d="m11 48.2222h25.3333"/><path d="m21.5555 51.3889h4.2223"/><path d="m46.8889 38.7223h-14.7778l-3.1667 3.1667-3.1666-3.1667h-2.1111c-1.1612 0-2.1112-.95-2.1112-2.1111v-17.9444c0-1.1611.95-2.1111 2.1112-2.1111h23.2222c1.1611 0 2.1111.95 2.1111 2.1111v17.9444c0 1.1611-.95 2.1111-2.1111 2.1111z"/><path d="m32.1111 29.2222v1.0556c0 1.0556.95 2.1111 2.1111 2.1111h2.1111c1.1611 0 2.1111-1.0555 2.1111-2.1111v-.3167c0-.8444-.5277-1.5833-1.4777-1.7944l-3.4834-1.0556c-.8444-.2111-1.4777-.95-1.4777-1.7944v-.3167c0-1.0555.95-2.1111 2.1111-2.1111h2.1111c1.1611 0 2.1111 1.0556 2.1111 2.1111v1.0556"/><path d="m35.2778 22.8888v-3.1666"/><path d="m35.2778 32.3889v3.1667"/></g></svg>