<svg fill="none" height="60" viewBox="0 0 60 60" width="60" xmlns="http://www.w3.org/2000/svg" xmlns:xlink="http://www.w3.org/1999/xlink"><mask id="a" height="60" maskUnits="userSpaceOnUse" width="60" x="0" y="0"><path d="m0 0h60v60h-60z" fill="#c4c4c4"/></mask><g mask="url(#a)" stroke="#1476f2" stroke-linecap="round" stroke-width="1.5"><path d="m18.7295 37.3654 5.3253-1.133c.6798 0 1.0197-.6799.7931-1.2464-.4532-.7931-.7931-1.5862-.6798-1.8128.1133-.34.6798-.4533 2.0394-1.2464 1.3597-.7931 1.2464-1.9261.6799-2.7193-.5666-.7931-4.1923-5.5519-4.3056-7.0248-.1133-.9064 1.0197-3.2858.2266-7.0248-.3399-1.6996-1.4729-5.0987-4.0789-8.1579"/><path d="m6.26608 53.2279c.67982-2.9459 4.30552-7.478 5.55192-8.0446"/><path d="m4 37.9321c1.58625 2.8326 4.07893 6.2317 5.09867 6.5716 1.47293.4533 7.70463 2.4927 10.08403 1.5863s2.1528-1.9262 2.2661-2.606c.2266-1.5862 1.8128-1.8128 1.8128-3.8523"/><path d="m27.7938 39.2918 3.0592-5.3253c.5665-.9064 1.8128-.6798 2.0394.3399l1.6996 7.1382c.3399 1.2463 2.0395 1.133 2.2661-.1133l1.5862-9.9708c.2266-1.2463 2.0395-1.2463 2.2661 0l1.8129 13.3699c.1133 1.2463 2.0394 1.3596 2.266 0l1.6996-9.2909c.2266-1.1331 1.8129-1.2464 2.1528-.2266l1.5862 4.1922c.3399.9064 1.473 1.0197 2.0395.2266 0 0 .9064-1.3596 1.4729-1.9262.5666-.5665 1.3597-.5665 1.3597-.5665"/><path d="m31.1929 50.9621h-5.6652v-5.6652"/><path d="m49.3215 50.9621h5.6652v-5.6652"/><path d="m49.3215 23.769h5.6652v5.6652"/><path d="m18.7295 20.5963s-6.345-.7931-9.06432 1.1331"/><path d="m13.0643 23.769h4.5321"/></g></svg>