<?xml version="1.0" encoding="UTF-8"?>
<svg id="_图层_1" data-name="图层_1" xmlns="http://www.w3.org/2000/svg" version="1.1" viewBox="0 0 640 640">
  <!-- Generator: Adobe Illustrator 29.1.0, SVG Export Plug-In . SVG Version: 2.1.0 Build 142)  -->
  <defs>
    <style>
      .st0 {
        fill: #545453;
      }
    </style>
  </defs>
  <path class="st0" d="M259.1,73.5c3-14.8,16.1-25.5,31.3-25.5h59.8c15.2,0,28.3,10.7,31.3,25.5l14.5,70c14.1,6,27.3,13.7,39.3,22.8l67.8-22.5c14.4-4.8,30.2,1.2,37.8,14.4l29.9,51.8c7.6,13.2,4.9,29.8-6.5,39.9l-53.3,47.4c.9,7.4,1.3,15,1.3,22.7s-.5,15.3-1.3,22.7l53.4,47.5c11.4,10.1,14,26.8,6.5,39.9l-29.9,51.8c-7.6,13.1-23.4,19.2-37.8,14.4l-67.8-22.5c-12.1,9.1-25.3,16.7-39.3,22.8l-14.4,69.9c-3.1,14.9-16.2,25.5-31.3,25.5h-59.8c-15.2,0-28.3-10.7-31.3-25.5l-14.4-69.9c-14.1-6-27.2-13.7-39.3-22.8l-68.1,22.5c-14.4,4.8-30.2-1.2-37.8-14.4l-29.9-51.8c-7.6-13.2-4.9-29.8,6.5-39.9l53.4-47.5c-.9-7.4-1.3-15-1.3-22.7s.5-15.3,1.3-22.7l-53.4-47.5c-11.4-10.1-14-26.8-6.5-39.9l29.9-51.8c7.6-13.2,23.4-19.2,37.8-14.4l67.8,22.5c12.1-9.1,25.3-16.7,39.3-22.8l14.5-69.9ZM320.3,400c44.2-.2,79.9-36.1,79.7-80.3-.2-44.2-36.1-79.9-80.3-79.7-44.2.2-79.9,36.1-79.7,80.3.2,44.2,36.1,79.9,80.3,79.7Z"/>
</svg>