<?xml version="1.0" encoding="UTF-8"?> <svg xmlns="http://www.w3.org/2000/svg" width="48" height="39" viewBox="0 0 48 39"><g fill="none" fill-rule="evenodd" stroke-width="2"><path stroke="#73AFFB" stroke-linejoin="round" d="M47 32a4 4 0 0 1-4 4H10V6h31"></path><path stroke="#73AFFB" stroke-linejoin="round" d="M41 29c.417-.708 1.271-1 2-1a4 4 0 0 1 4 4V5a4 4 0 0 0-4-4c-.729 0-1.656.172-2 1v27z"></path><path stroke="#1476F2" stroke-linejoin="round" d="M3.5 3C2.119 3 1 3.896 1 5v28l2.5 5L6 33V5c0-1.104-1.119-2-2.5-2zM1 9h5"></path><path stroke="#1476F2" d="M17 15h6v-4h-6zM28 15h6v-4h-6zM28 13h-5M17 23h6v-4h-6zM28 23h6v-4h-6zM28 21h-5M17 31h6v-4h-6zM31 15v4M20 23v4"></path></g></svg> 