<?xml version="1.0" encoding="UTF-8"?> <svg xmlns="http://www.w3.org/2000/svg" width="45" height="48" viewBox="0 0 45 48"><g fill="none" fill-rule="evenodd" stroke-width="2"><path stroke="#73AFFB" d="M31 42v-3.041c0-2.758-5.678-4-8.5-4s-8.5 1.242-8.5 4V42M22.5 31.973c2.104 0 3.5-1.722 3.5-3.845v-1.283C26 24.722 24.604 23 22.5 23S19 24.722 19 26.845v1.283c0 2.123 1.396 3.845 3.5 3.845z"></path><path stroke="#1476F2" d="M7.5 33.959c-2.104 0-3.5-1.728-3.5-3.857v-1.287c0-2.129 1.396-3.856 3.5-3.856s3.5 1.727 3.5 3.856v1.287c0 2.129-1.396 3.857-3.5 3.857zM37.5 33.959c2.104 0 3.5-1.728 3.5-3.857v-1.287c0-2.129-1.396-3.856-3.5-3.856S34 26.686 34 28.815v1.287c0 2.129 1.396 3.857 3.5 3.857z"></path><path stroke="#73AFFB" d="M37 45v3M8 45v3M15 46h15M10 1h26a2 2 0 0 1 2 2v14a2 2 0 0 1-2 2h-4v4.297c0 .929-1.155 1.355-1.76.65L26 19H10a2 2 0 0 1-2-2V3a2 2 0 0 1 2-2z"></path><path stroke="#1476F2" d="M44 48v-8.041C44 38.309 42.65 37 41 37h-3l-5 5h-6s-.447 4 3 4h6l4-4.021M1 48v-8.041A2.958 2.958 0 0 1 3.981 37h3l5 5h6s.448 4-3 4h-6L4.99 41.979"></path></g></svg> 