<svg fill="none" height="60" viewBox="0 0 60 60" width="60" xmlns="http://www.w3.org/2000/svg" xmlns:xlink="http://www.w3.org/1999/xlink"><mask id="a" height="60" maskUnits="userSpaceOnUse" width="60" x="0" y="0"><path d="m0 0h60v60h-60z" fill="#c4c4c4"/></mask><g mask="url(#a)" stroke="#1476f2" stroke-linecap="round" stroke-width="1.5"><path d="m17.3478 30.1086h-2.3913"/><path d="m36.4783 30.1086h-2.3913"/><path d="m41.2609 30.1086h-2.3913"/><path d="m28.1087 16.9565h-2.3913"/><path d="m23.3261 16.9565h-2.3913"/><path d="m18.5435 16.9565h-2.3913"/><path d="m30.5 30.1088c0 2.6304-2.1522 4.7826-4.7826 4.7826s-4.7826-2.1522-4.7826-4.7826c0-2.6305 2.1522-4.7826 4.7826-4.7826s4.7826 2.1521 4.7826 4.7826z"/><path d="m50.8261 18.1521c0 2.0327 1.5543 3.587 3.5869 3.587 2.0327 0 3.587-1.5543 3.587-3.587 0-2.0326-1.5543-3.5869-3.587-3.5869-2.0326 0-3.5869 1.5543-3.5869 3.5869z"/><path d="m50.8261 30.1087c0 2.0326 1.5543 3.5869 3.5869 3.5869 2.0327 0 3.587-1.5543 3.587-3.5869s-1.5543-3.587-3.587-3.587c-2.0326 0-3.5869 1.5544-3.5869 3.587z"/><path d="m40.0652 8.58696c0 2.03264 1.5544 3.58694 3.587 3.58694s3.5869-1.5543 3.5869-3.58694c0-2.03261-1.5543-3.58696-3.5869-3.58696s-3.587 1.55435-3.587 3.58696z"/><path d="m54.413 38.4783c2.0327 0 3.587 1.5543 3.587 3.5869s-1.5543 3.587-3.587 3.587c-2.0326 0-3.5869-1.5544-3.5869-3.587s1.5543-3.5869 3.5869-3.5869z"/><path d="m40.0652 51.6304c0-2.0326 1.5544-3.5869 3.587-3.5869s3.5869 1.5543 3.5869 3.5869-1.5543 3.587-3.5869 3.587-3.587-1.5544-3.587-3.587z"/><path d="m36.4783 21.7391h4.7826l3.5869-3.587h5.9783"/><path d="m50.8261 42.0651h-5.9783l-3.5869-3.587h-29.8913c0-2.3913-1.55438-3.5869-3.58699-3.5869v-9.5652c2.03261 0 3.58699-1.1957 3.58699-3.587h22.7174"/><path d="m30.5 16.9565h4.7826l5.9783-5.9782"/><path d="m19.7391 43.2609h-16.7391v-26.3044h10.7609"/><path d="m41.2609 49.2392-5.9783-5.9782h-3.5869"/><path d="m50.8261 30.1086h-7.1739"/><path d="m24.5217 43.261h-2.3913"/><path d="m29.3043 43.261h-2.3913"/></g></svg>