<svg fill="none" height="60" viewBox="0 0 60 60" width="60" xmlns="http://www.w3.org/2000/svg" xmlns:xlink="http://www.w3.org/1999/xlink"><mask id="a" height="60" maskUnits="userSpaceOnUse" width="60" x="0" y="0"><path d="m0 0h60v60h-60z" fill="#c4c4c4"/></mask><g mask="url(#a)" stroke="#1476f2" stroke-linecap="round" stroke-width="1.5"><path d="m17.8261 14.2827h-12.17393c-2.06956 0-3.65217 1.5826-3.65217 3.6522"/><path d="m39.7391 19.1523v-4.8696h-10.9565"/><path d="m43.3913 39.8479v9.7391h-37.73913c-2.06956 0-3.65217-1.5826-3.65217-3.6522v-28c0 2.0696 1.58261 3.6522 3.65217 3.6522h37.73913v8.5217"/><path d="m53.1304 38.6305 4.8696-4.8696-4.8696-4.8695"/><path d="m47.0435 33.761h10.9565"/><path d="m8.08698 21.587 17.04352-12.17391 8.5217 12.17391"/><path d="m43.3913 30.1086h-10.9565c-2.6782 0-4.8696 2.1913-4.8696 4.8696s2.1914 4.8696 4.8696 4.8696h10.9565c.7305 0 1.2174-.487 1.2174-1.2174v-7.3044c0-.7304-.4869-1.2174-1.2174-1.2174z"/><path d="m32.4348 34.9783h2.4347"/></g></svg>