<svg fill="none" height="60" viewBox="0 0 60 60" width="60" xmlns="http://www.w3.org/2000/svg" xmlns:xlink="http://www.w3.org/1999/xlink"><mask id="a" height="60" maskUnits="userSpaceOnUse" width="60" x="0" y="0"><path d="m0 0h60v60h-60z" fill="#c4c4c4"/></mask><g mask="url(#a)" stroke="#1476f2" stroke-linecap="round" stroke-width="1.5"><path d="m21.9 44.8-2.7-1.6-3.8 2.1-2.7-2.7 2.1-3.8-1.6-2.7-4.3-.1-.9-3.7 3.8-2.2v-3.2l-3.8-2.2 1-3.7 4.3-.1 1.5-2.7-2.1-3.8 2.7-2.7 3.8 2.1 2.7-1.6.1-4.3 3.7-.9 2.2 3.8h3.2l2.2-3.8 3.7 1 .1 4.3 2.7 1.5 3.8-2.1 2.7 2.7-2.1 3.8 1.6 2.7 4.4.1 1.1 3.7-3.5 2.2v3.2l3.5 2.2-1.1 3.7-4.4.1-1.6 2.7 2.1 3.8-2.7 2.7-3.8-2.1-2.7 1.6"/><path d="m18.8 30.8c1.6568 0 3-1.3431 3-3 0-1.6568-1.3432-3-3-3-1.6569 0-3 1.3432-3 3 0 1.6569 1.3431 3 3 3z"/><path d="m38.8 25.8c1.6568 0 3-1.3431 3-3 0-1.6568-1.3432-3-3-3-1.6569 0-3 1.3432-3 3 0 1.6569 1.3431 3 3 3z"/><path d="m28.8 20.8c1.6568 0 3-1.3431 3-3 0-1.6568-1.3432-3-3-3-1.6569 0-3 1.3432-3 3 0 1.6569 1.3431 3 3 3z"/><path d="m28.8 20.8v32"/><path d="m36.8 24.8-4 4v6"/><path d="m20.8 29.8 4 4v19"/><path d="m39.8 35.8c1.6568 0 3-1.3431 3-3 0-1.6568-1.3432-3-3-3-1.6569 0-3 1.3432-3 3 0 1.6569 1.3431 3 3 3z"/><path d="m37.8 34.8-5 5v13"/></g></svg>