<?xml version="1.0" encoding="UTF-8"?> <svg xmlns="http://www.w3.org/2000/svg" width="48" height="43" viewBox="0 0 48 43"><g fill="none" fill-rule="evenodd" stroke-linejoin="round" stroke-width="2.016"><path stroke="#1476F2" d="M18.47 22.204c0-.626-.082-1.23-.22-1.814l2.005-1.675-1.792-3.104-2.454.9a7.82 7.82 0 0 0-3.14-1.82l-.449-2.57H8.835l-.448 2.57a7.819 7.819 0 0 0-3.14 1.82l-2.455-.9L1 18.715l2.005 1.675a7.844 7.844 0 0 0-.219 1.814c0 .625.081 1.23.22 1.814L1 25.693l1.792 3.104 2.455-.9a7.818 7.818 0 0 0 3.14 1.82l.448 2.57h3.585l.448-2.57a7.82 7.82 0 0 0 3.14-1.82l2.455.9 1.792-3.104-2.005-1.675c.138-.583.22-1.189.22-1.814z"></path><path stroke="#1476F2" d="M13.652 22.204a3.025 3.025 0 1 1-6.049 0 3.025 3.025 0 0 1 6.05 0z"></path><path stroke="#1476F2" stroke-linecap="round" d="M33.817 32.286l1.008 1.008h2.016l1.009-1.008"></path><path stroke="#1476F2" d="M38.858 29.262v-1.009c0-1.092.375-1.903 1.134-2.677 1.142-1.165 1.885-2.607 1.885-4.383a6.047 6.047 0 1 0-12.093 0c0 1.776.743 3.218 1.885 4.383.759.774 1.14 1.585 1.14 2.677v1.008h6.049z"></path><path stroke="#1476F2" stroke-linecap="round" d="M24.743 21.196h2.016M26.229 15.65l1.746 1.009M30.288 11.591l1.008 1.746M35.833 10.105v2.017M41.378 11.591l-1.008 1.746M45.438 15.65l-1.747 1.009M26.229 26.741l1.746-1.008M45.438 26.741l-1.747-1.008M46.924 21.196h-2.017"></path><path stroke="#73AFFB" stroke-linecap="round" d="M10.578 37.934a9.828 9.828 0 0 0 9.697 3.169c3.692-.863 6.4-3.704 7.282-7.139"></path><path stroke="#73AFFB" stroke-linecap="round" d="M23.61 35.509l3.952-1.546 1.559 3.943M34.6 3.762a9.828 9.828 0 0 0-9.95-2.25c-3.596 1.203-6.027 4.284-6.584 7.786"></path><path stroke="#73AFFB" stroke-linecap="round" d="M21.852 7.392L18.06 9.299l-1.92-3.78"></path></g></svg> 