<svg height="315" viewBox="0 0 1147 315" width="1147" xmlns="http://www.w3.org/2000/svg"><g fill="#1476f2" fill-rule="evenodd"><path d="m157.5.3c86.4 0 157.2 70.7 157.2 157.2s-70.7 157.2-157.2 157.2-157.2-70.7-157.2-157.2 70.8-157.2 157.2-157.2zm77.4 97.9c.4-3.2-1.2-3.6-4.4-3.6h-61.3c-4.7 0-7 3.2-8.6 7.9-1.5 4.8-24 86.1-25.9 93.6s-8.8 11-13.5 11h-35.2c-4.8 0-7.9 5.9-7.9 9.7 0 2.4 1.6 3.7 4.7 3.7h79.4c7 0 8.6-7.9 8.6-7.9l25.9-98.3s1.6-7.9 7.9-7.9h23.6c2.8 0 6.2-3.7 6.7-8.2zm-148.1 90c-1.6 5.5 0 7.8 4 7.9h25.5c3.1 0 5.8-2.4 7.4-7.9 1.6-5.4 23-81.7 24.4-86.4 1.4-4.8 0-7.9-3.1-7.9h-25.9c-5.5 0-6.3 3.2-7.9 7.9s-22.8 81.7-24.4 86.4z"/><g transform="translate(382 83)"><path d="m.3 12.1c0-1.6.5-3 1.6-4.2 1.1-1.1 2.5-1.7 4.4-1.7s3.3.6 4.4 1.7 1.6 2.5 1.6 4.2-.5 3-1.6 4.1-2.6 1.7-4.4 1.7c-1.9 0-3.3-.6-4.4-1.7s-1.6-2.5-1.6-4.1zm10.3 102.1h-8.8v-79.2h8.8z"/><path d="m42.8 34.9.3 13.5c3-4.9 6.7-8.6 11.1-11.2s9.3-3.8 14.7-3.8c8.5 0 14.8 2.4 19 7.2 4.1 4.8 6.2 12 6.3 21.5v52h-8.7v-52.1c0-7.1-1.6-12.4-4.5-15.8-3-3.5-7.7-5.2-14.2-5.2-5.4 0-10.2 1.7-14.4 5.1s-7.3 8-9.3 13.7v54.3h-8.7v-79.2z"/><path d="m130.4 14.7v20.3h16.4v7.2h-16.4v52.8c0 4.4.8 7.7 2.4 9.8 1.6 2.2 4.2 3.2 7.9 3.2 1.5 0 3.8-.2 7.1-.7l.4 7.1c-2.3.8-5.4 1.2-9.4 1.2-6 0-10.4-1.7-13.1-5.2s-4.1-8.6-4.1-15.4v-52.9h-14.6v-7.2h14.6v-20.3h8.8z"/><path d="m195.7 115.7c-6.7 0-12.8-1.7-18.3-5-5.4-3.3-9.7-7.9-12.7-13.9-3-5.9-4.5-12.6-4.5-20v-3.1c0-7.6 1.5-14.5 4.4-20.6 3-6.1 7.1-10.9 12.3-14.4 5.3-3.5 11-5.2 17.1-5.2 9.6 0 17.2 3.3 22.9 9.9s8.5 15.5 8.5 26.9v4.9h-56.5v1.7c0 9 2.6 16.5 7.7 22.4 5.2 6 11.6 9 19.4 9 4.7 0 8.8-.9 12.4-2.6s6.8-4.4 9.8-8.2l5.5 4.2c-6.4 9.3-15.8 14-28 14zm-1.6-74.7c-6.6 0-12.1 2.4-16.7 7.3-4.5 4.8-7.3 11.3-8.2 19.5h47.5v-1c-.2-7.6-2.4-13.8-6.5-18.6-4.1-4.9-9.5-7.2-16.1-7.2z"/><path d="m252.3 114.2h-8.8v-112.5h8.8z"/><path d="m285.9 114.2h-8.8v-112.5h8.8z"/><path d="m340.4 115.7c-6.7 0-12.8-1.7-18.3-5-5.4-3.3-9.7-7.9-12.7-13.9-3-5.9-4.5-12.6-4.5-20v-3.1c0-7.6 1.5-14.5 4.4-20.6 3-6.1 7.1-10.9 12.3-14.4 5.3-3.5 11-5.2 17.1-5.2 9.6 0 17.2 3.3 22.9 9.9s8.5 15.5 8.5 26.9v4.9h-56.5v1.7c0 9 2.6 16.5 7.7 22.4 5.2 6 11.6 9 19.4 9 4.7 0 8.8-.9 12.4-2.6s6.8-4.4 9.8-8.2l5.5 4.2c-6.4 9.3-15.7 14-28 14zm-1.6-74.7c-6.6 0-12.1 2.4-16.7 7.3-4.5 4.8-7.3 11.3-8.2 19.5h47.5v-1c-.2-7.6-2.4-13.8-6.5-18.6-4.1-4.9-9.5-7.2-16.1-7.2z"/><path d="m416.5 108.3c6.1 0 11.2-1.7 15.3-5.2 4.1-3.4 6.4-7.9 6.7-13.4h8.4c-.2 4.8-1.8 9.2-4.5 13.2s-6.5 7.1-11.1 9.3-9.6 3.4-14.8 3.4c-10.4 0-18.6-3.6-24.7-10.8s-9.1-16.9-9.1-29.2v-2.6c0-7.8 1.4-14.7 4.1-20.7s6.7-10.6 11.8-13.9 11.1-4.9 17.9-4.9c8.7 0 15.9 2.6 21.5 7.8s8.7 12 9 20.4h-8.4c-.4-6.2-2.6-11.2-6.7-15s-9.2-5.7-15.4-5.7c-7.9 0-14.1 2.9-18.4 8.6-4.4 5.7-6.6 13.7-6.6 24v2.6c0 10.1 2.2 18 6.6 23.7 4.3 5.5 10.4 8.4 18.4 8.4z"/><path d="m478.1 14.7v20.3h16.4v7.2h-16.4v52.8c0 4.4.8 7.7 2.4 9.8 1.6 2.2 4.2 3.2 7.9 3.2 1.5 0 3.8-.2 7.1-.7l.4 7.1c-2.3.8-5.4 1.2-9.4 1.2-6 0-10.4-1.7-13.1-5.2s-4.1-8.6-4.1-15.4v-52.9h-14.6v-7.2h14.6v-20.3h8.8z"/><path d="m552.3 92.3c0-2.6-1.3-4.6-3.8-6.1-2.6-1.5-6.7-2.8-12.3-4-18.8-4-28.3-12-28.3-24 0-7 2.9-12.9 8.8-17.6 5.8-4.7 13.5-7.1 22.9-7.1 10.1 0 18.1 2.4 24.1 7.1s9 10.9 9 18.5h-21.2c0-3-1-5.5-2.9-7.5-2-2-5-3-9.2-3-3.6 0-6.3.8-8.3 2.4s-2.9 3.7-2.9 6.2c0 2.3 1.1 4.2 3.3 5.7 2.2 1.4 6 2.7 11.2 3.7 5.3 1.1 9.7 2.2 13.3 3.6 11.2 4.1 16.8 11.2 16.8 21.3 0 7.2-3.1 13.1-9.3 17.5-6.2 4.5-14.2 6.7-24 6.7-6.6 0-12.5-1.2-17.7-3.6s-9.2-5.6-12.1-9.7-4.4-8.6-4.4-13.4h20.1c.2 3.8 1.6 6.6 4.2 8.6s6.1 3 10.4 3c4.1 0 7.1-.8 9.2-2.3s3.1-3.5 3.1-6z"/><path d="m583.2 73.8c0-7.9 1.5-14.9 4.5-21 3-6.2 7.4-10.9 13.1-14.3s12.3-5.1 19.8-5.1c10.7 0 19.4 3.3 26.2 9.8s10.5 15.4 11.3 26.7l.1 5.4c0 12.2-3.4 21.9-10.2 29.3-6.8 7.3-15.9 11-27.3 11s-20.5-3.7-27.4-11-10.2-17.3-10.2-29.9v-.9zm21.2 1.5c0 7.5 1.4 13.3 4.2 17.3s6.9 6 12.2 6c5.1 0 9.1-2 12-5.9s4.3-10.2 4.3-18.9c0-7.4-1.4-13.1-4.3-17.2s-6.9-6.1-12.2-6.1c-5.2 0-9.2 2-12 6.1-2.8 4-4.2 10.3-4.2 18.7z"/><path d="m677.1 114.2v-63.7h-11.8v-15.5h11.8v-6.7c0-8.9 2.6-15.8 7.7-20.7s12.2-7.4 21.4-7.4c2.9 0 6.5.5 10.8 1.5l-.2 16.3c-1.8-.4-3.9-.7-6.4-.7-8 0-11.9 3.8-11.9 11.3v6.4h15.7v15.5h-15.7v63.7z"/><path d="m750.4 15.5v19.5h13.5v15.5h-13.5v39.5c0 2.9.6 5 1.7 6.3s3.3 1.9 6.4 1.9c2.3 0 4.4-.2 6.2-.5v16c-4.2 1.3-8.4 1.9-12.8 1.9-14.8 0-22.4-7.5-22.7-22.5v-42.7h-11.6v-15.5h11.6v-19.5h21.2z"/></g></g></svg>
