<svg width="1440" height="769" viewBox="0 0 1440 769" fill="none" xmlns="http://www.w3.org/2000/svg">
<g opacity="0.1">
<path d="M144.147 364.101C172.837 372.512 200.907 384.779 228.123 396.608C243.166 403.18 258.752 409.927 274.182 415.973C295.118 424.121 312.642 429.291 329.313 432.183C340.634 434.11 352.498 435.775 364.051 435.775C379.404 435.775 394.059 432.971 405.845 424.297C438.955 400.113 457.565 356.828 475.632 314.945C481.525 301.276 487.108 288.396 493.078 276.304C495.017 272.361 497.033 268.155 499.204 263.599C508.509 243.971 520.14 219.525 534.872 202.439C552.086 182.461 570.076 176.415 589.771 183.863C607.683 190.61 621.95 204.191 637.458 219.963C651.028 233.72 668.087 239.766 684.603 245.636C691.039 247.914 697.707 250.28 704.143 253.084C721.589 260.707 731.514 279.195 741.052 297.07C746.635 307.585 752.45 318.45 759.739 326.949C768.114 336.675 780.52 340.531 796.648 338.34C816.499 335.624 831.386 335.799 845.034 338.953C852.865 340.706 860.929 342.809 868.683 344.824C912.959 356.39 958.707 368.307 993.523 328.264C1014.15 304.606 1027.49 273.325 1039.35 243.358C1046.17 226.009 1054.47 209.186 1062.53 192.976C1067.03 183.775 1071.76 174.312 1076.1 164.849L1075.33 164.411C1070.99 173.874 1066.26 183.337 1061.76 192.538C1053.69 208.835 1045.4 225.659 1038.57 243.008C1026.71 272.887 1013.45 304.08 992.98 327.65C958.475 367.255 912.959 355.426 868.993 343.948C861.239 341.932 853.175 339.83 845.344 337.989C831.619 334.923 816.654 334.66 796.726 337.376C780.908 339.479 768.734 335.799 760.592 326.336C753.381 317.924 747.565 307.147 741.982 296.632C732.367 278.67 722.442 260.006 704.686 252.208C698.25 249.404 691.581 247.038 685.145 244.76C668.707 238.889 651.726 232.931 638.311 219.262C622.726 203.403 608.381 189.821 590.314 182.987C570.231 175.364 551.931 181.585 534.485 201.826C519.675 218.999 508.044 243.533 498.661 263.248C496.49 267.717 494.474 272.01 492.535 275.953C486.487 288.133 480.982 301.013 475.089 314.682C457.1 356.39 438.49 399.5 405.613 423.596C385.22 438.492 355.832 435.863 329.701 431.306C313.107 428.415 295.661 423.245 274.725 415.096C259.372 409.138 243.786 402.304 228.744 395.732C201.527 383.903 173.38 371.636 144.69 363.225L144.147 364.101Z" fill="white"/>
<path d="M1025.55 165.112C1022.83 171.947 1019.96 179.044 1017.02 185.791C1007.95 206.557 997.323 228.112 981.504 245.111C949.17 279.896 897.141 270.433 855.269 262.898C850.306 262.022 845.654 261.145 841.079 260.357C827.277 258.079 812.699 258.429 798.664 258.78L796.183 258.867C787.576 260.269 778.581 258.079 771.603 252.909C760.825 244.935 754.932 231.179 749.194 217.948C748.031 215.319 746.868 212.516 745.627 209.887C739.424 196.218 725.544 173.874 702.049 176.941C697.164 177.554 691.892 178.956 686.851 180.183C674.678 183.338 662.116 186.492 650.95 181.235C642.033 177.029 633.891 170.107 626.06 163.36C619.624 157.927 613.033 152.232 605.899 147.938C589.073 137.862 573.72 134.357 561.469 137.599C539.06 143.645 524.405 170.457 512.618 192.012C511.378 194.203 510.215 196.393 509.052 198.408C498.894 216.634 489.899 236.611 481.215 255.976C463.225 296.106 444.538 337.552 414.375 367.08C394.912 386.094 367.541 379.873 343.348 374.353C337.843 373.126 332.648 371.899 327.685 371.023C318.768 369.446 309.385 368.482 300.313 367.518C286.434 366.029 272.011 364.539 258.907 360.947C231.07 353.411 203.698 338.252 177.334 323.62C166.556 317.661 155.391 311.44 144.302 305.92L143.915 306.884C154.925 312.492 166.091 318.625 176.869 324.584C203.31 339.216 230.682 354.375 258.674 361.998C271.934 365.59 286.279 367.08 300.236 368.57C309.308 369.533 318.613 370.497 327.53 372.074C332.493 372.951 337.688 374.09 343.193 375.404C355.057 378.12 367.696 381.012 379.87 381.012C392.664 381.012 404.838 377.857 414.995 367.869C445.314 338.165 464.001 296.632 482.068 256.414C490.752 237.05 499.747 217.072 509.905 198.847C511.068 196.744 512.231 194.641 513.471 192.45C525.18 171.07 539.758 144.434 561.779 138.475C576.977 134.357 593.958 141.717 605.589 148.727C612.645 152.933 619.236 158.541 625.672 164.061C633.581 170.808 641.723 177.73 650.718 182.023C662.116 187.456 674.833 184.214 687.162 181.059C692.434 179.745 697.397 178.431 702.204 177.817C725.079 174.838 738.726 196.831 744.852 210.237C746.015 212.866 747.255 215.582 748.341 218.299C754.079 231.705 760.049 245.461 771.06 253.698C778.271 259.043 787.421 261.233 796.183 259.831L798.587 259.744C812.622 259.393 827.044 259.043 840.846 261.321C845.421 262.109 850.074 262.898 855.036 263.862C897.063 271.485 949.403 280.948 981.97 245.812C997.865 228.726 1008.49 207.083 1017.64 186.229C1020.58 179.482 1023.45 172.385 1026.17 165.55C1029.42 157.489 1032.76 149.077 1036.4 141.104L1035.63 140.666C1032.14 148.639 1028.73 157.051 1025.55 165.112Z" fill="white"/>
<path d="M1025.24 199.285L1024.31 201.651C1014.77 225.659 1005.85 248.265 990.732 267.192C955.296 311.528 896.288 302.591 843.25 288.046C831.464 284.804 819.213 283.489 803.472 283.664C794.71 285.767 785.793 285.505 778.271 282.876C767.959 279.283 758.731 268.769 750.822 251.683C739.812 228.025 727.095 204.893 703.833 204.805C701.972 204.805 700.188 204.805 698.327 204.805C678.555 204.805 659.945 204.805 643.196 193.677C636.993 189.559 631.1 184.302 624.819 178.869C616.29 171.334 607.528 163.623 597.603 158.628C585.351 152.407 567.439 147.15 552.242 157.227C531.461 170.983 518.744 195.342 506.338 218.824C505.252 220.84 504.167 222.943 503.159 224.958C495.017 240.379 487.806 257.553 480.129 275.691C461.132 320.816 441.514 367.431 405.535 390.826C388.477 401.954 366.843 397.923 345.985 394.155C338.696 392.841 331.872 391.527 325.359 391.001C305.974 389.249 283.255 386.445 261.466 379.084C237.583 370.936 213.934 358.581 190.982 346.664C176.326 339.041 161.129 331.068 145.931 324.321L145.621 325.285C160.741 332.032 175.939 340.005 190.594 347.628C213.546 359.632 237.273 371.987 261.156 380.136C283.022 387.584 305.819 390.388 325.204 392.14C331.64 392.753 338.541 393.98 345.752 395.294C356.453 397.222 367.386 399.237 377.776 399.237C387.779 399.237 397.394 397.397 405.846 391.877C442.057 368.307 461.752 321.517 480.827 276.304C488.504 258.167 495.715 240.993 503.857 225.659C504.942 223.644 506.028 221.628 507.036 219.525C519.287 196.131 532.004 171.947 552.552 158.278C567.439 148.377 585.041 153.634 597.06 159.68C606.83 164.587 615.592 172.385 624.044 179.833C630.325 185.353 636.218 190.61 642.498 194.729C659.48 205.944 678.245 205.944 698.095 206.032C699.878 206.032 701.739 206.032 703.6 206.032C726.397 206.119 738.881 228.989 749.814 252.384C757.878 269.733 767.261 280.335 777.806 284.015C785.405 286.731 794.555 286.994 803.317 284.891C818.903 284.716 831.076 286.03 842.785 289.272C896.055 303.905 955.373 312.843 991.119 268.155C1006.32 249.142 1015.31 226.36 1024.85 202.352L1025.78 199.986C1029.81 189.909 1033.69 179.482 1037.49 169.406C1040.28 162.133 1043.07 154.598 1045.94 147.15L1045.09 146.712C1042.22 154.072 1039.35 161.608 1036.64 168.968C1033.15 178.781 1029.27 189.121 1025.24 199.285Z" fill="white"/>
<path d="M258.597 323.62C290.621 329.841 317.992 335.799 342.34 341.933C345.442 342.721 348.543 343.51 351.567 344.386C362.888 347.453 374.597 350.607 385.918 350.87C386.15 350.87 386.383 350.87 386.615 350.87C405.225 350.87 420.19 331.944 432.442 313.368C450.276 286.205 465.009 255.888 479.199 226.623C491.14 202.089 503.391 176.678 517.503 153.283L517.736 152.845C528.359 135.233 541.618 113.24 560.616 107.983C574.495 104.128 589.383 109.911 604.659 116.745C631.177 128.574 654.827 130.94 679.02 124.193C681.656 123.492 684.292 122.616 687.084 121.652C698.327 117.972 710.036 114.204 720.659 118.673C734.926 124.719 741.44 142.506 747.178 158.278C747.565 159.417 748.03 160.556 748.418 161.695L749.039 163.36C754.932 179.219 762.22 199.022 777.806 205.155C789.204 209.624 801.688 207.521 813.785 205.506C821.539 204.192 829.603 202.79 837.124 203.315C845.886 203.929 855.036 205.068 864.729 206.207C897.606 210.325 934.902 214.881 963.825 196.831C978.48 187.631 989.956 172.297 1000.04 158.803C1009.26 146.449 1018.18 132.517 1027.41 116.044L1026.63 115.518C1017.48 131.904 1008.57 145.836 999.338 158.103C989.258 171.596 977.86 186.842 963.36 195.955C934.67 213.83 897.606 209.274 864.806 205.243C855.114 204.016 845.886 202.877 837.124 202.351C829.525 201.826 821.384 203.228 813.552 204.542C801.611 206.557 789.204 208.66 778.039 204.192C762.841 198.146 755.94 179.482 749.814 162.922L749.194 161.257C748.806 160.118 748.341 158.979 747.953 157.84C742.137 141.893 735.547 123.93 720.891 117.709C709.958 113.065 697.629 117.096 686.774 120.601C683.982 121.477 681.346 122.353 678.787 123.054C654.75 129.713 631.332 127.347 604.969 115.606C589.538 108.684 574.495 102.813 560.383 106.756C541.076 112.101 527.661 134.269 516.961 152.057L516.728 152.495C502.616 175.977 490.287 201.388 478.346 225.922C464.156 255.187 449.501 285.417 431.666 312.492C419.415 331.068 404.45 350.081 385.918 349.643C374.674 349.38 363.043 346.226 351.722 343.159C348.698 342.371 345.519 341.494 342.495 340.706C318.147 334.572 290.776 328.614 258.752 322.393C222.463 315.383 188.19 298.297 155.08 281.737C149.885 279.108 144.69 276.567 139.495 274.026L139.107 274.99C144.302 277.531 149.497 280.159 154.693 282.7C187.88 299.524 222.23 316.61 258.597 323.62Z" fill="white"/>
<path d="M189.586 285.505C205.947 291.901 223.781 295.756 241.072 299.436C247.431 300.838 254.022 302.24 260.457 303.73C278.292 307.936 296.436 313.018 314.038 317.925C322.955 320.378 332.105 323.007 341.099 325.372C343.426 325.986 345.752 326.687 348.155 327.3C359.631 330.455 371.495 333.784 383.126 334.66C383.901 334.748 384.754 334.748 385.53 334.748C409.722 334.748 426.859 306.183 439.498 285.154C453.067 262.548 464.931 238.101 476.407 214.443C490.985 184.389 506.105 153.284 524.87 125.683C543.634 98.1697 568.835 89.6704 604.426 99.0459C623.733 104.128 643.506 103.076 668.319 95.541C671.731 94.4896 675.22 93.2628 678.942 91.9485C692.744 87.0417 708.407 81.434 721.744 87.4798C735.934 93.9638 742.292 112.101 747.875 128.136C748.263 129.275 748.651 130.414 749.116 131.553C749.504 132.605 749.814 133.569 750.202 134.62C755.94 151.005 762.453 169.581 777.263 176.241C788.739 181.41 801.611 178.694 814.095 176.153C821.539 174.576 828.517 173.174 835.263 173.261C845.809 173.349 856.819 174.488 868.606 175.627C898.226 178.606 928.932 181.673 954.598 168.793C962.429 164.85 969.951 159.592 977.239 154.51C980.884 151.969 984.683 149.341 988.405 146.887C1004.84 136.285 1015.23 118.06 1025.39 100.36L1026.63 98.1697L1025.86 97.6439L1024.62 99.8345C1014.54 117.446 1004.15 135.584 987.94 146.011C984.141 148.464 980.419 151.093 976.697 153.634C969.485 158.716 961.964 163.886 954.132 167.829C928.622 180.622 898.071 177.555 868.528 174.576C856.819 173.437 845.654 172.298 835.108 172.21C828.285 172.122 820.918 173.699 813.707 175.189C801.378 177.73 788.584 180.359 777.341 175.364C762.918 168.88 756.482 150.48 750.822 134.27C750.434 133.218 750.124 132.167 749.736 131.203C749.349 130.064 748.961 128.925 748.496 127.786C742.835 111.576 736.399 93.2629 721.899 86.6036C708.33 80.3825 692.434 85.9903 678.477 90.9847C674.755 92.299 671.266 93.5257 667.854 94.5772C643.119 102.025 623.578 103.076 604.426 98.082C568.525 88.6189 542.937 97.2058 524.017 125.069C505.174 152.758 490.054 183.864 475.476 213.918C464.001 237.488 452.137 261.934 438.567 284.541C425.618 306.008 407.939 335.449 383.049 333.521C371.573 332.645 359.709 329.403 348.233 326.161C345.907 325.548 343.503 324.847 341.177 324.233C332.182 321.78 322.955 319.239 314.115 316.786C296.514 311.879 278.292 306.797 260.535 302.591C254.177 301.101 247.508 299.699 241.15 298.297C223.936 294.617 206.102 290.85 189.818 284.453C176.714 279.283 163.299 272.712 150.428 266.316C146.008 264.125 141.433 261.847 136.936 259.656L136.548 260.62C141.045 262.811 145.62 265.089 150.04 267.279C163.067 273.763 176.404 280.423 189.586 285.505Z" fill="white"/>
<path d="M285.193 435.337C306.207 443.398 336.215 454.877 364.207 454.877C380.18 454.877 395.456 451.109 408.017 440.857C439.421 415.184 457.1 373.389 474.236 332.995C480.285 318.713 485.945 305.307 492.226 292.426C494.242 288.396 496.413 283.576 498.739 278.494C507.579 259.305 518.589 235.472 532.469 217.597C548.83 196.568 564.959 189.296 581.862 195.429C602.953 203.052 619.78 216.896 638.544 235.209C650.796 247.214 665.916 253.259 680.416 259.13C689.101 262.635 698.095 266.227 706.314 271.046C721.823 280.072 731.825 298.998 738.804 314.419C740.122 317.398 741.44 320.553 742.836 323.882C749.194 339.391 756.483 356.916 770.673 362.699C780.676 366.729 791.531 365.152 801.999 363.575C803.705 363.312 805.411 363.049 807.039 362.874C822.935 360.683 840.071 361.735 856.665 365.678C864.574 367.605 872.716 369.971 880.547 372.337C896.211 376.981 912.416 381.8 928.545 383.027C958.165 385.305 986.933 368.657 1007.56 337.376C1021.59 316.172 1032.76 292.426 1043.54 269.469C1045.94 264.387 1048.34 259.305 1050.75 254.223C1056.95 241.255 1064.71 228.813 1072.23 216.809C1078.9 206.119 1085.8 195.166 1091.61 183.688L1090.84 183.162C1085.02 194.553 1078.12 205.593 1071.45 216.195C1063.93 228.2 1056.18 240.642 1049.9 253.697C1047.49 258.78 1045.09 263.862 1042.68 268.944C1031.91 291.813 1020.74 315.558 1006.78 336.675C986.312 367.605 957.855 384.078 928.545 381.888C912.494 380.661 896.366 375.842 880.78 371.198C872.948 368.832 864.807 366.466 856.898 364.539C840.226 360.508 822.935 359.544 806.962 361.647C805.333 361.91 803.627 362.085 801.922 362.348C791.531 363.925 780.753 365.503 770.983 361.56C757.181 355.952 749.97 338.603 743.689 323.269C742.293 319.939 740.975 316.785 739.657 313.718C732.601 298.122 722.52 279.108 706.78 269.907C698.483 265.088 689.488 261.496 680.804 257.991C666.304 252.208 651.338 246.162 639.165 234.333C620.322 215.845 603.341 202.001 582.173 194.378C564.881 188.157 548.443 195.517 531.849 216.809C517.892 234.771 506.881 258.692 497.964 277.881C495.638 282.963 493.389 287.695 491.45 291.725C485.17 304.606 479.432 318.012 473.384 332.294C456.325 372.6 438.723 414.22 407.474 439.806C373.279 467.757 318.303 446.728 285.504 434.198C279.766 432.007 273.95 429.817 268.212 427.539C226.495 411.504 183.383 394.943 139.65 383.553L139.418 384.516C183.15 395.907 226.263 412.468 267.902 428.503C273.64 430.868 279.378 433.146 285.193 435.337Z" fill="white"/>
<path d="M1027.64 59.4405C1013.37 80.2068 997.167 103.689 973.44 107.983C966.384 109.21 958.862 108.509 951.574 107.72C946.146 107.194 940.485 106.581 935.135 106.844C928.544 107.194 921.643 108.421 914.975 109.648C907.608 110.962 900.009 112.364 892.876 112.539C884.734 112.802 875.972 112.013 867.52 111.312C855.967 110.349 844.025 109.385 832.782 110.611C827.122 111.225 820.918 113.153 814.327 115.08C798.277 119.899 780.055 125.332 767.803 112.189C758.576 102.375 753.924 88.5309 749.426 75.2124C746.325 66.0121 743.146 56.549 738.493 48.4002C719.961 16.0678 674.6 28.4225 647.461 35.7827C632.961 39.7257 616.057 44.1943 599.619 46.5601L597.835 46.823C573.798 50.3278 551.156 53.5698 533.322 73.9857C506.88 104.215 489.434 142.681 472.608 179.92C463.535 199.985 454.231 220.664 443.608 239.678C442.522 241.693 441.359 243.709 440.196 245.812C427.557 268.856 411.816 297.596 387.391 300.049C375.992 301.188 364.439 297.684 353.196 294.179C350.404 293.302 347.535 292.426 344.666 291.638C325.281 286.205 305.663 279.984 286.666 273.85C279.222 271.485 271.623 269.031 264.102 266.665C243.244 260.094 221.61 254.661 200.674 249.404C178.42 243.796 155.391 238.013 133.214 230.828L132.981 231.792C155.235 238.977 178.265 244.76 200.519 250.368C221.455 255.625 243.089 261.058 263.947 267.629C271.468 269.995 279.145 272.449 286.511 274.814C305.508 280.948 325.126 287.169 344.511 292.602C347.303 293.39 350.249 294.266 353.041 295.142C362.888 298.122 372.968 301.188 383.049 301.188C384.599 301.188 386.073 301.101 387.624 300.926C412.514 298.472 428.41 269.469 441.126 246.162C442.289 244.059 443.375 241.956 444.538 240.029C455.161 220.927 464.543 200.248 473.616 180.183C490.442 143.031 507.811 104.566 534.175 74.4238C551.776 54.2708 574.34 51.0288 598.145 47.6116L599.929 47.3487C616.367 44.983 633.349 40.5142 647.849 36.5712C674.755 29.2987 719.728 17.0317 737.873 48.7507C742.525 56.8118 745.627 66.275 748.728 75.3876C753.226 88.8814 757.956 102.726 767.338 112.714C780.055 126.208 798.509 120.688 814.715 115.781C821.306 113.853 827.432 111.926 833.092 111.312C844.336 110.086 856.199 111.05 867.675 112.013C876.127 112.714 884.889 113.415 893.108 113.24C900.32 113.065 907.919 111.663 915.285 110.349C921.953 109.122 928.854 107.895 935.368 107.545C940.641 107.282 946.301 107.808 951.729 108.421C959.095 109.21 966.617 109.998 973.828 108.684C997.943 104.39 1014.23 80.6449 1028.65 59.791L1030.66 56.8995L1029.97 56.2861L1027.64 59.4405Z" fill="white"/>
<path d="M261.543 285.417C272.632 288.571 283.875 291.988 294.808 295.318C310.471 300.05 326.677 304.869 342.573 309.25C344.899 309.863 347.225 310.564 349.629 311.265C361.415 314.682 373.512 318.187 385.298 318.362C385.453 318.362 385.608 318.362 385.84 318.362C410.576 318.362 428.1 287.607 440.894 265.001L442.367 262.46C453.921 242.132 464.544 220.489 474.702 199.635C489.744 168.792 505.33 136.986 524.482 108.596C534.718 93.4378 548.83 75.7382 567.13 72.9343C574.651 71.7952 582.638 72.6715 590.314 73.4601C595.975 74.0734 601.79 74.6868 607.373 74.5115C622.493 74.0734 639.009 71.2695 659.557 65.7494C661.341 65.3113 663.202 64.7855 665.063 64.2598C687.86 57.8634 719.108 49.1889 734.617 72.6714C740.82 82.047 744.697 93.2625 748.496 104.128C752.218 114.905 756.173 126.121 762.298 135.671C774.86 155.123 796.028 150.304 814.716 146.011C821.927 144.346 828.75 142.856 834.876 142.593C846.274 142.155 858.138 143.032 870.7 143.908C896.055 145.748 922.264 147.588 945.526 138.651C951.497 136.372 957.855 134.883 963.98 133.393C969.098 132.167 974.448 130.94 979.489 129.187C1000.35 122.09 1013.92 100.185 1025.94 80.8202L1027.8 77.8411L1027.02 77.2278L1025.16 80.2069C1013.3 99.3961 999.804 121.126 979.256 128.136C974.216 129.801 968.943 131.115 963.825 132.254C957.622 133.744 951.264 135.233 945.216 137.511C922.186 146.361 895.978 144.521 870.777 142.681C858.216 141.805 846.274 140.929 834.876 141.367C828.673 141.63 821.849 143.119 814.56 144.784C795.253 149.165 775.325 153.721 763.074 134.883C756.948 125.42 753.071 114.292 749.349 103.602C745.55 92.7368 741.673 81.4336 735.392 71.9705C719.496 47.9622 687.937 56.7243 664.908 63.2083C662.969 63.7341 661.108 64.2598 659.402 64.6979C639.009 70.2181 622.493 73.022 607.451 73.4601C601.945 73.6353 596.13 73.0219 590.547 72.4086C582.793 71.62 574.806 70.7438 567.207 71.8829C548.597 74.6868 534.33 92.5616 523.94 107.895C504.71 136.372 489.124 168.267 474.081 199.109C463.846 219.963 453.301 241.606 441.747 261.846L440.274 264.387C427.557 286.731 410.266 317.223 385.996 317.223C385.84 317.223 385.685 317.223 385.53 317.223C373.899 317.048 361.803 313.543 350.094 310.214C347.768 309.513 345.365 308.899 343.038 308.198C327.143 303.817 310.937 298.91 295.273 294.266C284.34 291.024 273.019 287.607 262.009 284.365C251.231 281.298 240.297 278.232 229.674 275.34C198.348 266.753 165.936 257.816 134.92 245.461L134.61 246.425C165.626 258.78 198.116 267.717 229.442 276.392C239.832 279.283 250.765 282.35 261.543 285.417Z" fill="white"/>
<path d="M1022.99 144.258C1009.26 172.648 994.997 202.001 972.355 221.54C941.494 248.265 898.614 241.255 860.774 235.034C852.865 233.72 845.344 232.493 838.133 231.617C830.766 230.741 822.857 231.442 814.483 232.318C799.052 233.807 783.079 235.385 770.983 225.571C760.205 216.809 754.622 202.351 749.272 188.332C746.79 181.76 744.154 175.013 741.052 168.967C731.515 150.304 714.611 144.346 689.488 150.742C676.151 154.159 661.884 157.226 648.082 156.175C637.536 155.386 627.766 148.201 618.384 141.279C613.576 137.687 608.536 134.006 603.496 131.29C586.205 121.915 571.317 119.198 559.143 123.317C540.456 129.625 527.584 151.268 517.271 168.705L516.573 169.931C503.469 191.924 492.071 215.933 480.982 239.24C464.544 273.763 447.563 309.512 424.688 339.391C409.18 359.632 391.966 367.43 371.961 363.4C365.06 361.998 358.081 360.421 351.335 359.019C344.899 357.617 338.231 356.127 331.717 354.813C320.629 352.535 308.998 350.957 297.677 349.38C284.573 347.54 271.081 345.7 258.364 342.809C226.418 335.448 195.789 318.8 166.169 302.678C158.26 298.385 150.041 293.916 141.976 289.71L141.589 290.674C149.653 294.88 157.872 299.348 165.781 303.642C195.479 319.764 226.185 336.412 258.209 343.772C270.926 346.752 284.495 348.592 297.6 350.344C308.843 351.921 320.474 353.499 331.562 355.777C338.076 357.091 344.744 358.581 351.18 359.982C357.926 361.472 364.982 363.049 371.806 364.451C375.295 365.152 378.629 365.503 381.963 365.503C398.014 365.503 412.282 357.091 425.309 340.092C448.26 310.126 465.242 274.376 481.68 239.766C492.691 216.546 504.167 192.538 517.194 170.545L517.892 169.318C528.127 152.056 540.921 130.589 559.298 124.368C571.239 120.337 585.972 122.966 603.031 132.254C607.993 134.97 612.956 138.65 617.763 142.155C627.301 149.165 637.071 156.438 647.926 157.226C661.806 158.278 676.151 155.211 689.566 151.794C714.223 145.485 730.74 151.268 740.122 169.493C743.223 175.451 745.782 182.198 748.264 188.77C753.691 202.877 759.274 217.51 770.285 226.447C782.614 236.436 798.82 234.946 814.405 233.369C822.78 232.581 830.611 231.792 837.9 232.668C845.111 233.545 852.633 234.771 860.542 236.086C898.537 242.307 941.649 249.316 972.82 222.417C995.617 202.702 1009.88 173.261 1023.69 144.784C1025.94 140.14 1028.26 135.408 1030.51 130.764L1029.73 130.239C1027.56 134.883 1025.24 139.614 1022.99 144.258Z" fill="white"/>
<path d="M1238.71 614.173C1217.69 622.322 1195.36 630.646 1173.65 634.676C1164.73 636.341 1154.96 636.516 1145.58 636.604C1139.22 636.692 1132.71 636.779 1126.58 637.393C1102.93 639.583 1081.22 652.025 1064.86 662.715C1062.46 664.292 1060.05 665.87 1057.65 667.447C1039.81 679.276 1021.28 691.455 1001.66 694.084C979.643 696.975 956.536 690.842 929.009 674.719C915.983 667.096 903.421 657.984 890.084 648.345C862.325 628.192 833.557 607.426 801.223 601.643C793.857 600.329 786.335 598.752 779.124 597.174C768.424 594.896 757.413 592.53 746.557 591.041C739.346 590.077 732.91 591.829 724.691 594.108L723.915 594.283C714.766 596.824 705.383 600.066 696.389 603.133C684.603 607.163 672.351 611.369 660.565 614.085C627.533 621.621 591.244 618.729 549.527 605.323C530.995 599.365 512.929 595.247 496.102 610.493C484.704 620.92 476.64 637.042 468.886 652.726C467.412 655.706 465.939 658.772 464.388 661.664C462.682 664.993 460.977 668.498 459.193 672.091C449.501 691.718 438.49 713.974 422.129 724.05C407.474 733.075 392.509 729.921 375.76 725.102C365.214 722.123 354.359 718.881 343.891 715.726C316.442 707.577 288.062 699.078 260.225 693.032C243.088 689.265 225.254 686.636 207.963 684.095C194.161 682.08 179.971 679.977 166.246 677.348C147.249 673.668 127.941 669.55 109.254 665.607C74.0508 658.071 37.6069 650.273 1.39558 645.279L1.31805 646.33C37.4518 651.324 73.8957 659.123 109.099 666.658C127.786 670.689 147.171 674.807 166.169 678.399C179.971 681.028 194.161 683.131 207.963 685.146C225.254 687.687 243.089 690.316 260.147 694.084C287.907 700.13 316.286 708.629 343.736 716.778C354.204 719.932 365.059 723.087 375.605 726.153C384.677 728.782 393.206 730.885 401.503 730.885C408.714 730.885 415.693 729.308 422.594 725.014C439.188 714.763 450.198 692.419 459.969 672.616C461.752 669.024 463.458 665.607 465.164 662.189C466.637 659.298 468.188 656.231 469.661 653.252C477.415 637.743 485.324 621.621 496.645 611.369C511.533 597.788 527.196 599.19 549.217 606.375C591.012 619.868 627.455 622.76 660.643 615.224C672.506 612.508 684.758 608.302 696.544 604.272C705.539 601.205 714.921 597.963 724.071 595.422L724.846 595.247C732.988 592.968 739.424 591.216 746.402 592.18C757.18 593.669 768.191 596.035 778.892 598.313C786.18 599.891 793.702 601.468 801.068 602.782C833.247 608.565 861.86 629.244 889.619 649.309C902.413 658.509 915.595 668.06 928.622 675.771C956.304 691.981 979.566 698.202 1001.82 695.223C1021.59 692.594 1040.2 680.327 1058.11 668.498C1060.52 666.921 1062.92 665.344 1065.33 663.767C1081.61 653.252 1103.24 640.81 1126.66 638.619C1132.71 638.094 1139.22 637.918 1145.58 637.831C1155.04 637.656 1164.81 637.48 1173.8 635.903C1195.59 631.872 1217.92 623.548 1239.02 615.4C1263.29 605.936 1287.48 594.283 1310.82 582.98C1346.02 565.893 1382.46 548.281 1420.38 537.854L1420.15 536.891C1382.15 547.405 1345.71 565.017 1310.43 582.103C1287.09 593.056 1262.98 604.797 1238.71 614.173Z" fill="white"/>
<path d="M1244.44 595.947C1212.96 610.492 1179.23 624.862 1143.87 626.79C1124.02 627.841 1101.15 629.944 1081.45 642.124L1077.65 644.489C1034.15 671.389 992.98 696.8 944.052 674.631C924.202 665.694 905.437 651.499 887.37 637.918C864.496 620.656 840.769 602.869 814.095 594.545C810.606 593.494 807.039 592.355 803.549 591.303C784.862 585.608 765.632 579.737 747.333 570.975C737.408 566.243 727.095 566.769 720.116 567.996C706.934 570.362 693.752 575.181 680.958 579.737C672.119 582.979 662.969 586.221 654.052 588.674C624.121 596.736 591.089 597.349 558.522 590.339C556.351 589.901 554.258 589.375 552.164 588.937C536.191 585.345 521.148 581.84 506.958 589.901C491.76 598.488 481.525 619.167 472.53 637.392C471.134 640.284 469.739 643.088 468.343 645.804C466.792 648.783 465.241 651.937 463.613 655.355C448.182 686.635 427.014 729.482 390.725 720.545C365.525 714.411 340.246 705.912 315.821 697.763C300.778 692.769 285.27 687.512 269.995 682.955C241.615 674.456 211.762 669.111 182.84 663.941C177.489 662.978 172.062 662.014 166.711 661.05C146.241 657.282 125.46 653.076 105.377 648.958C71.4144 642.036 36.2887 634.939 1.47312 629.769L1.31805 630.821C36.1336 635.903 71.2594 643.087 105.222 650.01C125.305 654.128 146.163 658.334 166.634 662.101C171.984 663.065 177.412 664.029 182.762 664.993C211.607 670.163 241.46 675.507 269.84 684.007C285.115 688.563 300.623 693.733 315.666 698.815C340.091 706.964 365.447 715.463 390.648 721.596C394.059 722.385 397.316 722.823 400.418 722.823C431.434 722.823 450.354 684.533 464.466 655.88C466.094 652.551 467.645 649.396 469.196 646.329C470.592 643.613 471.987 640.809 473.383 637.918C482.3 619.78 492.458 599.277 507.423 590.865C521.303 583.067 536.268 586.396 552.086 589.989C554.18 590.427 556.351 590.953 558.445 591.391C591.089 598.401 624.276 597.787 654.284 589.726C663.202 587.36 672.351 584.031 681.191 580.789C693.907 576.145 707.089 571.413 720.194 569.047C727.017 567.821 737.175 567.295 746.867 571.939C765.167 580.701 784.552 586.572 803.239 592.267C806.729 593.318 810.295 594.458 813.785 595.509C840.381 603.745 863.953 621.533 886.828 638.794C904.972 652.463 923.737 666.658 943.665 675.683C993.058 698.026 1034.31 672.528 1078.04 645.541L1081.84 643.175C1101.38 631.083 1124.1 628.98 1143.87 627.929C1179.39 626.001 1213.19 611.631 1244.75 596.998C1262.2 588.937 1279.8 580 1296.78 571.325C1331.68 553.538 1367.81 535.138 1405.34 523.046L1405.11 522.082C1367.5 534.261 1331.37 552.662 1296.4 570.449C1279.41 578.949 1261.89 587.886 1244.44 595.947Z" fill="white"/>
<path d="M1239.33 578.248C1206.84 594.458 1177.29 608.215 1146.04 612.508C1143.72 612.859 1141.39 613.122 1139.14 613.384C1123.79 615.4 1107.89 617.415 1093.63 624.512C1082.15 630.208 1070.83 637.305 1059.82 644.227C1027.95 664.205 995.074 684.971 956.614 672.003C931.491 663.504 908.772 646.067 886.905 629.244C867.753 614.524 847.98 599.277 826.346 589.814C817.584 585.959 808.047 583.067 798.819 580.351C780.753 574.919 762.143 569.398 747.721 555.642C738.338 546.704 727.327 541.973 715.851 542.148C700.033 542.323 684.448 548.632 669.327 554.766C661.108 558.095 653.276 561.25 645.445 563.44C622.493 569.924 595.431 571.852 560.306 569.398C557.669 569.223 555.033 568.96 552.474 568.785C537.199 567.471 522.776 566.244 509.827 574.305C496.568 582.629 487.108 600.416 478.811 616.101L478.346 616.889C474.546 623.987 470.902 632.223 466.947 640.985C452.912 672.441 436.939 708.103 407.862 713.361C392.276 716.165 376.303 709.681 360.872 703.372C356.22 701.444 351.878 699.692 347.458 698.114C329.158 691.718 310.471 684.884 292.947 678.487C256.348 665.169 213.623 650.361 169.503 643.701C141.976 639.583 113.984 634.238 86.9225 629.156C58.853 623.811 29.853 618.379 1.2406 614.085L1.08551 615.137C29.6979 619.343 58.6979 624.863 86.7675 630.208C113.829 635.377 141.821 640.635 169.348 644.753C213.391 651.412 256.115 666.22 292.637 679.539C310.161 685.935 328.848 692.77 347.148 699.166C351.49 700.743 355.91 702.496 360.485 704.336C373.434 709.593 386.771 715.025 400.03 715.025C402.666 715.025 405.303 714.85 407.939 714.324C437.482 708.98 453.533 673.055 467.723 641.423C471.6 632.661 475.322 624.425 479.044 617.327L479.509 616.539C487.806 600.942 497.188 583.243 510.215 575.094C522.931 567.12 537.276 568.347 552.397 569.661C554.955 569.924 557.592 570.099 560.228 570.275C595.431 572.728 622.57 570.8 645.677 564.316C653.509 562.126 661.341 558.884 669.637 555.554C684.68 549.508 700.188 543.2 715.851 542.937C727.095 542.761 737.873 547.405 747.1 556.168C761.6 570.012 780.365 575.62 798.509 581.052C807.659 583.768 817.197 586.66 825.881 590.515C847.36 599.978 867.133 615.137 886.207 629.857C908.229 646.768 930.948 664.205 956.226 672.792C994.996 685.935 1028.11 665.081 1060.13 645.016C1071.14 638.094 1082.46 630.996 1093.86 625.301C1108.05 618.291 1123.79 616.276 1139.14 614.261C1141.47 613.998 1143.8 613.647 1146.04 613.384C1177.45 609.091 1206.99 595.334 1239.64 579.037C1249.25 574.218 1258.94 569.311 1268.33 564.579C1306.71 545.127 1346.33 524.974 1387.04 509.903L1386.73 508.939C1345.94 524.098 1306.32 544.163 1267.94 563.703C1258.63 568.61 1248.94 573.517 1239.33 578.248Z" fill="white"/>
<path d="M848.755 314.156C846.507 313.543 844.258 312.93 842.009 312.404C832.549 309.863 821.616 310.213 811.148 310.476C789.902 311.089 767.958 311.615 754.854 289.71C751.985 284.891 749.271 279.546 746.48 273.85C737.33 255.537 727.87 236.524 709.338 232.143C704.065 230.916 698.715 229.864 693.597 228.9C675.298 225.396 658.084 222.066 643.351 209.01C641.103 206.995 638.776 204.892 636.45 202.789C622.183 189.909 607.45 176.503 589.926 169.581C546.969 152.67 519.442 207.521 501.22 243.796C500.057 246.074 498.971 248.177 497.963 250.28C491.527 262.985 485.169 276.041 478.966 288.658C470.126 306.708 461.054 325.284 451.594 343.247C450.431 345.437 449.268 347.628 448.105 349.906C436.939 371.285 424.3 395.557 404.837 407.386C368.781 429.291 314.658 414.132 271.546 398.448C249.834 390.562 228.356 380.223 207.575 370.234C187.725 360.683 167.177 350.87 146.396 343.071L146.086 344.035C166.866 351.834 187.337 361.647 207.187 371.198C228.046 381.187 249.524 391.526 271.236 399.412C298.995 409.488 331.252 419.39 360.407 419.39C376.768 419.39 392.198 416.235 405.303 408.262C424.998 396.258 437.715 371.899 448.958 350.344C450.121 348.066 451.284 345.875 452.447 343.685C461.907 325.722 471.057 307.059 479.896 289.097C486.1 276.479 492.458 263.423 498.894 250.806C499.979 248.703 501.065 246.6 502.15 244.322C520.217 208.309 547.511 153.896 589.771 170.545C607.14 177.379 621.795 190.697 635.985 203.578C638.311 205.681 640.637 207.784 642.886 209.799C657.774 223.03 675.143 226.359 693.52 229.864C698.637 230.828 703.91 231.88 709.183 233.106C727.327 237.4 736.71 256.151 745.704 274.288C748.573 279.984 751.21 285.329 754.156 290.236C767.571 312.667 789.747 312.053 811.226 311.44C821.694 311.177 832.472 310.827 841.854 313.368C844.103 313.981 846.352 314.594 848.6 315.12C897.451 328.176 952.892 342.896 993.058 297.158C1020.35 266.052 1035.47 222.855 1050.13 181.059C1053.69 170.807 1057.11 161.169 1060.67 151.618L1059.82 151.18C1056.25 160.731 1052.84 170.457 1049.27 180.621C1034.62 222.329 1019.5 265.351 992.36 296.369C952.504 341.845 897.373 327.124 848.755 314.156Z" fill="white"/>
<path d="M1177.06 658.509C1166.52 660.174 1155.27 660.437 1144.42 660.612C1127.12 660.963 1109.29 661.225 1093.55 667.534C1082.07 672.09 1070.52 679.363 1059.28 686.46C1049.12 692.857 1038.65 699.428 1028.34 703.897C979.953 725.101 933.507 698.114 890.007 668.673C888.146 667.359 886.285 666.132 884.346 664.818C855.579 645.278 825.881 625.038 792.384 627.491C770.595 629.068 750.822 635.465 733.531 646.33C713.215 659.122 687.937 663.241 665.838 665.519C633.581 668.936 605.202 656.406 575.116 643.175C557.514 635.465 539.292 627.403 520.373 623.022C491.605 616.275 472.375 657.545 458.263 687.687C454.231 696.362 450.431 704.51 446.942 710.293C436.862 727.204 420.888 749.46 399.332 748.058C387.469 747.27 375.295 744.203 363.509 741.312C358.158 739.997 352.653 738.595 347.303 737.456C317.682 731.235 286.666 727.292 256.658 723.524C226.573 719.757 195.479 715.814 165.626 709.592C152.754 706.876 139.65 703.985 127.011 701.181C86.0697 692.156 43.7327 682.78 1.4733 678.312L1.39575 679.363C43.6552 683.832 85.9146 693.12 126.856 702.232C139.495 705.036 152.677 707.928 165.548 710.644C195.479 716.953 226.573 720.808 256.658 724.576C286.666 728.344 317.682 732.199 347.225 738.42C352.575 739.559 358.081 740.873 363.354 742.188C375.217 745.079 387.391 748.146 399.332 748.935C400.03 749.022 400.728 749.022 401.426 749.022C422.439 749.022 437.87 727.292 447.795 710.732C451.284 704.949 455.084 696.712 459.116 688.038C473.073 658.246 492.148 617.327 520.218 623.899C539.06 628.28 557.282 636.253 574.806 644.052C603.651 656.757 633.504 669.9 665.993 666.395C688.17 664.029 713.603 659.911 734.073 647.031C751.287 636.253 770.983 629.944 792.539 628.367C825.804 625.914 855.424 646.067 884.036 665.519C885.897 666.833 887.836 668.06 889.697 669.374C910.865 683.744 933.74 698.114 957.389 706C983.443 714.762 1006.86 714.324 1028.88 704.686C1039.19 700.129 1049.74 693.558 1059.9 687.161C1071.06 680.152 1082.69 672.879 1094.02 668.323C1109.6 662.102 1127.43 661.751 1144.65 661.488C1155.58 661.313 1166.83 661.05 1177.37 659.385C1222.34 652.113 1266.93 633.537 1310.12 615.575C1351.68 598.313 1394.64 580.351 1438.68 572.027L1438.53 570.975C1394.41 579.387 1351.37 597.262 1309.81 614.611C1266.54 632.661 1221.96 651.237 1177.06 658.509Z" fill="white"/>
<path d="M1222.5 633.187C1201.1 640.197 1178.46 647.207 1156.82 648.609C1151.24 648.959 1145.35 648.871 1139.61 648.784C1130.46 648.609 1121.08 648.433 1112.39 650.098C1095.26 653.34 1078.9 663.855 1063 674.019C1057.96 677.261 1053.15 680.328 1048.27 683.219C1007.79 707.227 966.849 706.001 923.272 679.539C912.726 673.143 902.414 665.782 891.403 658.072C861.55 636.955 830.689 615.137 795.563 612.771C770.518 611.107 749.582 611.72 729.111 620.307C708.563 628.894 686.386 635.553 663.047 640.197C646.143 643.527 626.913 647.294 609.079 643.789C593.726 640.723 577.83 633.625 562.4 626.703C553.017 622.497 543.325 618.116 533.865 614.787C518.047 609.091 503.779 613.472 490.365 628.105C478.811 640.723 469.816 658.685 461.907 674.545C459.349 679.627 456.945 684.446 454.619 688.827L453.611 690.579C443.065 710.031 429.961 734.302 409.413 738.946C396.696 741.75 383.437 737.544 370.565 733.514C366.766 732.287 362.811 731.06 359.089 730.097C317.062 718.969 283.1 711.871 252.083 707.753C225.72 704.248 195.091 699.955 165.238 693.734C151.591 690.842 137.634 687.775 124.22 684.884C84.2088 676.034 42.8023 666.921 1.55093 661.752L1.47339 662.803C42.6473 667.973 84.0538 677.086 124.065 685.935C137.479 688.914 151.436 691.981 165.083 694.785C195.014 701.006 225.642 705.3 252.006 708.805C282.944 712.923 316.907 720.02 358.856 731.148C362.578 732.112 366.378 733.339 370.332 734.565C380.335 737.72 390.57 740.962 400.651 740.962C403.675 740.962 406.621 740.699 409.568 739.998C430.581 735.354 443.763 710.82 454.386 691.193L455.394 689.44C457.72 685.059 460.202 680.24 462.76 675.158C478.811 643.176 498.739 603.396 533.632 615.838C543.092 619.255 552.785 623.549 562.089 627.755C577.52 634.677 593.493 641.862 608.924 644.928C626.913 648.521 646.221 644.753 663.202 641.336C686.542 636.78 708.795 630.033 729.421 621.446C749.737 612.947 770.518 612.333 795.486 613.998C830.379 616.364 861.162 638.094 890.938 659.123C901.871 666.921 912.261 674.194 922.807 680.59C966.694 707.227 1007.87 708.454 1048.65 684.271C1053.54 681.379 1058.58 678.137 1063.39 675.07C1079.21 664.906 1095.49 654.479 1112.47 651.237C1121.08 649.66 1130.46 649.835 1139.53 650.01C1145.27 650.098 1151.24 650.273 1156.82 649.835C1178.53 648.433 1201.25 641.424 1222.73 634.414C1251.96 624.776 1281.04 611.895 1309.11 599.365C1348.5 581.841 1389.21 563.791 1431.47 554.24L1431.32 553.276C1388.98 562.915 1348.19 580.965 1308.8 598.489C1280.73 610.668 1251.65 623.549 1222.5 633.187Z" fill="white"/>
<path d="M1216.37 570.274C1194.97 580.614 1172.1 591.128 1149.15 596.561C1144.42 597.7 1139.45 598.576 1134.65 599.452C1123.71 601.38 1112.39 603.395 1102.16 608.477C1088.74 615.137 1075.64 624.863 1063 634.326C1038.34 652.726 1012.83 671.74 982.435 670.075C946.146 668.148 915.75 644.139 886.285 620.92C875.662 612.508 864.651 603.833 853.718 596.561C834.566 583.768 817.197 575.707 800.526 571.764L798.975 571.413C787.344 568.697 775.247 565.893 765.322 558.708C759.274 554.327 753.924 547.843 748.651 541.535C739.656 530.669 730.352 519.454 717.17 517.614C699.336 515.16 681.579 522.17 664.365 529.005C656.223 532.247 648.469 535.313 640.793 537.416C620.477 542.936 598.533 543.462 577.287 543.988C574.03 544.076 570.774 544.163 567.517 544.251C564.105 544.338 560.693 544.338 557.282 544.338C543.247 544.338 528.824 544.426 516.573 551.436C502.228 559.76 492.07 578.774 483.851 594.108C478.811 603.571 474.004 613.647 469.429 623.461C456.867 650.185 443.84 677.699 422.905 696.975C407.629 710.995 386.305 703.196 369.169 696.888C366.92 696.099 364.749 695.223 362.578 694.522C343.271 687.863 324.273 680.853 306.051 673.756C299.305 671.127 292.559 668.411 285.813 665.782C250.533 651.762 214.011 637.305 177.567 628.718C157.872 624.074 137.246 621.095 117.241 618.291C105.687 616.626 93.7462 614.961 82.1927 612.946C74.8264 611.719 67.46 610.405 60.0937 609.091C40.7086 605.674 20.7033 602.081 0.930511 599.277L0.852966 600.329C20.6257 603.133 40.6311 606.725 60.0162 610.142C67.3825 611.457 74.7488 612.771 82.1152 613.998C93.6686 616.013 105.61 617.678 117.163 619.342C137.169 622.146 157.794 625.126 177.412 629.769C213.856 638.444 250.3 652.902 285.581 666.833C292.327 669.55 299.073 672.178 305.819 674.807C324.041 681.904 343.038 688.914 362.346 695.573C364.439 696.274 366.61 697.063 368.859 697.939C379.017 701.619 390.648 705.913 401.659 705.913C409.49 705.913 416.934 703.81 423.447 697.852C444.538 678.487 457.565 650.799 470.204 624.074C474.779 614.348 479.586 604.184 484.627 594.808C492.768 579.65 502.848 560.724 516.961 552.575C528.98 545.565 542.704 545.565 557.204 545.565C560.538 545.565 564.028 545.565 567.44 545.478C570.696 545.39 573.953 545.302 577.21 545.215C598.456 544.689 620.477 544.163 640.87 538.643C648.624 536.54 656.378 533.473 664.597 530.231C681.656 523.484 699.335 516.475 717.015 518.841C729.886 520.593 739.036 531.721 747.953 542.411C753.226 548.807 758.654 555.379 764.779 559.76C774.86 567.032 786.956 569.924 798.742 572.64L800.293 572.991C816.886 576.846 834.178 584.907 853.175 597.612C864.109 604.885 875.042 613.559 885.665 621.971C915.207 645.278 945.681 669.374 982.28 671.302C983.521 671.39 984.761 671.39 985.924 671.39C1015 671.39 1039.58 653.077 1063.31 635.377C1075.95 626.002 1088.98 616.276 1102.31 609.616C1112.47 604.622 1123.71 602.607 1134.65 600.679C1139.45 599.803 1144.42 598.927 1149.15 597.788C1172.25 592.267 1195.13 581.753 1216.53 571.413C1233.59 563.177 1250.8 554.415 1267.47 545.828C1299.5 529.443 1332.61 512.532 1366.26 498.863L1365.95 497.899C1332.3 511.568 1299.19 528.479 1267.16 544.864C1250.65 553.276 1233.43 562.126 1216.37 570.274Z" fill="white"/>
<path d="M267.979 591.391C309.386 610.317 344.434 621.095 378.474 625.564C380.645 625.826 382.739 626.002 384.755 626.002C422.052 626.002 442.29 581.227 457.332 548.106C458.108 546.441 458.806 544.776 459.581 543.199C465.629 529.881 471.6 516.299 477.338 503.069C485.557 484.142 494.086 464.603 503.004 445.852C504.012 443.749 505.02 441.646 506.028 439.543C516.883 416.498 529.212 390.475 549.605 378.295C571.704 365.064 606.365 354.638 631.41 368.92C643.196 375.667 656.146 380.398 668.63 385.042C678.942 388.81 689.565 392.753 699.413 397.747C720.581 408.437 730.817 432.446 740.742 455.665C744.852 465.304 749.116 475.293 754.079 484.055C767.338 507.362 789.515 514.81 810.993 521.907C820.841 525.237 831.076 528.566 840.226 533.561C851.935 539.87 863.488 547.493 874.731 554.853C894.039 567.558 914.044 580.701 935.445 587.711C967.314 598.226 994.996 579.036 1008.64 566.594C1023.38 553.276 1036.71 536.365 1049.58 519.98C1055.32 512.707 1061.29 505.171 1067.26 498.074C1084.94 477.133 1107.74 462.85 1141.31 451.897C1169.38 442.697 1197.07 429.642 1223.9 417.112C1229.71 414.395 1235.6 411.592 1241.42 408.875L1241.11 407.911C1235.22 410.628 1229.4 413.344 1223.59 416.148C1196.76 428.765 1169.07 441.733 1141.08 450.934C1107.35 461.974 1084.4 476.344 1066.64 497.461C1060.67 504.558 1054.7 512.094 1048.89 519.454C1036.02 535.751 1022.68 552.662 1008.02 565.893C994.531 578.16 967.082 597.174 935.6 586.835C914.354 579.825 894.427 566.682 875.119 554.064C863.876 546.704 852.245 538.993 840.536 532.685C831.309 527.69 821.074 524.273 811.148 521.031C789.825 513.934 767.804 506.573 754.777 483.617C749.814 474.942 745.627 464.953 741.44 455.315C731.437 431.92 721.124 407.649 699.646 396.871C689.798 391.877 679.097 387.934 668.785 384.166C656.301 379.522 643.351 374.791 631.643 368.131C606.287 353.674 571.317 364.101 548.985 377.507C528.359 389.861 515.953 416.06 505.097 439.192C504.089 441.295 503.081 443.398 502.073 445.501C493.078 464.252 484.627 483.792 476.407 502.718C470.669 515.949 464.699 529.618 458.651 542.849C457.953 544.426 457.177 546.091 456.402 547.756C440.661 582.454 419.183 629.945 378.474 624.687C344.589 620.306 309.541 609.441 268.212 590.603C244.252 579.65 220.214 566.945 196.952 554.59C141.278 525.062 83.666 494.482 20.8584 485.281L20.7033 486.333C83.3558 495.533 140.891 526.113 196.487 555.554C219.904 567.646 243.942 580.438 267.979 591.391Z" fill="white"/>
<path d="M252.006 594.633C288.76 612.508 322.412 625.125 354.824 633.362C356.685 633.8 358.624 634.326 360.562 634.851C370.1 637.392 380.49 640.109 390.57 640.109C395.533 640.109 400.418 639.408 405.07 637.743C429.728 628.718 443.608 596.999 454.774 571.413C456.169 568.347 457.487 565.28 458.806 562.388C464.466 549.771 470.049 536.715 475.477 524.098C483.541 505.347 491.838 485.982 500.6 467.407C501.453 465.567 502.383 463.639 503.314 461.624C514.79 437.265 528.98 406.948 552.862 398.448C581.707 388.197 605.977 384.341 627.068 386.707C636.683 387.759 646.065 391.964 655.06 395.995C660.953 398.624 667.001 401.34 673.049 403.18C703.212 412.293 725.622 434.023 743.533 471.7C750.977 487.297 757.956 499.739 767.726 509.728C777.496 519.717 791.143 523.134 804.325 526.463C810.528 528.041 816.886 529.618 822.702 531.896C842.63 539.607 861.007 552.575 878.686 565.105C896.365 577.635 914.665 590.515 934.67 598.488C985.692 618.729 1022.52 574.655 1055.09 535.751C1063.54 525.675 1071.45 516.124 1079.52 507.8C1096.96 489.75 1119.37 481.601 1141.08 473.803C1144.8 472.489 1148.6 471.087 1152.33 469.685C1177.76 460.134 1203.04 447.955 1227.54 436.213C1234.91 432.708 1242.5 429.028 1250.03 425.523L1249.64 424.56C1242.12 428.065 1234.52 431.745 1227.15 435.249C1202.73 446.991 1177.37 459.083 1152.02 468.721C1148.29 470.123 1144.49 471.525 1140.77 472.839C1118.98 480.725 1096.5 488.874 1078.9 507.099C1070.83 515.423 1062.84 524.974 1054.47 535.05C1022.14 573.692 985.537 617.59 935.058 597.525C915.13 589.639 896.908 576.758 879.229 564.316C861.472 551.786 843.018 538.731 823.012 531.02C817.119 528.742 810.761 527.077 804.558 525.587C791.453 522.258 777.961 518.84 768.346 509.027C758.654 499.126 751.675 486.771 744.309 471.262C726.242 433.322 703.678 411.329 673.282 402.216C667.311 400.376 661.263 397.747 655.37 395.119C646.298 391.088 636.838 386.795 627.146 385.743C605.899 383.377 581.552 387.233 552.629 397.572C528.437 406.159 514.092 436.739 502.538 461.273C501.608 463.201 500.677 465.128 499.824 467.056C490.985 485.632 482.688 504.996 474.624 523.747C469.196 536.365 463.691 549.333 457.953 562.038C456.634 564.929 455.316 567.996 453.921 571.063C442.832 596.386 429.03 628.017 404.76 636.867C390.88 641.949 375.527 637.831 360.717 633.888C358.779 633.362 356.84 632.836 354.979 632.398C322.645 624.162 288.992 611.544 252.316 593.669C235.335 585.433 218.121 576.32 201.45 567.47C141.976 535.927 80.4092 503.331 12.2513 501.754V502.806C80.2541 504.383 141.666 536.89 201.062 568.434C217.733 577.284 234.947 586.397 252.006 594.633Z" fill="white"/>
<path d="M280.696 585.258C316.209 599.891 350.87 607.952 383.514 609.266C384.057 609.266 384.677 609.266 385.22 609.266C419.493 609.266 439.576 567.471 454.231 536.891L456.092 533.036C464.389 515.862 471.755 496.497 478.966 477.746C495.792 433.585 513.239 387.934 544.953 360.859C560.228 347.803 577.675 344.036 592.64 342.02C605.744 340.268 619.547 344.737 634.9 355.602C646.143 363.575 659.402 368.745 672.196 373.827C682.199 377.77 692.589 381.888 701.817 387.146C721.512 398.536 731.437 422.194 741.052 445.064C745.394 455.403 749.892 466.093 755.164 475.293C768.346 498.162 791.298 505.785 813.552 513.058C824.563 516.65 835.884 520.418 845.654 525.938C854.261 530.845 862.868 536.891 871.242 542.762C890.86 556.606 911.175 570.976 934.593 572.641C957.932 574.305 979.721 566.595 1001.28 549.158C1020.27 533.736 1036.71 512.97 1052.61 492.817L1056.8 487.56C1072.3 468.02 1088.28 447.78 1109.68 437.703C1119.29 433.147 1129.92 430.606 1140.07 428.065C1148.06 426.137 1156.36 424.122 1164.11 421.143C1188.92 411.68 1212.96 399.5 1235.29 387.759L1234.91 386.795C1212.65 398.536 1188.61 410.716 1163.8 420.179C1156.05 423.158 1147.83 425.173 1139.84 427.101C1129.61 429.642 1118.98 432.183 1109.29 436.739C1087.66 446.904 1071.61 467.232 1056.02 486.859L1051.83 492.116C1019.58 532.948 986.234 575.269 934.515 571.589C911.33 569.924 891.17 555.73 871.63 541.885C863.255 536.015 854.649 529.881 846.042 524.974C836.194 519.367 824.796 515.599 813.785 512.006C791.686 504.734 768.889 497.286 755.94 474.68C750.667 465.567 746.17 454.877 741.905 444.538C732.213 421.493 722.287 397.66 702.282 386.182C692.977 380.837 682.587 376.719 672.507 372.776C659.712 367.781 646.531 362.524 635.365 354.638C619.857 343.685 605.822 339.129 592.562 340.881C577.442 342.897 559.841 346.664 544.41 359.895C512.541 387.146 495.017 432.972 478.113 477.221C470.979 495.972 463.536 515.248 455.316 532.422L453.455 536.278C438.645 567.12 418.33 609.442 383.592 608.04C351.025 606.725 316.519 598.664 281.083 584.119C249.059 570.976 217.345 554.24 186.717 538.03C137.401 512.006 86.3023 485.107 31.9466 471.613L31.7915 472.577C86.0697 485.983 137.091 512.883 186.407 538.906C216.88 555.291 248.672 572.027 280.696 585.258Z" fill="white"/>
<path d="M304.5 546.967C324.816 550.56 346.45 553.276 370.72 555.291C372.813 555.466 374.907 555.554 377.001 555.554C400.961 555.554 419.803 543.813 435.854 519.016C455.859 487.998 470.204 452.336 484.006 417.813C499.747 378.471 516.03 337.727 540.998 303.905C559.065 279.458 584.886 273.237 608.536 287.782C617.763 293.478 625.517 301.627 633.038 309.6C639.552 316.522 646.298 323.62 653.897 329.052C662.194 334.923 671.576 339.129 680.648 343.159C697.397 350.607 714.611 358.405 725.311 376.894C731.359 387.32 736.089 399.938 740.587 412.03C749.349 435.425 758.499 459.521 777.496 472.489C792.461 482.653 810.451 486.245 827.82 489.75C836.969 491.59 846.429 493.518 855.191 496.322C858.991 497.548 862.79 498.863 866.667 500.089C882.718 505.522 899.389 511.042 916.06 513.32C936.143 516.037 955.916 512.357 974.991 502.455C992.36 493.43 1008.64 479.411 1023.45 460.923C1029.81 452.949 1036.09 444.274 1042.06 435.775C1059.12 411.942 1076.72 387.32 1101.23 373.827C1108.52 369.796 1116.35 366.729 1124.02 363.75C1132.09 360.596 1140.46 357.354 1148.06 353.06C1164.65 343.597 1181.48 330.892 1199.55 314.419L1199 313.631C1180.94 330.104 1164.11 342.721 1147.67 352.184C1140.15 356.478 1131.85 359.72 1123.79 362.874C1116.11 365.853 1108.21 368.92 1100.92 372.951C1076.26 386.532 1058.58 411.329 1041.44 435.249C1035.39 443.661 1029.19 452.336 1022.83 460.309C991.895 498.95 954.055 517.439 916.215 512.356C899.622 510.166 883.028 504.558 866.977 499.126C863.178 497.811 859.301 496.585 855.501 495.358C846.739 492.466 837.202 490.626 828.052 488.786C810.761 485.281 792.849 481.689 778.039 471.612C759.274 458.82 750.202 434.811 741.44 411.679C736.865 399.5 732.135 386.882 726.087 376.368C715.309 357.617 697.862 349.818 681.036 342.283C671.964 338.252 662.659 334.047 654.44 328.264C646.918 322.919 640.172 315.821 633.659 308.987C626.06 301.013 618.228 292.689 608.923 286.994C584.886 272.273 558.6 278.494 540.223 303.379C515.255 337.289 498.894 378.12 483.153 417.55C469.351 451.985 455.084 487.647 435.156 518.578C417.942 545.215 397.471 556.605 370.797 554.415C346.605 552.487 324.971 549.771 304.656 546.178C249.524 536.365 197.572 509.29 147.404 483.179C122.669 470.298 97.1579 456.98 71.4145 445.852L71.1044 446.816C96.7702 457.944 122.281 471.262 147.016 484.142C197.262 509.991 249.214 537.066 304.5 546.967Z" fill="white"/>
<path d="M299.461 563.791C321.792 569.836 345.752 573.166 372.736 574.13C373.512 574.13 374.287 574.13 375.062 574.13C409.645 574.13 429.883 546.617 443.685 522.521C458.651 496.322 470.514 467.232 481.99 439.105C498.041 399.675 514.635 358.931 540.068 325.46C548.442 314.42 570.851 289.973 597.991 300.488C611.638 305.833 623.269 316.172 634.59 326.248C638.389 329.666 642.344 333.171 646.221 336.413C655.68 344.211 667.079 348.767 678.167 353.148C692.977 359.019 708.33 365.152 718.876 379.172C728.491 391.877 734.694 407.999 740.742 423.508C748.186 442.873 755.94 462.938 770.44 476.607C784.552 489.838 803.162 494.657 821.151 499.301C832.86 502.28 844.879 505.435 855.502 510.779C875.042 520.681 898.614 531.283 924.513 534.174C949.636 537.066 973.363 531.283 991.352 517.964C1011.2 503.244 1026.48 482.215 1041.29 461.799C1046.48 454.702 1051.83 447.341 1057.26 440.332C1075.87 416.586 1099.99 399.5 1131 388.109C1163.18 376.28 1191.79 356.127 1213.19 339.83L1212.65 338.953C1191.33 355.163 1162.79 375.316 1130.69 387.145C1099.52 398.624 1075.33 415.798 1056.56 439.718C1051.14 446.64 1045.79 454.088 1040.59 461.186C1025.86 481.514 1010.58 502.543 990.809 517.176C972.975 530.407 949.48 536.102 924.59 533.211C898.769 530.231 875.352 519.717 855.812 509.903C845.111 504.471 833.015 501.316 821.229 498.337C803.317 493.693 784.785 488.962 770.905 475.818C756.56 462.325 748.884 442.347 741.44 423.07C735.392 407.474 729.189 391.351 719.496 378.471C708.718 364.276 693.288 358.143 678.4 352.184C667.389 347.803 656.068 343.335 646.686 335.624C642.809 332.382 638.854 328.877 635.055 325.547C623.734 315.471 612.025 304.956 598.223 299.611C570.541 288.834 547.822 313.718 539.293 324.846C513.782 358.405 497.111 399.237 481.06 438.754C469.584 466.881 457.798 495.884 442.833 522.083C428.022 548.019 408.094 574.393 372.659 573.166C345.675 572.202 321.792 568.873 299.538 562.827C250.92 549.771 204.086 525.149 158.88 501.404C126.003 484.142 92.0405 466.268 57.38 452.774L57.0699 453.738C91.6528 467.231 125.693 485.019 158.493 502.368C203.931 526.113 250.765 550.735 299.461 563.791Z" fill="white"/>
<path d="M216.648 587.536C223.471 590.953 230.217 594.371 237.041 597.7C271.081 614.523 310.781 633.625 351.955 646.418C354.359 647.206 356.84 647.995 359.399 648.871C370.487 652.551 381.886 656.319 393.052 656.319C396.773 656.319 400.495 655.881 404.14 654.917C429.185 648.083 442.987 616.626 454.153 591.391C455.161 589.113 456.169 586.835 457.1 584.645C463.148 571.151 468.963 557.219 474.624 543.725C482.921 524.01 491.45 503.682 500.755 484.318L501.918 481.952C513.316 458.119 526.188 431.044 548.83 421.143C567.982 412.731 589.461 412.293 610.242 411.942C615.437 411.855 620.4 411.767 625.362 411.504C638.777 410.891 652.501 413.695 665.761 416.323C669.25 417.024 672.817 417.725 676.306 418.339C703.057 423.246 722.908 439.806 737.175 468.984L739.191 473.102C745.317 485.632 751.598 498.6 759.662 509.553C770.983 524.887 788.507 529.706 805.488 534.35C807.427 534.875 809.287 535.401 811.148 535.927C836.504 543.112 858.991 559.41 880.702 575.269C895.59 586.046 910.943 597.262 926.916 605.236C963.438 623.461 994.919 621.183 1020.35 598.401C1032.68 587.361 1044.47 573.254 1055.79 559.672C1067.03 546.179 1078.66 532.247 1090.84 521.294C1105.88 507.8 1125.19 501.141 1143.8 494.745C1150.7 492.379 1157.83 489.926 1164.65 487.122C1187.45 477.834 1210.56 466.531 1232.89 455.578C1242.74 450.759 1252.97 445.677 1262.98 440.945L1262.59 439.981C1252.59 444.713 1242.35 449.795 1232.5 454.614C1210.17 465.567 1187.14 476.87 1164.34 486.158C1157.52 488.874 1150.39 491.328 1143.49 493.781C1124.72 500.265 1105.34 506.837 1090.22 520.506C1077.96 531.546 1066.33 545.478 1055.09 558.971C1043.77 572.553 1032.06 586.66 1019.73 597.613C994.531 620.131 963.438 622.409 927.226 604.359C911.253 596.386 895.978 585.258 881.09 574.48C859.301 558.621 836.737 542.236 811.226 535.051C809.365 534.525 807.427 533.999 805.488 533.473C788.662 528.83 771.215 524.098 760.127 509.027C752.14 498.162 745.86 485.282 739.811 472.752L737.795 468.634C723.373 439.193 703.29 422.369 676.228 417.463C672.739 416.849 669.172 416.061 665.683 415.447C652.346 412.731 638.544 410.015 625.052 410.628C620.167 410.803 615.204 410.979 609.932 411.066C589.073 411.504 567.517 411.855 548.21 420.354C525.335 430.431 512.308 457.681 500.832 481.689L499.669 484.055C490.365 503.507 481.835 523.835 473.538 543.55C467.878 557.044 462.062 570.976 456.014 584.469C455.006 586.66 454.076 588.938 453.068 591.216C442.057 616.276 428.332 647.469 403.675 654.216C389.407 658.071 374.132 653.077 359.399 648.17C356.918 647.294 354.437 646.505 351.955 645.717C310.781 632.836 271.158 613.822 237.118 596.999C230.295 593.67 223.549 590.252 216.725 586.835C150.506 553.626 82.0377 519.279 6.74609 521.382V522.433C82.1152 520.155 150.506 554.415 216.648 587.536Z" fill="white"/>
<path d="M291.396 576.32C314.503 584.294 339.549 589.113 367.773 591.041C371.883 591.304 376.303 591.654 380.878 591.654C391.035 591.654 401.736 590.165 410.731 583.505C428.022 570.713 438.8 549.771 449.268 529.53L450.664 526.814C461.675 505.61 470.979 482.565 480.052 460.222C496.645 419.303 513.704 377.069 541.696 344.036C557.359 325.547 576.977 315.997 595.664 317.837C610.552 319.326 622.571 329.929 634.202 340.093C636.14 341.757 638.079 343.51 639.94 345.087C650.253 353.849 662.814 358.668 674.988 363.312C689.565 368.92 704.686 374.616 715.774 387.321C727.405 400.552 734.229 417.725 740.897 434.461C746.868 449.444 753.071 464.953 762.686 477.571C776.178 495.183 797.036 501.229 817.274 507.012C829.448 510.517 842.087 514.197 852.555 520.33C857.828 523.485 863.256 526.902 868.451 530.231C876.05 535.051 883.804 540.133 891.635 544.251C902.336 549.946 914.897 553.101 931.103 554.064C932.964 554.152 934.748 554.24 936.531 554.24C983.443 554.24 1016.63 516.124 1044.23 480.112C1045.71 478.184 1047.18 476.257 1048.65 474.241C1064.24 453.738 1080.37 432.533 1101.46 419.741C1112.31 413.169 1124.64 410.015 1136.66 407.036C1145.35 404.845 1154.26 402.567 1162.48 399.062C1186.21 388.898 1208.62 375.229 1225.52 364.539L1225.06 363.663C1208.23 374.353 1185.82 387.934 1162.17 398.098C1153.95 401.603 1145.04 403.881 1136.43 406.072C1124.41 409.138 1111.93 412.205 1100.99 418.864C1079.83 431.745 1063.62 453.037 1047.96 473.628C1046.48 475.556 1045.01 477.483 1043.54 479.499C1015.08 516.738 980.496 556.167 931.181 553.101C915.052 552.137 902.646 548.982 892.023 543.375C884.269 539.256 876.515 534.262 868.916 529.355C863.721 526.026 858.293 522.521 853.02 519.366C842.475 513.145 829.836 509.465 817.584 505.96C797.501 500.177 776.798 494.219 763.461 476.87C753.924 464.428 747.721 449.006 741.75 434.023C735.081 417.287 728.103 399.938 716.394 386.62C705.151 373.827 689.953 368.044 675.22 362.436C663.124 357.792 650.64 353.061 640.405 344.386C638.466 342.721 636.605 341.056 634.667 339.392C622.958 329.052 610.784 318.362 595.664 316.873C576.744 315.033 556.739 324.671 540.921 343.335C512.851 376.543 495.715 418.864 479.121 459.871C470.127 482.215 460.744 505.259 449.811 526.376L448.415 529.18C438.025 549.333 427.247 570.187 410.11 582.892C397.394 592.355 380.955 591.216 367.696 590.34C339.549 588.412 314.658 583.593 291.551 575.619C250.688 561.512 210.677 540.483 171.984 520.067C130.888 498.425 88.3183 475.994 44.0429 461.536L43.8102 462.5C88.0082 476.957 130.5 499.389 171.597 521.031C210.367 541.097 250.455 562.213 291.396 576.32Z" fill="white"/>
<path d="M83.5884 597.962C88.7836 598.839 94.0564 599.627 99.2515 600.416C129.105 605.06 160.043 609.879 188.966 619.517C217.19 628.893 245.803 640.985 273.484 652.638C286.356 658.071 299.693 663.679 312.875 669.024C318.225 671.214 324.196 673.93 330.477 676.822C350.715 686.11 374.209 696.887 395.378 696.887C406.931 696.887 417.787 693.645 427.014 685.321C448.803 665.606 461.442 636.604 473.616 608.477C480.362 593.056 487.263 577.021 495.637 563.001C505.097 547.142 513.549 536.803 523.164 529.53C533.787 521.469 548.597 520.768 561.779 520.067C563.175 519.979 564.493 519.892 565.889 519.892C570.774 519.629 575.736 519.366 580.621 519.191C598.456 518.402 616.91 517.701 634.124 513.408C641.956 511.48 650.175 507.888 658.937 504.207C678.322 495.883 698.405 487.209 716.472 495.182C728.801 500.615 736.865 513.495 744.541 526.025C748.884 533.122 753.459 540.395 758.654 546.178C769.044 557.569 783.622 561.074 797.656 564.403C801.689 565.367 805.41 566.243 809.132 567.383C830.921 573.779 850.927 586.922 867.598 599.014C875.119 604.446 882.563 610.405 890.472 616.626C919.782 639.933 950.023 664.029 986.079 663.503C1016.94 663.065 1042.14 642.562 1066.49 622.759C1079.36 612.332 1092.62 601.555 1106.34 594.107C1115.57 589.113 1125.81 586.309 1135.81 583.505C1141.31 582.015 1147.05 580.351 1152.48 578.423C1171.79 571.501 1191.1 561.95 1209.78 552.75C1212.03 551.611 1214.28 550.559 1216.53 549.42C1224.52 545.477 1232.5 541.534 1240.49 537.504C1274.3 520.68 1309.19 503.331 1344.32 488.26L1344.01 487.296C1308.88 502.367 1273.91 519.716 1240.1 536.54C1232.11 540.483 1224.13 544.513 1216.14 548.456C1213.89 549.595 1211.64 550.647 1209.4 551.786C1190.79 560.986 1171.48 570.537 1152.25 577.459C1146.82 579.387 1141.16 580.964 1135.65 582.453C1125.65 585.257 1115.34 588.061 1106.03 593.143C1092.23 600.591 1078.9 611.456 1066.02 621.883C1041.75 641.598 1016.71 661.926 986.079 662.452C985.692 662.452 985.304 662.452 984.916 662.452C949.713 662.452 919.937 638.706 891.092 615.75C883.183 609.441 875.739 603.57 868.218 598.138C851.469 586.046 831.464 572.815 809.52 566.419C805.798 565.367 801.999 564.403 797.967 563.44C784.009 560.11 769.664 556.693 759.429 545.477C754.312 539.782 749.737 532.509 745.394 525.499C737.563 512.882 729.499 499.739 716.86 494.219C698.483 486.157 678.245 494.832 658.704 503.243C650.02 507.011 641.801 510.516 634.047 512.444C616.91 516.65 598.533 517.438 580.699 518.227C575.891 518.402 570.851 518.665 565.966 518.928C564.648 519.015 563.252 519.103 561.857 519.103C548.597 519.804 533.632 520.505 522.854 528.741C513.239 536.102 504.632 546.441 495.094 562.476C486.72 576.583 479.742 592.53 472.996 608.039C460.822 635.99 448.26 664.993 426.626 684.533C400.728 707.928 362.035 690.14 331.019 675.946C324.739 673.054 318.768 670.338 313.418 668.147C300.313 662.89 286.976 657.195 274.105 651.762C246.423 640.108 217.811 628.017 189.508 618.554C160.508 608.915 129.57 604.096 99.7168 599.452C94.444 598.663 89.2489 597.787 84.0537 596.999C79.3237 596.21 74.5162 595.421 69.7863 594.72C47.4547 591.128 24.2701 587.36 1.4733 584.381L1.39575 585.433C24.1926 588.324 47.3771 592.092 69.7087 595.772C74.051 596.385 78.8585 597.174 83.5884 597.962Z" fill="white"/>
<path d="M165.781 726.503C189.043 731.673 219.672 737.982 249.99 741.75C264.8 743.59 280.153 744.553 294.963 745.517C309.075 746.393 323.731 747.357 337.843 749.022C343.736 749.723 350.017 750.775 355.987 751.826C367.541 753.754 379.249 755.769 390.493 755.769C409.025 755.769 426.316 750.424 439.886 730.972C446.477 721.509 452.06 709.505 457.953 696.887C470.282 670.25 483.076 642.737 507.268 635.903C527.041 630.295 548.132 644.402 566.742 656.932C572.247 660.612 577.442 664.117 582.327 666.921C613.886 685.058 639.474 692.769 665.373 691.98C689.798 691.28 717.557 689.177 738.493 672.967C754.234 660.875 772.921 652.2 792.694 647.819C832.162 639.145 866.59 662.715 899.855 685.496C927.847 704.686 956.692 724.4 988.328 724.4C994.609 724.4 1000.97 723.612 1007.48 721.947C1025 717.391 1041.6 707.49 1057.65 698.026C1064.01 694.259 1070.68 690.316 1077.19 686.811C1102.16 673.492 1128.68 672.704 1154.34 671.915C1195.83 670.688 1236.38 655.705 1275.54 641.16C1280.89 639.145 1286.32 637.129 1291.67 635.202C1299.34 632.398 1307.17 629.506 1314.69 626.615C1355.02 611.544 1396.73 595.947 1440 590.602L1439.92 589.551C1396.5 594.983 1354.78 610.58 1314.38 625.651C1306.86 628.455 1299.03 631.434 1291.36 634.238C1286 636.165 1280.58 638.181 1275.23 640.196C1236.15 654.741 1195.67 669.725 1154.34 670.951C1128.6 671.74 1101.92 672.441 1076.8 685.935C1070.29 689.439 1063.7 693.382 1057.26 697.15C1041.29 706.613 1024.77 716.427 1007.33 720.983C968.245 731.147 933.74 707.577 900.32 684.708C866.9 661.839 832.317 638.181 792.539 646.943C772.689 651.324 753.846 660.086 738.028 672.266C717.325 688.213 689.643 690.316 665.45 691.104C639.785 691.893 614.274 684.182 582.87 666.132C577.985 663.328 572.79 659.823 567.362 656.143C548.597 643.526 527.351 629.331 507.191 635.026C482.688 641.949 469.816 669.725 457.332 696.537C451.439 709.154 445.934 721.071 439.343 730.534C417.864 761.377 386.538 756.12 356.297 751.037C350.249 749.986 344.046 748.935 338.075 748.234C323.963 746.569 309.308 745.605 295.118 744.729C280.308 743.765 264.955 742.801 250.145 740.961C219.904 737.193 189.276 730.797 166.014 725.715C158.802 724.138 151.591 722.473 144.38 720.896C97.7007 710.469 49.3932 699.604 0.930511 695.923L0.852966 696.975C49.2381 700.655 97.4681 711.433 144.147 721.947C151.359 723.261 158.57 724.926 165.781 726.503Z" fill="white"/>
<path d="M1301.05 641.773C1291.67 645.103 1281.97 648.52 1272.44 651.762L1266.85 653.69C1226.14 667.622 1184.04 681.904 1141.24 679.538C1113.56 677.961 1088.74 692.419 1064.7 706.438C1039.35 721.246 1013.06 736.492 983.598 732.549C957.157 729.044 931.491 713.886 906.678 699.253C871.32 678.312 834.798 656.757 794.942 668.323C775.325 674.018 757.878 686.373 741.672 698.64C723.683 712.221 698.25 717.04 666.148 712.922C635.21 708.979 607.14 693.558 583.723 679.1C579.613 676.559 575.038 673.317 570.153 669.9C547.899 654.303 520.217 634.851 498.274 649.046C478.733 661.751 467.8 684.357 457.332 706.088C449.578 722.21 441.514 738.858 430.038 751.476C410.886 772.592 383.592 768.912 357.228 765.32C349.241 764.268 341.797 763.217 334.586 762.954C276.741 760.501 220.602 753.403 167.642 741.837C161.826 740.61 156.011 739.296 150.118 737.982C101.268 727.204 50.8664 716.076 0.077545 713.535L0 714.587C50.7113 717.216 101.112 728.343 149.885 739.033C155.701 740.348 161.516 741.574 167.409 742.889C220.369 754.455 276.586 761.552 334.509 764.006C341.642 764.268 349.164 765.32 357.073 766.371C366.765 767.686 376.923 769 386.848 769C402.977 769 418.562 765.407 430.581 752.177C442.134 739.471 450.199 722.736 458.03 706.613C468.498 684.971 479.276 662.54 498.661 649.922C520.062 635.99 547.512 655.267 569.611 670.688C574.496 674.106 579.07 677.348 583.18 679.889C606.675 694.434 634.899 709.855 665.993 713.798C698.327 717.916 723.916 713.097 742.138 699.341C758.266 687.161 775.635 674.807 795.175 669.199C834.643 657.72 871.009 679.275 906.213 700.129C931.103 714.85 956.769 730.008 983.443 733.601C1013.22 737.544 1039.58 722.21 1065.09 707.314C1088.98 693.382 1113.71 679.012 1141.16 680.59C1184.19 683.043 1226.3 668.585 1267.09 654.741L1272.67 652.814C1282.21 649.572 1291.9 646.154 1301.28 642.825C1343.31 628.017 1386.81 612.771 1431.55 606.812L1431.47 605.761C1386.65 611.631 1343.15 626.965 1301.05 641.773Z" fill="white"/>
<path d="M218.663 609.266C224.324 611.895 229.984 614.523 235.645 617.152C269.762 632.924 305.043 649.309 340.712 662.277L342.573 662.978C359.709 669.199 377.388 675.683 395.145 677.874C396.463 678.049 397.704 678.137 399.022 678.137C424.145 678.137 440.971 646.505 450.198 629.069C459.581 611.369 467.8 592.53 475.787 574.305C484.394 554.503 493.311 534.087 503.701 515.073C519.442 486.508 540.455 471.437 567.905 468.984L573.953 468.458C591.477 466.969 609.621 465.391 626.758 461.974C633.038 460.747 639.474 459.17 645.755 457.593C650.718 456.366 655.835 455.14 660.798 454.001C680.028 449.882 706.547 449.444 723.916 471.174C730.274 479.148 735.779 488.786 741.052 498.162C751.365 516.387 762.065 535.226 780.055 543.024C787.886 546.441 796.648 548.719 805.1 550.998C814.328 553.451 823.943 555.992 832.239 559.935C849.066 567.909 865.504 580.351 881.477 592.267C885.587 595.422 889.929 598.576 894.116 601.643C923.271 622.935 952.039 641.861 982.357 641.861C989.491 641.861 996.78 640.81 1004.15 638.444C1029.66 630.383 1050.52 608.565 1070.68 587.536C1080.37 577.372 1090.37 566.945 1100.68 558.27C1116.66 544.864 1136.2 538.468 1155.04 532.334C1165.2 529.005 1175.74 525.587 1185.59 521.031C1205.75 511.743 1226.22 501.579 1245.99 491.853C1263.52 483.178 1281.58 474.153 1299.5 465.829L1299.19 464.866C1281.27 473.277 1263.13 482.215 1245.61 490.889C1225.83 500.703 1205.44 510.779 1185.28 520.067C1175.51 524.536 1165.04 527.953 1154.88 531.283C1135.89 537.504 1116.35 543.9 1100.22 557.394C1089.91 566.069 1079.83 576.583 1070.13 586.747C1050.05 607.689 1029.27 629.419 1003.99 637.393C965.841 649.484 930.56 626.878 894.737 600.679C890.549 597.612 886.285 594.37 882.175 591.304C866.202 579.299 849.686 566.857 832.782 558.884C824.33 554.853 814.793 552.312 805.488 549.859C797.036 547.58 788.351 545.302 780.597 541.885C762.918 534.174 752.295 515.511 742.06 497.461C736.71 488.085 731.204 478.359 724.846 470.386C707.244 448.305 680.338 448.743 660.875 452.949C655.913 454.001 650.795 455.315 645.833 456.542C639.552 458.119 633.116 459.696 626.835 460.923C609.776 464.252 591.709 465.829 574.185 467.319L568.137 467.845C540.378 470.298 519.132 485.544 503.236 514.372C492.768 533.386 483.851 553.801 475.244 573.692C467.335 591.917 459.116 610.756 449.733 628.368C440.118 646.418 422.284 680.064 395.533 676.647C377.853 674.369 360.252 667.972 343.115 661.751L341.254 661.05C305.663 648.082 270.383 631.697 236.265 615.925C230.605 613.297 224.944 610.668 219.284 608.039C178.342 589.201 136.005 569.661 92.0401 561.775C66.6844 557.219 38.4598 554.765 3.25653 554.064V555.116C38.4598 555.817 66.6069 558.27 91.885 562.827C135.54 570.975 177.8 590.427 218.663 609.266Z" fill="white"/>
<path d="M101.112 548.982C138.487 559.497 175.473 577.722 211.22 595.247C219.129 599.19 227.348 603.22 235.412 607.076C274.725 626.002 313.34 644.052 353.351 657.37C355.987 658.247 358.701 659.21 361.492 660.174C372.658 664.117 384.134 668.235 395.3 668.235C398.944 668.235 402.511 667.797 406.078 666.833C430.736 659.911 444.616 628.981 455.781 604.096C456.789 601.906 457.72 599.803 458.65 597.7C464.078 585.696 469.428 573.429 474.546 561.512C480.749 547.055 487.263 532.159 493.931 517.702L495.792 513.759C507.423 488.699 520.605 460.309 544.1 449.62C561.546 441.646 581.009 440.332 599.851 438.93C608.768 438.316 618.073 437.615 626.913 436.301C629.859 435.863 632.806 435.337 635.752 434.812C645.677 433.059 655.913 431.307 665.993 431.657C695.846 432.709 719.031 446.816 732.91 472.576C735.004 476.432 737.097 480.462 739.113 484.405C744.386 494.569 749.814 504.996 756.095 514.197C768.734 532.51 789.747 538.117 808.279 543.024C835.108 550.122 858.68 567.558 881.4 584.382C893.496 593.319 905.902 602.519 918.619 609.967C954.753 631.171 984.296 634.326 1011.43 619.781C1031.83 608.828 1048.89 589.902 1065.4 571.501C1076.57 559.059 1088.12 546.266 1100.68 535.927C1115.34 523.923 1133.17 518.227 1150.46 512.707C1159.69 509.816 1169.15 506.749 1177.99 502.806C1199.08 493.43 1220.41 483.003 1241.03 472.839C1253.67 466.618 1266.7 460.222 1279.57 454.176L1279.18 453.212C1266.31 459.346 1253.21 465.742 1240.57 471.875C1219.94 481.952 1198.62 492.467 1177.6 501.842C1168.84 505.785 1159.3 508.764 1150.15 511.656C1132.79 517.176 1114.87 522.871 1100.06 535.051C1087.5 545.39 1075.87 558.27 1064.7 570.713C1048.27 589.025 1031.21 607.952 1010.97 618.729C984.063 633.099 954.83 630.032 918.929 608.916C906.29 601.468 893.806 592.267 881.787 583.418C858.913 566.507 835.263 549.07 808.357 541.973C789.98 537.154 769.122 531.633 756.715 513.583C750.434 504.471 745.007 494.044 739.811 483.967C737.795 480.024 735.702 475.994 733.608 472.138C719.496 446.115 696.156 431.832 665.916 430.781C655.758 430.43 645.445 432.183 635.52 433.935C632.651 434.461 629.627 434.987 626.758 435.425C617.996 436.739 608.768 437.44 599.774 438.054C580.854 439.368 561.314 440.77 543.712 448.743C519.907 459.608 506.648 488.173 494.939 513.32L493.078 517.263C486.332 531.721 479.896 546.617 473.693 561.074C468.576 572.991 463.225 585.258 457.797 597.262C456.867 599.365 455.936 601.468 454.928 603.658C443.84 628.368 430.116 659.035 405.846 665.87C391.578 669.9 376.38 664.468 361.725 659.21C358.856 658.159 356.22 657.283 353.506 656.319C313.573 643.088 274.958 624.95 235.645 606.112C227.581 602.256 219.361 598.226 211.452 594.283C175.629 576.671 138.642 558.446 101.19 547.931C69.3984 538.994 35.0481 538.205 5.35014 538.205C5.11752 538.205 4.8849 538.205 4.65228 538.205V539.257C4.8849 539.257 5.11752 539.257 5.35014 539.257C35.2031 539.257 69.3984 540.045 101.112 548.982Z" fill="white"/>
<path d="M256.581 636.079C279.61 646.243 303.493 656.845 327.065 665.87C344.434 672.529 362.888 678.663 381.963 684.095C386.926 685.497 391.811 686.198 396.463 686.198C413.134 686.198 427.634 677.085 439.653 659.035C452.913 639.058 463.07 616.188 472.918 594.108C475.477 588.325 478.191 582.279 480.827 576.408C482.145 573.604 483.463 570.625 484.782 567.646C496.645 541.184 511.378 508.239 537.199 500.09C553.095 495.095 570.541 493.956 587.367 492.817C602.022 491.853 617.22 490.802 631.333 487.209C636.76 485.807 642.886 483.705 649.4 481.426C673.515 473.102 703.445 462.763 721.512 482.565C728.568 490.276 734.616 499.914 740.432 509.29C750.822 525.85 761.6 542.937 778.271 550.385C786.258 553.977 795.253 556.255 804.015 558.533C813.242 560.899 822.702 563.44 830.999 567.296C846.895 574.743 862.48 586.485 877.601 597.788L881.4 600.592C883.881 602.432 886.44 604.359 889.076 606.375C916.448 627.053 949.48 651.938 983.753 651.938C990.189 651.938 996.702 651.062 1003.14 649.134C1030.9 640.81 1054.16 620.307 1076.72 600.504C1085.95 592.443 1095.49 584.031 1105.03 576.759C1121.23 564.492 1140.38 558.183 1158.92 552.137C1169.85 548.544 1181.17 544.864 1191.64 539.958C1211.72 530.67 1232.04 520.506 1251.73 510.692C1274.45 499.389 1298.02 487.648 1321.44 477.045L1321.13 476.081C1297.71 486.684 1274.14 498.425 1251.42 509.728C1231.73 519.542 1211.41 529.706 1191.33 538.994C1180.86 543.813 1169.54 547.581 1158.68 551.086C1140.07 557.131 1120.84 563.44 1104.48 575.882C1094.87 583.155 1085.33 591.567 1076.1 599.628C1053.62 619.343 1030.35 639.759 1002.83 648.083C962.197 660.262 921.876 629.945 889.542 605.499C886.983 603.571 884.424 601.643 881.865 599.716L878.143 596.912C863.023 585.608 847.282 573.867 831.386 566.332C823.09 562.389 813.475 559.935 804.247 557.482C795.563 555.204 786.646 552.838 778.659 549.333C762.221 542.061 751.598 525.062 741.285 508.677C735.392 499.301 729.344 489.663 722.21 481.864C703.833 461.624 673.515 472.051 649.245 480.462C642.731 482.741 636.605 484.844 631.255 486.158C617.22 489.663 602.022 490.714 587.445 491.678C570.541 492.817 553.094 493.956 537.121 499.038C510.99 507.275 496.102 540.396 484.161 567.12C482.843 570.099 481.525 573.079 480.207 575.882C477.493 581.753 474.856 587.711 472.298 593.582C462.45 615.663 452.37 638.444 439.11 658.334C423.99 681.116 404.915 689.44 382.428 683.044C363.354 677.611 344.899 671.478 327.53 664.906C303.958 655.881 280.153 645.366 257.123 635.115C239.522 627.316 221.377 619.255 203.466 611.983C148.024 589.376 85.8371 576.233 1.78345 569.223L1.70593 570.275C85.682 577.197 147.792 590.34 203.155 612.946C220.757 620.307 238.979 628.368 256.581 636.079Z" fill="white"/>
<path d="M153.53 125.244C152.212 125.069 150.893 124.894 149.653 124.719L149.575 125.77C150.893 125.945 152.289 126.121 153.607 126.296V125.244H153.53Z" fill="white"/>
<path d="M153.53 145.397C150.583 144.959 147.559 144.609 144.613 144.258L144.535 145.31C147.559 145.66 150.583 146.011 153.53 146.449V145.397Z" fill="white"/>
<path d="M294.265 470.474C298.608 471.963 303.26 473.716 308.145 475.556C328.693 483.266 352.498 492.204 374.209 492.204C386.926 492.204 398.945 489.137 409.18 480.988C432.985 462.062 445.934 430.168 458.496 399.237C462.062 390.475 465.474 382.151 469.041 374.178C474.004 363.137 478.734 351.221 483.696 338.691C499.98 297.246 518.434 250.368 552.552 228.288C582.56 208.923 617.065 239.941 626.913 249.93C643.972 267.192 662.737 284.716 687.007 292.777C716.472 302.503 730.352 331.068 740.122 357.705C740.82 359.72 741.595 361.823 742.37 364.013C749.582 384.342 758.499 409.577 778.194 413.607C787.964 415.623 798.277 414.045 808.202 412.556C814.56 411.592 821.151 410.628 827.277 410.628C839.916 410.628 853.718 412.468 870.855 416.499C876.282 417.813 881.943 419.215 887.293 420.617C902.879 424.648 919.007 428.853 934.98 429.817C961.887 431.482 987.32 418.251 1006.71 392.666C1018.72 376.806 1029.11 358.668 1039.19 341.057C1051.29 319.94 1063.85 298.034 1079.28 279.984L1082.77 275.866C1096.73 259.568 1111.23 242.657 1122.94 223.118L1122.16 222.505C1110.45 241.957 1096.73 258.079 1082.07 275.078L1078.58 279.196C1063.08 297.333 1050.52 319.239 1038.42 340.443C1028.34 357.968 1017.95 376.105 1006.01 391.965C986.855 417.287 961.654 430.343 935.058 428.678C919.162 427.714 903.034 423.508 887.526 419.478C882.098 418.076 876.515 416.586 871.087 415.36C853.873 411.329 839.994 409.401 827.354 409.401C821.074 409.401 814.483 410.365 808.124 411.329C798.277 412.819 788.042 414.396 778.427 412.381C759.197 408.438 750.435 383.465 743.301 363.4C742.525 361.209 741.75 359.107 741.052 357.091C731.205 330.191 717.17 301.452 687.394 291.55C663.279 283.577 644.67 266.14 627.688 248.879C617.686 238.802 582.793 207.434 552.242 227.148C517.891 249.317 499.359 296.457 482.998 337.99C478.036 350.607 473.383 362.436 468.421 373.477C464.776 381.45 461.442 389.774 457.875 398.624C445.391 429.379 432.442 461.186 408.87 479.937C381.421 501.755 341.1 486.596 308.61 474.329C303.725 472.489 299.073 470.737 294.653 469.247C270.228 460.748 244.95 453.037 220.602 445.677C188.345 435.863 154.926 425.787 122.824 413.432L122.514 414.396C154.693 426.751 188.113 436.827 220.369 446.641C244.562 454.264 269.84 461.974 294.265 470.474Z" fill="white"/>
<path d="M226.495 470.035C230.992 471.174 235.489 472.313 239.987 473.452C261.543 478.885 283.875 484.493 305.508 490.977C309.928 492.291 314.658 493.868 319.621 495.445C337.532 501.316 357.925 507.975 376.923 507.975C391.5 507.975 405.225 504.032 416.313 492.817C440.583 468.283 454.386 433.322 467.8 399.5C471.212 390.825 474.779 381.8 478.423 373.213C482.222 364.363 485.867 354.637 489.744 344.386C504.864 304.43 522.078 259.13 554.8 240.642C582.87 224.782 613.886 250.631 622.725 258.955C625.749 261.759 628.773 264.738 631.642 267.542C646.995 282.437 662.891 297.859 682.974 304.868C707.244 313.368 725.156 333.784 737.795 367.518C738.881 370.497 740.044 373.739 741.284 377.068C750.124 402.128 762.143 436.213 788.429 436.213C788.817 436.213 789.282 436.213 789.669 436.213C827.587 434.636 858.06 436.826 885.509 442.872C904.739 447.166 922.186 450.671 939.787 450.671H939.865C965.531 450.671 990.189 436.826 1010.97 410.628C1022.37 396.258 1032.45 380.048 1042.14 364.276C1056.33 341.319 1070.99 317.574 1089.98 299.611C1093.55 296.281 1097.19 292.952 1100.68 289.71C1115.57 276.128 1130.92 262.021 1142.71 243.621L1142.01 243.007C1130.3 261.32 1115.03 275.34 1100.22 288.921C1096.73 292.163 1093.08 295.493 1089.52 298.822C1070.37 316.873 1055.71 340.706 1041.52 363.662C1031.83 379.347 1021.75 395.644 1010.43 409.927C996.004 428.064 972.122 449.619 939.942 449.619H939.865C922.341 449.619 904.972 446.114 885.742 441.821C858.215 435.687 827.664 433.584 789.669 435.162C763.228 436.213 751.054 401.778 742.137 376.63C740.897 373.213 739.811 369.971 738.648 366.992C725.931 332.995 707.787 312.316 683.284 303.817C663.356 296.895 647.538 281.561 632.263 266.665C629.316 263.861 626.292 260.882 623.346 258.078C614.429 249.667 583.025 223.468 554.412 239.59C521.38 258.254 504.166 303.729 488.968 343.772C485.091 354.024 481.447 363.662 477.648 372.6C474.003 381.099 470.436 390.124 466.947 398.886C453.61 432.621 439.808 467.406 415.693 491.853C390.492 517.351 351.335 504.558 319.853 494.219C314.891 492.554 310.161 491.064 305.741 489.75C284.185 483.354 261.853 477.658 240.219 472.226C235.722 471.087 231.225 469.947 226.727 468.808C191.136 459.783 156.398 444.099 122.901 428.853C119.102 427.1 115.225 425.436 111.425 423.683L111.115 424.647C114.914 426.399 118.791 428.064 122.591 429.817C156.088 445.238 190.826 460.922 226.495 470.035Z" fill="white"/>
<path d="M218.353 486.683C238.979 493.693 260.923 498.6 282.169 503.244C290.233 504.996 298.607 506.924 306.827 508.851L311.479 509.99C328.15 513.933 345.364 518.052 362.423 521.031C368.626 522.082 375.062 522.958 381.498 522.958C394.37 522.958 407.396 519.629 418.252 508.413C450.431 475.205 467.102 429.116 483.153 384.604C497.498 344.911 512.308 303.904 538.052 272.185C548.209 259.656 562.167 245.724 579.923 249.316C593.493 252.12 605.434 257.815 617.453 267.454C623.811 272.536 629.937 278.932 635.907 284.978C645.6 294.967 655.525 305.306 667.544 311.44C669.482 312.404 671.421 313.455 673.282 314.419C697.087 326.598 719.573 338.164 731.902 366.554C734.771 373.125 737.408 380.661 740.199 388.547C749.426 414.746 759.817 444.362 783.001 452.774C794.555 456.979 807.659 456.629 820.298 456.278C828.517 456.016 836.271 455.84 843.638 456.804C854.726 458.206 866.512 460.922 877.833 463.551C883.726 464.953 889.852 466.355 895.745 467.494C927.614 473.978 972.665 473.978 1006.55 437.089C1020.12 422.281 1032.06 405.02 1043.54 388.372C1057.11 368.657 1071.14 348.329 1087.97 332.119C1096.88 323.532 1107.2 315.821 1117.28 308.373C1134.03 295.931 1151.32 283.138 1163.41 265.351L1162.72 264.738C1150.7 282.437 1133.48 295.142 1116.81 307.497C1106.73 314.945 1096.34 322.655 1087.42 331.33C1070.6 347.628 1056.49 367.956 1042.92 387.758C1031.44 404.406 1019.58 421.58 1006.01 436.388C972.432 473.014 927.691 473.014 896.055 466.53C890.162 465.303 884.036 463.902 878.143 462.587C866.745 459.959 855.036 457.242 843.87 455.84C836.426 454.876 828.672 455.139 820.376 455.315C807.814 455.665 794.787 456.016 783.389 451.897C760.592 443.661 750.279 414.22 741.13 388.284C738.338 380.31 735.702 372.863 732.833 366.203C720.349 337.464 697.707 325.898 673.747 313.631C671.809 312.667 669.948 311.703 668.009 310.651C656.145 304.518 646.22 294.266 636.605 284.365C630.635 278.231 624.509 271.835 618.073 266.753C605.977 257.027 593.958 251.244 580.234 248.44C562.012 244.76 547.899 258.867 537.586 271.572C511.766 303.466 496.878 344.561 482.533 384.253C466.482 428.678 449.811 474.679 417.864 507.712C401.813 524.273 380.955 523.309 362.733 520.067C345.674 517.088 328.46 512.97 311.789 509.027L307.137 507.888C298.995 505.96 290.621 504.12 282.479 502.28C261.233 497.548 239.289 492.729 218.741 485.719C188.965 475.555 159.345 461.185 130.733 447.253C120.342 442.171 109.564 437.002 99.0188 432.095L98.7086 433.059C109.254 437.965 120.032 443.223 130.423 448.217C158.88 462.061 188.5 476.519 218.353 486.683Z" fill="white"/>
<path d="M208.661 498.775C236.886 510.604 269.297 520.155 307.835 527.69C329.236 531.896 346.993 534.963 363.741 537.241C368.471 537.942 373.046 538.205 377.311 538.205C399.798 538.205 416.469 529.18 430.426 509.815C453.533 477.746 468.111 438.842 482.223 401.165C497.731 359.895 513.782 317.135 540.998 283.664C550.071 272.536 562.787 260.006 580.311 262.372C592.95 264.037 605.667 269.82 616.057 278.582C622.26 283.752 627.921 289.973 633.504 296.019C642.266 305.569 651.338 315.471 662.504 321.517C667.311 324.145 672.196 326.599 677.004 328.964C698.56 339.654 718.876 349.818 730.584 375.141C734.073 382.589 737.175 391.001 740.432 399.938C750.047 426.137 760.98 455.84 784.552 465.479C795.873 470.123 808.512 471.174 820.841 472.226C828.983 472.927 837.435 473.628 845.189 475.468C853.02 477.308 861.162 479.586 868.994 481.776C881.865 485.369 895.125 489.137 908.151 491.152C948.007 497.286 986.389 482.565 1013.3 450.758C1022.29 440.156 1030.9 428.415 1039.27 417.112C1055.09 395.557 1071.53 373.213 1091.53 356.828C1099.99 349.906 1109.76 344.736 1119.22 339.742C1126.89 335.711 1134.8 331.506 1141.94 326.336C1157.29 315.383 1171.09 302.766 1182.88 288.921L1182.26 288.22C1170.55 301.977 1156.82 314.507 1141.55 325.46C1134.49 330.542 1126.58 334.747 1118.91 338.778C1109.45 343.772 1099.6 349.03 1091.07 356.039C1070.99 372.512 1054.55 394.856 1038.65 416.498C1030.35 427.802 1021.75 439.543 1012.75 450.145C986.002 481.776 947.929 496.409 908.384 490.276C895.357 488.26 882.098 484.493 869.304 480.9C861.395 478.71 853.253 476.432 845.421 474.591C837.667 472.839 829.215 472.051 820.996 471.35C808.745 470.298 796.183 469.247 784.94 464.603C761.755 455.052 750.9 425.611 741.362 399.587C738.106 390.65 735.004 382.238 731.515 374.703C719.651 349.03 699.18 338.866 677.469 328.088C672.739 325.722 667.777 323.269 663.047 320.64C652.036 314.682 643.041 304.781 634.279 295.318C628.696 289.272 622.958 282.963 616.755 277.793C606.21 268.944 593.338 263.073 580.544 261.408C562.555 259.042 549.683 271.748 540.456 283.051C513.084 316.697 497.033 359.457 481.525 400.814C467.413 438.404 452.835 477.22 429.806 509.202C413.445 531.896 393.129 540.22 363.896 536.19C347.225 533.911 329.469 530.845 308.067 526.639C269.53 519.016 237.118 509.553 209.049 497.724C184.856 487.56 160.508 475.468 136.936 463.814C120.11 455.49 102.663 446.816 85.4495 438.93L85.1393 439.893C102.431 447.779 119.8 456.454 136.626 464.778C160.121 476.519 184.468 488.611 208.661 498.775Z" fill="white"/>
<path d="M200.907 229.777C222.773 235.122 245.027 243.008 266.583 250.631C270.46 252.033 274.26 253.347 278.059 254.661C311.479 266.403 338.696 274.552 363.509 280.422C369.247 281.736 375.295 282.875 381.421 282.875C389.795 282.875 398.169 280.86 405.768 274.551C427.247 256.852 440.506 229.777 453.378 203.49C455.006 200.248 456.557 196.919 458.185 193.764C464.544 180.884 470.747 167.39 476.718 154.247C494.397 115.518 512.619 75.3876 540.378 44.5448C554.18 29.2111 572.712 24.6548 590.702 20.1861L593.338 19.5727C599.619 17.9955 606.132 16.1554 612.413 14.403C621.408 11.862 630.635 9.23334 639.552 7.39328C651.028 5.0275 663.279 4.06367 675.143 3.18746C680.726 2.74935 686.464 2.31123 692.047 1.69788C716.162 -0.843146 732.135 6.77993 740.897 24.9176C744.154 31.6645 746.713 39.3752 749.194 46.7354C753.769 60.492 758.499 74.6867 768.269 84.5879C780.598 97.0302 797.734 91.0719 812.932 85.727C818.825 83.7117 824.408 81.784 829.371 80.9078C842.242 78.8049 856.122 79.1554 869.536 79.4182C874.809 79.5059 880.237 79.6811 885.51 79.5935C888.611 79.5935 891.79 79.5059 894.892 79.4182C903.887 79.1554 913.269 78.8925 921.799 80.4697C925.676 81.1707 929.708 82.0469 933.585 82.9231C951.186 86.7784 969.408 90.8091 986.622 84.5879C1003.14 78.6297 1015.78 62.0691 1027.87 45.9468C1030.28 42.7924 1032.53 39.7257 1034.85 36.8342L1034.15 36.1331C1031.83 39.0247 1029.58 42.0914 1027.18 45.2458C1015.08 61.1929 1002.6 77.7534 986.312 83.5365C969.331 89.5823 951.264 85.6394 933.74 81.784C929.863 80.9078 925.831 80.0316 921.954 79.3306C913.269 77.6658 903.964 77.9287 894.892 78.2792C891.79 78.3668 888.611 78.4544 885.587 78.4544C880.392 78.4544 874.887 78.3668 869.614 78.2792C856.122 78.0163 842.242 77.6658 829.293 79.7687C824.175 80.5573 818.592 82.5726 812.699 84.5879C797.734 89.7576 780.83 95.6282 768.889 83.6241C759.274 73.9857 754.622 59.8786 750.047 46.2096C747.566 38.7618 745.007 31.1387 741.673 24.2166C732.678 5.64086 716.394 -2.06982 691.969 0.47121C686.386 1.08456 680.648 1.52263 675.065 1.96073C663.202 2.92457 650.873 3.80081 639.397 6.25421C630.48 8.09427 621.175 10.7229 612.258 13.3515C605.977 15.104 599.464 17.0317 593.183 18.5212L590.547 19.1346C572.48 23.6033 553.792 28.1596 539.835 43.7562C511.998 74.7743 493.699 114.905 476.02 153.721C470.049 166.777 463.923 180.358 457.488 193.151C455.859 196.393 454.308 199.635 452.68 202.877C439.886 228.988 426.626 256.063 405.38 273.588C392.509 284.19 377.156 282.437 363.819 279.283C339.006 273.412 311.867 265.264 278.447 253.522C274.648 252.208 270.771 250.806 266.971 249.492C245.415 241.869 223.083 233.983 201.217 228.638C188.655 225.571 175.474 223.38 162.679 221.365C152.754 219.7 142.441 218.036 132.439 215.933L132.284 216.896C142.286 218.999 152.599 220.664 162.524 222.329C175.241 224.52 188.423 226.71 200.907 229.777Z" fill="white"/>
<path d="M289.38 452.423C292.715 453.65 296.204 455.052 299.771 456.366C321.482 464.778 346.915 474.592 370.487 474.592C381.421 474.592 392.044 472.489 401.736 467.144C428.1 452.599 442.91 417.55 456.014 386.707C459.581 378.295 462.993 370.234 466.482 362.962C469.351 357.003 472.143 350.958 475.012 344.999C486.875 319.852 499.204 293.916 512.464 269.294C513.627 267.104 514.867 264.826 516.108 262.46C526.886 242.044 539.137 218.912 558.057 210.938C584.033 199.986 610.319 220.839 630.402 240.204C649.012 258.254 669.793 271.31 695.769 281.298C720.194 290.674 731.825 320.465 741.13 344.298C747.411 360.421 756.948 384.779 774.162 389.511C784.397 392.315 795.486 390.562 806.264 388.898C810.916 388.197 815.801 387.408 820.453 387.058C832.395 386.094 846.429 387.583 863.411 391.439C871.397 393.279 879.539 395.732 887.526 398.098C899.312 401.603 911.486 405.283 923.504 407.035C954.133 411.504 983.21 398.536 1003.29 371.461C1017.79 351.834 1029.58 329.403 1040.98 307.672C1047.65 294.967 1054.55 281.824 1061.91 269.382C1067.5 259.919 1074.09 251.244 1080.45 242.833C1089.52 230.916 1098.82 218.561 1105.65 203.666L1104.87 203.228C1098.13 218.036 1088.82 230.303 1079.83 242.219C1073.47 250.631 1066.88 259.305 1061.22 268.856C1053.85 281.298 1046.95 294.442 1040.28 307.147C1028.88 328.789 1017.17 351.22 1002.67 370.76C982.823 397.572 954.055 410.365 923.737 405.984C911.796 404.231 899.622 400.639 887.836 397.134C879.927 394.768 871.708 392.315 863.721 390.475C846.662 386.62 832.55 385.13 820.531 386.094C815.879 386.444 810.994 387.233 806.264 387.934C795.563 389.599 784.552 391.351 774.472 388.635C757.723 383.991 748.263 359.895 742.06 343.948C732.6 319.852 720.892 289.885 696.156 280.335C670.336 270.346 649.632 257.378 631.1 239.415C610.862 219.876 584.266 198.759 557.825 209.974C538.517 218.123 526.266 241.431 515.41 261.934C514.169 264.3 513.006 266.49 511.766 268.768C498.429 293.478 486.177 319.414 474.236 344.561C471.367 350.519 468.576 356.565 465.707 362.524C462.217 369.884 458.806 377.857 455.239 386.357C442.212 417.112 427.402 451.898 401.426 466.355C371.263 483.003 331.872 467.845 300.158 455.578C296.592 454.176 293.102 452.861 289.768 451.635C257.279 439.455 223.549 429.116 190.904 419.127C171.674 413.256 151.746 407.123 132.284 400.727L132.051 401.69C151.514 408.087 171.442 414.22 190.672 420.091C223.161 429.905 256.891 440.244 289.38 452.423Z" fill="white"/>
</g>
</svg>
