<?xml version="1.0" encoding="UTF-8"?>
<svg id="Layer_1" data-name="Layer 1" xmlns="http://www.w3.org/2000/svg" xmlns:xlink="http://www.w3.org/1999/xlink" viewBox="0 0 382 500.36">
  <defs>
    <style>
      .cls-1 {
        fill: #fff;
      }

      .cls-2 {
        fill: #8d0200;
      }

      .cls-3 {
        fill: url(#radial-gradient-10);
      }

      .cls-4 {
        fill: url(#radial-gradient-19);
      }

      .cls-5 {
        fill: url(#radial-gradient-18);
      }

      .cls-6 {
        fill: url(#radial-gradient-17);
      }

      .cls-7 {
        fill: url(#radial-gradient-11);
      }

      .cls-8 {
        fill: url(#radial-gradient-16);
      }

      .cls-9 {
        fill: url(#radial-gradient-15);
      }

      .cls-10 {
        fill: url(#radial-gradient-12);
      }

      .cls-11 {
        fill: url(#radial-gradient-14);
      }

      .cls-12 {
        fill: url(#radial-gradient-13);
      }

      .cls-13 {
        fill: url(#radial-gradient-6);
      }

      .cls-14 {
        fill: url(#radial-gradient-5);
      }

      .cls-15 {
        fill: url(#radial-gradient-3);
      }

      .cls-16 {
        fill: url(#radial-gradient-4);
      }

      .cls-17 {
        fill: url(#radial-gradient-9);
      }

      .cls-18 {
        fill: url(#radial-gradient-8);
      }

      .cls-19 {
        fill: url(#radial-gradient-7);
      }

      .cls-20 {
        fill: url(#radial-gradient-2);
      }

      .cls-21 {
        fill: url(#radial-gradient);
      }
    </style>
    <radialGradient id="radial-gradient" cx="190.92" cy="423.53" fx="190.92" fy="423.53" r="117.83" gradientUnits="userSpaceOnUse">
      <stop offset="0" stop-color="#c60600"/>
      <stop offset="1" stop-color="#930600"/>
    </radialGradient>
    <radialGradient id="radial-gradient-2" cy="390.03" fy="390.03" xlink:href="#radial-gradient"/>
    <radialGradient id="radial-gradient-3" cy="356.53" fy="356.53" xlink:href="#radial-gradient"/>
    <radialGradient id="radial-gradient-4" cx="-659.87" cy="-54.36" fx="-659.87" fy="-54.36" r="27.88" gradientTransform="translate(767.8 103.06) scale(.87)" xlink:href="#radial-gradient"/>
    <radialGradient id="radial-gradient-5" cx="77.3" cy="98.73" fx="77.3" fy="98.73" r="7.95" xlink:href="#radial-gradient"/>
    <radialGradient id="radial-gradient-6" cx="92.43" cy="100.73" fx="92.43" fy="100.73" r="8.14" xlink:href="#radial-gradient"/>
    <radialGradient id="radial-gradient-7" cx="110.46" cy="100.73" fx="110.46" fy="100.73" r="8.11" xlink:href="#radial-gradient"/>
    <radialGradient id="radial-gradient-8" cx="129.18" cy="98.02" fx="129.18" fy="98.02" r="9.44" xlink:href="#radial-gradient"/>
    <radialGradient id="radial-gradient-9" cx="145.56" cy="100.61" fx="145.56" fy="100.61" r="6.75" xlink:href="#radial-gradient"/>
    <radialGradient id="radial-gradient-10" cx="159.93" cy="100.73" fx="159.93" fy="100.73" r="8.14" xlink:href="#radial-gradient"/>
    <radialGradient id="radial-gradient-11" cx="177.83" cy="100.73" fx="177.83" fy="100.73" r="8.28" xlink:href="#radial-gradient"/>
    <radialGradient id="radial-gradient-12" cx="190.65" cy="97.29" fx="190.65" fy="97.29" r="8.33" xlink:href="#radial-gradient"/>
    <radialGradient id="radial-gradient-13" cx="203.6" cy="100.73" fx="203.6" fy="100.73" r="8.14" xlink:href="#radial-gradient"/>
    <radialGradient id="radial-gradient-14" cx="225.23" cy="100.73" fx="225.23" fy="100.73" r="10.45" xlink:href="#radial-gradient"/>
    <radialGradient id="radial-gradient-15" cx="246.84" cy="100.73" fx="246.84" fy="100.73" r="8.14" xlink:href="#radial-gradient"/>
    <radialGradient id="radial-gradient-16" cx="262.65" cy="100.61" fx="262.65" fy="100.61" r="6.75" xlink:href="#radial-gradient"/>
    <radialGradient id="radial-gradient-17" cx="271.03" cy="106.65" fx="271.03" fy="106.65" r="2.18" xlink:href="#radial-gradient"/>
    <radialGradient id="radial-gradient-18" cx="283.11" cy="100.73" fx="283.11" fy="100.73" r="8.11" xlink:href="#radial-gradient"/>
    <radialGradient id="radial-gradient-19" cx="301.42" cy="100.73" fx="301.42" fy="100.73" r="8.27" xlink:href="#radial-gradient"/>
  </defs>
  <g>
    <polygon class="cls-1" points="377 5 5 5 5 423 5 423.44 191 495 377 423.44 377 423 377 5"/>
    <path class="cls-2" d="M191,500.36L0,426.88V0H382V426.88l-191,73.48ZM10,420.01l181,69.63,181-69.63V10H10V420.01Z"/>
  </g>
  <polygon class="cls-21" points="29.92 380.56 29.92 404.18 29.92 404.56 190.92 466.5 351.92 404.56 351.92 404.18 351.92 380.56 190.92 442.5 29.92 380.56"/>
  <polygon class="cls-20" points="29.92 347.06 29.92 370.68 29.92 371.06 190.92 433 351.92 371.06 351.92 370.68 351.92 347.06 190.92 409 29.92 347.06"/>
  <polygon class="cls-15" points="29.92 313.56 29.92 337.18 29.92 337.56 190.92 399.5 351.92 337.56 351.92 337.18 351.92 313.56 190.92 375.5 29.92 313.56"/>
  <path class="cls-16" d="M182.5,47.1s-16.89,2.2-17.08,2.78,12.19,12.28,12.19,12.28c0,0-3.13,16.74-2.64,17.1,.49,.36,15.44-7.79,15.44-7.79,0,0,14.96,8.15,15.45,7.79,.49-.36-2.63-17.1-2.63-17.1,0,0,12.37-11.7,12.19-12.28s-17.08-2.78-17.08-2.78c0,0-7.32-15.38-7.92-15.38s-7.91,15.38-7.91,15.38Z"/>
  <g>
    <path d="M169.67,134.2v7.62h-10.75v31.98h-9.63v-31.98h-10.64v-7.62h31.02Z"/>
    <path d="M202.68,136.19c3.04,1.74,5.44,4.14,7.2,7.22,1.75,3.08,2.63,6.56,2.63,10.44s-.89,7.37-2.66,10.47c-1.77,3.1-4.18,5.52-7.22,7.25-3.04,1.74-6.41,2.6-10.11,2.6s-7.07-.87-10.11-2.6c-3.04-1.74-5.45-4.15-7.22-7.25-1.77-3.1-2.66-6.59-2.66-10.47s.89-7.36,2.66-10.44c1.77-3.08,4.18-5.49,7.22-7.22,3.04-1.74,6.41-2.6,10.11-2.6s7.12,.87,10.16,2.6Zm-17.64,9.35c-1.85,2.04-2.77,4.81-2.77,8.32s.92,6.24,2.77,8.29c1.85,2.05,4.34,3.08,7.48,3.08s5.58-1.03,7.45-3.08c1.87-2.05,2.8-4.82,2.8-8.29s-.92-6.23-2.77-8.29c-1.85-2.05-4.34-3.08-7.48-3.08s-5.63,1.02-7.48,3.05Z"/>
    <path d="M227.46,159.9v13.89h-9.58v-39.59h15.51c4.7,0,8.29,1.17,10.75,3.5,2.46,2.33,3.7,5.48,3.7,9.44,0,2.46-.55,4.66-1.65,6.58-1.1,1.92-2.73,3.44-4.9,4.54-2.17,1.1-4.8,1.65-7.9,1.65h-5.94Zm10.64-12.77c0-3.47-1.92-5.21-5.77-5.21h-4.87v10.3h4.87c3.84,0,5.77-1.7,5.77-5.1Z"/>
  </g>
  <g>
    <path d="M101.45,195.82v25.45h-6.16v-25.45h6.16Z"/>
    <path d="M123.99,195.82v4.9h-6.91v20.56h-6.19v-20.56h-6.84v-4.9h19.94Z"/>
    <path d="M151.04,217.82c-.68,1.13-1.69,2.03-3.02,2.7s-2.95,1.01-4.84,1.01c-2.86,0-5.21-.7-7.06-2.09-1.85-1.39-2.86-3.34-3.02-5.83h6.55c.1,.96,.44,1.72,1.03,2.27,.59,.55,1.34,.83,2.25,.83,.79,0,1.42-.22,1.87-.65,.46-.43,.68-1.01,.68-1.73,0-.65-.21-1.19-.63-1.62-.42-.43-.94-.79-1.57-1.06-.62-.28-1.49-.61-2.59-.99-1.61-.55-2.92-1.09-3.94-1.6-1.02-.52-1.9-1.28-2.63-2.3-.73-1.02-1.1-2.35-1.1-3.98,0-1.51,.38-2.82,1.15-3.92,.77-1.1,1.83-1.95,3.19-2.54,1.36-.59,2.91-.88,4.66-.88,2.83,0,5.08,.67,6.75,2.02,1.67,1.34,2.61,3.19,2.83,5.54h-6.66c-.12-.84-.43-1.51-.92-2-.49-.49-1.16-.74-2-.74-.72,0-1.3,.19-1.75,.58-.44,.38-.67,.95-.67,1.69,0,.6,.2,1.11,.59,1.53s.89,.76,1.49,1.03c.6,.26,1.46,.6,2.59,1.01,1.63,.55,2.96,1.1,4,1.64,1.03,.54,1.92,1.33,2.66,2.36,.74,1.03,1.12,2.38,1.12,4.03,0,1.34-.34,2.58-1.03,3.71Z"/>
    <path d="M174.39,212.35h-13.93c.07,1.51,.46,2.6,1.15,3.26,.7,.66,1.58,.99,2.66,.99,.91,0,1.67-.23,2.27-.68,.6-.46,1-1.04,1.19-1.76h6.52c-.26,1.42-.84,2.68-1.73,3.8-.89,1.12-2.02,1.99-3.38,2.63-1.37,.64-2.89,.95-4.57,.95-1.97,0-3.71-.41-5.24-1.24-1.52-.83-2.72-2.02-3.58-3.58-.86-1.56-1.3-3.38-1.3-5.47s.43-3.94,1.28-5.49c.85-1.55,2.05-2.74,3.58-3.56,1.54-.83,3.29-1.24,5.26-1.24s3.74,.41,5.26,1.22c1.51,.82,2.68,1.96,3.51,3.44,.83,1.48,1.24,3.17,1.24,5.09,0,.5-.06,1.06-.18,1.66Zm-7.11-5.56c-.73-.66-1.64-.99-2.72-.99s-2.06,.34-2.81,1.01c-.74,.67-1.16,1.66-1.26,2.95h7.85c.02-1.32-.33-2.31-1.06-2.97Z"/>
    <path d="M186.9,202.05c1.21-.72,2.53-1.08,3.94-1.08v6.59h-1.76c-1.63,0-2.9,.35-3.8,1.04s-1.35,1.87-1.35,3.53v9.14h-6.16v-20.09h6.16v3.78c.77-1.22,1.76-2.2,2.97-2.92Z"/>
    <path d="M202.72,215.26l4.36-14.08h6.55l-7.13,20.09h-7.63l-7.13-20.09h6.55l4.43,14.08Z"/>
    <path d="M216.61,193.21c.67-.61,1.56-.92,2.66-.92s1.99,.31,2.66,.92c.67,.61,1.01,1.39,1.01,2.32s-.34,1.67-1.01,2.29-1.56,.92-2.66,.92-1.99-.31-2.66-.92-1.01-1.37-1.01-2.29,.34-1.71,1.01-2.32Zm5.72,7.97v20.09h-6.16v-20.09h6.16Z"/>
    <path d="M242.17,203.08c1.75,1.43,2.86,3.39,3.31,5.89h-6.52c-.19-.86-.59-1.54-1.19-2.02-.6-.48-1.36-.72-2.27-.72-1.08,0-1.97,.43-2.66,1.28-.7,.85-1.04,2.09-1.04,3.73s.35,2.87,1.04,3.73c.7,.85,1.58,1.28,2.66,1.28,.91,0,1.67-.24,2.27-.72,.6-.48,1-1.15,1.19-2.02h6.52c-.46,2.5-1.56,4.46-3.31,5.89s-3.92,2.14-6.52,2.14c-1.97,0-3.71-.41-5.24-1.24-1.52-.83-2.72-2.02-3.58-3.58-.86-1.56-1.3-3.38-1.3-5.47s.43-3.94,1.28-5.49c.85-1.55,2.05-2.74,3.58-3.56,1.54-.83,3.29-1.24,5.26-1.24,2.59,0,4.76,.71,6.52,2.14Z"/>
    <path d="M267.59,212.35h-13.93c.07,1.51,.46,2.6,1.15,3.26,.7,.66,1.58,.99,2.66,.99,.91,0,1.67-.23,2.27-.68,.6-.46,1-1.04,1.19-1.76h6.52c-.26,1.42-.84,2.68-1.73,3.8-.89,1.12-2.02,1.99-3.38,2.63-1.37,.64-2.89,.95-4.57,.95-1.97,0-3.71-.41-5.24-1.24-1.52-.83-2.72-2.02-3.58-3.58-.86-1.56-1.3-3.38-1.3-5.47s.43-3.94,1.28-5.49c.85-1.55,2.05-2.74,3.58-3.56,1.54-.83,3.29-1.24,5.26-1.24s3.74,.41,5.26,1.22c1.51,.82,2.68,1.96,3.51,3.44,.83,1.48,1.24,3.17,1.24,5.09,0,.5-.06,1.06-.18,1.66Zm-7.11-5.56c-.73-.66-1.64-.99-2.72-.99s-2.06,.34-2.81,1.01-1.16,1.66-1.26,2.95h7.85c.02-1.32-.33-2.31-1.06-2.97Z"/>
    <path d="M284.38,202.84c1.52,1.27,2.48,2.95,2.86,5.04h-5.76c-.17-.82-.55-1.46-1.13-1.93-.59-.47-1.33-.7-2.21-.7-.7,0-1.22,.15-1.58,.45-.36,.3-.54,.73-.54,1.28,0,.62,.33,1.09,.99,1.4,.66,.31,1.7,.62,3.11,.94,1.54,.36,2.8,.73,3.78,1.1s1.84,.98,2.56,1.82c.72,.84,1.08,1.97,1.08,3.38,0,1.15-.31,2.17-.94,3.06s-1.52,1.58-2.7,2.09-2.57,.76-4.18,.76c-2.71,0-4.88-.6-6.52-1.8-1.63-1.2-2.63-2.92-2.99-5.15h5.94c.1,.86,.46,1.52,1.1,1.98,.64,.46,1.46,.68,2.47,.68,.7,0,1.22-.16,1.58-.49,.36-.32,.54-.75,.54-1.28,0-.7-.33-1.19-.99-1.49-.66-.3-1.73-.62-3.22-.95-1.49-.31-2.71-.65-3.67-1.01-.96-.36-1.79-.94-2.48-1.75-.7-.8-1.04-1.9-1.04-3.29,0-1.8,.68-3.26,2.05-4.37s3.3-1.67,5.8-1.67,4.58,.64,6.1,1.91Z"/>
    <path d="M105.72,240.13c2.12,1.71,3.5,4.01,4.12,6.91h-6.52c-.48-1.18-1.22-2.1-2.21-2.77-1-.67-2.18-1.01-3.55-1.01-1.8,0-3.25,.66-4.36,1.98-1.1,1.32-1.66,3.08-1.66,5.29s.55,3.97,1.66,5.27c1.1,1.31,2.56,1.96,4.36,1.96,1.37,0,2.55-.34,3.55-1.01,1-.67,1.73-1.58,2.21-2.74h6.52c-.62,2.88-2,5.18-4.12,6.89-2.12,1.72-4.81,2.57-8.05,2.57-2.47,0-4.64-.55-6.52-1.64s-3.32-2.62-4.34-4.59c-1.02-1.97-1.53-4.21-1.53-6.73s.51-4.76,1.53-6.73c1.02-1.97,2.47-3.5,4.34-4.59,1.87-1.09,4.04-1.64,6.52-1.64,3.24,0,5.92,.85,8.05,2.56Z"/>
    <path d="M128.04,244.18c1.57,.83,2.81,2.02,3.71,3.58,.9,1.56,1.35,3.38,1.35,5.47s-.45,3.91-1.35,5.47c-.9,1.56-2.14,2.75-3.71,3.58-1.57,.83-3.35,1.24-5.35,1.24s-3.78-.41-5.36-1.24c-1.58-.83-2.83-2.02-3.73-3.58-.9-1.56-1.35-3.38-1.35-5.47s.45-3.91,1.35-5.47c.9-1.56,2.14-2.75,3.73-3.58,1.58-.83,3.37-1.24,5.36-1.24s3.77,.41,5.35,1.24Zm-8.32,5.36c-.8,.85-1.21,2.08-1.21,3.69s.4,2.83,1.21,3.67c.8,.84,1.79,1.26,2.97,1.26s2.16-.42,2.95-1.26c.79-.84,1.19-2.06,1.19-3.67s-.4-2.84-1.19-3.69c-.79-.85-1.78-1.28-2.95-1.28s-2.17,.43-2.97,1.28Z"/>
    <path d="M168.16,245.26c1.42,1.52,2.12,3.64,2.12,6.35v11.66h-6.12v-10.94c0-1.27-.34-2.26-1.03-2.97s-1.61-1.06-2.79-1.06-2.19,.38-2.9,1.13c-.71,.76-1.06,1.82-1.06,3.19v10.66h-6.16v-10.94c0-1.27-.34-2.26-1.01-2.97s-1.6-1.06-2.77-1.06-2.2,.37-2.92,1.12c-.72,.74-1.08,1.81-1.08,3.2v10.66h-6.16v-20.09h6.16v3.42c.53-1.13,1.34-2.02,2.43-2.66,1.09-.65,2.37-.97,3.83-.97s2.89,.35,4.07,1.06c1.18,.71,2.06,1.72,2.66,3.04,.7-1.25,1.65-2.24,2.86-2.99,1.21-.74,2.55-1.12,4.01-1.12,2.47,0,4.42,.76,5.83,2.29Z"/>
    <path d="M191.36,244.18c1.31,.83,2.34,2.02,3.1,3.56s1.13,3.38,1.13,5.49-.38,3.91-1.13,5.47c-.76,1.56-1.79,2.75-3.1,3.58-1.31,.83-2.79,1.24-4.45,1.24-1.54,0-2.86-.35-3.96-1.04-1.1-.7-1.91-1.64-2.41-2.84v13.21h-6.16v-29.66h6.16v3.64c.5-1.2,1.31-2.15,2.41-2.84,1.1-.7,2.42-1.04,3.96-1.04,1.66,0,3.14,.41,4.45,1.24Zm-9.61,5.47c-.83,.88-1.24,2.07-1.24,3.58s.41,2.68,1.24,3.56c.83,.89,1.89,1.33,3.19,1.33s2.38-.43,3.19-1.3c.8-.86,1.21-2.06,1.21-3.6s-.4-2.74-1.21-3.6c-.8-.86-1.87-1.3-3.19-1.3s-2.36,.44-3.19,1.31Z"/>
    <path d="M210.39,243.98c1.1,.7,1.92,1.64,2.45,2.84v-3.64h6.12v20.09h-6.12v-3.64c-.53,1.2-1.34,2.15-2.45,2.84-1.1,.7-2.42,1.04-3.96,1.04-1.66,0-3.14-.41-4.45-1.24-1.31-.83-2.34-2.02-3.1-3.58-.76-1.56-1.13-3.38-1.13-5.47s.38-3.94,1.13-5.49,1.79-2.74,3.1-3.56c1.31-.83,2.79-1.24,4.45-1.24,1.54,0,2.86,.35,3.96,1.04Zm-5.17,5.65c-.8,.86-1.21,2.06-1.21,3.6s.4,2.74,1.21,3.6c.8,.86,1.87,1.3,3.19,1.3s2.36-.44,3.19-1.33c.83-.89,1.24-2.08,1.24-3.56s-.41-2.71-1.24-3.58-1.89-1.31-3.19-1.31-2.38,.43-3.19,1.3Z"/>
    <path d="M241.44,245.28c1.36,1.54,2.03,3.65,2.03,6.34v11.66h-6.16v-10.94c0-1.34-.35-2.39-1.06-3.15s-1.65-1.13-2.83-1.13c-1.25,0-2.24,.4-2.97,1.19-.73,.79-1.1,1.92-1.1,3.38v10.66h-6.16v-20.09h6.16v3.67c.58-1.2,1.43-2.15,2.57-2.84s2.48-1.04,4.01-1.04c2.3,0,4.13,.77,5.49,2.3Z"/>
    <path d="M247.97,235.21c.67-.61,1.56-.92,2.66-.92s1.99,.31,2.66,.92c.67,.61,1.01,1.39,1.01,2.32s-.34,1.67-1.01,2.29-1.56,.92-2.66,.92-1.99-.31-2.66-.92-1.01-1.37-1.01-2.29,.34-1.71,1.01-2.32Zm5.72,7.97v20.09h-6.16v-20.09h6.16Z"/>
    <path d="M276.84,254.35h-13.93c.07,1.51,.46,2.6,1.15,3.26,.7,.66,1.58,.99,2.66,.99,.91,0,1.67-.23,2.27-.68,.6-.46,1-1.04,1.19-1.76h6.52c-.26,1.42-.84,2.68-1.73,3.8-.89,1.12-2.02,1.99-3.38,2.63-1.37,.64-2.89,.95-4.57,.95-1.97,0-3.71-.41-5.24-1.24-1.52-.83-2.72-2.02-3.58-3.58-.86-1.56-1.3-3.38-1.3-5.47s.43-3.94,1.28-5.49c.85-1.55,2.05-2.74,3.58-3.56,1.54-.83,3.29-1.24,5.26-1.24s3.74,.41,5.26,1.22c1.51,.82,2.68,1.96,3.51,3.44,.83,1.48,1.24,3.17,1.24,5.09,0,.5-.06,1.06-.18,1.66Zm-7.11-5.56c-.73-.66-1.64-.99-2.72-.99s-2.06,.34-2.81,1.01-1.16,1.66-1.26,2.95h7.85c.02-1.32-.33-2.31-1.06-2.97Z"/>
    <path d="M293.64,244.84c1.52,1.27,2.48,2.95,2.86,5.04h-5.76c-.17-.82-.55-1.46-1.13-1.93-.59-.47-1.33-.7-2.21-.7-.7,0-1.22,.15-1.58,.45-.36,.3-.54,.73-.54,1.28,0,.62,.33,1.09,.99,1.4,.66,.31,1.7,.62,3.11,.94,1.54,.36,2.8,.73,3.78,1.1s1.84,.98,2.56,1.82c.72,.84,1.08,1.97,1.08,3.38,0,1.15-.31,2.17-.94,3.06s-1.52,1.58-2.7,2.09-2.57,.76-4.18,.76c-2.71,0-4.88-.6-6.52-1.8-1.63-1.2-2.63-2.92-2.99-5.15h5.94c.1,.86,.46,1.52,1.1,1.98,.64,.46,1.46,.68,2.47,.68,.7,0,1.22-.16,1.58-.49,.36-.32,.54-.75,.54-1.28,0-.7-.33-1.19-.99-1.49-.66-.3-1.73-.62-3.22-.95-1.49-.31-2.71-.65-3.67-1.01-.96-.36-1.79-.94-2.48-1.75-.7-.8-1.04-1.9-1.04-3.29,0-1.8,.68-3.26,2.05-4.37s3.3-1.67,5.8-1.67,4.58,.64,6.1,1.91Z"/>
    <path d="M101.72,277.21c.67-.61,1.56-.92,2.66-.92s1.99,.31,2.66,.92c.67,.61,1.01,1.39,1.01,2.32s-.34,1.67-1.01,2.29-1.56,.92-2.66,.92-1.99-.31-2.66-.92c-.67-.61-1.01-1.37-1.01-2.29s.34-1.71,1.01-2.32Zm5.72,7.97v20.09h-6.16v-20.09h6.16Z"/>
    <path d="M129.93,287.28c1.36,1.54,2.03,3.65,2.03,6.34v11.66h-6.16v-10.94c0-1.34-.35-2.39-1.06-3.15s-1.65-1.13-2.83-1.13c-1.25,0-2.24,.4-2.97,1.19-.73,.79-1.1,1.92-1.1,3.38v10.66h-6.16v-20.09h6.16v3.67c.58-1.2,1.43-2.15,2.57-2.84,1.14-.7,2.48-1.04,4.01-1.04,2.3,0,4.13,.77,5.49,2.3Z"/>
    <path d="M154.6,299.98v5.29h-2.77c-2.35,0-4.18-.58-5.49-1.75s-1.96-3.09-1.96-5.78v-7.38h-2.7v-5.18h2.7v-4.93h6.16v4.93h4.03v5.18h-4.03v7.49c0,.79,.16,1.34,.49,1.66,.32,.31,.87,.47,1.64,.47h1.94Z"/>
    <path d="M176.29,287.28c1.36,1.54,2.03,3.65,2.03,6.34v11.66h-6.16v-10.94c0-1.34-.35-2.39-1.06-3.15s-1.65-1.13-2.83-1.13c-1.25,0-2.24,.4-2.97,1.19-.73,.79-1.1,1.92-1.1,3.38v10.66h-6.16v-26.64h6.16v10.22c.58-1.2,1.43-2.15,2.57-2.84,1.14-.7,2.48-1.04,4.01-1.04,2.3,0,4.13,.77,5.49,2.3Z"/>
    <path d="M201.3,296.35h-13.93c.07,1.51,.46,2.6,1.15,3.26,.7,.66,1.58,.99,2.66,.99,.91,0,1.67-.23,2.27-.68,.6-.46,1-1.04,1.19-1.76h6.52c-.26,1.42-.84,2.68-1.73,3.8-.89,1.12-2.02,1.99-3.38,2.63-1.37,.64-2.89,.95-4.57,.95-1.97,0-3.71-.41-5.24-1.24-1.52-.83-2.72-2.02-3.58-3.58-.86-1.56-1.3-3.38-1.3-5.47s.43-3.94,1.28-5.49c.85-1.55,2.05-2.74,3.58-3.56,1.54-.83,3.29-1.24,5.26-1.24s3.74,.41,5.26,1.22c1.51,.82,2.68,1.96,3.51,3.44,.83,1.48,1.24,3.17,1.24,5.09,0,.5-.06,1.06-.18,1.66Zm-7.11-5.56c-.73-.66-1.64-.99-2.72-.99s-2.06,.34-2.81,1.01c-.74,.67-1.16,1.66-1.26,2.95h7.85c.02-1.32-.33-2.31-1.06-2.97Z"/>
    <path d="M217.85,279.82v14.69c0,1.68,.38,2.96,1.13,3.85,.76,.89,1.85,1.33,3.29,1.33s2.54-.44,3.29-1.33c.76-.89,1.13-2.17,1.13-3.85v-14.69h6.16v14.69c0,2.4-.47,4.42-1.4,6.07-.94,1.64-2.21,2.88-3.83,3.71s-3.45,1.24-5.49,1.24-3.84-.41-5.4-1.22c-1.56-.82-2.79-2.05-3.67-3.71-.89-1.66-1.33-3.68-1.33-6.08v-14.69h6.12Z"/>
    <path d="M254.23,301.82c-.68,1.13-1.69,2.03-3.02,2.7s-2.95,1.01-4.84,1.01c-2.86,0-5.21-.7-7.06-2.09-1.85-1.39-2.86-3.34-3.02-5.83h6.55c.1,.96,.44,1.72,1.03,2.27,.59,.55,1.34,.83,2.25,.83,.79,0,1.42-.22,1.87-.65,.46-.43,.68-1.01,.68-1.73,0-.65-.21-1.19-.63-1.62-.42-.43-.94-.79-1.57-1.06-.62-.28-1.49-.61-2.59-.99-1.61-.55-2.92-1.09-3.94-1.6-1.02-.52-1.9-1.28-2.63-2.3-.73-1.02-1.1-2.35-1.1-3.98,0-1.51,.38-2.82,1.15-3.92,.77-1.1,1.83-1.95,3.19-2.54,1.36-.59,2.91-.88,4.66-.88,2.83,0,5.08,.67,6.75,2.02,1.67,1.34,2.61,3.19,2.83,5.54h-6.66c-.12-.84-.43-1.51-.92-2-.49-.49-1.16-.74-2-.74-.72,0-1.3,.19-1.75,.58-.44,.38-.67,.95-.67,1.69,0,.6,.2,1.11,.59,1.53,.4,.42,.89,.76,1.49,1.03,.6,.26,1.46,.6,2.59,1.01,1.63,.55,2.96,1.1,4,1.64s1.92,1.33,2.66,2.36c.74,1.03,1.12,2.38,1.12,4.03,0,1.34-.34,2.58-1.03,3.71Z"/>
    <path d="M274.45,300.63h-9.54l-1.58,4.64h-6.48l9.32-25.27h7.09l9.32,25.27h-6.55l-1.58-4.64Zm-1.58-4.68l-3.17-9.36-3.2,9.36h6.37Z"/>
  </g>
  <g>
    <path d="M167.52,331.36c0-1.53-.66-2.3-1.99-2.3-.75,0-1.29,.26-1.64,.78-.35,.52-.54,1.33-.57,2.44h-4.68c.11-2.41,.84-4.22,2.18-5.43,1.34-1.21,3.04-1.82,5.1-1.82s3.77,.54,4.86,1.62c1.09,1.08,1.64,2.49,1.64,4.23,0,1.92-.74,3.8-2.21,5.64-1.47,1.84-3.24,3.39-5.29,4.66h7.81v3.86h-14.11v-3.58c5.94-4.24,8.9-7.61,8.9-10.11Z"/>
    <path d="M174.69,335.17c0-3.08,.63-5.52,1.88-7.32s3.25-2.7,5.99-2.7,4.72,.9,5.98,2.7c1.26,1.8,1.89,4.24,1.89,7.32s-.63,5.55-1.89,7.36c-1.26,1.81-3.25,2.72-5.98,2.72s-4.74-.91-5.99-2.72-1.88-4.26-1.88-7.36Zm10.98,0c0-1.77-.21-3.13-.63-4.07s-1.25-1.41-2.48-1.41-2.09,.48-2.52,1.43c-.43,.95-.64,2.31-.64,4.06s.21,3.14,.64,4.1c.43,.96,1.27,1.44,2.52,1.44s2.06-.48,2.48-1.44c.42-.96,.63-2.33,.63-4.1Z"/>
    <path d="M201.4,331.36c0-1.53-.66-2.3-1.99-2.3-.75,0-1.29,.26-1.64,.78-.35,.52-.54,1.33-.57,2.44h-4.68c.11-2.41,.84-4.22,2.18-5.43,1.34-1.21,3.04-1.82,5.1-1.82s3.77,.54,4.86,1.62c1.09,1.08,1.64,2.49,1.64,4.23,0,1.92-.74,3.8-2.21,5.64-1.47,1.84-3.24,3.39-5.29,4.66h7.81v3.86h-14.11v-3.58c5.94-4.24,8.9-7.61,8.9-10.11Z"/>
    <path d="M219.41,325.33c.99,.48,1.74,1.13,2.25,1.96,.51,.83,.77,1.77,.77,2.81,0,1.29-.33,2.32-.99,3.11-.66,.78-1.49,1.28-2.48,1.48v.14c2.56,.82,3.84,2.42,3.84,4.79,0,1.14-.26,2.15-.78,3.04-.52,.89-1.28,1.58-2.28,2.07-1,.5-2.2,.74-3.6,.74-2.28,0-4.08-.56-5.42-1.68-1.33-1.12-2.06-2.83-2.17-5.12h4.68c.04,.88,.28,1.57,.73,2.07s1.1,.76,1.96,.76c.69,0,1.24-.21,1.64-.62,.4-.41,.6-.94,.6-1.6,0-1.62-1.18-2.44-3.53-2.44h-.9v-3.89h.87c2.11,.04,3.16-.72,3.16-2.27,0-.67-.18-1.19-.55-1.55s-.85-.55-1.47-.55c-.67,0-1.2,.23-1.6,.69-.39,.46-.62,1.07-.67,1.83h-4.68c.09-2.09,.75-3.7,1.96-4.82,1.21-1.12,2.91-1.68,5.1-1.68,1.38,0,2.57,.24,3.56,.71Z"/>
  </g>
  <g>
    <path class="cls-14" d="M82.3,105.27v3.52h-2.16c-1.81,0-3.19-.44-4.15-1.31s-1.44-2.33-1.44-4.37v-6.99h-2.24v-3.47h2.24v-3.99h4.11v3.99h3.61v3.47h-3.61v7.05c0,.78,.15,1.32,.46,1.63,.31,.31,.84,.47,1.57,.47h1.6Z"/>
    <path class="cls-13" d="M100.28,101.51h-11.83c.06,1.44,.45,2.5,1.16,3.18,.72,.68,1.61,1.02,2.68,1.02,.95,0,1.74-.23,2.37-.7,.63-.47,1.04-1.1,1.21-1.89h4.34c-.21,1.13-.67,2.14-1.37,3.03-.7,.89-1.6,1.59-2.7,2.1-1.1,.5-2.32,.76-3.66,.76-1.57,0-2.97-.34-4.2-1.01s-2.17-1.63-2.85-2.87c-.68-1.24-1.02-2.71-1.02-4.4s.34-3.16,1.02-4.41c.68-1.25,1.63-2.21,2.85-2.87,1.22-.66,2.62-.99,4.2-.99s2.99,.33,4.18,.99c1.19,.66,2.12,1.57,2.77,2.73s.98,2.47,.98,3.95c0,.41-.05,.87-.15,1.4Zm-5.03-4.81c-.75-.68-1.67-1.02-2.75-1.02s-2.04,.34-2.8,1.02-1.18,1.68-1.25,3h7.84c.06-1.32-.29-2.32-1.03-3Z"/>
    <path class="cls-19" d="M115.79,94.14c1.39,1.13,2.26,2.66,2.61,4.6h-4.34c-.18-.86-.57-1.53-1.19-2.02s-1.41-.74-2.36-.74c-1.09,0-2,.4-2.72,1.21-.73,.81-1.09,1.99-1.09,3.54s.37,2.73,1.09,3.54c.73,.81,1.64,1.21,2.72,1.21,.95,0,1.74-.25,2.36-.74,.62-.5,1.02-1.17,1.19-2.02h4.34c-.35,1.94-1.22,3.48-2.61,4.6-1.39,1.13-3.12,1.69-5.2,1.69-1.57,0-2.97-.34-4.2-1.01s-2.17-1.63-2.85-2.87c-.68-1.24-1.02-2.71-1.02-4.4s.34-3.16,1.02-4.41c.68-1.25,1.63-2.21,2.85-2.87,1.22-.66,2.62-.99,4.2-.99,2.08,0,3.81,.56,5.2,1.69Z"/>
    <path class="cls-18" d="M135.38,94.26c1.11,1.23,1.66,2.94,1.66,5.16v9.38h-4.08v-8.91c0-1.28-.33-2.28-.99-2.99-.66-.71-1.56-1.06-2.71-1.06s-2.1,.38-2.8,1.14c-.7,.76-1.05,1.84-1.05,3.26v8.57h-4.11v-21.56h4.11v8.65c.43-1.09,1.13-1.94,2.11-2.55,.98-.61,2.11-.92,3.39-.92,1.87,0,3.35,.61,4.46,1.84Z"/>
    <path class="cls-17" d="M147.15,93.31c.99-.59,2.1-.89,3.32-.89v4.4h-1.19c-3.01,0-4.52,1.4-4.52,4.2v7.78h-4.11v-16.14h4.11v3.09c.6-1.03,1.4-1.84,2.39-2.43Z"/>
    <path class="cls-3" d="M167.78,101.51h-11.83c.06,1.44,.45,2.5,1.16,3.18,.72,.68,1.61,1.02,2.68,1.02,.95,0,1.74-.23,2.37-.7,.63-.47,1.04-1.1,1.21-1.89h4.34c-.21,1.13-.67,2.14-1.37,3.03-.7,.89-1.6,1.59-2.7,2.1-1.1,.5-2.32,.76-3.66,.76-1.57,0-2.97-.34-4.2-1.01s-2.17-1.63-2.85-2.87c-.68-1.24-1.02-2.71-1.02-4.4s.34-3.16,1.02-4.41c.68-1.25,1.63-2.21,2.85-2.87,1.22-.66,2.62-.99,4.2-.99s2.99,.33,4.18,.99c1.19,.66,2.12,1.57,2.77,2.73s.98,2.47,.98,3.95c0,.41-.05,.87-.15,1.4Zm-5.03-4.81c-.75-.68-1.67-1.02-2.75-1.02s-2.04,.34-2.8,1.02-1.18,1.68-1.25,3h7.84c.06-1.32-.29-2.32-1.03-3Z"/>
    <path class="cls-7" d="M177.86,104.69l4.08-12.03h4.37l-5.97,16.14h-5.01l-5.97-16.14h4.4l4.11,12.03Z"/>
    <path class="cls-10" d="M188.81,86.41c.47-.42,1.08-.63,1.84-.63s1.37,.21,1.84,.63c.46,.42,.7,.96,.7,1.62s-.23,1.17-.7,1.59c-.47,.42-1.08,.63-1.84,.63s-1.37-.21-1.84-.63c-.47-.42-.7-.95-.7-1.59s.23-1.2,.7-1.62Zm3.88,6.25v16.14h-4.11v-16.14h4.11Z"/>
    <path class="cls-12" d="M211.45,101.51h-11.83c.06,1.44,.45,2.5,1.16,3.18,.72,.68,1.61,1.02,2.68,1.02,.95,0,1.74-.23,2.37-.7,.63-.47,1.04-1.1,1.21-1.89h4.34c-.21,1.13-.67,2.14-1.37,3.03-.7,.89-1.6,1.59-2.7,2.1-1.1,.5-2.32,.76-3.66,.76-1.57,0-2.97-.34-4.2-1.01s-2.17-1.63-2.85-2.87c-.68-1.24-1.02-2.71-1.02-4.4s.34-3.16,1.02-4.41c.68-1.25,1.63-2.21,2.85-2.87,1.22-.66,2.62-.99,4.2-.99s2.99,.33,4.18,.99c1.19,.66,2.12,1.57,2.77,2.73s.98,2.47,.98,3.95c0,.41-.05,.87-.15,1.4Zm-5.03-4.81c-.75-.68-1.67-1.02-2.75-1.02s-2.04,.34-2.8,1.02-1.18,1.68-1.25,3h7.84c.06-1.32-.29-2.32-1.03-3Z"/>
    <path class="cls-11" d="M237.61,92.66l-4.34,16.14h-4.55l-3.47-11.74-3.55,11.74h-4.54l-4.31-16.14h4.11l2.62,12.47,3.58-12.47h4.34l3.61,12.47,2.65-12.47h3.85Z"/>
    <path class="cls-9" d="M254.69,101.51h-11.83c.06,1.44,.45,2.5,1.16,3.18,.72,.68,1.61,1.02,2.68,1.02,.95,0,1.74-.23,2.37-.7,.63-.47,1.04-1.1,1.21-1.89h4.34c-.21,1.13-.67,2.14-1.37,3.03-.7,.89-1.6,1.59-2.7,2.1-1.1,.5-2.32,.76-3.66,.76-1.57,0-2.97-.34-4.2-1.01s-2.17-1.63-2.85-2.87c-.68-1.24-1.02-2.71-1.02-4.4s.34-3.16,1.02-4.41c.68-1.25,1.63-2.21,2.85-2.87,1.22-.66,2.62-.99,4.2-.99s2.99,.33,4.18,.99c1.19,.66,2.12,1.57,2.77,2.73s.98,2.47,.98,3.95c0,.41-.05,.87-.15,1.4Zm-5.03-4.81c-.75-.68-1.67-1.02-2.75-1.02s-2.04,.34-2.8,1.02-1.18,1.68-1.25,3h7.84c.06-1.32-.29-2.32-1.03-3Z"/>
    <path class="cls-8" d="M264.24,93.31c.99-.59,2.1-.89,3.32-.89v4.4h-1.19c-3.01,0-4.52,1.4-4.52,4.2v7.78h-4.11v-16.14h4.11v3.09c.6-1.03,1.4-1.84,2.39-2.43Z"/>
    <path class="cls-6" d="M273.24,104.51v4.28h-4.43v-4.28h4.43Z"/>
    <path class="cls-5" d="M288.44,94.14c1.39,1.13,2.26,2.66,2.61,4.6h-4.34c-.18-.86-.57-1.53-1.19-2.02s-1.41-.74-2.36-.74c-1.09,0-2,.4-2.72,1.21-.73,.81-1.09,1.99-1.09,3.54s.37,2.73,1.09,3.54c.73,.81,1.64,1.21,2.72,1.21,.95,0,1.74-.25,2.36-.74,.62-.5,1.02-1.17,1.19-2.02h4.34c-.35,1.94-1.22,3.48-2.61,4.6-1.39,1.13-3.12,1.69-5.2,1.69-1.57,0-2.97-.34-4.2-1.01s-2.17-1.63-2.85-2.87c-.68-1.24-1.02-2.71-1.02-4.4s.34-3.16,1.02-4.41c.68-1.25,1.63-2.21,2.85-2.87,1.22-.66,2.62-.99,4.2-.99,2.08,0,3.81,.56,5.2,1.69Z"/>
    <path class="cls-4" d="M305.66,93.44c1.25,.66,2.24,1.62,2.96,2.87,.72,1.25,1.08,2.72,1.08,4.41s-.36,3.16-1.08,4.4c-.72,1.24-1.7,2.2-2.96,2.87-1.25,.67-2.66,1.01-4.24,1.01s-2.99-.34-4.24-1.01c-1.25-.67-2.24-1.63-2.96-2.87-.72-1.24-1.08-2.71-1.08-4.4s.36-3.16,1.08-4.41c.72-1.25,1.7-2.21,2.96-2.87,1.25-.66,2.67-.99,4.24-.99s2.99,.33,4.24,.99Zm-7.15,3.77c-.8,.81-1.19,1.98-1.19,3.51s.4,2.71,1.19,3.51c.8,.81,1.77,1.21,2.91,1.21s2.12-.4,2.91-1.21c.8-.8,1.19-1.98,1.19-3.51s-.4-2.7-1.19-3.51c-.8-.8-1.77-1.21-2.91-1.21s-2.12,.4-2.91,1.21Z"/>
  </g>
</svg>