<svg width="41" height="56" viewBox="0 0 41 56" fill="none" xmlns="http://www.w3.org/2000/svg">
<path d="M22.5521 9.92082C22.4345 10.2021 22.3962 10.3382 22.3249 10.4531C22.1136 10.7977 21.8085 11.0051 21.3965 10.91C20.9831 10.8136 20.7124 10.5336 20.6926 10.0952C20.6688 9.56953 20.6701 9.04126 20.6939 8.51696C20.7124 8.1234 20.9356 7.85135 21.3291 7.7589C21.7716 7.65457 22.1955 7.81701 22.3355 8.21453C22.4477 8.53281 22.6617 8.61469 22.9351 8.69921C25.2819 9.42426 27.1678 10.7594 28.4898 12.8646C29.092 13.8247 29.368 14.8812 29.4512 15.9787C29.7853 20.3871 28.8767 24.6158 27.5098 28.7693C27.3672 29.2012 27.3804 29.5234 27.84 29.7215C28.2019 29.8773 28.1371 30.1573 28.0209 30.4241C27.2998 32.0828 26.6303 33.7654 25.8313 35.3858C24.78 37.52 23.4197 39.4548 21.7201 41.1399C20.3875 42.4606 18.8357 43.3481 16.9736 43.6835C16.8112 43.7126 16.5642 43.9728 16.5668 44.122C16.5985 46.3275 16.9723 48.434 18.4646 50.1865C19.401 51.2853 20.579 51.935 22.0159 52.0737C23.3194 52.1992 24.6149 52.1437 25.8603 51.6841C27.807 50.9657 28.8107 49.4073 29.4261 47.5504C30.2951 44.9329 30.4377 42.2176 30.4153 39.4865C30.4021 37.8898 30.3876 36.2905 30.9224 34.7585C31.139 34.1404 31.452 33.5554 31.7703 32.8449C31.8958 33.0892 31.9552 33.1922 32.0027 33.3005C32.3197 34.007 32.7753 34.6066 33.4066 35.057C33.6337 35.2194 33.7103 35.3396 33.5664 35.6143C33.1543 36.404 33.124 37.277 33.0909 38.1434C33.0077 40.3541 32.9998 42.5689 32.84 44.7744C32.6895 46.8439 32.0899 48.813 31.0241 50.613C29.5503 53.1051 27.391 54.5024 24.4789 54.7441C23.2203 54.8484 21.971 54.8616 20.7414 54.5869C18.3563 54.0547 16.5866 52.6693 15.3875 50.5536C14.4247 48.8539 13.9929 46.9957 13.8304 45.0702C13.7248 43.8235 13.7525 43.8037 12.5415 43.4788C10.2554 42.8674 8.62306 41.3724 7.20599 39.5816C5.05199 36.857 3.58738 33.7614 2.38029 30.5311C2.16899 29.9658 2.29577 29.7334 2.84781 29.53C3.41305 29.3213 3.97829 29.1127 4.54618 28.9119C5.15104 28.698 5.33065 28.7984 5.57761 29.3768C6.20757 30.8546 6.80583 32.3483 7.50446 33.7944C8.27308 35.3871 9.29527 36.828 10.4059 38.2054C11.6751 39.7783 13.3748 40.3502 15.3148 40.3872C17.2932 40.4241 18.8159 39.5182 20.0507 38.0509C21.6487 36.1518 22.8453 34.0084 23.8384 31.7474C24.1804 30.9695 24.4829 30.1745 24.7959 29.3834C24.9596 28.9687 25.1657 28.6795 25.6979 28.834C25.8009 28.8644 26.0597 28.6689 26.106 28.5303C26.8403 26.33 27.4504 24.0955 27.7647 21.7936C28.0038 20.0463 28.1451 18.2965 28.0526 16.5241C27.939 14.3569 27.0265 12.6533 25.2581 11.4409C24.4221 10.8664 23.4897 10.4398 22.5521 9.92082Z" fill="black"/>
<path d="M15.3796 1.2269C15.8273 1.88327 16.3318 2.50794 16.7108 3.20129C18.0473 5.64583 18.3867 8.26866 18.0592 11.017C17.6722 14.2658 16.4585 17.2188 14.7456 19.946C12.9126 22.8673 10.1946 24.6554 6.8362 25.4439C6.22209 25.5878 5.58685 25.6393 4.97142 25.778C4.63465 25.8546 4.51183 25.7054 4.44184 25.4359C4.22789 24.6145 4.2477 23.7745 4.62673 23.0337C5.23027 21.8543 5.88268 20.6908 6.61829 19.5907C7.8465 17.751 9.1566 15.9668 10.431 14.1575C10.4627 14.1113 10.4799 14.0545 10.435 13.9409C9.75354 14.5788 9.05359 15.2008 8.39194 15.8585C6.76224 17.4803 5.28838 19.2288 4.16318 21.2468C3.30607 22.7854 3.07231 24.4111 3.52134 26.1266C3.65472 26.6351 3.7617 27.1502 3.8964 27.6586C3.97829 27.9703 3.90565 28.1684 3.56756 28.2305C3.47775 28.2476 3.38663 28.278 3.30475 28.3216C2.96138 28.5025 2.76064 28.4127 2.68008 28.0271C2.39481 26.6694 2.03163 25.3224 1.83089 23.9528C1.50337 21.7011 1.74505 19.4784 2.48726 17.3231C3.25456 15.0925 4.66767 13.2845 6.27359 11.602C8.01819 9.77554 10.0586 8.32413 12.1228 6.89518C12.7937 6.4303 13.4421 5.91657 14.0325 5.35132C15.06 4.36611 15.4522 3.13525 15.2369 1.71818C15.2158 1.58348 15.2171 1.44481 15.2079 1.30878C15.2647 1.28237 15.3228 1.25463 15.3796 1.2269Z" fill="black"/>
<path d="M35.8828 34.95C34.0207 34.9315 32.6498 33.5303 32.6736 31.6695C32.6947 29.9658 34.1831 28.5712 35.9634 28.587C37.7331 28.6029 39.2096 30.0662 39.2016 31.7949C39.1924 33.5593 37.7093 34.9685 35.8828 34.95Z" fill="black"/>
</svg>
