<svg width="34" height="36" viewBox="0 0 34 36" fill="none" xmlns="http://www.w3.org/2000/svg">
<g clip-path="url(#clip0_2150_1589)">
<path d="M21.8612 8.1C21.8612 8.01818 21.7788 8.01818 21.6964 8.01818H19.5542C19.4718 8.01818 19.307 7.93636 19.307 7.85455C19.2246 7.77273 19.307 7.60909 19.3894 7.52727L27.8758 0.409091C27.9582 0.327273 27.9582 0.245455 27.9582 0.163636C27.7934 0 27.711 0 27.6286 0L13.8691 4.58182C13.7867 4.58182 13.7867 4.66364 13.7043 4.66364L0.109604 35.7545C0.109604 35.8364 0.109604 35.9182 0.109604 35.9182C0.191996 36 0.274388 36 0.274388 36H6.61859C6.70098 36 6.78338 35.9182 6.78338 35.8364L9.09036 30.4364C9.17275 30.3545 9.25514 30.2727 9.33754 30.1909L20.2957 26.5909C20.3781 26.5909 20.3781 26.5091 20.4605 26.5091L21.2844 23.7273C21.3668 23.5636 21.4492 23.4818 21.614 23.4818C21.614 23.4818 21.7788 23.4818 21.9436 23.7273L27.2167 35.8364C27.2167 35.9182 27.299 35.9182 27.3814 35.9182H33.7256C33.808 35.9182 33.8904 35.9182 33.8904 35.8364C33.8904 35.7545 33.8904 35.6727 33.8904 35.6727L21.8612 8.1ZM20.2957 20.7818L12.7156 23.3182C12.5508 23.4 12.3037 23.2364 12.386 22.9909L16.7528 13.0909C16.8352 12.8455 17.1648 12.8455 17.3296 13.0909L20.5429 20.3727C20.5429 20.5364 20.4605 20.7 20.2957 20.7818Z" fill="black"/>
</g>
<defs>
<clipPath id="clip0_2150_1589">
<rect width="33.7808" height="36" fill="white" transform="translate(0.109604)"/>
</clipPath>
</defs>
</svg>
