
<svg version="1.1" xmlns="http://www.w3.org/2000/svg" width="1280" height="257">
<path d="M0 0 C3.61534317 1.65739666 4.77482215 2.84533228 6.5625 6.4375 C9.29976175 11.71257478 12.19512808 16.86514825 15.1875 22 C16.15366542 23.66274904 17.11981096 25.32550962 18.0859375 26.98828125 C18.5715918 27.82311035 19.05724609 28.65793945 19.55761719 29.51806641 C21.37112707 32.63860491 23.17733443 35.76333192 24.98339844 38.88818359 C29.02138489 45.87381115 33.07681838 52.84894122 37.14941406 59.81445312 C39.52341461 63.87787078 41.8900161 67.94558039 44.25683594 72.01318359 C45.95713232 74.92654856 47.66936782 77.83263559 49.3828125 80.73828125 C62.449167 103.03409182 68.99601157 124.31627797 62.57861328 150.02441406 C60.95416153 155.57085438 58.50787248 160.805701 56 166 C45.1713956 166.91767834 35.63341945 162.96385056 27.29296875 156.13671875 C26.86628906 155.76160156 26.43960938 155.38648438 26 155 C26.41087072 151.05564111 27.02364141 147.68729561 28.5 144 C32.11242604 134.83677296 31.9940943 124.33529839 29 115 C23.61807148 103.36852728 16.65263349 92.18814049 4.15234375 87.41015625 C0.47487463 86.13134631 -3.24494817 85.02932597 -7 84 C-7.66257812 83.79246094 -8.32515625 83.58492188 -9.0078125 83.37109375 C-18.98023385 81.51348585 -29.45928498 85.13968281 -37.9375 90.25 C-47.64512461 96.99694145 -54.12386563 106.29744903 -56.6484375 118.0078125 C-58.50158033 133.78011705 -54.57127449 145.14308826 -45.875 158.1875 C-41.5163578 163.03824696 -34.93732242 167.59006359 -28.82104492 169.78027344 C-21.65313378 172.36051069 -19.21734366 176.3742485 -15.8125 183 C-15.30493164 183.93739014 -14.79736328 184.87478027 -14.27441406 185.84057617 C-12.81956117 188.54588307 -11.40293392 191.26747797 -10 194 C-9.63116699 194.7110791 -9.26233398 195.4221582 -8.88232422 196.15478516 C-7.19937071 199.41084319 -5.56463283 202.68544887 -4 206 C-16.67642281 210.22547427 -34.59317405 204.75528224 -46.296875 199.41015625 C-67.0134186 188.60282642 -79.60679232 172.05492948 -87.875 150.5 C-94.10107538 129.23431395 -90.46719171 106.72502979 -80.578125 87.19140625 C-69.90245165 68.98462671 -52.61782512 57.73159659 -32.59765625 52.03125 C-23.93645644 49.9268415 -15.85485154 49.66515267 -7 50 C-7.433125 48.98679688 -7.86625 47.97359375 -8.3125 46.9296875 C-8.87555478 45.57835603 -9.43802387 44.22678041 -10 42.875 C-10.28617187 42.20984375 -10.57234375 41.5446875 -10.8671875 40.859375 C-12.89499936 35.93468905 -14.09738238 32.04422002 -12.20898438 26.80566406 C-11.1196876 24.23217479 -9.9520205 21.71023582 -8.75 19.1875 C-7.95297423 17.47272632 -7.15609829 15.75788299 -6.359375 14.04296875 C-5.96814453 13.21071777 -5.57691406 12.3784668 -5.17382812 11.52099609 C-3.39654225 7.70397156 -1.694372 3.85440418 0 0 Z " fill="#000000" transform="translate(91,0)"/>
<path d="M0 0 C5.10038485 2.75850022 9.65954994 6.06048855 14.15625 9.70703125 C15.64511719 10.88652344 15.64511719 10.88652344 17.1640625 12.08984375 C30.02542504 23.3393384 39.93918897 41.73504683 42.15625 58.70703125 C43.21046372 76.95483998 42.00160895 93.3580251 33.15625 109.70703125 C32.67671875 110.59648437 32.1971875 111.4859375 31.703125 112.40234375 C21.3031082 130.12276072 4.66858053 141.19352107 -14.98608398 146.47485352 C-23.72568177 148.6683559 -31.84798257 149.17842518 -40.84375 148.70703125 C-40.410625 149.64804688 -39.9775 150.5890625 -39.53125 151.55859375 C-38.96816716 152.81614544 -38.40569966 154.07397278 -37.84375 155.33203125 C-37.55757813 155.94949219 -37.27140625 156.56695312 -36.9765625 157.203125 C-34.76290154 162.21021526 -34.00331151 166.1178206 -35.71411133 171.38842773 C-36.1139624 172.27602783 -36.51381348 173.16362793 -36.92578125 174.078125 C-37.36341797 175.06490234 -37.80105469 176.05167969 -38.25195312 177.06835938 C-38.71537109 178.08349609 -39.17878906 179.09863281 -39.65625 180.14453125 C-40.10806641 181.15580078 -40.55988281 182.16707031 -41.02539062 183.20898438 C-41.89914022 185.1643977 -42.77674041 187.11809625 -43.65869141 189.06982422 C-45.09478436 192.26567838 -46.47786848 195.48064666 -47.84375 198.70703125 C-51.53690488 197.25758054 -52.81205513 195.59575019 -54.69140625 192.1484375 C-55.20848145 191.21483398 -55.72555664 190.28123047 -56.25830078 189.31933594 C-56.80212402 188.31290039 -57.34594727 187.30646484 -57.90625 186.26953125 C-59.07071762 184.16096273 -60.23609548 182.05289666 -61.40234375 179.9453125 C-62.27221924 178.36290771 -62.27221924 178.36290771 -63.15966797 176.74853516 C-65.53911707 172.45117695 -67.99568514 168.20099923 -70.46875 163.95703125 C-71.36722248 162.41017657 -72.26566009 160.86330163 -73.1640625 159.31640625 C-73.60524414 158.55779297 -74.04642578 157.79917969 -74.50097656 157.01757812 C-76.78711877 153.08375089 -79.06503224 149.14516227 -81.34375 145.20703125 C-84.11389165 140.41995419 -86.88555198 135.6337881 -89.6640625 130.8515625 C-91.96366352 126.89326557 -94.25184642 122.92850152 -96.53710938 118.96191406 C-97.79928218 116.78376981 -99.07771204 114.61593558 -100.359375 112.44921875 C-111.82533718 92.86988765 -116.36557739 72.35351985 -110.8359375 49.9453125 C-106.75157609 36.61485734 -106.75157609 36.61485734 -102.84375 32.70703125 C-93.56116795 31.48102985 -84.38649853 35.51942533 -77.03125 41.01953125 C-75.95583529 41.89981917 -74.88749688 42.78941692 -73.84375 43.70703125 C-74.2870751 47.25363209 -75.03856979 50.39633022 -76.34375 53.70703125 C-80.83041311 65.35046918 -79.42547017 76.92910342 -74.8125 88.234375 C-70.197409 98.35327385 -62.50450728 107.43562406 -51.89697266 111.44238281 C-38.80639401 115.93718 -29.16823329 116.64364309 -15.84375 111.70703125 C-4.75174113 106.19590735 2.66114067 98.24330794 7.15625 86.70703125 C11.13304736 73.59602745 9.60800924 60.94472475 3.28125 48.89453125 C-2.22766674 39.42188173 -9.25964083 32.25021147 -19.96875 29.08203125 C-26.41380421 26.70541751 -28.76914286 21.38391357 -31.85400391 15.55957031 C-33.21148225 13.01873518 -34.65656926 10.53178571 -36.09912109 8.03857422 C-37.10350179 6.29842087 -38.09318791 4.54981044 -39.08203125 2.80078125 C-40.20936344 0.82107595 -41.37069469 -1.13988662 -42.57421875 -3.07421875 C-43.84375 -5.29296875 -43.84375 -5.29296875 -43.84375 -7.29296875 C-30.4907525 -11.74396792 -12.2642435 -5.65931797 0 0 Z " fill="#000000" transform="translate(176.84375,58.29296875)"/>
<path d="M0 0 C75.6351706 0 75.6351706 0 95 14 C96.03125 14.7425 97.0625 15.485 98.125 16.25 C111.56465814 29.10532518 117.65511913 47.87191055 118.203125 66.1015625 C118.51933719 88.4861628 114.19765704 108.6417906 98.125 125.3125 C71.37813391 150.7703605 35.52735468 144 0 144 C0 96.48 0 48.96 0 0 Z M30 29 C30 57.71 30 86.42 30 116 C54.82055149 116.46203631 54.82055149 116.46203631 76 105 C86.52271538 92.27370422 88.08284284 77.76207638 86.7265625 61.77734375 C85.32693022 51.54418323 81.29634624 42.49556405 73.43359375 35.6328125 C61.25868327 26.74486489 43.82183742 29 30 29 Z " fill="#000000" transform="translate(295,55)"/>
<path d="M0 0 C0.64582031 0.433125 1.29164063 0.86625 1.95703125 1.3125 C2.28703125 -0.0075 2.61703125 -1.3275 2.95703125 -2.6875 C7.06875685 -2.71215746 11.18045403 -2.73033959 15.29223633 -2.74243164 C16.69198353 -2.7474708 18.09172545 -2.75430216 19.49145508 -2.76293945 C21.49948902 -2.7750232 23.50756082 -2.78019807 25.515625 -2.78515625 C27.33018188 -2.79301147 27.33018188 -2.79301147 29.18139648 -2.80102539 C31.95703125 -2.6875 31.95703125 -2.6875 32.95703125 -1.6875 C33.06299116 1.16981415 33.10380723 4.00308032 33.10229492 6.86108398 C33.10565353 7.75890594 33.10901215 8.65672791 33.11247253 9.58175659 C33.12202927 12.57404948 33.12392927 15.56628651 33.125 18.55859375 C33.12821387 20.64396691 33.13157804 22.72933984 33.13508606 24.81471252 C33.14109224 29.20566325 33.14292489 33.59659428 33.14233398 37.98754883 C33.14223331 43.56727325 33.15577944 49.14686768 33.17310619 54.72656155 C33.18433553 59.04649919 33.18624973 63.36640676 33.18572426 67.6863575 C33.18689207 69.73968 33.19124507 71.7930036 33.19905663 73.84631157 C33.35628321 119.52088249 33.35628321 119.52088249 19.80078125 133.54296875 C12.0983091 140.2076078 3.01219008 143.9151891 -7.04296875 145.3125 C-7.76742187 145.41433594 -8.491875 145.51617187 -9.23828125 145.62109375 C-11.16796875 145.75 -11.16796875 145.75 -15.04296875 145.3125 C-17.09321108 143.20195643 -17.83738702 141.92926655 -19.04296875 139.3125 C-19.56117188 138.260625 -20.079375 137.20875 -20.61328125 136.125 C-25.04296875 126.89476744 -25.04296875 126.89476744 -25.04296875 123.3125 C-24.02976562 123.05855469 -23.0165625 122.80460937 -21.97265625 122.54296875 C-20.62100217 122.19566874 -19.26944474 121.84799241 -17.91796875 121.5 C-17.2528125 121.33435547 -16.58765625 121.16871094 -15.90234375 120.99804688 C-9.24659482 119.2688572 -3.93570213 117.29062626 -0.04296875 111.3125 C1.46016041 107.62983355 1.95703125 105.33047629 1.95703125 101.3125 C1.17779297 101.81910156 1.17779297 101.81910156 0.3828125 102.3359375 C-0.31457031 102.78195313 -1.01195312 103.22796875 -1.73046875 103.6875 C-2.41496094 104.12835938 -3.09945312 104.56921875 -3.8046875 105.0234375 C-12.21499411 109.86706958 -22.47786731 109.62056162 -31.765625 107.4375 C-42.42379554 103.64792825 -49.78941946 97.32847358 -55.04296875 87.3125 C-63.68635475 67.94269591 -65.10274207 43.76482752 -58.29296875 23.5625 C-53.53241166 11.68726418 -46.67027163 2.52190994 -34.8671875 -2.99609375 C-23.59350371 -7.26898889 -10.21349085 -6.03587968 0 0 Z M-27.04296875 27.3125 C-28.70204975 30.55524923 -29.95735813 33.83854601 -31.04296875 37.3125 C-31.33494141 38.2096875 -31.33494141 38.2096875 -31.6328125 39.125 C-33.77085384 50.52788716 -32.46551544 63.46740663 -27.29296875 73.8125 C-23.82851597 77.66189198 -20.69116334 79.93898285 -15.578125 80.66015625 C-8.87127677 80.89212243 -4.74712345 79.41161897 0.57910156 75.27709961 C3.84928626 71.20011267 3.71437643 68.1547519 3.69140625 63.06640625 C3.70093323 62.17767319 3.71046021 61.28894012 3.72027588 60.37327576 C3.7324141 58.4981573 3.73162742 56.62291626 3.71875 54.74780273 C3.70707744 51.88632444 3.75930281 49.03075483 3.81640625 46.16992188 C3.82029186 44.34375413 3.82041647 42.51757372 3.81640625 40.69140625 C3.83684998 39.84123428 3.8572937 38.99106232 3.87835693 38.11512756 C3.81052028 34.6199864 3.71093105 32.25509305 1.48156738 29.46774292 C-4.7265814 23.97887638 -9.66704837 22.83109641 -17.90625 23.015625 C-22.16045219 23.41826431 -24.11481586 24.15910458 -27.04296875 27.3125 Z " fill="#000000" transform="translate(822.04296875,93.6875)"/>
<path d="M0 0 C1.18142578 -0.020625 2.36285156 -0.04125 3.58007812 -0.0625 C16.06469913 -0.1178335 27.18427363 2.82897688 36.5625 11.4375 C43.5918554 18.89188619 45.97366443 27.26207576 45.92602539 37.23144531 C45.92617142 38.0318222 45.92631744 38.8321991 45.9264679 39.65682983 C45.9257723 42.29728931 45.9179964 44.93767788 45.91015625 47.578125 C45.90829082 49.41086793 45.90686751 51.24361137 45.90586853 53.07635498 C45.90205322 57.89649842 45.89223133 62.71661165 45.88116455 67.53674316 C45.87092925 72.45678295 45.86636637 77.37682763 45.86132812 82.296875 C45.85060819 91.94793206 45.83301935 101.59895879 45.8125 111.25 C36.2425 111.25 26.6725 111.25 16.8125 111.25 C16.8125 109.6 16.8125 107.95 16.8125 106.25 C15.99265625 106.67152344 15.1728125 107.09304687 14.328125 107.52734375 C13.25046875 108.07519531 12.1728125 108.62304688 11.0625 109.1875 C9.99515625 109.73277344 8.9278125 110.27804688 7.828125 110.83984375 C-1.41784582 115.16341301 -13.27002702 114.62517967 -22.80371094 111.34594727 C-23.48723633 111.08740967 -24.17076172 110.82887207 -24.875 110.5625 C-25.52114258 110.31878662 -26.16728516 110.07507324 -26.83300781 109.82397461 C-36.6683007 105.74909594 -42.0919464 98.03788324 -46.5625 88.6875 C-49.66207909 80.33947397 -49.60099424 69.93544915 -46.4375 61.625 C-41.4658905 51.24719976 -34.75071507 45.51418739 -24.1875 41.25 C-17.46534669 39.12450514 -11.20781058 38.94786898 -4.1875 39 C-2.62515625 38.98839844 -2.62515625 38.98839844 -1.03125 38.9765625 C4.93519224 38.99162927 10.09805301 39.51918192 15.8125 41.25 C15.69740339 39.83249437 15.56996342 38.41598831 15.4375 37 C15.33308594 35.81664063 15.33308594 35.81664063 15.2265625 34.609375 C14.78733944 32.1066323 14.16390671 30.3974408 12.8125 28.25 C3.67193829 22.68617983 -7.05314998 25.14839982 -16.9609375 27.30078125 C-20.2723237 28.15066392 -20.2723237 28.15066392 -23.3515625 29.98046875 C-26.1875 31.25 -26.1875 31.25 -28.37109375 30.76953125 C-30.76037385 28.77075715 -31.84236087 26.71148751 -33.25 23.9375 C-34.71864773 21.08201251 -36.15676768 18.2987011 -37.87109375 15.58203125 C-39.1875 13.25 -39.1875 13.25 -39.1875 10.25 C-25.69623653 3.19619219 -15.20852133 0.06530766 0 0 Z M-15.5625 65.1875 C-18.66350696 69.12339345 -18.69874308 73.42970813 -18.1875 78.25 C-16.5975514 82.4633638 -15.10799224 85.01882555 -11.1875 87.25 C-8.35128444 87.62679898 -5.83506349 87.82112752 -3 87.8125 C-2.24130615 87.8115332 -1.4826123 87.81056641 -0.70092773 87.80957031 C4.93317093 87.63333498 8.7208026 86.46000425 13.24609375 82.953125 C16.61317214 79.29216196 17.05454647 76.41595162 16.9375 71.5 C16.91945313 70.51515625 16.90140625 69.5303125 16.8828125 68.515625 C16.85960937 67.76796875 16.83640625 67.0203125 16.8125 66.25 C7.82345411 60.5630526 -6.58054116 57.86011253 -15.5625 65.1875 Z " fill="#000000" transform="translate(702.1875,88.75)"/>
<path d="M0 0 C9.85451724 8.86466618 15.45407767 23.15552658 16.29980469 36.20996094 C16.50686617 42.27214711 16.71835091 48.4669052 16.125 54.51171875 C15.125 55.51171875 15.125 55.51171875 12.61302185 55.63197327 C11.49605423 55.62975266 10.37908661 55.62753204 9.22827148 55.62524414 C7.96703964 55.62516861 6.7058078 55.62509308 5.40635681 55.62501526 C4.01960206 55.61990785 2.63284771 55.61469184 1.24609375 55.609375 C-0.16495209 55.60751076 -1.57599857 55.60608689 -2.98704529 55.60508728 C-6.70740535 55.60126254 -10.4277266 55.59143265 -14.14807129 55.5803833 C-17.94180781 55.57016823 -21.73555058 55.56558946 -25.52929688 55.56054688 C-32.97788231 55.54981033 -40.42643572 55.53273445 -47.875 55.51171875 C-47.42981158 57.11940636 -46.97478216 58.72437101 -46.515625 60.328125 C-46.13712402 61.66919312 -46.13712402 61.66919312 -45.75097656 63.03735352 C-44.06667738 67.79498235 -41.01905064 69.83462756 -36.8125 72.32421875 C-30.01657902 74.90045023 -22.35640261 74.48173407 -15.75 71.63671875 C-13.29389588 70.42216177 -11.83155753 69.46827628 -9.875 67.51171875 C-6.5703234 67.85147564 -4.73866071 69.20763138 -2.30859375 71.3828125 C-1.65826172 71.95708984 -1.00792969 72.53136719 -0.33789062 73.12304688 C0.33048828 73.72568359 0.99886719 74.32832031 1.6875 74.94921875 C3.02086385 76.13684581 4.35545287 77.32309913 5.69140625 78.5078125 C6.27865479 79.03560303 6.86590332 79.56339355 7.47094727 80.10717773 C9.28214423 81.70007054 9.28214423 81.70007054 12.125 83.51171875 C8.69801554 91.92340789 0.25959561 95.9833194 -7.453125 99.78125 C-20.31769811 104.98221313 -36.25500428 104.35818093 -48.93359375 98.984375 C-62.78724727 92.04834927 -71.04552817 81.93911007 -76.23828125 67.48388672 C-82.06403268 49.43924711 -79.25002428 29.20618086 -70.875 12.51171875 C-68.5053239 8.84459602 -65.89569718 5.65851714 -62.875 2.51171875 C-62.24722656 1.85558594 -61.61945313 1.19945313 -60.97265625 0.5234375 C-43.45841701 -16.20284006 -17.97174518 -14.26507273 0 0 Z M-43.6875 20.13671875 C-46.56533216 24.14679695 -46.56533216 24.14679695 -47.875 32.51171875 C-36.325 32.51171875 -24.775 32.51171875 -12.875 32.51171875 C-14.55529605 23.58890683 -14.55529605 23.58890683 -19.875 17.51171875 C-28.33702141 12.90558751 -36.44698476 13.37890453 -43.6875 20.13671875 Z " fill="#000000" transform="translate(499.875,99.48828125)"/>
<path d="M0 0 C11.43422334 9.77357971 17.3303802 21.32377598 20.26953125 36.01953125 C20.26953125 43.60953125 20.26953125 51.19953125 20.26953125 59.01953125 C-0.85046875 59.01953125 -21.97046875 59.01953125 -43.73046875 59.01953125 C-40.70278751 69.84480521 -40.70278751 69.84480521 -32.66796875 75.83203125 C-26.80224845 78.05563764 -19.94561827 78.09279648 -14.02734375 76.1171875 C-12.4886447 75.41980938 -10.96688709 74.68269697 -9.47265625 73.89453125 C-7.73046875 73.01953125 -7.73046875 73.01953125 -5.73046875 73.01953125 C-5.73046875 72.35953125 -5.73046875 71.69953125 -5.73046875 71.01953125 C-2.58790594 71.60918969 -0.80322215 72.52400474 1.58203125 74.63671875 C2.18273437 75.16136719 2.7834375 75.68601562 3.40234375 76.2265625 C4.01851562 76.77699219 4.6346875 77.32742187 5.26953125 77.89453125 C6.49777421 78.97631009 7.72691658 80.05706875 8.95703125 81.13671875 C9.529375 81.64041992 10.10171875 82.14412109 10.69140625 82.66308594 C12.48748525 84.20686919 14.34306799 85.64211002 16.26953125 87.01953125 C13.96936083 93.9682136 8.82370424 97.61979429 2.47460938 100.96533203 C-10.84784822 107.26179549 -26.31985407 108.78506768 -40.43798828 104.21582031 C-53.24518042 99.45790097 -62.39687616 91.06779858 -68.73046875 79.01953125 C-75.73120548 62.34888057 -77.11248947 40.97707651 -70.21484375 24.04296875 C-64.24371243 11.88071706 -57.78485767 3.47146089 -45.73046875 -2.98046875 C-44.80234375 -3.55796875 -43.87421875 -4.13546875 -42.91796875 -4.73046875 C-28.71186834 -10.30148852 -12.42313664 -9.01077293 0 0 Z M-39.54296875 23.64453125 C-42.42080091 27.65460945 -42.42080091 27.65460945 -43.73046875 36.01953125 C-32.18046875 36.01953125 -20.63046875 36.01953125 -8.73046875 36.01953125 C-10.4107648 27.09671933 -10.4107648 27.09671933 -15.73046875 21.01953125 C-24.19249016 16.41340001 -32.30245351 16.88671703 -39.54296875 23.64453125 Z " fill="#000000" transform="translate(940.73046875,95.98046875)"/>
<path d="M0 0 C10.23067066 6.15517399 16.63655932 14.92808025 19.94772339 26.38890076 C21.84617794 34.66550447 21.63562174 42.94465273 21.578125 51.37890625 C21.57438767 53.00129012 21.57154411 54.62367628 21.56954956 56.24606323 C21.56196974 60.48419598 21.54237086 64.72218827 21.5201416 68.96026611 C21.49956037 73.29771017 21.49052177 77.63517727 21.48046875 81.97265625 C21.45911874 90.45970657 21.42398375 98.94661642 21.3828125 107.43359375 C11.8128125 107.43359375 2.2428125 107.43359375 -7.6171875 107.43359375 C-7.64296875 102.96441406 -7.66875 98.49523437 -7.6953125 93.890625 C-7.72052485 91.03314846 -7.74689112 88.17577322 -7.77734375 85.31835938 C-7.82540866 80.79825672 -7.86955297 76.278389 -7.88818359 71.75805664 C-7.90350052 68.10728638 -7.93820459 64.45713733 -7.98549652 60.80664635 C-8.00015747 59.42469417 -8.00821957 58.04265323 -8.00907135 56.66062355 C-8.02126399 46.78318098 -8.33364271 35.50621258 -14.9921875 27.62109375 C-21.2216846 25.58039642 -28.436154 25.07303806 -34.75390625 27.12890625 C-38.44499975 29.34170286 -40.10367306 32.53031968 -41.6171875 36.43359375 C-42.58056999 40.34156288 -42.76872002 44.04095202 -42.82250977 48.05981445 C-42.83735916 49.02651314 -42.83735916 49.02651314 -42.85250854 50.01274109 C-42.88392137 52.12824924 -42.90880029 54.2437798 -42.93359375 56.359375 C-42.95418078 57.83197083 -42.9751777 59.30456099 -42.99656677 60.77714539 C-43.05160693 64.64205308 -43.10109536 68.50701249 -43.14941406 72.37200928 C-43.20862251 77.01521681 -43.27475057 81.65833037 -43.33971405 86.30146027 C-43.43749621 93.34544708 -43.52650752 100.3894958 -43.6171875 107.43359375 C-53.5171875 107.43359375 -63.4171875 107.43359375 -73.6171875 107.43359375 C-73.63973578 93.49979755 -73.65810099 79.56601338 -73.66899967 65.6322031 C-73.67422918 59.16291695 -73.68132806 52.69364386 -73.69262695 46.22436523 C-73.70345342 39.98689075 -73.70946382 33.74942888 -73.71206474 27.51194572 C-73.71391943 25.12639098 -73.71754086 22.74083696 -73.72291756 20.35528755 C-73.73012479 17.02663784 -73.73117858 13.69804096 -73.73071289 10.36938477 C-73.73430817 9.37245102 -73.73790344 8.37551727 -73.74160767 7.34837341 C-73.740233 6.44668427 -73.73885834 5.54499512 -73.73744202 4.61598206 C-73.73836381 3.82784905 -73.7392856 3.03971605 -73.74023533 2.22770023 C-73.6171875 0.43359375 -73.6171875 0.43359375 -72.6171875 -0.56640625 C-70.47159923 -0.6541623 -68.32314329 -0.67335844 -66.17578125 -0.6640625 C-64.87060547 -0.66083984 -63.56542969 -0.65761719 -62.22070312 -0.65429688 C-60.8320306 -0.64594026 -59.44335873 -0.6374753 -58.0546875 -0.62890625 C-56.66211094 -0.62389291 -55.26953269 -0.61932972 -53.87695312 -0.61523438 C-50.4569888 -0.60340059 -47.03710906 -0.58691505 -43.6171875 -0.56640625 C-43.2871875 1.08359375 -42.9571875 2.73359375 -42.6171875 4.43359375 C-41.85535156 3.92699219 -41.85535156 3.92699219 -41.078125 3.41015625 C-40.38976563 2.96414062 -39.70140625 2.518125 -38.9921875 2.05859375 C-38.31929687 1.61773437 -37.64640625 1.176875 -36.953125 0.72265625 C-26.86665114 -4.84345809 -10.43648995 -4.72750093 0 0 Z " fill="#000000" transform="translate(1148.6171875,91.56640625)"/>
<path d="M0 0 C0.90814453 -0.020625 1.81628906 -0.04125 2.75195312 -0.0625 C14.94487243 -0.13232345 25.20747207 4.65097366 34.0625 13 C38.12849384 17.30372331 41.06891327 22.02412052 43.8125 27.25 C44.4003125 28.36375 44.4003125 28.36375 45 29.5 C52.20607106 44.33602866 51.98857881 64.8138646 46.8125 80.25 C40.87889055 94.23981089 31.62708653 105.19546506 17.5625 111.0625 C5.1978543 115.2059717 -8.04895187 114.86615155 -20.10546875 109.85546875 C-32.43298429 103.43391123 -41.81126852 92.44500099 -46.1875 79.25 C-51.01933965 60.31230588 -50.74092789 40.98287437 -41.26953125 23.515625 C-35.78504742 14.91332015 -29.49900701 8.46788033 -20.1875 4.25 C-19.094375 3.6725 -18.00125 3.095 -16.875 2.5 C-11.30185859 -0.0921588 -6.05477763 0.03366103 0 0 Z M-11.7578125 31.359375 C-18.96016623 40.88379906 -20.04684888 52.75166998 -19.1875 64.25 C-17.67053804 71.65277439 -15.10817642 78.30623519 -9.1875 83.25 C-4.71325391 86.00695246 -0.28892318 85.74394732 4.8125 85.25 C10.68292605 83.44371506 13.94446092 79.51230179 16.8125 74.25 C21.26374228 62.27999266 20.79945038 50.29027247 16.8125 38.25 C14.47397636 33.57295272 11.50893226 30.57137937 6.8125 28.25 C0.42581481 27.2798706 -6.63554249 26.92517111 -11.7578125 31.359375 Z " fill="#000000" transform="translate(1230.1875,88.75)"/>
<path d="M0 0 C0 13.53 0 27.06 0 41 C8.18252797 40.9604086 8.18252797 40.9604086 16.36499023 40.90991211 C17.37762939 40.90741455 18.39026855 40.90491699 19.43359375 40.90234375 C20.47572021 40.89710693 21.51784668 40.89187012 22.59155273 40.88647461 C25 41 25 41 26 42 C26.09971786 43.91458282 26.13080589 45.83282317 26.1328125 47.75 C26.13410156 48.9153125 26.13539063 50.080625 26.13671875 51.28125 C26.13285156 52.5084375 26.12898437 53.735625 26.125 55 C26.12886719 56.2271875 26.13273438 57.454375 26.13671875 58.71875 C26.13542969 59.8840625 26.13414062 61.049375 26.1328125 62.25 C26.13168457 63.32765625 26.13055664 64.4053125 26.12939453 65.515625 C26 68 26 68 25 69 C23.14630389 69.08737645 21.28932459 69.10698153 19.43359375 69.09765625 C18.30888672 69.09443359 17.18417969 69.09121094 16.02539062 69.08789062 C14.84138672 69.07951172 13.65738281 69.07113281 12.4375 69.0625 C11.24962891 69.05798828 10.06175781 69.05347656 8.83789062 69.04882812 C5.89187774 69.03699675 2.94596319 69.02051287 0 69 C0.04160867 76.0479574 0.11387524 83.09512124 0.20751953 90.14257812 C0.23575465 92.5402917 0.25695646 94.93809879 0.27099609 97.3359375 C0.29238972 100.78173797 0.3390238 104.22641095 0.390625 107.671875 C0.39185364 108.74491882 0.39308228 109.81796265 0.39434814 110.92352295 C0.41406677 111.92425842 0.4337854 112.9249939 0.45410156 113.95605469 C0.46298401 114.83541687 0.47186646 115.71477905 0.48101807 116.62078857 C1.17570366 119.80549269 2.46087846 121.01167415 5 123 C12.06893644 124.07831234 16.10326099 121.65775164 22 118 C23.32593754 117.31874244 24.65712883 116.64723971 26 116 C25.60410643 123.08512982 24.7830288 130.06573334 23.625 137.0625 C23.51115967 137.80040771 23.39731934 138.53831543 23.2800293 139.29858398 C22.78955784 142.12852901 22.36184888 144.48738075 20.6875 146.859375 C12.09389009 152.66801874 1.05269714 153.62776745 -9 152 C-17.79848681 149.0126068 -23.00484181 143.97530185 -27.25 135.875 C-29.52888329 131.22383656 -30.12460258 127.31400546 -30.11352539 122.12988281 C-30.11344986 120.94896057 -30.11337433 119.76803833 -30.11329651 118.55133057 C-30.10813522 117.28142273 -30.10297394 116.01151489 -30.09765625 114.703125 C-30.0962413 113.39921814 -30.09482635 112.09531128 -30.09336853 110.75189209 C-30.08955867 107.29296945 -30.07974151 103.83408909 -30.06866455 100.37518311 C-30.05841746 96.84257581 -30.05386385 93.30996164 -30.04882812 89.77734375 C-30.03811782 82.85154518 -30.02105984 75.92577462 -30 69 C-31.21558594 69.01160156 -32.43117188 69.02320312 -33.68359375 69.03515625 C-35.26822764 69.04453278 -36.85286318 69.05363313 -38.4375 69.0625 C-39.23994141 69.07087891 -40.04238281 69.07925781 -40.86914062 69.08789062 C-42.91295221 69.0965143 -44.95683902 69.0522815 -47 69 C-48 68 -48 68 -48.11352539 65.40795898 C-48.10828857 64.28204346 -48.10305176 63.15612793 -48.09765625 61.99609375 C-48.09443359 60.78115234 -48.09121094 59.56621094 -48.08789062 58.31445312 C-48.07951172 57.03505859 -48.07113281 55.75566406 -48.0625 54.4375 C-48.05798828 53.15423828 -48.05347656 51.87097656 -48.04882812 50.54882812 C-48.03699555 47.3658658 -48.01905944 44.18292726 -48 41 C-42.06 41 -36.12 41 -30 41 C-30 31.76 -30 22.52 -30 13 C-27.03 11.4325 -24.06 9.865 -21 8.25 C-20.08089844 7.7643457 -19.16179688 7.27869141 -18.21484375 6.77832031 C-16.62185124 5.93878867 -15.0266061 5.10352374 -13.4296875 4.27148438 C-11.84469102 3.44203686 -10.26614417 2.60011076 -8.6953125 1.74414062 C-3.33055556 -1.11018519 -3.33055556 -1.11018519 0 0 Z " fill="#000000" transform="translate(619,50)"/>
<path d="M0 0 C5.45416667 3.74305556 5.45416667 3.74305556 7.1875 5.1875 C5.80493916 11.58991958 4.25127601 17.92199919 2.5625 24.25 C2.33304688 25.11560547 2.10359375 25.98121094 1.8671875 26.87304688 C1.30889114 28.9782894 0.74842611 31.08295662 0.1875 33.1875 C-3.26239538 33.1875 -4.38032019 32.40111158 -7.3125 30.6875 C-14.0484644 27.22103879 -19.99658382 27.21617588 -27.25 29.0625 C-32.02567162 33.02281305 -33.52859935 38.62562177 -34.19885254 44.67388916 C-34.36906996 48.72726469 -34.41951916 52.76421859 -34.421875 56.8203125 C-34.4368846 58.30819473 -34.4536175 59.79606047 -34.47198486 61.28390503 C-34.51535962 65.16687864 -34.53559032 69.04962764 -34.55072021 72.93280029 C-34.57387087 77.60959252 -34.62626531 82.28614074 -34.67366028 86.96273804 C-34.74213644 94.03772174 -34.77385722 101.11200761 -34.8125 108.1875 C-44.7125 108.1875 -54.6125 108.1875 -64.8125 108.1875 C-64.8350482 94.12331999 -64.85341345 80.05915188 -64.86431217 65.99495792 C-64.8695417 59.46513767 -64.87664061 52.93533037 -64.88793945 46.40551758 C-64.89876585 40.10968841 -64.90477631 33.81387174 -64.90737724 27.51803398 C-64.90923194 25.11015056 -64.9128534 22.70226786 -64.91823006 20.29438972 C-64.9254372 16.93460714 -64.92649108 13.5748769 -64.92602539 10.21508789 C-64.92962067 9.20880341 -64.93321594 8.20251892 -64.93692017 7.16574097 C-64.9355455 6.25563766 -64.93417084 5.34553436 -64.93275452 4.40785217 C-64.93413721 3.21459116 -64.93413721 3.21459116 -64.93554783 1.99722385 C-64.8125 0.1875 -64.8125 0.1875 -63.8125 -0.8125 C-61.73987924 -0.90017112 -59.66429706 -0.91945873 -57.58984375 -0.91015625 C-56.32978516 -0.90693359 -55.06972656 -0.90371094 -53.77148438 -0.90039062 C-52.43098891 -0.89203403 -51.09049412 -0.88356907 -49.75 -0.875 C-48.40560058 -0.8699866 -47.0611994 -0.86542342 -45.71679688 -0.86132812 C-42.41532059 -0.84949488 -39.11393197 -0.83300971 -35.8125 -0.8125 C-35.1525 0.8375 -34.4925 2.4875 -33.8125 4.1875 C-33.28140625 3.83816406 -32.7503125 3.48882812 -32.203125 3.12890625 C-31.49671875 2.67386719 -30.7903125 2.21882813 -30.0625 1.75 C-29.36640625 1.29753906 -28.6703125 0.84507813 -27.953125 0.37890625 C-20.81375538 -3.59464801 -7.34291995 -3.65055982 0 0 Z " fill="#000000" transform="translate(1039.8125,90.8125)"/>
<path d="M0 0 C0 49.5 0 99 0 150 C-9.57 150 -19.14 150 -29 150 C-29 105.12 -29 60.24 -29 14 C-2.4 0 -2.4 0 0 0 Z " fill="#000000" transform="translate(560,49)"/>
<path d="M0 0 C5.34432712 2.96339362 8.5087317 7.47091461 10.48046875 13.1953125 C11.50381375 19.04558567 10.81932562 24.18431812 7.89453125 29.37109375 C4.90241346 33.231091 0.82360109 36.02374633 -3.51953125 38.1953125 C-10.95799088 39.11206493 -16.59661762 38.70643513 -22.60546875 34.01953125 C-27.45703647 29.39569018 -29.78420764 25.4269136 -30.08203125 18.6328125 C-29.74887178 11.94185989 -27.4643058 8.38318387 -23.01953125 3.3828125 C-16.65726017 -2.1841747 -7.97197648 -2.54608861 0 0 Z " fill="#000000" transform="translate(1052.51953125,163.8046875)"/>
</svg>
