<svg width="72" height="28" viewBox="0 0 72 28" fill="none" xmlns="http://www.w3.org/2000/svg">
<path d="M6.05024 0.933929H1.00342V5.98075H6.05024V0.933929Z" fill="black"/>
<path d="M5.92453 27.2277V9.03399H1.12915V27.2097H5.92453V27.2277ZM37.6782 27.4073V22.9532C36.9778 22.9532 36.3851 22.9172 35.954 22.8454C35.4512 22.7736 35.074 22.594 34.8225 22.3425C34.5711 22.0911 34.4095 21.7319 34.3197 21.247C34.2478 20.7979 34.2119 20.2053 34.2119 19.4868V13.1469H37.6782V9.03399H34.2119V1.95766H29.4165V19.5407C29.4165 21.0314 29.5422 22.2886 29.7937 23.2944C30.0451 24.2822 30.4762 25.0904 31.0689 25.7011C31.6615 26.3117 32.4518 26.7428 33.4037 27.0122C34.3735 27.2816 35.5948 27.4073 37.0496 27.4073H37.6782ZM65.1215 27.2277V0.556763H60.3261V27.2277H65.1215ZM24.8007 10.83C23.4717 9.3932 21.6038 8.67479 19.2331 8.67479C18.0836 8.67479 17.024 8.90827 16.09 9.37524C15.1381 9.8422 14.3479 10.4888 13.7013 11.3149L13.4499 11.6562V11.3509V9.03399H8.72633V27.2097H13.4858V17.5292V18.1937C13.4858 18.0859 13.4858 17.9782 13.4858 17.8704C13.5397 16.1642 13.9528 14.907 14.743 14.0988C15.5871 13.2367 16.6109 12.8056 17.7783 12.8056C19.1612 12.8056 20.2209 13.2367 20.9213 14.0629C21.6038 14.889 21.963 16.0564 21.963 17.5471V17.601V27.2097H26.7943V16.9006C26.8123 14.3143 26.1298 12.2668 24.8007 10.83ZM57.8476 18.1039C57.8476 16.7928 57.6141 15.5715 57.1651 14.4221C56.6981 13.2906 56.0515 12.2848 55.2433 11.4227C54.4172 10.5606 53.4294 9.89608 52.2799 9.41116C51.1304 8.92623 49.8553 8.69275 48.4723 8.69275C47.1612 8.69275 45.922 8.94419 44.7725 9.42912C43.6231 9.932 42.6173 10.5965 41.7732 11.4407C40.929 12.2848 40.2465 13.2906 39.7616 14.44C39.2587 15.5895 39.0252 16.8287 39.0252 18.1398C39.0252 19.4509 39.2587 20.6902 39.7257 21.8396C40.1927 22.9891 40.8572 23.9949 41.6834 24.839C42.5095 25.6831 43.5333 26.3656 44.7186 26.8505C45.904 27.3534 47.2151 27.6049 48.616 27.6049C52.675 27.6049 55.1894 25.755 56.6981 24.0308L53.2497 21.4086C52.5313 22.2707 50.8072 23.4381 48.6519 23.4381C47.3049 23.4381 46.1914 23.1328 45.3472 22.5042C44.5031 21.8935 43.9284 21.0314 43.6231 19.9718L43.5692 19.8101H57.8476V18.1039ZM43.6051 16.4336C43.6051 15.1046 45.1317 12.7877 48.4184 12.7697C51.7052 12.7697 53.2497 15.0866 53.2497 16.4156L43.6051 16.4336ZM70.5814 24.9288C70.4916 24.7133 70.3658 24.5337 70.2042 24.372C70.0426 24.2104 69.863 24.0847 69.6474 23.9949C69.4319 23.9051 69.1984 23.8512 68.965 23.8512C68.7135 23.8512 68.498 23.9051 68.2825 23.9949C68.0669 24.0847 67.8873 24.2104 67.7257 24.372C67.5641 24.5337 67.4383 24.7133 67.3485 24.9288C67.2587 25.1443 67.2048 25.3778 67.2048 25.6113C67.2048 25.8627 67.2587 26.0782 67.3485 26.2938C67.4383 26.5093 67.5641 26.6889 67.7257 26.8505C67.8873 27.0122 68.0669 27.1379 68.2825 27.2277C68.498 27.3175 68.7315 27.3714 68.965 27.3714C69.2164 27.3714 69.4319 27.3175 69.6474 27.2277C69.863 27.1379 70.0426 27.0122 70.2042 26.8505C70.3658 26.6889 70.4916 26.5093 70.5814 26.2938C70.6712 26.0782 70.7251 25.8448 70.7251 25.6113C70.7251 25.3778 70.6712 25.1443 70.5814 24.9288ZM70.294 26.186C70.2222 26.3656 70.1144 26.5273 69.9887 26.653C69.863 26.7787 69.7013 26.8865 69.5217 26.9583C69.3421 27.0301 69.1625 27.0661 68.947 27.0661C68.7494 27.0661 68.5519 27.0301 68.3723 26.9583C68.1927 26.8865 68.031 26.7787 67.9053 26.653C67.7796 26.5273 67.6718 26.3656 67.6 26.186C67.5281 26.0064 67.4922 25.8268 67.4922 25.6113C67.4922 25.4137 67.5281 25.2162 67.6 25.0366C67.6718 24.857 67.7796 24.6953 67.9053 24.5696C68.031 24.4439 68.1927 24.3361 68.3723 24.2643C68.5519 24.1924 68.7315 24.1565 68.947 24.1565C69.1446 24.1565 69.3421 24.1924 69.5217 24.2643C69.7013 24.3361 69.863 24.4439 69.9887 24.5696C70.1144 24.6953 70.2222 24.857 70.294 25.0366C70.3658 25.2162 70.4018 25.3958 70.4018 25.6113C70.4018 25.8268 70.3658 26.0064 70.294 26.186ZM69.2882 25.7729C69.4319 25.755 69.5397 25.7011 69.6295 25.6113C69.7193 25.5215 69.7732 25.3958 69.7732 25.2162C69.7732 25.0186 69.7193 24.8749 69.5936 24.7672C69.4858 24.6594 69.2882 24.6055 69.0547 24.6055H68.2645V26.635H68.6417V25.8088H68.9111L69.414 26.635H69.8091L69.2882 25.7729ZM69.0907 25.4676C69.0368 25.4676 68.9829 25.4676 68.9111 25.4676H68.6417V24.8929H68.9111C68.965 24.8929 69.0188 24.8929 69.0907 24.8929C69.1445 24.8929 69.1984 24.9108 69.2523 24.9288C69.3062 24.9468 69.3421 24.9827 69.3601 25.0186C69.396 25.0545 69.396 25.1084 69.396 25.1802C69.396 25.2521 69.378 25.306 69.3601 25.3419C69.3242 25.3778 69.2882 25.4137 69.2523 25.4317C69.1984 25.4496 69.1445 25.4676 69.0907 25.4676Z" fill="black"/>
</svg>
