<svg width="130" height="36" viewBox="0 0 130 36" fill="none" xmlns="http://www.w3.org/2000/svg">
<g clip-path="url(#clip0_2150_1744)">
<path fill-rule="evenodd" clip-rule="evenodd" d="M19.0749 0C29.0857 0 37.201 8.05888 37.201 18C37.201 27.9411 29.0857 36 19.0749 36C9.06408 36 0.94873 27.9411 0.94873 18C0.94873 8.05888 9.06408 0 19.0749 0ZM8.99963 25.3771C7.83547 25.3771 6.89173 26.3142 6.89173 27.4703C6.89173 28.6264 7.83547 29.5635 8.99963 29.5635C10.1638 29.5635 11.1075 28.6264 11.1075 27.4703C11.1075 26.3142 10.1638 25.3771 8.99963 25.3771ZM14.8572 17.9447C12.3801 17.9447 10.3721 19.9387 10.3721 22.3986C10.3721 24.8584 12.3801 26.8525 14.8572 26.8525C17.3343 26.8525 19.3423 24.8584 19.3423 22.3986C19.3423 19.9387 17.3343 17.9447 14.8572 17.9447ZM25.4989 4.72131C20.833 4.72131 17.0505 8.47744 17.0505 13.1109C17.0505 17.7443 20.833 21.5004 25.4989 21.5004C30.1648 21.5004 33.9472 17.7443 33.9472 13.1109C33.9472 8.47744 30.1648 4.72131 25.4989 4.72131Z" fill="black"/>
<path d="M19.9812 16.1483V9.9885H20.9952V16.1483H19.9812ZM26.4773 16.1483H22.9685V9.9885H26.4773V10.8396H23.9826V12.5165H26.3204V13.3591H23.9826V15.293H26.4773V16.1483ZM30.4571 10.7637C29.8744 10.7637 29.4162 10.9688 29.0824 11.3789C28.7486 11.789 28.5818 12.3549 28.5818 13.0768C28.5818 13.8324 28.7423 14.404 29.0633 14.7916C29.3844 15.1792 29.8489 15.3731 30.4571 15.3731C30.7201 15.3731 30.9747 15.3471 31.2208 15.2951C31.4669 15.2431 31.7228 15.1764 31.9887 15.095V15.9587C31.5022 16.1413 30.9506 16.2326 30.334 16.2326C29.4261 16.2326 28.7288 15.9594 28.2423 15.4131C27.7558 14.8668 27.5126 14.0852 27.5126 13.0684C27.5126 12.428 27.6307 11.8676 27.8668 11.3873C28.103 10.907 28.4446 10.539 28.8915 10.2834C29.3384 10.0278 29.8631 9.90002 30.4656 9.90002C31.0991 9.90002 31.6846 10.032 32.2221 10.2961L31.8572 11.1345C31.6479 11.0362 31.4265 10.9498 31.1932 10.8754C30.9598 10.801 30.7145 10.7637 30.4571 10.7637Z" fill="black"/>
<path fill-rule="evenodd" clip-rule="evenodd" d="M72.9867 6.89819C74.2236 6.89819 75.1513 7.22615 75.7764 7.88208C76.3989 8.53801 76.7095 9.47711 76.7095 10.6994V11.5911H71.1982C71.2223 11.9586 71.3 12.2655 71.4338 12.5144C71.5704 12.7607 71.7444 12.9583 71.9666 13.1045C72.1821 13.2507 72.4325 13.3547 72.7203 13.4193C73.0081 13.4825 73.3213 13.5141 73.6614 13.5141C73.9545 13.5141 74.2423 13.4825 74.5234 13.4179C74.8059 13.3547 75.0656 13.2717 75.2985 13.1664C75.5047 13.0781 75.6961 12.9793 75.8701 12.8753C76.0455 12.7712 76.1874 12.6804 76.2972 12.5987H76.5636V14.6468C76.3574 14.7258 76.1687 14.8009 75.9986 14.8694C75.8286 14.9392 75.5957 15.0077 75.2985 15.0788C75.0254 15.15 74.7443 15.2053 74.4565 15.2448C74.166 15.2843 73.8126 15.3054 73.395 15.3054C71.8729 15.3054 70.7069 14.9458 69.8944 14.2306C69.0831 13.5128 68.6775 12.4907 68.6775 11.1643C68.6775 9.8683 69.055 8.83304 69.8127 8.05857C70.5677 7.28542 71.6266 6.89819 72.9867 6.89819ZM81.1757 6.89819C81.742 6.89819 82.2653 6.95372 82.7442 7.06477C83.219 7.17583 83.6212 7.30936 83.9494 7.46405V9.48024H83.7477C83.6602 9.41413 83.5244 9.32423 83.3347 9.21317C83.1477 9.10344 82.9648 9.00825 82.7885 8.9276C82.576 8.83241 82.3392 8.75573 82.0769 8.69359C81.8133 8.63278 81.5456 8.60237 81.2725 8.60237C80.9066 8.60237 80.5972 8.66318 80.3443 8.78614C80.0928 8.90909 79.9663 9.07171 79.9663 9.27399C79.9663 9.45379 80.0296 9.59658 80.1533 9.70103C80.2798 9.80415 80.5502 9.90595 80.9698 10.0051C81.1851 10.0567 81.4353 10.1082 81.7164 10.1571C82.0003 10.2074 82.2706 10.2748 82.5303 10.3607C83.1114 10.5445 83.5526 10.8155 83.8553 11.1725C84.1539 11.5295 84.3073 12.0041 84.3073 12.5951C84.3073 12.9679 84.2171 13.3249 84.0396 13.6633C83.8607 14.0018 83.6078 14.286 83.2822 14.5174C82.9352 14.7686 82.5262 14.9616 82.0581 15.1005C81.5873 15.2366 81.025 15.3054 80.3712 15.3054C79.7753 15.3054 79.2103 15.2419 78.6763 15.1137C78.1463 14.9868 77.7064 14.836 77.3607 14.6668V12.5686H77.5679C77.6889 12.6572 77.8248 12.7564 77.9808 12.8648C78.1329 12.9732 78.3481 13.0869 78.6212 13.2046C78.8579 13.313 79.1229 13.4055 79.4202 13.4849C79.7148 13.5629 80.0349 13.6012 80.382 13.6012C80.7385 13.6012 81.0519 13.547 81.325 13.4386C81.5954 13.3302 81.7326 13.157 81.7326 12.9203C81.7326 12.7379 81.6693 12.5977 81.5429 12.5025C81.4191 12.4087 81.1757 12.3188 80.8152 12.2342C80.6201 12.1866 80.3793 12.135 80.0847 12.0795C79.7901 12.0253 79.5305 11.9644 79.3045 11.8931C78.6682 11.6987 78.1907 11.4118 77.8719 11.0311C77.5517 10.649 77.3917 10.1505 77.3917 9.53048C77.3917 9.17483 77.4737 8.84034 77.6419 8.52569C77.8073 8.21235 78.0508 7.93207 78.375 7.68483C78.6951 7.44421 79.0947 7.25251 79.5695 7.11105C80.043 6.96826 80.5784 6.89819 81.1757 6.89819ZM88.2014 4.95807V7.22725H90.6026V8.95114H88.2014V11.7604C88.2014 12.0376 88.2041 12.2794 88.2094 12.4857C88.2147 12.6946 88.2507 12.8798 88.3238 13.0441C88.389 13.2083 88.5087 13.3397 88.6777 13.4356C88.844 13.5329 89.0901 13.5802 89.412 13.5802C89.5477 13.5802 89.7219 13.5526 89.9374 13.4974C90.1529 13.4422 90.3033 13.391 90.3897 13.345H90.6026V15.0807C90.3325 15.1503 90.0439 15.2055 89.7392 15.2449C89.4333 15.2844 89.0621 15.3054 88.6178 15.3054C87.5988 15.3054 86.8592 15.0991 86.3936 14.6839C85.9307 14.2713 85.6965 13.5933 85.6965 12.6525V8.95114H84.7414V7.22725H85.6965V4.95807H88.2014ZM109.456 6.89819C110.693 6.89819 111.621 7.22615 112.246 7.88208C112.868 8.53801 113.179 9.47711 113.179 10.6994V11.5911H107.668C107.692 11.9586 107.769 12.2655 107.903 12.5144C108.038 12.7607 108.214 12.9583 108.436 13.1045C108.65 13.2507 108.902 13.3547 109.19 13.4193C109.477 13.4825 109.791 13.5141 110.131 13.5141C110.424 13.5141 110.71 13.4825 110.993 13.4179C111.275 13.3547 111.535 13.2717 111.768 13.1664C111.974 13.0781 112.164 12.9793 112.34 12.8753C112.515 12.7712 112.657 12.6804 112.767 12.5987H113.033V14.6468C112.827 14.7258 112.638 14.8009 112.468 14.8694C112.298 14.9392 112.065 15.0077 111.768 15.0788C111.495 15.15 111.212 15.2053 110.926 15.2448C110.635 15.2843 110.282 15.3054 109.864 15.3054C108.342 15.3054 107.176 14.9458 106.362 14.2306C105.553 13.5128 105.147 12.4907 105.147 11.1643C105.147 9.8683 105.523 8.83304 106.282 8.05857C107.037 7.28542 108.096 6.89819 109.456 6.89819ZM49.2957 7.1586V15.0898H46.8234V7.1586H49.2957ZM56.3544 6.89819C57.1817 6.89819 57.8153 7.15472 58.2525 7.66909C58.6897 8.18082 58.909 8.92527 58.909 9.8998V15.0898H56.3652V11.1361C56.3652 10.8135 56.353 10.4935 56.3261 10.1735C56.3006 9.85484 56.2495 9.61947 56.1782 9.46741C56.0907 9.28758 55.967 9.15931 55.8028 9.0813C55.6401 9.00196 55.4208 8.96361 55.1477 8.96361C54.9419 8.96361 54.7334 9.00064 54.5209 9.07733C54.3097 9.15403 54.0837 9.27303 53.8429 9.43832V15.0898H51.3112V7.11505H53.8429V7.99834C54.2572 7.65322 54.6594 7.38347 55.0522 7.18777C55.445 6.99472 55.8782 6.89819 56.3544 6.89819ZM62.4007 7.11376L64.0495 12.3866L65.6718 7.11376H68.2434L65.3646 15.0898H62.6348L59.7773 7.11376H62.4007ZM101.414 6.89819C101.787 6.89819 102.121 6.95637 102.419 7.07406C102.715 7.19306 102.965 7.37157 103.171 7.60826C103.395 7.86347 103.562 8.16759 103.675 8.51932C103.787 8.87238 103.844 9.33253 103.844 9.8998V15.0898H101.318V11.1071C101.318 10.7143 101.31 10.3824 101.297 10.114C101.281 9.84426 101.239 9.62344 101.166 9.45286C101.096 9.28229 100.984 9.15931 100.834 9.0813C100.683 9.00196 100.474 8.96361 100.203 8.96361C100.012 8.96361 99.8235 9.00461 99.6363 9.08791C99.4505 9.16989 99.25 9.28758 99.0308 9.43832V15.0898H96.503V11.1071C96.503 10.7196 96.4949 10.389 96.4762 10.1167C96.4615 9.84559 96.4174 9.62344 96.3439 9.45286C96.273 9.28229 96.1607 9.15931 96.0097 9.0813C95.8613 9.00196 95.6488 8.96361 95.3828 8.96361C95.1769 8.96361 94.975 9.01122 94.7799 9.1051C94.5834 9.20031 94.3909 9.31138 94.2051 9.43832V15.0898H91.688V7.11505H94.2051V7.99834C94.6155 7.65322 95.0045 7.38347 95.3681 7.18777C95.733 6.99472 96.1407 6.89819 96.5965 6.89819C97.0885 6.89819 97.5216 7.01323 97.8945 7.24463C98.2675 7.47736 98.5522 7.8238 98.7514 8.28131C99.2313 7.83702 99.6884 7.49587 100.114 7.25653C100.543 7.0172 100.976 6.89819 101.414 6.89819ZM72.7939 8.49322C72.304 8.49322 71.9224 8.63679 71.648 8.92392C71.3709 9.21237 71.2196 9.60356 71.1902 10.0988H74.2316C74.2156 9.57458 74.0924 9.17681 73.8595 8.90417C73.6279 8.6302 73.2718 8.49322 72.7939 8.49322ZM109.263 8.49322C108.773 8.49322 108.392 8.63679 108.117 8.92392C107.84 9.21237 107.689 9.60356 107.66 10.0988H110.701C110.685 9.57458 110.562 9.17681 110.329 8.90417C110.096 8.6302 109.741 8.49322 109.263 8.49322ZM49.3575 4.09579V6.02764H46.7525V4.09579H49.3575Z" fill="black"/>
<path fill-rule="evenodd" clip-rule="evenodd" d="M57.1412 23.7125C58.3781 23.7125 59.3058 24.0405 59.9283 24.6964C60.5521 25.3537 60.8627 26.2915 60.8627 27.5138V28.4054H55.3514C55.3742 28.7729 55.4545 29.0798 55.5884 29.3287C55.7222 29.5764 55.8989 29.7726 56.1198 29.9188C56.3353 30.0663 56.587 30.1704 56.8735 30.2336C57.1613 30.2968 57.4745 30.3298 57.8145 30.3298C58.1064 30.3298 58.3942 30.2968 58.6766 30.2336C58.9591 30.1704 59.2161 30.0861 59.4517 29.9807C59.6592 29.8925 59.848 29.7937 60.0233 29.6896C60.1973 29.5856 60.3406 29.4947 60.4504 29.4144H60.7167V31.4612C60.5106 31.5415 60.3232 31.6153 60.1532 31.6838C59.9832 31.7536 59.7489 31.8234 59.4517 31.8932C59.1786 31.9643 58.8975 32.0196 58.6084 32.0591C58.3192 32.0987 57.9658 32.1197 57.5481 32.1197C56.0274 32.1197 54.8601 31.7615 54.0476 31.045C53.2363 30.3271 52.8307 29.305 52.8307 27.98C52.8307 26.6827 53.2082 25.6474 53.9659 24.8729C54.7222 24.0998 55.7811 23.7125 57.1412 23.7125ZM74.1039 23.7125C75.4127 23.7125 76.4261 24.0865 77.1481 24.8371C77.8674 25.5863 78.229 26.6138 78.229 27.9194C78.229 29.2211 77.8687 30.2459 77.1507 30.9952C76.4327 31.7444 75.4166 32.1197 74.1039 32.1197C72.8003 32.1197 71.7869 31.7444 71.0636 30.9952C70.3403 30.2459 69.98 29.2211 69.98 27.9194C69.98 26.6046 70.3403 25.5745 71.0636 24.8305C71.7869 24.0852 72.8003 23.7125 74.1039 23.7125ZM86.6335 23.9281V27.8818C86.6335 28.2943 86.6443 28.6289 86.6658 28.8907C86.6873 29.1499 86.7384 29.3707 86.8205 29.5505C86.8971 29.7158 87.0168 29.8414 87.1769 29.926C87.3383 30.0107 87.5629 30.0543 87.8507 30.0543C88.0283 30.0543 88.2381 30.0107 88.4815 29.926C88.7236 29.8414 88.9482 29.7251 89.1554 29.5783V23.9281H91.688V31.9029H89.1554V31.0196C88.7182 31.3806 88.3161 31.653 87.9503 31.8394C87.5844 32.0272 87.1487 32.1197 86.6443 32.1197C85.8413 32.1197 85.2146 31.8711 84.7654 31.3713C84.3148 30.8715 84.0902 30.1204 84.0902 29.1181V23.9281H86.6335ZM107.751 23.7125C109.06 23.7125 110.075 24.0865 110.794 24.8371C111.516 25.5863 111.876 26.6138 111.876 27.9194C111.876 29.2211 111.516 30.2459 110.798 30.9952C110.08 31.7444 109.064 32.1197 107.751 32.1197C106.448 32.1197 105.434 31.7444 104.711 30.9952C103.988 30.2459 103.627 29.2211 103.627 27.9194C103.627 26.6046 103.988 25.5745 104.711 24.8305C105.434 24.0852 106.448 23.7125 107.751 23.7125ZM63.7032 23.9281L65.3507 29.201L66.9729 23.9281H69.5458L66.6671 31.9042H63.9372L61.0797 23.9281H63.7032ZM96.2339 21.5569V23.826H98.6345V25.5499H96.2339V28.3591C96.2339 28.6364 96.2366 28.8781 96.2406 29.0858C96.2459 29.2934 96.2831 29.4799 96.3549 29.6442C96.4201 29.8084 96.5385 29.9385 96.7074 30.0344C96.875 30.133 97.1223 30.1803 97.4442 30.1803C97.5785 30.1803 97.7514 30.1514 97.9682 30.0962C98.1836 30.041 98.3353 29.9897 98.419 29.9438H98.6345V31.6795C98.3619 31.7491 98.0746 31.8043 97.77 31.8437C97.4655 31.8845 97.0917 31.9042 96.6489 31.9042C95.6314 31.9042 94.8893 31.6979 94.4252 31.284C93.9623 30.8701 93.7296 30.1934 93.7296 29.2526V25.5499H92.7734V23.826H93.7296V21.5569H96.2339ZM118.223 23.7125C119.049 23.7125 119.683 23.9691 120.12 24.4834C120.557 24.9965 120.777 25.7396 120.777 26.7142V31.9042H118.233V27.9505C118.233 27.6292 118.221 27.3079 118.194 26.9879C118.168 26.6692 118.117 26.4338 118.046 26.2818C117.96 26.1019 117.835 25.9737 117.672 25.8957C117.508 25.8176 117.288 25.778 117.015 25.778C116.81 25.778 116.6 25.8163 116.389 25.8917C116.177 25.9684 115.951 26.0887 115.711 26.254V31.9042H113.179V23.9294H115.711V24.8127C116.125 24.4676 116.528 24.1978 116.92 24.0034C117.311 23.8091 117.746 23.7125 118.223 23.7125ZM82.1365 20.6946V31.6886H79.5315V20.6946H82.1365ZM102.047 23.7564V31.6886H99.575V23.7564H102.047ZM74.1039 25.4866C73.8813 25.4866 73.6813 25.5207 73.5011 25.589C73.3209 25.6572 73.1554 25.7858 73.0043 25.9787C72.8626 26.1624 72.7487 26.413 72.6639 26.7306C72.5791 27.0494 72.5367 27.451 72.5367 27.9339C72.5367 28.4167 72.5765 28.8065 72.6559 29.1043C72.7367 29.4022 72.8414 29.6397 72.9699 29.8182C73.101 30.0005 73.2666 30.1344 73.4653 30.2184C73.664 30.3037 73.8839 30.3457 74.1264 30.3457C74.3238 30.3457 74.5264 30.3037 74.7318 30.2184C74.9371 30.1344 75.1014 30.0084 75.2259 29.8391C75.3716 29.6384 75.4829 29.3943 75.5584 29.1122C75.6352 28.8288 75.6723 28.4351 75.6723 27.9339C75.6723 27.4654 75.6339 27.0744 75.5544 26.7634C75.4763 26.4511 75.369 26.2018 75.2325 26.0141C75.0855 25.8173 74.9199 25.6795 74.7357 25.6034C74.5503 25.5247 74.341 25.4866 74.1039 25.4866ZM107.751 25.4866C107.529 25.4866 107.329 25.5207 107.148 25.589C106.968 25.6572 106.803 25.7858 106.652 25.9787C106.51 26.1624 106.396 26.413 106.311 26.7306C106.226 27.0494 106.184 27.451 106.184 27.9339C106.184 28.4167 106.224 28.8065 106.305 29.1043C106.384 29.4022 106.489 29.6397 106.616 29.8182C106.748 30.0005 106.914 30.1344 107.113 30.2184C107.311 30.3037 107.531 30.3457 107.772 30.3457C107.971 30.3457 108.174 30.3037 108.379 30.2184C108.584 30.1344 108.749 30.0084 108.872 29.8391C109.019 29.6384 109.13 29.3943 109.206 29.1122C109.283 28.8288 109.32 28.4351 109.32 27.9339C109.32 27.4654 109.281 27.0744 109.203 26.7634C109.125 26.4511 109.016 26.2018 108.88 26.0141C108.733 25.8173 108.567 25.6795 108.383 25.6034C108.199 25.5247 107.988 25.4866 107.751 25.4866ZM56.9471 25.3076C56.4585 25.3076 56.0756 25.4525 55.8012 25.7383C55.5254 26.0267 55.3728 26.4179 55.3447 26.9131H58.3835C58.3701 26.3903 58.2469 25.9912 58.014 25.7185C57.7811 25.4446 57.4263 25.3076 56.9471 25.3076ZM102.108 20.6946V22.6267H99.5028V20.6946H102.108Z" fill="black"/>
<path fill-rule="evenodd" clip-rule="evenodd" d="M122.013 15.1199H119.483V11.181C119.483 10.8595 119.469 10.5407 119.442 10.2219C119.417 9.90443 119.367 9.66994 119.294 9.51844C119.211 9.33928 119.085 9.2115 118.923 9.13377C118.761 9.05473 118.542 9.01653 118.27 9.01653C118.065 9.01653 117.856 9.05341 117.647 9.12982C117.434 9.20623 117.21 9.32479 116.973 9.48946V15.1199H114.452V7.17485H116.973V8.05485C117.382 7.71102 117.785 7.44227 118.175 7.2473C118.564 7.05497 118.995 6.9588 119.472 6.9588C120.292 6.9588 120.923 7.21437 121.359 7.72683C121.793 8.23665 122.013 8.97832 122.013 9.94922V15.1199Z" fill="black"/>
<path fill-rule="evenodd" clip-rule="evenodd" d="M126.972 15.274C125.948 15.274 125.2 15.0672 124.735 14.6509C124.267 14.2372 124.034 13.5575 124.034 12.6142V8.90322H123.072V7.17484H124.034V4.89975H126.555V7.17484H128.971V8.90322H126.555V11.7197C126.555 11.9977 126.557 12.2401 126.563 12.4469C126.565 12.6564 126.604 12.8421 126.675 13.0068C126.743 13.1715 126.86 13.3032 127.031 13.3994C127.2 13.4969 127.449 13.5443 127.773 13.5443C127.907 13.5443 128.082 13.5166 128.299 13.4613C128.519 13.406 128.67 13.3546 128.755 13.3085H128.971V15.0487C128.697 15.1186 128.406 15.1739 128.1 15.2134C127.794 15.2529 127.417 15.274 126.972 15.274Z" fill="black"/>
</g>
<defs>
<clipPath id="clip0_2150_1744">
<rect width="128.769" height="36" fill="white" transform="translate(0.94873)"/>
</clipPath>
</defs>
</svg>
