<svg width="99" height="24" viewBox="0 0 99 24" fill="none" xmlns="http://www.w3.org/2000/svg">
<path d="M91.0162 3.74163C91.8139 3.74163 92.4568 3.09794 92.4568 2.30166C92.4568 1.50532 91.8139 0.861676 91.0162 0.861676C90.2224 0.861676 89.5781 1.50532 89.5781 2.30166C89.5781 3.09794 90.2224 3.74163 91.0162 3.74163ZM91.0289 1.07931C91.7022 1.07931 92.249 1.62489 92.249 2.30166C92.249 2.97727 91.7022 3.52395 91.0289 3.52395C90.3549 3.52395 89.8079 2.97727 89.8079 2.30166C89.8079 1.62489 90.3549 1.07931 91.0289 1.07931ZM90.6411 2.40798H91.1044C91.1879 2.40798 91.2485 2.41735 91.2855 2.43776C91.3576 2.46945 91.3935 2.53472 91.3965 2.63533L91.409 2.8836C91.4121 2.94281 91.4149 2.98305 91.4177 3.00317C91.4245 3.02329 91.429 3.04093 91.4366 3.05417H91.6856V3.01861C91.6531 3.00427 91.6312 2.97478 91.6208 2.92743C91.6128 2.89904 91.6064 2.8566 91.6035 2.79872L91.5976 2.59728C91.594 2.50998 91.5773 2.44823 91.548 2.40798C91.5201 2.3678 91.4735 2.33831 91.4149 2.31432C91.4831 2.27905 91.5353 2.23274 91.5711 2.17735C91.6095 2.11814 91.6284 2.04592 91.6284 1.95503C91.6284 1.78088 91.5576 1.66374 91.4149 1.60124C91.3413 1.56568 91.2466 1.54914 91.134 1.54914H90.4381V3.05417H90.6411V2.40798ZM90.6411 1.7252H91.1372C91.2079 1.7252 91.2635 1.73457 91.3055 1.75498C91.3825 1.79522 91.4214 1.86848 91.4214 1.97487C91.4177 2.0757 91.3935 2.14294 91.3376 2.18209C91.2821 2.21898 91.2048 2.23881 91.1104 2.23881H90.6411V1.7252ZM27.7355 12.0548C27.6304 11.8983 27.6814 11.6831 27.7865 11.5483L33.4514 4.66194C33.7943 4.29988 34.0292 3.8375 34.1868 3.3724C34.3334 2.73697 34.1558 2.06026 33.7556 1.57395C33.3521 1.09226 32.7019 0.775124 32.1103 0.915911C31.2046 0.977661 30.653 1.88143 30.137 2.53588L26.5967 7.21898C26.1828 7.79763 25.7778 8.30273 25.3066 8.81385C25.05 8.91908 24.8229 8.75349 24.6994 8.55922L19.8413 2.08038L19.1844 1.3218C18.6821 0.88868 17.9313 0.762459 17.4135 0.942105C16.6797 1.08538 16.2563 1.73735 16.0988 2.40908L16.0845 10.7366C16.1605 11.3091 15.9581 11.7776 15.7432 12.2319C15.2073 13.2319 14.0236 13.6755 12.9865 13.5725C12.0131 13.4223 10.9745 12.5857 10.7863 11.5979V2.86597C10.7183 2.52154 10.6904 2.15341 10.5329 1.85304C10.1682 1.17274 9.45749 0.831902 8.76187 0.840168C8.08667 0.927766 7.4532 1.32538 7.16735 1.95364C7.11323 2.09663 7.0624 2.23661 7.01603 2.38434V10.585C7.01887 11.4747 7.15208 12.316 7.44545 13.0922C8.12534 15.1949 10.2749 16.6489 12.353 17.0156C14.6245 17.4394 17.0133 16.6431 18.5524 14.7118C19.8534 12.9536 19.6896 10.5508 19.6896 8.23052L19.7653 8.12991C20.5735 8.96152 21.2443 9.94855 21.992 10.8633C22.199 11.2003 22.5917 11.4665 22.5482 11.928C21.7696 13.0117 20.878 14.0861 20.0697 15.1166L16.4015 19.6471C16.1109 20.1298 15.9718 20.8361 16.2238 21.3945C16.5915 22.0763 17.3179 22.5507 18.1214 22.534C18.8272 22.5081 19.373 21.8385 19.7916 21.3439L23.7366 16.3838L24.7752 15.0907C24.8909 14.9166 25.0825 14.8138 25.2802 14.8637C26.0683 15.6561 26.6306 16.5674 27.3554 17.4452L30.7948 21.9509C31.0965 22.3625 31.6326 22.5709 32.1611 22.6607C32.9165 22.7293 33.5038 22.3292 33.9085 21.7236C34.2641 21.1791 34.1744 20.2932 33.8561 19.7738L27.7355 12.0548ZM13.8967 18.9243L5.72563 18.9136C5.30084 18.9503 5.3161 18.6614 5.24492 18.5088V3.14396C5.23573 2.68494 5.1586 2.24927 4.96711 1.87674C4.58365 1.22484 3.90688 0.762459 3.09412 0.891164C2.40197 1.00356 1.85015 1.48878 1.62789 2.15619L1.60147 20.9628L1.70352 21.3191C1.8701 21.8751 2.50223 22.3992 3.09412 22.5092L13.8967 22.5081C14.3957 22.3813 14.8376 22.1151 15.1344 21.6478C15.4204 21.2102 15.4404 20.4836 15.2117 20.0279C14.9521 19.4898 14.4019 19.0886 13.8967 18.9243ZM68.8546 6.36592C67.8011 6.36592 66.9115 7.07212 66.9115 7.94177L66.9298 21.2584C66.9298 22.1294 67.7828 22.8332 68.8382 22.8332C69.8917 22.8332 70.7479 22.1294 70.7479 21.2584L70.765 7.94177C70.765 7.07212 69.9092 6.36592 68.8546 6.36592ZM96.3411 1.37141C95.4112 1.17991 94.665 1.6734 94.1409 2.25754C92.8581 3.85022 91.6622 5.52003 90.497 7.16804L86.0719 13.2697C84.6377 15.2197 83.1514 17.3127 81.6941 19.2685C81.2291 19.2743 80.787 19.1291 80.4038 18.9891C77.7771 18.0735 75.583 15.4597 75.4716 12.6615C75.1473 10.0113 76.3677 7.69569 78.4045 6.13031C79.1309 5.62139 79.9342 5.13426 80.858 4.96612C82.4808 4.36163 84.4683 4.74132 86.0203 5.32107C86.4396 5.43237 87.0326 5.55911 87.4378 5.22047C88.028 5.06424 88.3743 4.40048 88.5238 3.85161C88.6864 2.94391 88.1532 2.11704 87.4877 1.6993C84.2948 0.15513 79.9142 0.472324 76.938 2.30854C73.2251 4.46906 70.904 8.67775 71.3984 13.168C71.7774 17.5279 75.268 21.6161 79.4941 22.812C80.9584 23.0581 83.0124 23.9621 84.2238 22.534C87.3882 18.2498 90.3335 13.8282 93.5848 9.54734L93.7111 9.52254C93.7235 9.55561 93.7945 9.59475 93.838 9.65037L93.8472 21.5472C93.8472 22.4179 94.7558 23.1244 95.8096 23.1244C96.8639 23.1244 97.7192 22.4179 97.7192 21.5472L97.7319 2.68742C97.517 2.06633 96.9403 1.51578 96.3411 1.37141ZM69.3495 1.06855V1.04271H52.5453C52.2348 1.09694 51.7346 1.31134 51.489 1.44964C50.9609 1.9396 50.671 2.63643 50.8562 3.3724C50.9428 4.04692 51.4377 4.76254 52.2565 4.87962C52.2997 4.87743 52.5963 4.8846 54.7024 4.8846C54.8125 4.90223 55.0253 4.96612 55.0442 5.19433L55.1553 21.2386C55.1553 22.1094 55.9139 22.812 56.9693 22.812C58.0225 22.812 58.845 22.1094 58.845 21.2386L58.8761 5.39682L58.9268 5.16953C58.9985 5.02042 59.0991 4.96948 59.2545 4.89038H61.2281C61.3457 4.93779 61.6051 5.04661 61.5834 5.36351L61.5786 21.2527C61.5786 22.1209 62.4347 22.8274 63.4888 22.8274C64.5422 22.8274 65.3986 22.1209 65.3986 21.2527L65.4031 5.19433C65.448 5.07031 65.5729 4.94357 65.7057 4.88928L68.5393 4.89038C69.2971 4.8879 70.1001 4.68564 70.538 4.0786C70.8857 3.62206 70.9872 2.96403 70.842 2.38434C70.5823 1.74891 69.9997 1.18569 69.3495 1.06855ZM42.494 0.67926C36.3085 0.67926 31.2912 5.69609 31.2912 11.8889C31.2912 18.0795 36.3085 23.0974 42.494 23.0974C48.6807 23.0974 53.6969 18.0795 53.6969 11.8889C53.6969 5.69609 48.6807 0.67926 42.494 0.67926ZM42.4613 19.3738C38.3311 19.3738 34.9812 16.0218 34.9812 11.8889C34.9812 7.7549 38.3311 4.40407 42.4613 4.40407C46.5932 4.40407 49.942 7.7549 49.942 11.8889C49.942 16.0218 46.5932 19.3738 42.4613 19.3738Z" fill="black"/>
</svg>
