<svg width="142" height="54" viewBox="0 0 142 54" fill="none" xmlns="http://www.w3.org/2000/svg">
<g clip-path="url(#clip0_2150_1559)">
<path fill-rule="evenodd" clip-rule="evenodd" d="M77.0519 17.0772V11.2666C77.0519 10.1734 76.5199 9.46974 75.4328 9.21165C74.4503 8.97913 73.4448 8.98887 72.4587 9.17513C71.5797 9.34069 70.9795 9.86783 70.7592 10.737C70.6816 11.0451 70.6419 11.3616 70.6411 11.6793C70.6338 15.4715 70.6375 19.2636 70.635 23.057C70.635 23.4503 70.7726 23.7936 71.0733 24.0407C71.3168 24.2428 71.5943 24.429 71.8877 24.5496C72.7947 24.9209 73.7455 24.9939 74.7145 24.843C75.294 24.7529 75.854 24.6031 76.3385 24.2623C76.8096 23.9311 77.0628 23.5014 77.0568 22.911C77.0434 20.9656 77.0519 19.0214 77.0519 17.0772ZM57.1208 24.9817V25.2983H51.0302V24.9416C51.3199 24.8722 51.6084 24.8162 51.8884 24.7346C53.1387 24.373 53.7376 23.6536 53.8375 22.3887C53.8667 22.0198 53.8825 21.6497 53.8837 21.2809C53.8874 18.056 53.8874 14.8311 53.8837 11.6075C53.8837 10.4242 53.2044 9.49287 52.1063 9.17878C51.8422 9.10209 51.5609 9.07774 51.2712 9.02661V8.68452C51.3248 8.67843 51.3759 8.66991 51.4258 8.66991C52.3425 8.66991 53.258 8.66261 54.1735 8.67113C55.3093 8.68209 56.1505 9.21287 56.6776 10.1649C57.4251 11.5162 58.1385 12.887 58.8324 14.2638C60.1058 16.7875 61.3561 19.3221 62.6161 21.8518C62.6453 21.9103 62.6782 21.965 62.7232 22.0454L64.0587 19.1297C65.3503 16.3054 66.6347 13.4774 67.9385 10.6579C68.5387 9.36017 69.5929 8.676 71.0514 8.67356C76.9801 8.66261 82.9063 8.66869 88.8338 8.66869H89.0675L89.1442 13.9242C88.7717 13.985 88.7729 13.985 88.6427 13.6783C88.1837 12.6045 87.6566 11.5673 86.8665 10.6798C85.9255 9.61948 84.7373 9.07409 83.2995 9.06435C82.1942 9.05826 81.0888 9.06313 79.9834 9.06435C79.9249 9.06435 79.8665 9.07165 79.7971 9.07774V16.4417C79.8154 16.4539 79.8275 16.4685 79.8397 16.4685C80.7613 16.4442 81.6877 16.4685 82.6032 16.3833C83.5102 16.3005 84.2101 15.8063 84.6362 15.021C84.9455 14.4513 85.1695 13.8365 85.4312 13.2424L85.3764 13.2059H85.7635V20.1852C85.4056 20.2315 85.419 20.2266 85.307 19.9113C85.1524 19.473 85.0039 19.0275 84.8018 18.6087C84.3246 17.6202 83.5345 16.9969 82.4011 16.9214C81.5441 16.8642 80.6797 16.9092 79.802 16.9092V24.9026C79.8628 24.9075 79.9286 24.9184 79.9931 24.9184C81.0681 24.9184 82.143 24.9123 83.218 24.9196C85.4884 24.9367 87.1818 23.9457 88.3481 22.0795C88.7522 21.433 89.0809 20.7391 89.4109 20.0513C89.5241 19.8176 89.6409 19.7092 89.9343 19.7957L89.8053 25.2983H65.4075V24.9452C65.679 24.9075 65.9639 24.8831 66.2415 24.8283C67.3432 24.6116 67.8326 24.0468 67.8837 22.9463C67.8886 22.8282 67.8922 22.7101 67.8922 22.5908L67.8983 12.075C67.8983 11.9837 67.8983 11.8923 67.8472 11.7913C67.8107 11.8595 67.7742 11.9264 67.7413 11.997C65.6997 16.4515 63.6594 20.9059 61.6154 25.3591C61.5703 25.4577 61.5642 25.588 61.3877 25.5904C61.2148 25.5917 61.199 25.4687 61.1491 25.3689L54.4388 12.0019L54.3122 11.7499C54.2976 11.8522 54.2855 11.9021 54.2855 11.952C54.2867 15.2292 54.2818 18.5052 54.3001 21.7812C54.3013 22.228 54.3768 22.6809 54.4802 23.1167C54.6324 23.7668 55.0524 24.2452 55.6782 24.5057C56.1322 24.6944 56.6168 24.8174 57.1208 24.9805V24.9817ZM122.188 14.8762C121.842 14.9322 121.842 14.9322 121.772 14.6315C121.453 13.2619 120.934 11.9788 120.043 10.8612C119.17 9.76313 118.078 8.96939 116.652 8.72348C114.628 8.3753 112.992 9.05339 111.75 10.6348C110.983 11.6111 110.565 12.7409 110.329 13.9363C109.897 16.1277 109.885 18.3141 110.481 20.4823C110.798 21.629 111.287 22.6955 112.092 23.6C113.154 24.793 114.5 25.3433 116.114 25.2861C118.78 25.1936 120.637 23.863 121.927 21.6643C122.028 21.4915 122.144 21.321 122.212 21.136C122.311 20.8645 122.481 20.7671 122.765 20.8463C122.766 20.8511 122.778 20.867 122.773 20.8767C122.087 22.3278 121.187 23.6158 119.813 24.5325C118.527 25.3883 117.088 25.7012 115.552 25.6769C113.566 25.6464 111.721 25.1741 110.11 23.9944C108.469 22.7916 107.496 21.1664 107.101 19.2174C106.636 16.9323 106.867 14.7179 108.041 12.6642C109.494 10.121 111.746 8.70887 114.691 8.30591C116.169 8.10261 117.531 8.39235 118.824 9.08017C119.243 9.30296 119.679 9.45756 120.168 9.39669C120.833 9.31148 121.306 8.93409 121.666 8.41669C121.803 8.22191 121.941 8.14035 122.189 8.20852L122.188 14.8762ZM105.606 19.7591L105.474 25.2666H91.1359C91.0543 24.9002 91.0701 24.9099 91.4378 24.8637C91.9223 24.8003 92.4117 24.7285 92.8792 24.5958C93.3832 24.4534 93.6291 24.0723 93.6364 23.5562C93.6388 23.4308 93.6437 23.3054 93.6437 23.1788V10.6664C93.6437 9.712 93.3491 9.35165 92.3825 9.16539C91.9771 9.08748 91.562 9.05461 91.1383 8.99982V8.64922H98.7665V8.99861C98.3088 9.05096 97.8583 9.09356 97.4103 9.1593C97.2324 9.19044 97.059 9.24361 96.8941 9.31756C96.7536 9.37203 96.6321 9.46639 96.5445 9.58903C96.4569 9.71167 96.4071 9.85723 96.4011 10.0078C96.3864 10.1775 96.3791 10.3476 96.3792 10.5179V24.86C96.4267 24.8746 96.4474 24.888 96.4693 24.888C97.5649 24.871 98.6667 24.9075 99.7575 24.8235C101.439 24.692 102.718 23.8362 103.698 22.5226C104.271 21.7435 104.741 20.8941 105.098 19.9953C105.199 19.7421 105.337 19.6897 105.606 19.7591ZM127.071 16.6475C127.099 17.3195 127.107 17.9927 127.158 18.6635C127.249 19.8541 127.458 21.0252 127.929 22.1355C128.487 23.4503 129.353 24.485 130.768 24.983C131.775 25.336 132.811 25.3725 133.855 25.1802C134.935 24.9985 135.902 24.4033 136.551 23.5209C136.991 22.9365 137.288 22.284 137.505 21.5962C137.959 20.1536 138.081 18.6683 138.092 17.1722C138.104 15.5323 137.982 13.9071 137.458 12.3343C137.19 11.5344 136.812 10.7882 136.232 10.1551C135.065 8.88661 133.564 8.52383 131.891 8.65774C130.107 8.79896 128.863 9.70348 128.1 11.263C127.944 11.582 127.81 11.9115 127.7 12.249C127.233 13.6795 127.111 15.1562 127.071 16.6475ZM123.945 16.6913C123.952 12.9296 126.68 9.44052 130.57 8.49096C134.97 7.41722 139.522 9.91165 140.808 14.1823C141.74 17.2854 141.271 20.1962 139.077 22.6894C137.193 24.832 134.748 25.8863 131.844 25.6391C128.289 25.3372 125.912 23.4186 124.57 20.2339C124.132 19.1906 123.946 18.0913 123.945 16.6913Z" fill="black"/>
<path fill-rule="evenodd" clip-rule="evenodd" d="M21.7799 17.8113H21.7665V18.0329C21.7227 19.6143 21.6728 21.1969 21.8274 22.7734C21.8724 23.2323 21.9783 23.6913 22.1147 24.1332C22.2242 24.4899 22.4336 24.5715 22.7867 24.4254C23.0667 24.3085 23.3406 24.1515 23.578 23.9628C24.2475 23.4357 24.7954 22.788 25.286 22.105C26.7493 20.0671 28.1882 18.0146 29.6321 15.9621C29.6698 15.9073 29.6747 15.788 29.6406 15.7308C29.3046 15.1976 28.9905 14.6461 28.6034 14.1482C27.9168 13.2643 27.039 12.6301 25.8886 12.4353C24.5105 12.2028 23.2152 12.4998 21.9686 13.061C21.9126 13.0866 21.8639 13.195 21.8627 13.268C21.831 14.7824 21.8067 16.2969 21.7799 17.8113ZM41.5016 12.9856C41.4651 12.4621 41.4456 11.9362 41.386 11.4151C41.3154 10.7967 41.1741 10.1917 40.8455 9.64504C40.5715 9.19217 40.1905 8.87322 39.65 8.76852C39.1287 8.66533 38.5919 8.66948 38.0722 8.7807C37.0277 9.0047 36.1354 9.52574 35.3112 10.1649C33.2587 11.756 31.7138 13.7842 30.2225 15.8562C30.1896 15.9024 30.1921 15.9974 30.2152 16.0546C30.7922 17.4741 31.379 18.8887 31.9536 20.3094C32.3846 21.3734 32.8021 22.4435 33.4121 23.4271C33.7712 24.0066 34.1863 24.5398 34.7414 24.9562C35.6995 25.6732 36.7928 25.7402 37.8008 25.0901C38.1599 24.8588 38.4825 24.5484 38.7613 24.2245C39.3006 23.5939 39.6208 22.8379 39.8934 22.0673C40.3731 20.716 40.6531 19.3184 40.9173 17.916C41.2241 16.2859 41.4468 14.6473 41.5016 12.9856ZM17.8562 11.8802C17.7893 9.684 17.7503 7.48783 17.3668 5.316C17.2037 4.39565 16.9821 3.48991 16.4976 2.67304C15.8792 1.63217 15.0197 1.26696 13.8145 1.50678C12.7992 1.70643 11.9141 2.17635 11.0875 2.7607C9.53536 3.85878 8.27902 5.23931 7.19432 6.76348C4.31519 10.8077 2.30406 15.2426 1.06354 20.0123C0.658147 21.5706 0.406147 23.1557 0.471886 24.7723C0.503538 25.5223 0.611886 26.26 0.968581 26.9393C1.3618 27.6868 1.98997 28.0666 2.8531 28.0593C3.78928 28.052 4.67919 27.8402 5.53136 27.464C6.81693 26.8955 7.90162 26.0482 8.91449 25.1059C10.5068 23.6231 11.8971 21.9614 13.3312 20.3386C14.7701 18.7097 16.1738 17.0492 17.7564 15.547C17.8197 15.4861 17.8514 15.3668 17.8514 15.273C17.8575 14.1421 17.8562 13.0111 17.8562 11.8802ZM29.9048 16.303C29.8281 16.4089 29.7757 16.4783 29.7258 16.5501C28.4804 18.3323 27.2472 20.1219 25.986 21.8944C25.3916 22.747 24.7049 23.5313 23.9383 24.233C23.4562 24.6664 22.9437 25.0694 22.2888 25.2143C21.422 25.4054 20.0719 25.2057 19.2404 24.0772C18.7206 23.3711 18.4564 22.5652 18.2775 21.7289C17.9256 20.1 17.8733 18.4456 17.8477 16.7887C17.8441 16.574 17.8392 16.3593 17.8331 16.1447C17.8331 16.1325 17.8209 16.1203 17.8002 16.0777C17.7114 16.1642 17.6237 16.2397 17.5458 16.3249C16.1421 17.8649 14.7312 19.4 13.3397 20.951C11.9641 22.4861 10.6408 24.0675 9.11049 25.465C8.00389 26.4755 6.81936 27.3739 5.40354 27.9424C4.56893 28.284 3.67578 28.4597 2.77397 28.4598C1.81589 28.4574 1.10858 28.0398 0.650842 27.223C0.301451 26.6009 0.166321 25.9191 0.104234 25.2252C-0.056462 23.4186 0.217451 21.651 0.664234 19.9113C2.01676 14.6607 4.32858 9.84957 7.68736 5.53391C8.79154 4.11444 10.0625 2.84835 11.6049 1.86957C12.6762 1.18661 13.8291 0.713044 15.1159 0.581565C17.5409 0.333217 19.4254 1.34122 20.5089 3.48017C21.0957 4.63913 21.3952 5.87844 21.59 7.14817C21.8578 8.88539 21.8992 10.6372 21.898 12.3903V12.6045C22.391 12.4499 22.8585 12.2795 23.3381 12.1602C24.3121 11.9191 25.2969 11.857 26.2806 12.0993C27.4347 12.3842 28.3063 13.0757 28.9954 13.9936C29.3484 14.4623 29.6515 14.9663 29.9839 15.4654C30.0253 15.4118 30.0788 15.3461 30.13 15.2767C31.2427 13.744 32.3968 12.243 33.7675 10.9148C34.7341 9.97739 35.7835 9.14591 37.0423 8.60539C38.2755 8.07461 39.5501 7.87496 40.8698 8.24017C42.0677 8.57009 42.9296 9.32852 43.5602 10.356C44.1811 11.3713 44.4988 12.4864 44.6072 13.6515C44.8632 16.2441 44.4087 18.8575 43.2924 21.2115C42.5011 22.8915 41.33 24.2598 39.6524 25.1692C38.6712 25.7012 37.6218 26.0141 36.4872 25.9812C35.4329 25.9508 34.5905 25.4821 33.8941 24.7358C33.0968 23.8837 32.5672 22.8683 32.1326 21.8092C31.5056 20.2814 30.9152 18.739 30.3041 17.205C30.1872 16.9129 30.0484 16.628 29.9048 16.303Z" fill="#171717"/>
</g>
<path d="M1.59786 50.5V42.1H2.32986L8.12586 49.396H7.74186V42.1H8.61786V50.5H7.88586L2.10186 43.204H2.48586V50.5H1.59786ZM10.0156 50.5L13.8556 42.1H14.7316L18.5716 50.5H17.6356L14.1076 42.616H14.4676L10.9396 50.5H10.0156ZM11.5276 48.256L11.7916 47.536H16.6756L16.9396 48.256H11.5276ZM22.2771 50.572C21.6531 50.572 21.0531 50.472 20.4771 50.272C19.9091 50.064 19.4691 49.8 19.1571 49.48L19.5051 48.796C19.8011 49.084 20.1971 49.328 20.6931 49.528C21.1971 49.72 21.7251 49.816 22.2771 49.816C22.8051 49.816 23.2331 49.752 23.5611 49.624C23.8971 49.488 24.1411 49.308 24.2931 49.084C24.4531 48.86 24.5331 48.612 24.5331 48.34C24.5331 48.012 24.4371 47.748 24.2451 47.548C24.0611 47.348 23.8171 47.192 23.5131 47.08C23.2091 46.96 22.8731 46.856 22.5051 46.768C22.1371 46.68 21.7691 46.588 21.4011 46.492C21.0331 46.388 20.6931 46.252 20.3811 46.084C20.0771 45.916 19.8291 45.696 19.6371 45.424C19.4531 45.144 19.3611 44.78 19.3611 44.332C19.3611 43.916 19.4691 43.536 19.6851 43.192C19.9091 42.84 20.2491 42.56 20.7051 42.352C21.1611 42.136 21.7451 42.028 22.4571 42.028C22.9291 42.028 23.3971 42.096 23.8611 42.232C24.3251 42.36 24.7251 42.54 25.0611 42.772L24.7611 43.48C24.4011 43.24 24.0171 43.064 23.6091 42.952C23.2091 42.84 22.8211 42.784 22.4451 42.784C21.9411 42.784 21.5251 42.852 21.1971 42.988C20.8691 43.124 20.6251 43.308 20.4651 43.54C20.3131 43.764 20.2371 44.02 20.2371 44.308C20.2371 44.636 20.3291 44.9 20.5131 45.1C20.7051 45.3 20.9531 45.456 21.2571 45.568C21.5691 45.68 21.9091 45.78 22.2771 45.868C22.6451 45.956 23.0091 46.052 23.3691 46.156C23.7371 46.26 24.0731 46.396 24.3771 46.564C24.6891 46.724 24.9371 46.94 25.1211 47.212C25.3131 47.484 25.4091 47.84 25.4091 48.28C25.4091 48.688 25.2971 49.068 25.0731 49.42C24.8491 49.764 24.5051 50.044 24.0411 50.26C23.5851 50.468 22.9971 50.572 22.2771 50.572ZM27.344 50.5V42.1H30.764C31.66 42.1 32.444 42.28 33.116 42.64C33.796 42.992 34.324 43.484 34.7 44.116C35.076 44.748 35.264 45.476 35.264 46.3C35.264 47.124 35.076 47.852 34.7 48.484C34.324 49.116 33.796 49.612 33.116 49.972C32.444 50.324 31.66 50.5 30.764 50.5H27.344ZM28.232 49.732H30.716C31.46 49.732 32.104 49.588 32.648 49.3C33.2 49.004 33.628 48.6 33.932 48.088C34.236 47.568 34.388 46.972 34.388 46.3C34.388 45.62 34.236 45.024 33.932 44.512C33.628 44 33.2 43.6 32.648 43.312C32.104 43.016 31.46 42.868 30.716 42.868H28.232V49.732ZM35.7968 50.5L39.6368 42.1H40.5128L44.3528 50.5H43.4168L39.8888 42.616H40.2488L36.7208 50.5H35.7968ZM37.3088 48.256L37.5728 47.536H42.4568L42.7208 48.256H37.3088ZM49.2972 50.572C48.6652 50.572 48.0772 50.468 47.5332 50.26C46.9972 50.044 46.5292 49.744 46.1292 49.36C45.7372 48.968 45.4292 48.516 45.2052 48.004C44.9892 47.484 44.8812 46.916 44.8812 46.3C44.8812 45.684 44.9892 45.12 45.2052 44.608C45.4292 44.088 45.7372 43.636 46.1292 43.252C46.5292 42.86 46.9972 42.56 47.5332 42.352C48.0692 42.136 48.6572 42.028 49.2972 42.028C49.9292 42.028 50.5132 42.136 51.0492 42.352C51.5852 42.56 52.0492 42.856 52.4412 43.24C52.8412 43.624 53.1492 44.076 53.3652 44.596C53.5892 45.116 53.7012 45.684 53.7012 46.3C53.7012 46.916 53.5892 47.484 53.3652 48.004C53.1492 48.524 52.8412 48.976 52.4412 49.36C52.0492 49.744 51.5852 50.044 51.0492 50.26C50.5132 50.468 49.9292 50.572 49.2972 50.572ZM52.0452 52.168C51.7892 52.168 51.5412 52.136 51.3012 52.072C51.0612 52.008 50.8172 51.904 50.5692 51.76C50.3292 51.624 50.0812 51.444 49.8252 51.22C49.5692 50.996 49.2892 50.724 48.9852 50.404L49.9572 50.164C50.2052 50.46 50.4452 50.704 50.6772 50.896C50.9172 51.088 51.1492 51.228 51.3732 51.316C51.6052 51.412 51.8332 51.46 52.0572 51.46C52.6812 51.46 53.2132 51.204 53.6532 50.692L54.0852 51.208C53.5572 51.848 52.8772 52.168 52.0452 52.168ZM49.2972 49.78C49.8012 49.78 50.2652 49.696 50.6892 49.528C51.1212 49.352 51.4932 49.104 51.8052 48.784C52.1252 48.464 52.3732 48.096 52.5492 47.68C52.7252 47.256 52.8132 46.796 52.8132 46.3C52.8132 45.796 52.7252 45.336 52.5492 44.92C52.3732 44.496 52.1252 44.128 51.8052 43.816C51.4932 43.496 51.1212 43.252 50.6892 43.084C50.2652 42.908 49.8012 42.82 49.2972 42.82C48.7932 42.82 48.3252 42.908 47.8932 43.084C47.4612 43.252 47.0852 43.496 46.7652 43.816C46.4532 44.128 46.2052 44.496 46.0212 44.92C45.8452 45.336 45.7572 45.796 45.7572 46.3C45.7572 46.796 45.8452 47.256 46.0212 47.68C46.2052 48.096 46.4532 48.464 46.7652 48.784C47.0852 49.104 47.4612 49.352 47.8932 49.528C48.3252 49.696 48.7932 49.78 49.2972 49.78ZM55.5956 45.448C55.4196 45.448 55.2676 45.384 55.1396 45.256C55.0196 45.128 54.9596 44.972 54.9596 44.788C54.9596 44.596 55.0196 44.44 55.1396 44.32C55.2676 44.2 55.4196 44.14 55.5956 44.14C55.7716 44.14 55.9196 44.2 56.0396 44.32C56.1676 44.44 56.2316 44.596 56.2316 44.788C56.2316 44.972 56.1676 45.128 56.0396 45.256C55.9196 45.384 55.7716 45.448 55.5956 45.448ZM55.5956 50.56C55.4196 50.56 55.2676 50.496 55.1396 50.368C55.0196 50.24 54.9596 50.084 54.9596 49.9C54.9596 49.708 55.0196 49.552 55.1396 49.432C55.2676 49.312 55.4196 49.252 55.5956 49.252C55.7716 49.252 55.9196 49.312 56.0396 49.432C56.1676 49.552 56.2316 49.708 56.2316 49.9C56.2316 50.084 56.1676 50.24 56.0396 50.368C55.9196 50.496 55.7716 50.56 55.5956 50.56ZM61.3752 50.5V42.1H62.1072L65.9472 48.652H65.5632L69.3672 42.1H70.0992V50.5H69.2472V43.432H69.4512L65.9472 49.432H65.5272L61.9992 43.432H62.2272V50.5H61.3752ZM72.8361 50.5V42.1H73.7241V49.732H78.4281V50.5H72.8361ZM83.3865 50.572C82.7545 50.572 82.1705 50.468 81.6345 50.26C81.0985 50.044 80.6345 49.744 80.2425 49.36C79.8505 48.976 79.5425 48.524 79.3185 48.004C79.1025 47.484 78.9945 46.916 78.9945 46.3C78.9945 45.684 79.1025 45.116 79.3185 44.596C79.5425 44.076 79.8505 43.624 80.2425 43.24C80.6425 42.856 81.1105 42.56 81.6465 42.352C82.1825 42.136 82.7665 42.028 83.3985 42.028C84.0065 42.028 84.5785 42.132 85.1145 42.34C85.6505 42.54 86.1025 42.844 86.4705 43.252L85.9065 43.816C85.5625 43.464 85.1825 43.212 84.7665 43.06C84.3505 42.9 83.9025 42.82 83.4225 42.82C82.9185 42.82 82.4505 42.908 82.0185 43.084C81.5865 43.252 81.2105 43.496 80.8905 43.816C80.5705 44.128 80.3185 44.496 80.1345 44.92C79.9585 45.336 79.8705 45.796 79.8705 46.3C79.8705 46.804 79.9585 47.268 80.1345 47.692C80.3185 48.108 80.5705 48.476 80.8905 48.796C81.2105 49.108 81.5865 49.352 82.0185 49.528C82.4505 49.696 82.9185 49.78 83.4225 49.78C83.9025 49.78 84.3505 49.7 84.7665 49.54C85.1825 49.38 85.5625 49.124 85.9065 48.772L86.4705 49.336C86.1025 49.744 85.6505 50.052 85.1145 50.26C84.5785 50.468 84.0025 50.572 83.3865 50.572ZM91.8597 50.572C91.2277 50.572 90.6397 50.468 90.0957 50.26C89.5597 50.044 89.0917 49.744 88.6917 49.36C88.2997 48.968 87.9917 48.516 87.7677 48.004C87.5517 47.484 87.4437 46.916 87.4437 46.3C87.4437 45.684 87.5517 45.12 87.7677 44.608C87.9917 44.088 88.2997 43.636 88.6917 43.252C89.0917 42.86 89.5597 42.56 90.0957 42.352C90.6317 42.136 91.2197 42.028 91.8597 42.028C92.4917 42.028 93.0757 42.136 93.6117 42.352C94.1477 42.56 94.6117 42.856 95.0037 43.24C95.4037 43.624 95.7117 44.076 95.9277 44.596C96.1517 45.116 96.2637 45.684 96.2637 46.3C96.2637 46.916 96.1517 47.484 95.9277 48.004C95.7117 48.524 95.4037 48.976 95.0037 49.36C94.6117 49.744 94.1477 50.044 93.6117 50.26C93.0757 50.468 92.4917 50.572 91.8597 50.572ZM91.8597 49.78C92.3637 49.78 92.8277 49.696 93.2517 49.528C93.6837 49.352 94.0557 49.108 94.3677 48.796C94.6877 48.476 94.9357 48.108 95.1117 47.692C95.2877 47.268 95.3757 46.804 95.3757 46.3C95.3757 45.796 95.2877 45.336 95.1117 44.92C94.9357 44.496 94.6877 44.128 94.3677 43.816C94.0557 43.496 93.6837 43.252 93.2517 43.084C92.8277 42.908 92.3637 42.82 91.8597 42.82C91.3557 42.82 90.8877 42.908 90.4557 43.084C90.0237 43.252 89.6477 43.496 89.3277 43.816C89.0157 44.128 88.7677 44.496 88.5837 44.92C88.4077 45.336 88.3197 45.796 88.3197 46.3C88.3197 46.796 88.4077 47.256 88.5837 47.68C88.7677 48.104 89.0157 48.476 89.3277 48.796C89.6477 49.108 90.0237 49.352 90.4557 49.528C90.8877 49.696 91.3557 49.78 91.8597 49.78Z" fill="black"/>
<defs>
<clipPath id="clip0_2150_1559">
<rect width="141.217" height="28" fill="white" transform="translate(0.0579834 0.5)"/>
</clipPath>
</defs>
</svg>
