
<svg version="1.1" xmlns="http://www.w3.org/2000/svg" width="1280" height="314">
<path d="M0 0 C0.99 0 1.98 0 3 0 C3.61705811 1.0837793 3.61705811 1.0837793 4.24658203 2.18945312 C12.02766251 15.84894899 19.83876716 29.4881392 27.77783203 43.05664062 C30.77041783 48.17324276 33.75282527 53.29531649 36.71484375 58.4296875 C37.65215332 60.0535437 37.65215332 60.0535437 38.60839844 61.71020508 C39.86112946 63.88890288 41.107964 66.07100262 42.34863281 68.2565918 C45.51184639 73.80723874 48.77101044 79.24313775 52.26953125 84.58984375 C52.94757813 85.65654297 53.625625 86.72324219 54.32421875 87.82226562 C55.61625365 89.84662286 56.94420171 91.84865569 58.3125 93.82226562 C60.05669543 96.59925992 61.28582967 98.79668477 62 102 C60.81369289 106.2231022 58.48718231 109.42768487 56 113 C54.94985253 114.85255865 53.92115991 116.71744031 52.9140625 118.59375 C46.12632157 130.80672911 39.14722668 142.88477488 31.98095703 154.87939453 C26.74352371 163.67284301 21.71793981 172.57127197 16.75512695 181.52197266 C13.12731699 188.04705446 9.37510614 194.45132643 5.35546875 200.7421875 C3.86751651 203.03548584 3.86751651 203.03548584 3 206 C42.27 206 81.54 206 122 206 C126.62 214.25 131.24 222.5 136 231 C141.17277732 239.89125966 141.17277732 239.89125966 146.3671875 248.76953125 C150.63644707 256.06877598 154.82338111 263.41469781 159.00384521 270.76501465 C162.66653836 277.20475249 166.353174 283.62734321 170.125 290.00390625 C170.77726562 291.10927734 171.42953125 292.21464844 172.1015625 293.35351562 C173.34067849 295.44802959 174.58523181 297.53933906 175.8359375 299.62695312 C176.38507813 300.55572266 176.93421875 301.48449219 177.5 302.44140625 C177.9846875 303.25295166 178.469375 304.06449707 178.96875 304.90063477 C180 307 180 307 180 310 C164.76387225 310.63354086 149.52835026 311.10815176 134.28197479 311.39892864 C127.19989996 311.53761734 120.12612699 311.72690712 113.04931641 312.03686523 C65.86285499 314.06318736 65.86285499 314.06318736 56.93106079 307.45611572 C50.85366176 301.76067054 48.22212623 294.37658983 46.07489014 286.47218323 C44.32485342 280.81909561 41.25510994 276.02158082 38.1875 271 C37.12041651 269.11733709 36.05953659 267.23112989 35.0078125 265.33984375 C29.249291 255.09246838 23.30857554 244.94972793 17.37890625 234.80078125 C16.7562085 233.734646 16.13351074 232.66851074 15.49194336 231.57006836 C14.28157212 229.49865103 13.07020743 227.42781374 11.85766602 225.35766602 C8.49791925 219.61117685 5.20217914 213.83584887 2 208 C-2.67364585 214.7292875 -6.73565521 221.70286688 -10.6875 228.875 C-11.92995359 231.11125299 -13.17345253 233.34692549 -14.41796875 235.58203125 C-15.3313501 237.22292725 -15.3313501 237.22292725 -16.26318359 238.89697266 C-20.41668529 246.31769329 -24.71251707 253.65619327 -29 261 C-30.10036363 262.88796068 -31.20061885 264.77598455 -32.30078125 266.6640625 C-34.64652205 270.68862101 -36.99444807 274.71189436 -39.34375 278.734375 C-41.89055499 283.09598572 -44.43140187 287.46100625 -46.96875 291.828125 C-47.61223389 292.93454346 -48.25571777 294.04096191 -48.91870117 295.1809082 C-50.16227042 297.31935995 -51.40465885 299.45849889 -52.64575195 301.59838867 C-53.20222412 302.55463135 -53.75869629 303.51087402 -54.33203125 304.49609375 C-54.82421143 305.34357178 -55.3163916 306.1910498 -55.82348633 307.06420898 C-57 309 -57 309 -58 310 C-59.54353131 310.09584998 -61.09145108 310.1218807 -62.63795471 310.12025452 C-63.64061371 310.12162918 -64.64327271 310.12300385 -65.67631531 310.12442017 C-67.34002922 310.11902725 -67.34002922 310.11902725 -69.03735352 310.11352539 C-70.19817444 310.11367142 -71.35899536 310.11381744 -72.55499268 310.1139679 C-76.41298252 310.11326817 -80.27092478 310.10547298 -84.12890625 310.09765625 C-86.79548728 310.09579228 -89.46206564 310.09431912 -92.12864685 310.09336853 C-98.4432888 310.09025548 -104.75791351 310.08204244 -111.07254785 310.07201904 C-118.25985633 310.0608571 -125.44716561 310.05534725 -132.6344806 310.05032361 C-147.42299589 310.0398598 -162.21149765 310.02226086 -177 310 C-175.67899257 305.90675245 -174.22609607 302.35593525 -172.05078125 298.640625 C-171.16132813 297.11115234 -171.16132813 297.11115234 -170.25390625 295.55078125 C-169.61324219 294.46152344 -168.97257813 293.37226563 -168.3125 292.25 C-167.63743361 291.09279028 -166.96296538 289.93523143 -166.2890625 288.77734375 C-164.88984195 286.37429418 -163.48807065 283.9727608 -162.08447266 281.57226562 C-158.86550631 276.06213181 -155.68481153 270.52991816 -152.5 265 C-151.2553824 262.8423475 -150.01059 260.68479582 -148.765625 258.52734375 C-146.21314665 254.10309231 -143.66111545 249.67858332 -141.109375 245.25390625 C-137.98980326 239.84468656 -134.8687185 234.43634189 -131.74707031 229.02832031 C-130.04596421 226.07967302 -128.34703651 223.12977955 -126.6484375 220.1796875 C-125.64068708 218.43225586 -124.6328783 216.68485788 -123.625 214.9375 C-123.16641602 214.13965088 -122.70783203 213.34180176 -122.23535156 212.51977539 C-119.11356803 207.11356803 -119.11356803 207.11356803 -118 206 C-116.46914161 205.90418178 -114.93386244 205.87811892 -113.40000916 205.87974548 C-112.40576431 205.87837082 -111.41151947 205.87699615 -110.387146 205.87557983 C-109.28735413 205.87917511 -108.18756226 205.88277039 -107.05444336 205.88647461 C-105.32784233 205.88625557 -105.32784233 205.88625557 -103.56636047 205.8860321 C-99.74083609 205.88673182 -95.91535969 205.89452698 -92.08984375 205.90234375 C-89.44568407 205.90420772 -86.80152404 205.90563172 -84.15736389 205.90663147 C-77.89584583 205.90974451 -71.63434514 205.91795752 -65.37283474 205.92798096 C-58.24598463 205.93914295 -51.1191337 205.94465276 -43.99227703 205.94967639 C-29.3281757 205.96014016 -14.66408809 205.97773907 0 206 C-0.79823086 204.39488048 -1.59745288 202.79025385 -2.39709473 201.18583679 C-2.84205544 200.29220775 -3.28701614 199.3985787 -3.74546051 198.47786999 C-5.10703268 195.78859728 -6.55819026 193.17574914 -8.09375 190.58203125 C-8.64224609 189.65003906 -9.19074219 188.71804687 -9.75585938 187.7578125 C-10.33142578 186.78585938 -10.90699219 185.81390625 -11.5 184.8125 C-16.24126783 176.74884744 -20.91881875 168.65567205 -25.5 160.5 C-29.95135599 152.58338654 -34.47615994 144.71417073 -39.0625 136.875 C-39.92597046 135.39326294 -39.92597046 135.39326294 -40.80688477 133.8815918 C-43.70829183 128.90442121 -46.62982967 123.94098817 -49.5859375 118.99609375 C-50.703439 117.1017477 -51.8206397 115.20722416 -52.9375 113.3125 C-53.4641626 112.44544434 -53.9908252 111.57838867 -54.53344727 110.68505859 C-55.00580811 109.87762207 -55.47816895 109.07018555 -55.96484375 108.23828125 C-56.3837085 107.53743408 -56.80257324 106.83658691 -57.23413086 106.11450195 C-58.24828147 103.3145152 -57.88095498 101.82537572 -57 99 C-55.85522461 96.67358398 -55.85522461 96.67358398 -54.40234375 94.24609375 C-53.5834668 92.86260742 -53.5834668 92.86260742 -52.74804688 91.45117188 C-52.15056641 90.45666016 -51.55308594 89.46214844 -50.9375 88.4375 C-49.65366966 86.27028796 -48.37117043 84.10228697 -47.08984375 81.93359375 C-46.41808105 80.79905762 -45.74631836 79.66452148 -45.05419922 78.49560547 C-41.98177471 73.28463792 -38.99485462 68.02485886 -36.00457764 62.76647949 C-30.66308187 53.37383288 -25.27453078 44.01075344 -19.8125 34.6875 C-13.08108801 23.19644531 -6.51775476 11.61333477 0 0 Z " fill="#000000" transform="translate(177,1)"/>
<path d="M0 0 C1.14662109 -0.01836914 1.14662109 -0.01836914 2.31640625 -0.03710938 C3.07566406 -0.03904297 3.83492187 -0.04097656 4.6171875 -0.04296875 C5.29120605 -0.04707764 5.96522461 -0.05118652 6.65966797 -0.05541992 C10.26183146 0.29951696 13.6271096 1.26031789 17.125 2.1875 C22.93601984 27.82375547 28.61935612 53.48389141 34.125 79.1875 C35.61179906 74.96535266 36.7088406 70.80353438 37.60546875 66.41943359 C37.80591293 65.44752327 37.80591293 65.44752327 38.01040649 64.45597839 C38.29787681 63.06006167 38.58371673 61.66380837 38.86807251 60.26725388 C39.31872832 58.055368 39.77429813 55.84454497 40.23120117 53.63394165 C41.5285652 47.35243037 42.81685387 41.06906721 44.10253906 34.78515625 C44.8911806 30.93231555 45.68526388 27.08062782 46.48257446 23.2295723 C46.78453867 21.76521451 47.08434282 20.30040955 47.38192749 18.83515549 C47.79772785 16.78794937 48.22038071 14.74226721 48.64453125 12.69677734 C48.88276611 11.53350922 49.12100098 10.37024109 49.36645508 9.17172241 C50.03927211 6.52476559 50.61625169 4.45529082 52.125 2.1875 C59.02075666 -0.54478094 65.87551724 0.13361044 73.125 1.1875 C73.455 1.5175 73.785 1.8475 74.125 2.1875 C73.71205003 12.06166158 71.06101093 21.51762232 68.72265625 31.07421875 C68.2799299 32.90390644 67.83775478 34.73372758 67.39610291 36.56367493 C66.47291763 40.38303665 65.5454783 44.20132882 64.61450195 48.01879883 C63.42422326 52.89956318 62.24098923 57.78199815 61.06047916 62.66513348 C59.9292283 67.34369328 58.7949897 72.02152683 57.66015625 76.69921875 C57.33823649 78.02708688 57.33823649 78.02708688 57.00981331 79.38178062 C56.39885599 81.89903924 55.7858423 84.41578751 55.17211914 86.93237305 C54.99386597 87.66760696 54.81561279 88.40284088 54.63195801 89.16035461 C54.14002014 91.17218898 53.63561568 93.18033335 53.125 95.1875 C52.95959654 95.85794657 52.79419308 96.52839314 52.62377739 97.21915627 C52.18681592 98.89288647 51.66304477 100.54347568 51.125 102.1875 C42.85155938 106.32422031 27.98759971 105.02592577 19.125 103.1875 C16.55035711 100.61285711 16.41013901 98.78055104 15.64453125 95.22827148 C15.37084717 93.97614365 15.09716309 92.72401581 14.81518555 91.4339447 C14.52247665 90.05885901 14.22991864 88.68374119 13.9375 87.30859375 C13.63192314 85.89797461 13.32567957 84.48749975 13.01879883 83.0771637 C12.21074817 79.35510536 11.41162927 75.63118404 10.61437988 71.90679932 C9.80801764 68.14702724 8.99360509 64.38900175 8.1796875 60.63085938 C6.72397117 53.90557943 5.27592363 47.17869273 3.83300781 40.45065308 C3.2174985 37.61381842 2.58018296 34.78323041 1.93359375 31.95336914 C1.26991114 28.86239565 0.92276305 26.32217276 1.125 23.1875 C0.465 23.1875 -0.195 23.1875 -0.875 23.1875 C-0.98674561 24.43208984 -1.09849121 25.67667969 -1.21362305 26.95898438 C-1.8545964 32.69510535 -3.13328759 38.23212909 -4.45703125 43.84375 C-4.71248215 44.94489136 -4.96793304 46.04603271 -5.23112488 47.18054199 C-6.04509664 50.68400407 -6.86618885 54.18575206 -7.6875 57.6875 C-8.22768152 60.0077036 -8.76739908 62.32801526 -9.30664062 64.6484375 C-10.3466914 69.12114488 -11.39293415 73.59233334 -12.44384766 78.0625 C-13.34286208 81.89178167 -14.22486291 85.72396832 -15.08349609 89.5625 C-15.26393967 90.35942261 -15.44438324 91.15634521 -15.6302948 91.97741699 C-15.95679861 93.42245879 -16.27778965 94.86876267 -16.59199524 96.31652832 C-17.65048171 100.96298171 -17.65048171 100.96298171 -19.875 103.1875 C-25.05080601 104.22004716 -30.1229448 104.34068634 -35.375 104.3125 C-36.09558594 104.31636719 -36.81617188 104.32023437 -37.55859375 104.32421875 C-42.09661372 104.31601257 -46.39768939 103.92979097 -50.875 103.1875 C-53.18213137 97.38949531 -54.8448662 91.68179506 -56.22265625 85.6015625 C-56.4357695 84.68255661 -56.64888275 83.76355072 -56.86845398 82.81669617 C-57.56321492 79.81644444 -58.25053265 76.81454494 -58.9375 73.8125 C-59.91053838 69.58932946 -60.88676528 65.36689885 -61.86328125 61.14453125 C-62.11061005 60.0727916 -62.35793884 59.00105194 -62.61276245 57.89683533 C-64.31328618 50.54835766 -66.06758277 43.21439292 -67.85546875 35.88671875 C-68.32613759 33.94906743 -68.79676031 32.0114049 -69.26733398 30.07373047 C-69.94122559 27.30045477 -70.61804353 24.52807398 -71.30447388 21.75787354 C-71.93506087 19.21158034 -72.55453321 16.66281245 -73.171875 14.11328125 C-73.36085861 13.36439133 -73.54984222 12.6155014 -73.74455261 11.84391785 C-75.31589451 5.27465015 -75.31589451 5.27465015 -73.875 2.1875 C-71.61244135 1.05622067 -70.35712091 1.05859415 -67.84765625 1.0546875 C-67.05552734 1.05339844 -66.26339844 1.05210937 -65.44726562 1.05078125 C-64.20493164 1.05658203 -64.20493164 1.05658203 -62.9375 1.0625 C-62.11314453 1.05863281 -61.28878906 1.05476562 -60.43945312 1.05078125 C-59.64603516 1.05207031 -58.85261719 1.05335938 -58.03515625 1.0546875 C-56.94666382 1.05637939 -56.94666382 1.05637939 -55.83618164 1.05810547 C-53.875 1.1875 -53.875 1.1875 -50.875 2.1875 C-50.14233398 3.91015625 -50.14233398 3.91015625 -49.62109375 6.25 C-49.41121826 7.169021 -49.20134277 8.08804199 -48.98510742 9.03491211 C-48.76314697 10.07526611 -48.54118652 11.11562012 -48.3125 12.1875 C-48.06927002 13.28006104 -47.82604004 14.37262207 -47.57543945 15.49829102 C-44.2719739 30.56356791 -41.25773719 45.69491116 -38.21459961 60.81445312 C-37.89492218 62.39910118 -37.89492218 62.39910118 -37.56878662 64.01576233 C-37.16405216 66.02391471 -36.76094513 68.03239598 -36.35968018 70.04124451 C-36.17870789 70.93892044 -35.9977356 71.83659637 -35.8112793 72.76147461 C-35.65394821 73.54687119 -35.49661713 74.33226776 -35.33451843 75.14146423 C-34.87002952 77.37017143 -34.87002952 77.37017143 -33.875 80.1875 C-33.69152008 79.35557632 -33.50804016 78.52365265 -33.31900024 77.66651917 C-31.58318897 69.79616789 -29.84730885 61.9258318 -28.11135292 54.05551243 C-27.21905454 50.01007971 -26.32678205 45.96464128 -25.43457031 41.91918945 C-24.57227079 38.00936976 -23.70990119 34.09956553 -22.84748459 30.18977165 C-22.5197644 28.70398437 -22.19206874 27.21819167 -21.86439896 25.73239326 C-21.70737881 25.02040213 -21.55035866 24.30841099 -21.38858032 23.57484436 C-21.23618582 22.88336272 -21.08379131 22.19188108 -20.92677879 21.47944546 C-20.49572961 19.52716888 -20.06203547 17.57547686 -19.62823486 15.62380981 C-19.16551799 13.51286326 -18.71504658 11.39913213 -18.28533936 9.28121948 C-17.0786112 3.3911112 -17.0786112 3.3911112 -14.875 1.1875 C-9.94811893 0.01193719 -5.03571749 0.00420344 0 0 Z " fill="#000000" transform="translate(686.875,207.8125)"/>
<path d="M0 0 C1.59424805 -0.01836914 1.59424805 -0.01836914 3.22070312 -0.03710938 C14.45211276 -0.05815511 14.45211276 -0.05815511 17.9375 2.1875 C19.84601088 5.32147105 20.84310307 8.70026912 21.9375 12.1875 C22.14431396 12.83106445 22.35112793 13.47462891 22.56420898 14.13769531 C24.33063897 19.63665756 26.01307333 25.15996675 27.6875 30.6875 C28.21739328 32.42687367 28.7476698 34.16613063 29.27832031 35.90527344 C30.07530523 38.51778526 30.87189369 41.13041183 31.66668701 43.74359131 C33.25859577 48.97578871 34.86877115 54.20181008 36.5 59.421875 C36.87415039 60.62263672 37.24830078 61.82339844 37.63378906 63.06054688 C38.32029871 65.26068624 39.00961301 67.45995305 39.70214844 69.65820312 C40.0015332 70.62177734 40.30091797 71.58535156 40.609375 72.578125 C40.8681543 73.40344727 41.12693359 74.22876953 41.39355469 75.07910156 C41.9375 77.1875 41.9375 77.1875 41.9375 80.1875 C42.5975 80.1875 43.2575 80.1875 43.9375 80.1875 C44.02668701 79.29885254 44.11587402 78.41020508 44.20776367 77.49462891 C45.0554559 71.60707461 46.9228222 65.96217316 48.61328125 60.2734375 C48.97971237 59.02680328 49.34614349 57.78016907 49.72367859 56.49575806 C50.69596075 53.18854569 51.67418199 49.88311844 52.65356445 46.57800293 C53.44231712 43.91261298 54.22689134 41.24600245 55.01121235 38.57930565 C57.30593107 30.7778568 59.60456594 22.97761995 61.9375 15.1875 C62.48596085 13.3517038 62.48596085 13.3517038 63.04550171 11.4788208 C63.40326691 10.29552185 63.7610321 9.1122229 64.12963867 7.89306641 C64.45252365 6.82182526 64.77540863 5.75058411 65.108078 4.6468811 C65.9375 2.1875 65.9375 2.1875 66.9375 1.1875 C72.79701621 0.25050529 78.51206261 0.03396659 84.4375 0.0625 C85.24058594 0.05863281 86.04367187 0.05476563 86.87109375 0.05078125 C100.82339438 0.07339438 100.82339438 0.07339438 103.9375 3.1875 C104.13647107 6.25043992 104.21012319 9.22300453 104.19628906 12.28710938 C104.1997937 13.23028519 104.20329834 14.173461 104.20690918 15.1452179 C104.21573728 18.27396935 104.20987352 21.4024961 104.203125 24.53125 C104.20447134 26.6983647 104.20641161 28.86547911 104.20892334 31.03259277 C104.21187607 35.57888662 104.20757217 40.12510198 104.19824219 44.67138672 C104.18684761 50.50937903 104.19340628 56.34718747 104.20538712 62.18517303 C104.21260169 66.66145217 104.21031964 71.13768746 104.20513153 75.6139679 C104.20379392 77.76703411 104.20544663 79.92010427 104.21009064 82.07316589 C104.21514924 85.07818198 104.20745497 88.08289705 104.19628906 91.08789062 C104.20033752 91.98457962 104.20438599 92.88126862 104.20855713 93.80513 C104.16602753 99.95897247 104.16602753 99.95897247 101.9375 102.1875 C99.3984375 102.671875 99.3984375 102.671875 96.3125 102.9375 C95.30960938 103.03546875 94.30671875 103.1334375 93.2734375 103.234375 C89.9375 103.1875 89.9375 103.1875 81.9375 101.1875 C81.6075 75.1175 81.2775 49.0475 80.9375 22.1875 C76.9775 34.0675 73.0175 45.9475 68.9375 58.1875 C64.57891786 71.06042132 64.57891786 71.06042132 62.58789062 76.86401367 C61.77261483 79.24130244 60.96046936 81.61964828 60.1484375 83.99804688 C59.61736239 85.54953904 59.08612027 87.10097406 58.5546875 88.65234375 C58.31829559 89.34480698 58.08190369 90.0372702 57.83834839 90.75071716 C54.36701678 100.8519716 54.36701678 100.8519716 52.27734375 102.484375 C48.97272718 103.47741504 45.94534251 103.45115844 42.5 103.4375 C41.20191406 103.44265625 39.90382813 103.4478125 38.56640625 103.453125 C35.01069794 103.19285787 33.01425371 102.92474286 29.9375 101.1875 C28.48997498 98.44619751 28.48997498 98.44619751 27.32202148 94.90869141 C27.1033844 94.26443207 26.88474731 93.62017273 26.65948486 92.95639038 C25.94060767 90.82299336 25.24970225 88.68159997 24.55859375 86.5390625 C24.06135205 85.04552624 23.56238762 83.55256253 23.06178284 82.06015015 C21.74575557 78.12144833 20.45321014 74.17542173 19.16540527 70.22741699 C17.8643979 66.25246274 16.54173205 62.28474163 15.22070312 58.31640625 C12.88245035 51.28279205 10.56335428 44.24311499 8.25804138 37.19863892 C6.49937041 31.8566832 4.71596604 26.52289811 2.9375 21.1875 C2.6075 47.5875 2.2775 73.9875 1.9375 101.1875 C-7.13458872 103.45552218 -7.13458872 103.45552218 -12.4375 102.9375 C-13.45585937 102.84984375 -14.47421875 102.7621875 -15.5234375 102.671875 C-18.0625 102.1875 -18.0625 102.1875 -20.0625 100.1875 C-20.25621373 97.12432913 -20.32462164 94.15185546 -20.30541992 91.08789062 C-20.30731827 90.14471481 -20.30921661 89.201539 -20.31117249 88.2297821 C-20.31488792 85.10102113 -20.3041651 81.97249047 -20.29296875 78.84375 C-20.29177727 76.67663602 -20.29132372 74.50952152 -20.2915802 72.34240723 C-20.290014 67.79610979 -20.28171396 63.24989095 -20.26831055 58.70361328 C-20.25132054 52.86566296 -20.24749614 47.02779911 -20.24825573 41.18982697 C-20.24798425 36.71355356 -20.24250665 32.23729919 -20.23525429 27.7610321 C-20.23206411 25.60796757 -20.2300994 23.45490088 -20.22936058 21.30183411 C-20.22720072 18.29688821 -20.2184641 15.29203539 -20.20776367 12.28710938 C-20.20821686 11.39042038 -20.20867004 10.49373138 -20.20913696 9.56987 C-20.17697618 3.41645235 -20.17697618 3.41645235 -19.0625 1.1875 C-12.7914045 -0.18184909 -6.39196257 0.00389042 0 0 Z " fill="#000000" transform="translate(428.0625,76.8125)"/>
<path d="M0 0 C2.00288838 -0.00968281 4.00563489 -0.04088203 6.00830078 -0.07226562 C18.94181296 -0.12323513 33.86489062 0.98282553 43.86767578 10.16601562 C49.09554019 15.86621275 51.0570079 20.34566418 51.08251953 28.17773438 C51.09927734 29.36238281 51.11603516 30.54703125 51.13330078 31.76757812 C50.52502706 37.58215163 47.74593539 42.03712332 43.77001953 46.24023438 C40.52001953 48.05273438 40.52001953 48.05273438 37.77001953 49.24023438 C38.85669922 49.76810547 38.85669922 49.76810547 39.96533203 50.30664062 C47.2954962 54.04991113 52.36153735 57.53274647 56.14501953 64.92773438 C57.79361111 73.66526973 57.60006461 81.58477076 52.77001953 89.24023438 C44.0229097 99.64220282 32.85593847 102.70760022 19.77001953 104.24023438 C15.03850194 104.45806364 10.32512358 104.48788489 5.58959961 104.44604492 C3.47057882 104.42784653 1.35200097 104.4255359 -0.76708984 104.42578125 C-25.98677 104.36183961 -25.98677 104.36183961 -30.22998047 102.24023438 C-30.22998047 69.57023437 -30.22998047 36.90023437 -30.22998047 3.24023438 C-20.07564693 0.33899622 -10.53764069 0.0306401 0 0 Z M-6.22998047 19.24023438 C-6.22998047 26.83023438 -6.22998047 34.42023438 -6.22998047 42.24023438 C9.24184074 43.01634363 9.24184074 43.01634363 23.77001953 38.61523438 C26.5313956 35.3361003 27.0658724 32.48360974 26.77001953 28.24023438 C25.16907622 24.44852654 23.18339932 22.4556202 19.77001953 20.24023438 C10.96495154 17.68348327 2.77542524 17.95374785 -6.22998047 19.24023438 Z M-7.22998047 60.24023438 C-7.2588503 64.21938596 -7.27673453 68.19851091 -7.29248047 72.17773438 C-7.30085937 73.31404297 -7.30923828 74.45035156 -7.31787109 75.62109375 C-7.32109375 76.70068359 -7.32431641 77.78027344 -7.32763672 78.89257812 C-7.33287354 79.89281006 -7.33811035 80.89304199 -7.34350586 81.92358398 C-7.49179142 84.20230665 -7.49179142 84.20230665 -6.22998047 85.24023438 C-2.40442946 85.52379948 1.43523346 85.47218832 5.27001953 85.49023438 C6.86716797 85.52117187 6.86716797 85.52117187 8.49658203 85.55273438 C16.51727635 85.59214811 23.20178345 84.78897444 29.83251953 80.05273438 C31.92054136 77.02173495 32.5176614 74.92773907 32.23876953 71.23242188 C31.39388339 67.64165578 29.68942223 65.34445766 26.77001953 63.24023438 C19.40872971 59.96309201 12.06991974 59.86496335 4.14501953 60.05273438 C3.04544922 60.06626953 1.94587891 60.07980469 0.81298828 60.09375 C-1.86853379 60.12872637 -4.5489812 60.17780365 -7.22998047 60.24023438 Z " fill="#000000" transform="translate(930.22998046875,75.759765625)"/>
<path d="M0 0 C1.051875 0.721875 2.10375 1.44375 3.1875 2.1875 C14.98961826 13.98961826 18.27692506 29.29064435 18.3190918 45.39208984 C18.08681491 61.11198993 13.29835645 74.21475015 2.4296875 85.70703125 C-8.42335858 95.94937538 -22.92831975 98.61341366 -37.41015625 98.40454102 C-51.77647086 97.86767159 -64.38541935 94.2197579 -74.96484375 84.21875 C-83.08892021 75.36179141 -87.50513828 62.95915813 -88 51 C-88.0515625 49.90171875 -88.103125 48.8034375 -88.15625 47.671875 C-88.53546325 32.31373846 -85.81640049 18.47229862 -75.82421875 6.36328125 C-56.52878716 -13.79861186 -22.60185753 -16.2051054 0 0 Z M-55.3828125 17.0625 C-62.45179753 25.53162216 -63.85831383 37.25319561 -63 48 C-62.21865193 55.35443867 -60.95145017 61.6894751 -57 68 C-56.46375 68.886875 -55.9275 69.77375 -55.375 70.6875 C-49.39467392 76.51044908 -43.16661185 78.48083307 -34.875 78.5 C-26.26371537 78.2810353 -20.93409462 77.27524009 -14.75 71.125 C-6.16245076 60.57651432 -5.67203992 47.02388853 -7 34 C-8.48149166 25.91754257 -11.57052065 19.27318958 -18 14 C-29.60113716 6.60373597 -45.43876833 7.15971742 -55.3828125 17.0625 Z " fill="#000000" transform="translate(589,216)"/>
<path d="M0 0 C7.0021263 7.19897322 8.25017657 15.07589966 8.26000977 24.71679688 C8.07810343 34.24911916 5.24694636 41.3491564 -1.2734375 48.34375 C-3.10855073 50.05008335 -5.02157888 51.53758854 -7.0546875 53 C-5.5688724 57.19587184 -3.47369347 60.60236304 -0.9921875 64.2890625 C-0.60023193 64.87416595 -0.20827637 65.45926941 0.19555664 66.06210327 C1.44114362 67.91935579 2.69309216 69.77221517 3.9453125 71.625 C4.7868853 72.87731734 5.62803545 74.12991883 6.46875 75.3828125 C8.00911884 77.67707429 9.55239481 79.96927437 11.09765625 82.26025391 C14.9500083 87.97260785 14.9500083 87.97260785 14.5703125 90.1875 C14.2609375 91.0846875 14.2609375 91.0846875 13.9453125 92 C6.37429311 94.06795021 -2.351848 94.58275212 -10.0546875 93 C-13.64839208 90.58345407 -15.22265834 87.77691232 -17.08398438 83.91455078 C-18.65204147 80.82181845 -20.52620052 77.92361754 -22.36108398 74.98388672 C-24.22354303 71.98958152 -26.02945022 68.9629528 -27.83129883 65.93188477 C-28.23501709 65.29436279 -28.63873535 64.65684082 -29.0546875 64 C-29.50779297 63.27127686 -29.96089844 62.54255371 -30.42773438 61.79174805 C-31.90592542 59.83627571 -31.90592542 59.83627571 -34.1394043 59.45410156 C-35.30983276 59.42268066 -35.30983276 59.42268066 -36.50390625 59.390625 C-37.26791748 59.36000977 -38.03192871 59.32939453 -38.8190918 59.29785156 C-39.78371338 59.28206055 -40.74833496 59.26626953 -41.7421875 59.25 C-44.8153125 59.1675 -47.8884375 59.085 -51.0546875 59 C-51.0546875 69.89 -51.0546875 80.78 -51.0546875 92 C-53.77520036 92.90683762 -55.38201756 93.12842547 -58.1796875 93.1328125 C-59.36304688 93.13474609 -59.36304688 93.13474609 -60.5703125 93.13671875 C-61.39015625 93.13285156 -62.21 93.12898438 -63.0546875 93.125 C-64.28445313 93.13080078 -64.28445313 93.13080078 -65.5390625 93.13671875 C-66.32796875 93.13542969 -67.116875 93.13414062 -67.9296875 93.1328125 C-68.64898438 93.13168457 -69.36828125 93.13055664 -70.109375 93.12939453 C-72.0546875 93 -72.0546875 93 -75.0546875 92 C-75.0546875 59 -75.0546875 26 -75.0546875 -8 C-52.14831242 -12.58127502 -19.30935413 -16.05652386 0 0 Z M-51.0546875 10 C-51.07934496 14.1117256 -51.09752709 18.22342278 -51.10961914 22.33520508 C-51.1146583 23.73495228 -51.12148966 25.1346942 -51.13012695 26.53442383 C-51.1422107 28.54245777 -51.14738557 30.55052957 -51.15234375 32.55859375 C-51.15758057 33.76829834 -51.16281738 34.97800293 -51.16821289 36.22436523 C-51.37244035 38.90812017 -51.37244035 38.90812017 -50.0546875 40 C-34.59827256 41.11647818 -34.59827256 41.11647818 -20.6171875 35.75 C-17.21431634 32.09813827 -16.08370141 29.57809274 -16.02734375 24.5703125 C-16.25489607 20.63774167 -16.75247434 17.61756602 -18.4921875 14.0625 C-25.64460135 8.30567909 -42.60823268 5.77677259 -51.0546875 10 Z " fill="#000000" transform="translate(944.0546875,218)"/>
<path d="M0 0 C0.7115625 -0.00773437 1.423125 -0.01546875 2.15625 -0.0234375 C6.23636184 -0.0082132 8.25536135 0.37768067 12 2.25 C12 14.79 12 27.33 12 40.25 C27.18 40.25 42.36 40.25 58 40.25 C58 27.71 58 15.17 58 2.25 C62.30056066 0.09971967 65.34970807 -0.0175322 70 0.0625 C71.06734375 0.0634668 71.06734375 0.0634668 72.15625 0.06445312 C75.66631673 0.09392197 78.5710576 0.3927644 82 1.25 C82 34.25 82 67.25 82 101.25 C78.17214707 102.52595098 74.5503343 102.43415169 70.5625 102.4375 C69.79873047 102.44974609 69.03496094 102.46199219 68.24804688 102.47460938 C67.50748047 102.47654297 66.76691406 102.47847656 66.00390625 102.48046875 C65.33174072 102.48457764 64.6595752 102.48868652 63.96704102 102.49291992 C62 102.25 62 102.25 58 100.25 C58 87.05 58 73.85 58 60.25 C42.82 60.25 27.64 60.25 12 60.25 C12 73.78 12 87.31 12 101.25 C8.17214707 102.52595098 4.5503343 102.43415169 0.5625 102.4375 C-0.20126953 102.44974609 -0.96503906 102.46199219 -1.75195312 102.47460938 C-2.49251953 102.47654297 -3.23308594 102.47847656 -3.99609375 102.48046875 C-4.66825928 102.48457764 -5.3404248 102.48868652 -6.03295898 102.49291992 C-8 102.25 -8 102.25 -12 100.25 C-12 67.91 -12 35.57 -12 2.25 C-7.71302852 0.10651426 -4.6404818 -0.05044002 0 0 Z " fill="#000000" transform="translate(1151,76.75)"/>
<path d="M0 0 C0.86753906 -0.01611328 1.73507812 -0.03222656 2.62890625 -0.04882812 C3.46292969 -0.04947266 4.29695312 -0.05011719 5.15625 -0.05078125 C5.91744141 -0.05376221 6.67863281 -0.05674316 7.46289062 -0.05981445 C10.15720908 0.43261551 10.86762389 1.11350088 12.5 3.3125 C12.87181091 6.20097351 12.87181091 6.20097351 12.86889648 9.76831055 C12.87266296 10.41914108 12.87642944 11.06997162 12.88031006 11.74052429 C12.8867423 13.15316516 12.88641265 14.56584931 12.88012505 15.97849083 C12.87100862 18.22015052 12.88124614 20.46097464 12.89674377 22.70259094 C12.93681428 29.07539549 12.9380551 35.44813535 12.93579102 41.82104492 C12.93573969 45.72152698 12.95502524 49.62156187 12.98512459 53.52192116 C12.99588968 55.72004999 12.98385224 57.91730225 12.97129822 60.11540222 C12.99328743 68.36168124 13.30256977 74.9703308 19.3125 81.1875 C27.12328592 85.20447562 35.9815053 85.58709178 44.375 83.125 C49.23355679 81.27370734 52.30910387 78.57520264 54.75 73.9375 C56.27145747 68.61239886 56.62764928 63.24940098 56.70532227 57.73461914 C56.72526749 56.47384048 56.74521271 55.21306183 56.76576233 53.91407776 C56.78273998 52.55860513 56.79961903 51.20313125 56.81640625 49.84765625 C56.83700759 48.44517957 56.85800483 47.04270865 56.87937927 45.64024353 C56.93427193 41.96935732 56.98382423 38.29841816 57.03222656 34.62744141 C57.08268293 30.87332511 57.13824233 27.11928462 57.19335938 23.36523438 C57.30053895 16.01438732 57.40207118 8.66347674 57.5 1.3125 C61.34586595 0.03054468 64.99322597 0.12834455 69 0.125 C69.77214844 0.11275391 70.54429687 0.10050781 71.33984375 0.08789062 C75.2482648 0.07773009 77.17641928 0.09677952 80.5 2.3125 C80.88095093 5.05380249 80.88095093 5.05380249 80.88818359 8.59130859 C80.89344055 9.23556793 80.89869751 9.87982727 80.90411377 10.54360962 C80.91735965 12.68296292 80.90854999 14.82157598 80.8984375 16.9609375 C80.9004594 18.45390973 80.90337181 19.946881 80.90713501 21.43984985 C80.91156656 24.57897281 80.90511004 27.7178403 80.89111328 30.85693359 C80.87416818 34.8489176 80.88376256 38.84028993 80.90183067 42.8322506 C80.91277327 45.92270341 80.90917224 49.01301616 80.9014473 52.10347366 C80.89946631 53.57283223 80.90182937 55.04220413 80.90888596 56.51154709 C80.95750036 69.50012759 79.84441397 81.79999594 71.5 92.3125 C66.01667124 97.7853243 59.84962343 101.02722647 52.5 103.3125 C51.778125 103.53808594 51.05625 103.76367188 50.3125 103.99609375 C35.74318791 107.66371572 18.37420186 106.4015646 4.75390625 100.02734375 C-3.36979298 95.10928637 -8.56630118 87.98729178 -10.9921875 78.8671875 C-12.08674691 73.36071172 -12.62834079 68.0118052 -12.66113281 62.39916992 C-12.66609772 61.74787109 -12.67106262 61.09657227 -12.67617798 60.42553711 C-12.69063745 58.29800319 -12.69756908 56.17054345 -12.703125 54.04296875 C-12.70595238 53.31270288 -12.70877975 52.58243702 -12.71169281 51.83004189 C-12.72660839 47.97629059 -12.73588982 44.12257609 -12.74023438 40.26879883 C-12.74575196 36.28612618 -12.76986968 32.30378975 -12.79820633 28.32122326 C-12.81678381 25.25609828 -12.82203536 22.19105582 -12.82357025 19.12587929 C-12.82660124 17.65661057 -12.83464479 16.18734346 -12.84775543 14.71813011 C-12.86473454 12.67177427 -12.86110275 10.6252784 -12.85644531 8.57885742 C-12.86009094 7.41416428 -12.86373657 6.24947113 -12.86749268 5.04948425 C-12.74622009 4.14627945 -12.62494751 3.24307465 -12.5 2.3125 C-8.32856144 -0.46845904 -4.90037332 -0.01820347 0 0 Z " fill="#000000" transform="translate(798.5,76.6875)"/>
<path d="M0 0 C24.42 0 48.84 0 74 0 C76.863911 7.1597775 76.44390766 10.66827703 74 18 C57.5 18 41 18 24 18 C24 25.26 24 32.52 24 40 C39.18 40 54.36 40 70 40 C71.66557774 44.16394434 72.27588659 45.87534393 72.25 50.0625 C72.25773438 51.31740234 72.25773438 51.31740234 72.265625 52.59765625 C72 55 72 55 70 59 C54.82 59 39.64 59 24 59 C24 66.59 24 74.18 24 82 C40.83 82 57.66 82 75 82 C77.27681661 87.69204152 77.27681661 87.69204152 77.25 91.5 C77.25773438 92.59828125 77.25773438 92.59828125 77.265625 93.71875 C76.95404751 96.39465082 76.03325723 98.52305565 75 101 C65.36887288 101.02312465 55.73775526 101.04091571 46.10660648 101.05181217 C41.63494451 101.05704074 37.16330147 101.06413789 32.69165039 101.07543945 C28.37988027 101.08626929 24.06812841 101.09227704 19.75634575 101.09487724 C18.10763702 101.09673132 16.45892934 101.1003516 14.81022835 101.10573006 C12.50896128 101.11294178 10.2077706 101.11399089 7.90649414 101.11352539 C5.93792198 101.11685631 5.93792198 101.11685631 3.92958069 101.12025452 C1 101 1 101 0 100 C-0.09533653 96.8949275 -0.12551126 93.81213542 -0.11352539 90.70678711 C-0.11367142 89.73128403 -0.11381744 88.75578094 -0.1139679 87.75071716 C-0.11326833 84.50957047 -0.10547391 81.26848046 -0.09765625 78.02734375 C-0.09579222 75.78674857 -0.09436825 73.54615298 -0.09336853 71.30555725 C-0.08954213 65.3954049 -0.0797108 59.48527695 -0.06866455 53.57513428 C-0.0566591 46.49084731 -0.05204877 39.40655221 -0.04621124 32.322258 C-0.03649911 21.548155 -0.0173434 10.7741056 0 0 Z " fill="#000000" transform="translate(776,210)"/>
<path d="M0 0 C7.31971324 6.94028966 10.02105913 13.2072101 10.34936523 23.18994141 C10.4773944 34.41505128 8.96214223 43.56616688 1 52 C-11.71592135 64.22684745 -32.67897179 63.249176 -49 63 C-49 72.57 -49 82.14 -49 92 C-53.30056066 94.15028033 -56.34970807 94.2675322 -61 94.1875 C-62.06734375 94.1865332 -62.06734375 94.1865332 -63.15625 94.18554688 C-66.66631673 94.15607803 -69.5710576 93.8572356 -73 93 C-73 60 -73 27 -73 -7 C-51.06181534 -10.98876085 -18.74785615 -15.33915503 0 0 Z M-49 11 C-49.08843793 13.44830426 -49.11528752 15.86820599 -49.09765625 18.31640625 C-49.0962413 19.04746078 -49.09482635 19.77851532 -49.09336853 20.53172302 C-49.08775408 22.87535632 -49.07519922 25.21889539 -49.0625 27.5625 C-49.05748686 29.14778508 -49.05292363 30.73307166 -49.04882812 32.31835938 C-49.03777997 36.2122761 -49.02050572 40.10612205 -49 44 C-46.95708116 44.02214597 -44.91409132 44.03779035 -42.87109375 44.05078125 C-41.16457642 44.06492065 -41.16457642 44.06492065 -39.42358398 44.0793457 C-32.38531235 43.91622524 -24.92130441 43.04381764 -19 39 C-14.9657208 34.42054793 -13.75689431 29.98647765 -14 24 C-14.83924751 19.42448714 -16.18273306 16.7222359 -19.6875 13.625 C-26.36776266 10.34789002 -32.62443917 9.6913595 -39.9375 9.8125 C-41.08702148 9.8134668 -41.08702148 9.8134668 -42.25976562 9.81445312 C-45.93082818 9.5068112 -45.93082818 9.5068112 -49 11 Z " fill="#000000" transform="translate(482,217)"/>
<path d="M0 0 C4.24768995 4.39939316 5.11662185 9.44327231 5.125 15.375 C5.09316134 16.91690094 5.05482724 18.45874525 5 20 C0.14929085 19.14556316 -4.32771368 17.56498307 -8.96484375 15.9375 C-17.20833215 13.39124876 -28.1481763 12.02119068 -36.3125 15.375 C-39.08482701 16.72465986 -39.08482701 16.72465986 -40 19 C-40.59998766 23.09005953 -40.59998766 23.09005953 -40 27 C-35.00775011 32.48371491 -28.64841067 34.17180578 -21.75 36.4375 C-10.12618547 40.26823268 2.15003192 44.44759139 8.02734375 56.0234375 C11.30383199 64.38829688 11.12736466 74.08624486 8.234375 82.546875 C3.77263592 91.41387544 -3.21243533 96.75429246 -12.39819336 99.79345703 C-19.25704386 101.82009481 -25.55082185 102.51016309 -32.6875 102.4375 C-33.72753174 102.43065186 -34.76756348 102.42380371 -35.83911133 102.41674805 C-45.20565935 102.22358605 -56.48848079 101.93518502 -63.84375 95.51953125 C-68.84346479 89.67747321 -68.23389525 83.30272951 -68 76 C-62.70788977 76.96038295 -57.62444596 78.53770479 -52.47265625 80.0625 C-46.31328646 81.72532199 -40.47039192 82.23305018 -34.125 82.3125 C-33.36058594 82.34150391 -32.59617187 82.37050781 -31.80859375 82.40039062 C-26.2036639 82.46224469 -21.56738698 81.40262985 -17 78 C-14.92408477 73.92505528 -14.82697559 71.83628463 -15.75 67.375 C-19.72368791 59.83002296 -30.52141966 58.10534112 -38 55.5625 C-49.9113976 51.49511352 -59.2564499 47.47074313 -65.1328125 35.73828125 C-67.38341826 28.63163874 -67.20065264 18.72705445 -64.3125 11.875 C-63.58539768 10.55822021 -62.81737818 9.26272709 -62 8 C-61.34 6.948125 -60.68 5.89625 -60 4.8125 C-46.205855 -10.42472478 -16.43859525 -9.15627383 0 0 Z " fill="#000000" transform="translate(1113,80)"/>
<path d="M0 0 C1.42578125 1.90234375 1.42578125 1.90234375 2.3125 3.9375 C2.77076172 4.94103516 2.77076172 4.94103516 3.23828125 5.96484375 C4.90578907 10.42008259 5.09178616 14.22711961 5 19 C1.38601615 20.20466128 0.7940881 19.71224227 -2.5625 18.1875 C-12.58989789 14.00580016 -25.75141137 11.23905695 -36.25 15.25 C-39.67530246 17.39520759 -39.67530246 17.39520759 -41 21 C-41 24.91056812 -40.45634468 26.51248642 -37.76953125 29.3828125 C-32.8205457 33.32061188 -26.59426281 34.92404773 -20.6875 36.9375 C-9.11542593 40.88295429 2.45712685 44.9142537 8.25 56.5 C11.10864244 66.02880814 10.74833418 75.77150636 7 85 C2.62279629 91.49463151 -2.54522341 96.46591227 -10 99 C-11.16789063 99.44279297 -11.16789063 99.44279297 -12.359375 99.89453125 C-29.21058198 105.22749993 -47.62519375 102.45826875 -64 97 C-68.09138441 90.93346449 -68.73344854 84.13025145 -69 77 C-64.82183505 75.20317259 -61.16651806 76.98086166 -57.125 78.375 C-49.38211438 80.98948086 -42.30471728 82.21008284 -34.125 82.3125 C-33.36058594 82.34150391 -32.59617187 82.37050781 -31.80859375 82.40039062 C-26.12820917 82.46307738 -21.71170634 81.26896288 -17 78 C-15.86375881 75.72751762 -15.73553157 74.21697236 -15.625 71.6875 C-15.57601562 70.92824219 -15.52703125 70.16898437 -15.4765625 69.38671875 C-16.29039857 65.67586923 -18.0522159 64.34990234 -21 62 C-23.93925806 60.57380651 -26.96637448 59.53285599 -30.0625 58.5 C-31.76877898 57.89869329 -33.47450973 57.29582869 -35.1796875 56.69140625 C-36.0056543 56.40281738 -36.83162109 56.11422852 -37.68261719 55.81689453 C-49.43122104 51.67542503 -59.2318086 47.61065136 -65 36 C-67.35814866 28.92555403 -67.24922966 18.79052469 -64.3125 11.875 C-59.73386668 3.51263498 -54.01524958 -1.00555385 -45.0546875 -3.9765625 C-30.68736455 -7.75372111 -13.0983711 -7.83663228 0 0 Z " fill="#000000" transform="translate(762,80)"/>
<path d="M0 0 C0.81637939 -0.00175232 1.63275879 -0.00350464 2.47387695 -0.00531006 C5.18052274 -0.0097221 7.88710352 -0.00679285 10.59375 -0.00341797 C12.46940117 -0.00409119 14.34505225 -0.00506138 16.22070312 -0.00631714 C20.15495635 -0.00779323 24.0891869 -0.00564238 28.0234375 -0.00097656 C33.07444056 0.00472067 38.12539049 0.0014412 43.1763916 -0.00454903 C47.05045983 -0.00815701 50.92451539 -0.00701495 54.79858398 -0.00442123 C56.66137702 -0.00375262 58.52417119 -0.0045781 60.38696289 -0.00690079 C62.98717305 -0.00943118 65.58729633 -0.00558121 68.1875 0 C68.96262939 -0.00202423 69.73775879 -0.00404846 70.53637695 -0.00613403 C75.86522156 0.01513031 75.86522156 0.01513031 78.09375 1.12939453 C79.21191871 4.26311577 79.25855551 7.32507613 79.28125 10.62939453 C79.29542969 11.56783203 79.30960938 12.50626953 79.32421875 13.47314453 C79.09375 16.12939453 79.09375 16.12939453 77.09375 20.12939453 C66.86375 20.12939453 56.63375 20.12939453 46.09375 20.12939453 C46.09375 46.85939453 46.09375 73.58939453 46.09375 101.12939453 C43.37323714 102.03623215 41.76641994 102.25782 38.96875 102.26220703 C38.17984375 102.26349609 37.3909375 102.26478516 36.578125 102.26611328 C35.75828125 102.26224609 34.9384375 102.25837891 34.09375 102.25439453 C32.86398437 102.26019531 32.86398437 102.26019531 31.609375 102.26611328 C30.42601562 102.26417969 30.42601562 102.26417969 29.21875 102.26220703 C28.49945312 102.2610791 27.78015625 102.25995117 27.0390625 102.25878906 C25.09375 102.12939453 25.09375 102.12939453 22.09375 101.12939453 C22.09375 74.39939453 22.09375 47.66939453 22.09375 20.12939453 C11.86375 20.12939453 1.63375 20.12939453 -8.90625 20.12939453 C-10.86128366 16.21932721 -11.15687182 14.80691119 -11.09375 10.62939453 C-11.08730469 9.69095703 -11.08085938 8.75251953 -11.07421875 7.78564453 C-10.92317677 5.39707363 -10.70968721 3.3810657 -9.90625 1.12939453 C-6.7746664 -0.43639727 -3.43735206 -0.00897656 0 0 Z " fill="#000000" transform="translate(605.90625,76.87060546875)"/>
<path d="M0 0 C0.74056641 0.00193359 1.48113281 0.00386719 2.24414062 0.00585938 C3.00791016 0.01810547 3.77167969 0.03035156 4.55859375 0.04296875 C5.32623047 0.04361328 6.09386719 0.04425781 6.88476562 0.04492188 C10.16688056 0.07067517 12.86348412 0.18626554 15.99609375 1.23046875 C17.70960366 4.65748856 17.12468358 8.59146678 17.10961914 12.36181641 C17.10976517 13.3082048 17.10991119 14.2545932 17.11006165 15.22966003 C17.10936317 18.3679735 17.10157377 21.50622812 17.09375 24.64453125 C17.09188559 26.81643644 17.0904618 28.98834204 17.08946228 31.1602478 C17.08563891 36.88461462 17.07581014 42.60895617 17.0647583 48.33331299 C17.05454032 54.17142393 17.04996383 60.00953895 17.04492188 65.84765625 C17.03418773 77.30860486 17.01711345 88.76953471 16.99609375 100.23046875 C12.87162098 102.54559923 9.12971868 102.52767036 4.49609375 102.48046875 C3.35720703 102.49207031 3.35720703 102.49207031 2.1953125 102.50390625 C-1.99205346 102.48923947 -4.1755175 102.14466313 -8.00390625 100.23046875 C-8.00390625 67.89046875 -8.00390625 35.55046875 -8.00390625 2.23046875 C-3.50017623 -0.02139626 -3.50017623 -0.02139626 0 0 Z " fill="#000000" transform="translate(1011.00390625,76.76953125)"/>
<path d="M0 0 C1.06734375 0.0009668 1.06734375 0.0009668 2.15625 0.00195312 C5.66631673 0.03142197 8.5710576 0.3302644 12 1.1875 C12 34.1875 12 67.1875 12 101.1875 C8.17214707 102.46345098 4.5503343 102.37165169 0.5625 102.375 C-0.20126953 102.38724609 -0.96503906 102.39949219 -1.75195312 102.41210938 C-2.49251953 102.41404297 -3.23308594 102.41597656 -3.99609375 102.41796875 C-4.66825928 102.42207764 -5.3404248 102.42618652 -6.03295898 102.43041992 C-8 102.1875 -8 102.1875 -12 100.1875 C-12 67.8475 -12 35.5075 -12 2.1875 C-7.69943934 0.03721967 -4.65029193 -0.0800322 0 0 Z " fill="#000000" transform="translate(1268,76.8125)"/>
<path d="M0 0 C0.7115625 -0.00773437 1.423125 -0.01546875 2.15625 -0.0234375 C6.23636184 -0.0082132 8.25536135 0.37768067 12 2.25 C12 34.59 12 66.93 12 100.25 C7.49626998 102.50186501 7.49626998 102.50186501 3.99609375 102.48046875 C3.25552734 102.47853516 2.51496094 102.47660156 1.75195312 102.47460938 C0.98818359 102.46236328 0.22441406 102.45011719 -0.5625 102.4375 C-1.33013672 102.43685547 -2.09777344 102.43621094 -2.88867188 102.43554688 C-6.17078681 102.40979358 -8.86739037 102.29420321 -12 101.25 C-12 68.58 -12 35.91 -12 2.25 C-7.71302852 0.10651426 -4.6404818 -0.05044002 0 0 Z " fill="#000000" transform="translate(567,76.75)"/>
</svg>
