<svg width="125" height="20" viewBox="0 0 125 20" fill="none" xmlns="http://www.w3.org/2000/svg">
<path d="M11.2558 8.32028V15.7773H9.3064V8.66867C9.3064 6.39869 7.99819 5.05704 5.84072 5.07867C3.77546 5.07867 2.30641 6.59344 2.28282 8.22939V15.7773H0.333374V3.57473H2.16916V5.35782C2.94979 4.20011 4.41884 3.31938 6.33827 3.31938C9.44365 3.31938 11.2558 5.28858 11.2558 8.32028Z" fill="black"/>
<path d="M19.6867 14.2006C21.6597 14.2006 22.7621 13.4367 23.3583 12.0236L25.0568 13.0667C24.1625 14.7978 22.4833 16.0529 19.6181 16.0529C15.9015 16.0529 13.3773 13.322 13.3773 9.68658C13.3773 6.14203 16.0602 3.29427 19.4808 3.29427C23.1267 3.29427 25.4471 6.18963 25.4471 9.40743C25.4471 9.75583 25.4235 10.1713 25.4021 10.4028H15.346C15.6935 12.6728 17.4606 14.2006 19.6867 14.2006ZM23.4505 8.69116C23.1524 6.39737 21.5697 5.01244 19.5495 5.01244C17.5292 5.01244 15.7406 6.38006 15.3718 8.69116H23.4505Z" fill="black"/>
<path d="M38.1843 3.57608V15.7786H36.325V14.0474C35.8571 14.6784 35.2469 15.1877 34.545 15.5332C33.843 15.8787 33.0696 16.0503 32.2888 16.034C29.192 16.034 27.4699 13.9955 27.4699 11.1001V3.57608H29.4215V10.8686C29.4215 12.9308 30.7275 14.2963 32.7928 14.2725C34.858 14.2487 36.2134 12.7924 36.237 11.243V3.57608H38.1843Z" fill="black"/>
<path d="M46.3435 3.31938V5.14792C44.1389 5.17172 42.6012 6.67784 42.6012 8.41332V15.7708H40.6539V3.57473H42.4897V5.35782C42.9213 4.72945 43.4973 4.21584 44.1684 3.86087C44.8395 3.5059 45.5858 3.32011 46.3435 3.31938Z" fill="black"/>
<path d="M87.2854 5.1067C86.271 3.85809 84.7633 3.17429 82.9962 3.17429C79.4018 3.17429 76.794 5.90303 76.794 9.66614C76.759 11.4116 77.3848 13.1048 78.544 14.4009C79.1166 15.0092 79.8077 15.4915 80.5739 15.8173C81.3401 16.1432 82.1648 16.3056 82.9962 16.2943C84.7526 16.2943 86.2624 15.5867 87.2854 14.2905V16.039H89.6144V3.31278H87.2854V5.1067ZM87.2168 9.66398C87.2168 12.2369 85.5761 14.0352 83.2299 14.0352C80.9567 14.0352 79.2431 12.1547 79.2431 9.66398C79.2431 7.17327 80.9588 5.3166 83.2299 5.3166C85.5761 5.3166 87.2168 7.10402 87.2168 9.66398Z" fill="black"/>
<path d="M101.795 5.19457L101.818 5.16644V3.31194H92.2598V5.45425H98.6485L91.9381 14.2507V16.036H102.069V13.8958H95.1314L101.795 5.19457Z" fill="black"/>
<path d="M109.687 3.03077C108.842 3.02842 108.005 3.19991 107.228 3.53476C106.451 3.86961 105.749 4.36079 105.167 4.97833C103.971 6.24597 103.31 7.93286 103.324 9.68276C103.289 11.4358 103.936 13.133 105.126 14.411C106.305 15.6358 107.974 16.3109 109.825 16.3109C112.516 16.3174 114.431 15.2658 115.503 13.2013L115.615 12.985L113.445 11.6476L113.329 11.9246C112.746 13.3031 111.656 13.9436 109.897 13.9436C108.952 13.9603 108.031 13.6413 107.296 13.0425C106.56 12.4437 106.056 11.603 105.872 10.6674H115.847L115.87 10.4315C115.894 10.1956 115.917 9.76932 115.917 9.4101C115.929 7.77051 115.325 6.18724 114.227 4.97833C113.647 4.35256 112.943 3.85608 112.161 3.52071C111.379 3.18533 110.537 3.01845 109.687 3.03077ZM105.891 8.44065C106.071 7.54348 106.554 6.73736 107.259 6.1608C107.963 5.58425 108.845 5.27326 109.752 5.28128C111.587 5.28128 112.988 6.5169 113.35 8.44065H105.891Z" fill="black"/>
<path d="M124.082 3.05803C123.409 3.05722 122.742 3.19561 122.124 3.46469C121.505 3.73377 120.948 4.12783 120.486 4.62257V3.31122H118.127V16.0353H120.593V8.41165C120.593 6.74757 122.124 5.42756 124.078 5.40809H124.333V3.05803H124.082Z" fill="black"/>
<path d="M53.6702 3.34916C52.4411 3.3513 51.2401 3.7209 50.219 4.41127C49.1979 5.10165 48.4024 6.08185 47.933 7.2281C47.4636 8.37435 47.3413 9.63524 47.5816 10.8515C47.822 12.0679 48.4141 13.185 49.2832 14.062C50.1524 14.939 51.2596 15.5365 52.465 15.779C53.6704 16.0214 54.92 15.8981 56.056 15.4245C57.192 14.9508 58.1635 14.1482 58.8477 13.1178C59.5319 12.0875 59.8982 10.8757 59.9003 9.63544C59.9017 8.80951 59.7415 7.99143 59.4289 7.2281C59.1164 6.46477 58.6575 5.77121 58.0787 5.18719C57.4999 4.60317 56.8125 4.14018 56.056 3.82477C55.2995 3.50936 54.4888 3.34774 53.6702 3.34916ZM53.6702 14.1906C52.7799 14.1884 51.9103 13.9201 51.1711 13.4195C50.4318 12.9188 49.8563 12.2084 49.517 11.3778C49.1778 10.5473 49.0902 9.63389 49.2651 8.7531C49.4401 7.8723 49.8699 7.0636 50.5002 6.42915C51.1304 5.7947 51.9329 5.36297 52.8063 5.1885C53.6796 5.01404 54.5846 5.10466 55.4069 5.44892C56.2292 5.79318 56.932 6.37564 57.4264 7.12271C57.9208 7.86978 58.1846 8.74794 58.1846 9.64626C58.1812 10.8523 57.7042 12.0078 56.858 12.8596C56.0118 13.7114 54.8655 14.19 53.6702 14.1906Z" fill="black"/>
<path d="M68.3777 3.07292C67.0911 3.07249 65.8333 3.45706 64.7633 4.17798C63.6934 4.8989 62.8593 5.92379 62.3667 7.12304C61.874 8.32228 61.7449 9.642 61.9957 10.9153C62.2464 12.1886 62.8657 13.3582 63.7753 14.2764C64.6849 15.1945 65.8439 15.8198 67.1058 16.0732C68.3676 16.3266 69.6755 16.1968 70.8642 15.7001C72.0529 15.2034 73.0689 14.3621 73.7837 13.2828C74.4986 12.2034 74.8801 10.9344 74.8801 9.63619C74.8801 7.89588 74.1951 6.22681 72.9757 4.99602C71.7563 3.76523 70.1024 3.0735 68.3777 3.07292ZM68.3777 13.7542C67.5718 13.7542 66.784 13.5131 66.1139 13.0613C65.4438 12.6095 64.9215 11.9674 64.6131 11.2161C64.3047 10.4648 64.224 9.63812 64.3812 8.84057C64.5384 8.04301 64.9265 7.31041 65.4964 6.7354C66.0663 6.1604 66.7923 5.76882 67.5827 5.61017C68.3732 5.45153 69.1924 5.53295 69.937 5.84414C70.6816 6.15533 71.318 6.68232 71.7657 7.35845C72.2134 8.03458 72.4524 8.8295 72.4524 9.64268C72.4524 10.7331 72.0231 11.7789 71.259 12.55C70.4948 13.321 69.4584 13.7542 68.3777 13.7542Z" fill="black"/>
<path d="M72.4617 2.73091C73.2091 2.73091 73.815 2.11957 73.815 1.36545C73.815 0.611335 73.2091 0 72.4617 0C71.7144 0 71.1085 0.611335 71.1085 1.36545C71.1085 2.11957 71.7144 2.73091 72.4617 2.73091Z" fill="black"/>
<path d="M71.3068 16.9801C69.4219 17.7476 67.3155 17.7476 65.4306 16.9801H62.9021C63.4905 17.9062 64.3002 18.6681 65.2567 19.1958C66.2133 19.7236 67.286 20.0001 68.3762 20.0001C69.4664 20.0001 70.5391 19.7236 71.4956 19.1958C72.4522 18.6681 73.2619 17.9062 73.8503 16.9801H71.3068Z" fill="black"/>
</svg>
