<svg width="246" height="40" viewBox="0 0 246 40" fill="none" xmlns="http://www.w3.org/2000/svg">
<path d="M3.40721 24.3202H3.37038V35.8863H2.11799V22.6257H3.53613L11.1978 34.2103H11.2346V22.6257H12.487V35.8863H11.032L3.40721 24.3202Z" fill="black"/>
<path d="M15.3174 35.8863V22.6257H23.8631V23.694H16.5698V28.4825H23.2001V29.5507H16.5698V35.8863H15.3174Z" fill="black"/>
<path d="M35.0916 26.475C34.8338 25.3454 34.3549 24.5412 33.655 24.0623C32.9552 23.5835 32.0404 23.344 30.9108 23.344C30.1127 23.344 29.4252 23.5036 28.8481 23.8229C28.271 24.1421 27.7921 24.5719 27.4115 25.1121C27.0432 25.6524 26.7669 26.2785 26.5827 26.9907C26.4108 27.6906 26.3249 28.4334 26.3249 29.2192C26.3249 29.9559 26.3986 30.6803 26.5459 31.3925C26.7055 32.1046 26.9634 32.7431 27.3194 33.3079C27.6755 33.8604 28.1544 34.3086 28.756 34.6524C29.3576 34.9962 30.1127 35.1681 31.0213 35.1681C31.5861 35.1681 32.1018 35.076 32.5684 34.8918C33.035 34.7076 33.4402 34.4559 33.784 34.1367C34.14 33.8052 34.4347 33.4184 34.668 32.9764C34.9136 32.5344 35.0977 32.0494 35.2205 31.5214H36.5282C36.3808 32.1599 36.166 32.7676 35.8836 33.3447C35.6012 33.9095 35.2267 34.4068 34.7601 34.8365C34.3058 35.2663 33.7471 35.6101 33.0841 35.8679C32.4333 36.1135 31.666 36.2363 30.7819 36.2363C29.7628 36.2363 28.8911 36.0521 28.1666 35.6837C27.4422 35.3031 26.8467 34.7936 26.3801 34.1551C25.9258 33.5166 25.5943 32.7799 25.3856 31.945C25.1769 31.0978 25.0725 30.2015 25.0725 29.256C25.0725 27.9914 25.226 26.917 25.5329 26.033C25.8522 25.1489 26.2881 24.4307 26.8406 23.8781C27.3931 23.3133 28.0438 22.9082 28.7928 22.6626C29.5418 22.4047 30.3583 22.2758 31.2424 22.2758C31.9177 22.2758 32.5439 22.3679 33.1209 22.5521C33.7103 22.724 34.226 22.988 34.668 23.344C35.1223 23.7001 35.4907 24.1421 35.7731 24.6701C36.0677 25.1858 36.2703 25.7874 36.3808 26.475H35.0916Z" fill="black"/>
<path d="M37.7562 35.8863L42.9684 22.6257H44.3865L49.4698 35.8863H48.1805L46.6519 31.724H40.6109L39.0455 35.8863H37.7562ZM41.0345 30.6558H46.2283L43.6314 23.694L41.0345 30.6558Z" fill="black"/>
<path d="M51.2009 35.8863V22.6257H53.1163L57.4628 34.3208H57.4996L61.7725 22.6257H63.6695V35.8863H62.4171V24.0623H62.3803L58.0337 35.8863H56.855L52.4901 24.0623H52.4532V35.8863H51.2009Z" fill="black"/>
<path d="M66.598 35.8863V22.6257H75.42V23.694H67.8504V28.4825H74.6833V29.5507H67.8504V34.8181H75.6042V35.8863H66.598Z" fill="black"/>
<path d="M79.1095 24.3202H79.0727V35.8863H77.8203V22.6257H79.2384L86.9001 34.2103H86.9369V22.6257H88.1893V35.8863H86.7344L79.1095 24.3202Z" fill="black"/>
<path d="M91.5907 35.8863V22.6257H92.8431V35.8863H91.5907Z" fill="black"/>
<path d="M95.0775 22.6257H104.728V23.694H100.529V35.8863H99.2766V23.694H95.0775V22.6257Z" fill="black"/>
<path d="M110.579 29.0166L114.575 22.6257H116.03L111.223 30.1032V35.8863H109.971V30.1953L105.238 22.6257H106.674L110.579 29.0166Z" fill="black"/>
<path d="M117.712 35.8863V22.6257H119.628L123.974 34.3208H124.011L128.284 22.6257H130.181V35.8863H128.929V24.0623H128.892L124.545 35.8863H123.367L119.002 24.0623H118.965V35.8863H117.712Z" fill="black"/>
<path d="M131.894 35.8863L137.106 22.6257H138.524L143.608 35.8863H142.318L140.79 31.724H134.749L133.183 35.8863H131.894ZM135.172 30.6558H140.366L137.769 23.694L135.172 30.6558Z" fill="black"/>
<path d="M146.646 24.3202H146.609V35.8863H145.357V22.6257H146.775L154.437 34.2103H154.474V22.6257H155.726V35.8863H154.271L146.646 24.3202Z" fill="black"/>
<path d="M157.47 35.8863L162.682 22.6257H164.1L169.183 35.8863H167.894L166.365 31.724H160.325L158.759 35.8863H157.47ZM160.748 30.6558H165.942L163.345 23.694L160.748 30.6558Z" fill="black"/>
<path d="M176.605 30.1032V29.035H182.278V35.8863H181.21V33.621C180.977 34.0139 180.706 34.3761 180.399 34.7076C180.105 35.0269 179.761 35.3031 179.368 35.5364C178.975 35.7574 178.521 35.9293 178.005 36.0521C177.49 36.1749 176.906 36.2363 176.256 36.2363C175.421 36.2363 174.647 36.0889 173.935 35.7942C173.223 35.4996 172.609 35.0637 172.093 34.4866C171.577 33.8972 171.172 33.1605 170.878 32.2765C170.595 31.3925 170.454 30.3611 170.454 29.1824C170.454 28.2124 170.577 27.3099 170.822 26.475C171.068 25.6278 171.442 24.8972 171.946 24.2833C172.462 23.6571 173.1 23.166 173.861 22.8099C174.635 22.4539 175.543 22.2758 176.587 22.2758C177.287 22.2758 177.938 22.3618 178.539 22.5337C179.153 22.7056 179.7 22.9695 180.178 23.3256C180.67 23.6694 181.081 24.1053 181.412 24.6333C181.744 25.1489 181.983 25.7629 182.131 26.475H180.841C180.731 25.9839 180.541 25.5419 180.271 25.1489C180.013 24.756 179.7 24.4307 179.331 24.1728C178.963 23.9027 178.552 23.7001 178.097 23.565C177.643 23.4177 177.17 23.344 176.679 23.344C175.807 23.344 175.058 23.4975 174.432 23.8045C173.806 24.1114 173.29 24.5473 172.885 25.1121C172.48 25.6646 172.179 26.3338 171.983 27.1196C171.799 27.8931 171.706 28.7465 171.706 29.6796C171.706 30.4163 171.811 31.1162 172.02 31.7792C172.241 32.4423 172.554 33.0255 172.959 33.5289C173.376 34.0323 173.88 34.4314 174.469 34.726C175.071 35.0207 175.752 35.1681 176.513 35.1681C176.869 35.1681 177.238 35.1312 177.618 35.0575C177.999 34.9716 178.367 34.8365 178.723 34.6524C179.08 34.4682 179.411 34.2288 179.718 33.9341C180.025 33.6394 180.289 33.2772 180.51 32.8475C180.719 32.43 180.86 31.9941 180.934 31.5398C181.02 31.0855 181.069 30.6067 181.081 30.1032H176.605Z" fill="black"/>
<path d="M185.304 35.8863V22.6257H194.126V23.694H186.557V28.4825H193.39V29.5507H186.557V34.8181H194.311V35.8863H185.304Z" fill="black"/>
<path d="M196.508 35.8863V22.6257H198.424L202.77 34.3208H202.807L207.08 22.6257H208.977V35.8863H207.725V24.0623H207.688L203.341 35.8863H202.162L197.798 24.0623H197.761V35.8863H196.508Z" fill="black"/>
<path d="M211.905 35.8863V22.6257H220.727V23.694H213.158V28.4825H219.991V29.5507H213.158V34.8181H220.912V35.8863H211.905Z" fill="black"/>
<path d="M224.417 24.3202H224.38V35.8863H223.128V22.6257H224.546L232.208 34.2103H232.244V22.6257H233.497V35.8863H232.042L224.417 24.3202Z" fill="black"/>
<path d="M235.259 22.6257H244.91V23.694H240.711V35.8863H239.458V23.694H235.259V22.6257Z" fill="black"/>
<path d="M2.22672 17.2363C1.90836 17.5886 2.3555 18.1055 2.75077 17.8408C7.18995 14.8629 17.052 9.94792 32.3924 11.3233C33.3869 11.4127 27.8102 6.63016 18.2539 8.19157C10.7492 9.41672 5.47294 13.6467 2.22672 17.2363Z" fill="black"/>
<path d="M15.7053 17.2363C15.3869 17.5886 15.834 18.1055 16.2293 17.8408C20.6703 14.8629 30.5324 9.94792 45.8728 11.3233C46.8672 11.4127 41.2905 6.63016 31.7343 8.19157C24.2277 9.41672 18.9515 13.6467 15.7053 17.2363Z" fill="black"/>
<path d="M28.5256 17.2363C28.2072 17.5886 28.6544 18.1055 29.0496 17.8408C33.4906 14.8629 43.3527 9.94792 58.6931 11.3233C59.6876 11.4127 54.1108 6.63016 44.5546 8.19157C37.0481 9.41672 31.7736 13.6467 28.5256 17.2363Z" fill="black"/>
<path d="M50.5856 6.08466C52.2244 6.08466 53.5528 4.75619 53.5528 3.11745C53.5528 1.4787 52.2244 0.150238 50.5856 0.150238C48.9469 0.150238 47.6184 1.4787 47.6184 3.11745C47.6184 4.75619 48.9469 6.08466 50.5856 6.08466Z" fill="black"/>
<path d="M39.6808 6.08466C41.3195 6.08466 42.648 4.75619 42.648 3.11745C42.648 1.4787 41.3195 0.150238 39.6808 0.150238C38.0421 0.150238 36.7136 1.4787 36.7136 3.11745C36.7136 4.75619 38.0421 6.08466 39.6808 6.08466Z" fill="black"/>
<path d="M28.7742 6.08466C30.413 6.08466 31.7414 4.75619 31.7414 3.11745C31.7414 1.4787 30.413 0.150238 28.7742 0.150238C27.1355 0.150238 25.807 1.4787 25.807 3.11745C25.807 4.75619 27.1355 6.08466 28.7742 6.08466Z" fill="black"/>
</svg>
