<svg width="91" height="48" viewBox="0 0 91 48" fill="none" xmlns="http://www.w3.org/2000/svg">
<g clip-path="url(#clip0_2150_1647)">
<path d="M6.44257 43.4136C6.44257 44.9772 5.25937 45.9504 3.38257 45.9504H1.96537V47.8848H0.333374V40.8636H3.38137C5.27257 40.8636 6.44257 41.8368 6.44257 43.4136ZM4.79617 43.4136C4.79617 42.6456 4.29457 42.1836 3.29137 42.1836H1.96657V44.6184H3.29137C4.29457 44.6184 4.79617 44.1696 4.79617 43.4136ZM7.26697 44.3736C7.26697 42.2856 8.90017 40.7472 11.125 40.7472C13.3378 40.7472 14.9842 42.2856 14.9842 44.3736C14.9854 46.476 13.3378 48 11.125 48C8.90017 48 7.26697 46.4628 7.26697 44.3736ZM13.3246 44.3736C13.3246 43.0416 12.373 42.132 11.125 42.132C9.86497 42.132 8.92657 43.0416 8.92657 44.3736C8.92657 45.7056 9.87817 46.6164 11.125 46.6164C12.385 46.6164 13.3246 45.7068 13.3246 44.3736ZM15.7678 44.3736C15.7678 42.2592 17.4022 40.7472 19.5886 40.7472C20.8102 40.7472 21.8266 41.1828 22.483 41.9904L21.4402 42.9516C20.965 42.4128 20.3722 42.132 19.6654 42.132C18.3406 42.132 17.4142 43.0536 17.4142 44.3736C17.4142 45.6936 18.3538 46.6164 19.6654 46.6164C20.3734 46.6164 20.965 46.3344 21.4414 45.7836L22.4818 46.7436C21.8134 47.5524 20.797 48 19.5754 48C17.4022 48 15.7678 46.488 15.7678 44.3736ZM26.161 45.1308L25.2094 46.1172V47.898H23.5894V40.8756H25.2094V44.1564L28.3354 40.8768H30.1486L27.229 44.0028L30.3154 47.898H28.4134L26.161 45.1308ZM36.5038 46.578V47.886H31.0498V40.8636H36.3742V42.1704H32.6698V43.6944H35.9374V44.964H32.6698V46.5912H36.5038V46.5792V46.578ZM39.2554 42.1836H37.0042V40.8636H43.153V42.1836H40.9018V47.8848H39.2686V42.1836H39.2554Z" fill="black"/>
<path d="M47.1022 40.8636H50.0734C52.3366 40.8636 53.8798 42.2856 53.8798 44.3748C53.8798 46.4628 52.3366 47.8848 50.0734 47.8848H47.1022V40.8636ZM50.0086 47.0136C51.745 47.0136 52.8646 45.9504 52.8646 44.3736C52.8646 42.798 51.745 41.7336 50.0086 41.7336H48.1054V47.0136H50.0086ZM60.5302 47.0136V47.8848H55.411V40.8636H60.3886V41.7348H56.4274V43.8876H59.9638V44.7456H56.4274V47.0136H60.5302ZM68.2234 40.8636V47.8848H67.399L63.1678 42.6444V47.8848H62.1646V40.8636H62.9878L67.219 46.104V40.8636H68.2234ZM71.7454 41.7348H69.3286V40.8636H75.1546V41.7348H72.7366V47.8848H71.7334V41.736L71.7454 41.7348ZM76.2478 40.8636H77.251V47.8848H76.2478V40.8636ZM78.7306 47.0772L79.1026 46.296C79.6306 46.77 80.5186 47.1036 81.4318 47.1036C82.6534 47.1036 83.1682 46.6296 83.1682 46.014C83.1682 44.298 78.8974 45.3864 78.8974 42.7728C78.8974 41.6832 79.747 40.7604 81.5986 40.7604C82.4218 40.7604 83.2834 40.9788 83.863 41.388L83.5282 42.1956C82.9525 41.8248 82.2833 41.6251 81.5986 41.6196C80.4034 41.6196 79.8886 42.1188 79.8886 42.7332C79.8886 44.4504 84.1582 43.374 84.1582 45.9492C84.1582 47.0268 83.2966 47.9496 81.4318 47.9496C80.3518 47.9616 79.2946 47.6028 78.7306 47.0772ZM86.9254 41.7348H84.5062V40.8636H90.3334V41.7348H87.9154V47.8848H86.9122V41.736H86.9242L86.9254 41.7348Z" fill="black"/>
<path d="M55.063 2.7936V16.0416L55.141 16.3896H51.3334C51.3082 15.4536 50.9734 14.5692 50.497 13.6848C49.585 12.006 48.1054 12.0708 47.089 12.7884C46.0726 13.506 42.6646 15.1068 42.6646 15.1068L45.391 13.1088C44.413 13.4676 43.075 11.6604 41.287 12.5832C40.1554 13.1724 39.4618 14.748 39.475 16.3752H35.6662C35.7894 15.6975 35.9883 15.0358 36.259 14.4024C36.7726 13.2108 37.4674 12.1596 38.3686 11.2764C39.279 10.3893 40.3479 9.68105 41.5198 9.1884C42.715 8.6748 44.0146 8.4324 45.4042 8.4324C46.7926 8.4324 48.0802 8.688 49.2886 9.2124C49.8406 9.444 50.3434 9.726 50.8318 10.0332V0.8328C49.0488 0.280304 47.1928 -0.000446511 45.3262 5.33035e-07C35.1394 5.33035e-07 26.8822 8.226 26.8822 18.3744C26.8822 24.9228 30.3154 30.6624 35.4862 33.918V20.04H40.8766C41.7118 21.5388 41.815 22.5888 42.5734 24.3324C43.4878 26.4468 44.0914 25.05 44.0914 25.05C44.143 24.9468 44.581 24.1524 44.6446 23.4732C44.6748 23.2376 44.7537 23.0108 44.8762 22.8072C44.9272 22.7198 45.0012 22.6482 45.0903 22.6001C45.1793 22.5521 45.2799 22.5295 45.3809 22.5348C45.4819 22.5401 45.5796 22.5732 45.663 22.6303C45.7465 22.6875 45.8127 22.7665 45.8542 22.8588C46.291 23.8572 46.0342 25.3956 46.9606 25.4988C48.1306 25.626 48.799 23.1792 48.9286 22.6152C49.0306 22.1412 49.1338 21.4752 49.9702 20.04H55.1794C55.0557 20.7758 54.8442 21.4942 54.5494 22.1796C54.0214 23.3712 53.3266 24.4212 52.4398 25.3056C51.5392 26.202 50.4736 26.9155 49.3018 27.4068C48.1054 27.9324 46.8058 28.1892 45.4162 28.1892C44.8762 28.1892 44.3482 28.1244 43.8082 28.0092C43.2816 27.8938 42.7655 27.7353 42.265 27.5352C41.7825 27.3468 41.3141 27.1243 40.8634 26.8692C40.4582 26.6369 40.0788 26.3622 39.7318 26.0496V35.8896C41.4934 36.4536 43.3846 36.7608 45.3394 36.7608C55.5274 36.7608 63.7834 28.5348 63.7834 18.3864C63.7834 11.7996 60.2986 6.0336 55.063 2.7924V2.7936Z" fill="url(#paint0_radial_2150_1647)"/>
</g>
<defs>
<radialGradient id="paint0_radial_2150_1647" cx="0" cy="0" r="1" gradientUnits="userSpaceOnUse" gradientTransform="translate(43.411 10.0008) scale(17.8986 17.8304)">
<stop/>
<stop offset="1"/>
</radialGradient>
<clipPath id="clip0_2150_1647">
<rect width="90" height="48" fill="white" transform="translate(0.333374)"/>
</clipPath>
</defs>
</svg>
