<svg width="144" height="32" viewBox="0 0 144 32" fill="none" xmlns="http://www.w3.org/2000/svg">
<g clip-path="url(#clip0_2150_1595)">
<path d="M50.657 13.2101C50.7696 14.1612 50.7869 15.2391 50.7869 16.4257C50.7869 20.8098 50.5878 23.7717 45.767 23.7717C40.9463 23.7717 40.7472 20.8098 40.7472 16.4257C40.7472 12.0417 40.9463 9.04345 45.767 9.04345C45.9315 9.04345 46.0786 9.05251 46.2257 9.06156C46.2084 8.8804 46.1738 8.69019 46.1738 8.49997C46.1738 7.9112 46.2863 7.35867 46.4767 6.84236C46.2431 6.8333 46.018 6.81519 45.767 6.81519C38.8172 6.81519 37.9863 11.163 37.9863 16.4257C37.9863 21.6884 38.8172 26 45.767 26C52.7169 26 53.5478 21.6522 53.5478 16.4257C53.5478 14.9764 53.4785 13.5996 53.2449 12.3587C52.5178 12.8931 51.6264 13.2101 50.6744 13.2101C50.6744 13.2101 50.6657 13.2101 50.657 13.2101Z" fill="black"/>
<path d="M52.9852 8.5C52.9852 9.87681 51.912 11 50.5965 11C49.2809 11 48.2077 9.87681 48.2077 8.5C48.2077 7.12319 49.2809 6 50.5965 6C51.912 6 52.9852 7.12319 52.9852 8.5Z" fill="black"/>
<path d="M8.4645 7.04165H0.406795C0.190422 7.04165 1.52588e-05 7.22281 1.52588e-05 7.44926V25.3659C1.52588e-05 25.5652 0.190422 25.7464 0.406795 25.7464H2.56187C2.77824 25.7464 2.95134 25.5652 2.95134 25.3659V18.4366L7.54708 18.4819C9.45981 18.5091 11.5889 18.3007 12.8439 16.9873C13.8565 15.9004 14.1507 14.3062 14.1507 12.6848C14.1507 10.683 13.692 9.3152 12.8958 8.45469C11.8572 7.34056 10.282 7.03259 8.47315 7.03259L8.4645 7.04165ZM10.2993 15.3931C9.52905 16.1268 8.22216 16.154 6.5258 16.2264L2.95134 16.3804V9.36955H7.34802C8.62893 9.36955 9.69349 9.46918 10.3426 10.1304C10.8273 10.6105 11.1129 11.4167 11.1129 12.6848C11.1129 14.0525 10.8186 14.8859 10.2907 15.3931H10.2993Z" fill="black"/>
<path d="M72.1471 7.04163H57.8319C57.6156 7.04163 57.4425 7.22279 57.4425 7.44924V9.07061C57.4425 9.29706 57.6156 9.47822 57.8319 9.47822H63.5355V25.3659C63.5355 25.5652 63.7086 25.7464 63.925 25.7464H66.0801C66.2964 25.7464 66.4695 25.5652 66.4695 25.3659V9.47822H72.1471C72.3635 9.47822 72.5366 9.29706 72.5366 9.09779V7.44924C72.5366 7.22279 72.3635 7.04163 72.1471 7.04163Z" fill="black"/>
<path d="M88.6347 7.04163H77.3141C77.0977 7.04163 76.9073 7.22279 76.9073 7.44924V25.3388C76.9073 25.5652 77.0977 25.7464 77.3141 25.7464H88.6347C88.8511 25.7464 89.0242 25.5652 89.0242 25.3388V23.7174C89.0242 23.4909 88.8511 23.337 88.6347 23.337H79.8586V17.2862H88.2712C88.4875 17.2862 88.6607 17.1051 88.6607 16.8786V15.212C88.6607 15.0127 88.4875 14.8315 88.2712 14.8315H79.8586V9.47822H88.6347C88.8511 9.47822 89.0242 9.29706 89.0242 9.09779V7.44924C89.0242 7.22279 88.8511 7.04163 88.6347 7.04163Z" fill="black"/>
<path d="M101.132 16.154L108.195 7.57605C108.264 7.47641 108.264 7.44924 108.264 7.37677C108.264 7.22279 108.117 7.09597 107.996 7.09597L105.191 7.04163C105.044 7.04163 104.923 7.12315 104.854 7.22279L98.6917 15.0127H97.679V7.42206C97.679 7.22279 97.506 7.04163 97.2896 7.04163H95.1345C94.9181 7.04163 94.7191 7.22279 94.7191 7.42206V25.3659C94.7191 25.5652 94.9095 25.7464 95.1345 25.7464H97.2896C97.506 25.7464 97.679 25.5924 97.679 25.3659V17.5217H98.6917L105.122 25.5652C105.217 25.6649 105.339 25.7464 105.486 25.7464H108.576C108.697 25.7464 108.844 25.6196 108.844 25.4656C108.844 25.4112 108.818 25.3116 108.775 25.2663L101.132 16.154Z" fill="black"/>
<path d="M27.4966 17.8478C32.5683 17.3587 33.4165 14.8043 33.4165 12.2319C33.4165 8.36409 31.2614 7.04163 27.6351 7.04163H19.6293C19.4129 7.04163 19.2225 7.22279 19.2225 7.44924V25.3659C19.2225 25.5652 19.4129 25.7464 19.6293 25.7464H21.7843C22.0007 25.7464 22.1738 25.5652 22.1738 25.3659V18.0743C22.1738 18.0743 23.0566 18.0743 24.0692 18.0562L30.0844 25.5833C30.1796 25.683 30.3008 25.7554 30.4479 25.7554H33.5463C33.6675 25.7554 33.8146 25.6286 33.8146 25.4746C33.8146 25.4293 33.7887 25.3207 33.7454 25.2754L27.5052 17.8388L27.4966 17.8478ZM22.1738 16.154V9.36953H27.3668C29.617 9.36953 30.4133 10.4837 30.4133 12.712C30.4133 15.3659 28.7948 15.8732 26.5186 15.9728L22.1652 16.154H22.1738Z" fill="black"/>
<path d="M124.899 7.04163H113.578C113.362 7.04163 113.171 7.22279 113.171 7.44924V25.3388C113.171 25.5652 113.362 25.7464 113.578 25.7464H124.899C125.115 25.7464 125.288 25.5652 125.288 25.3388V23.7174C125.288 23.4909 125.124 23.337 124.899 23.337H116.123V17.2862H124.535C124.752 17.2862 124.925 17.1051 124.925 16.8786V15.212C124.925 15.0127 124.76 14.8315 124.535 14.8315H116.123V9.47822H124.899C125.115 9.47822 125.288 9.29706 125.288 9.09779V7.44924C125.288 7.22279 125.124 7.04163 124.899 7.04163Z" fill="black"/>
<path d="M143.611 7.04163H129.295C129.079 7.04163 128.906 7.22279 128.906 7.44924V9.07061C128.906 9.29706 129.079 9.47822 129.295 9.47822H134.999V25.3659C134.999 25.5652 135.172 25.7464 135.388 25.7464H137.543C137.76 25.7464 137.933 25.5652 137.933 25.3659V9.47822H143.611C143.827 9.47822 144 9.29706 144 9.09779V7.44924C144 7.22279 143.827 7.04163 143.611 7.04163Z" fill="black"/>
</g>
<defs>
<clipPath id="clip0_2150_1595">
<rect width="144" height="32" fill="white"/>
</clipPath>
</defs>
</svg>
