<svg width="109" height="32" viewBox="0 0 109 32" fill="none" xmlns="http://www.w3.org/2000/svg">
<path d="M8.67109 24.8702C6.69387 24.8702 5.28909 24.3865 4.006 23.419C2.72291 22.4516 2.33829 21.8439 2.00024 20.2102L5.1734 19.5703C5.34167 20.2853 5.74132 20.9058 6.37235 21.4316C7.00337 21.9363 7.60886 22.1887 8.63953 22.1887C9.64918 22.1887 10.16 21.9784 10.6228 21.5577C11.0855 21.1371 11.3169 20.6534 11.3169 20.1066C11.3169 19.3074 10.9909 18.7711 10.3388 18.4977C9.70777 18.2032 9.0497 17.9404 7.91386 17.709C7.03042 17.5197 6.37235 17.2674 5.48891 16.9519C4.62651 16.6364 3.90083 16.1948 3.31187 15.6269C2.74395 15.038 2.45999 14.2494 2.45999 13.2609C2.45999 11.8938 2.98584 10.7582 4.03755 9.85381C5.08926 8.92843 6.33629 8.46574 8.22937 8.46574C9.97521 8.46574 11.1591 8.88636 12.2319 9.72762C13.3257 10.5689 13.9244 11.2952 14.1137 12.8305L10.9383 13.2924C10.8331 12.6194 10.5176 12.0936 9.99173 11.7151C9.48691 11.3365 9.02867 11.1472 8.16627 11.1472C7.3249 11.1472 6.8982 11.326 6.43545 11.6835C5.9727 12.02 5.74132 12.4617 5.74132 13.0085C5.74132 13.5553 6.05684 13.9865 6.68786 14.3019C7.33992 14.6174 7.96644 14.9013 9.01815 15.1537C10.0699 15.385 10.8121 15.6585 11.6955 15.9739C12.6 16.2684 13.3257 16.71 13.8725 17.2989C14.4194 17.8878 14.6929 18.7501 14.6929 19.8857C14.7139 21.3159 14.1565 22.5041 13.0207 23.4506C11.9058 24.397 10.6062 24.8702 8.67109 24.8702Z" fill="black"/>
<path d="M17.7129 24.4916V1.77778H21.0574V15.3114L27.0521 8.8443H31.3972L24.7399 15.9424L32.3753 24.4916H27.8093L21.0574 16.4787V24.4916H17.7129Z" fill="black"/>
<path d="M34.223 24.4916V8.8443H37.5043V11.0278C38.0658 9.96973 39.0554 8.98682 40.0872 8.66178C41.1955 8.31264 42.3699 8.36884 43.6367 8.36884V11.5348C42.4535 11.5348 41.18 11.2806 40.0872 11.7489C38.2879 12.4896 37.5674 15.2796 37.5674 16.9834V24.4916H34.223Z" fill="black"/>
<path d="M87.5922 24.762C86.0567 24.762 84.8788 24.6043 83.9322 23.6579C83.1322 22.8579 82.9632 21.2948 82.9632 19.381V11.9855H79.7156V8.8443C81.5153 8.82307 82.9632 7.35808 82.9632 5.55823V4.30604L86.1183 4.26774V8.806L89.4988 8.8443V11.9855H86.3076V19.381C86.3076 20.2433 86.2678 21.1694 86.6254 21.5059C87.004 21.8214 87.4765 21.9228 88.381 21.9228H89.4988V24.762H87.5922Z" fill="black"/>
<path d="M99.0395 24.8702C97.504 24.8702 96.1368 24.5337 94.9378 23.8607C93.7599 23.1666 92.8344 22.2097 92.1613 20.9899C91.4882 19.7701 91.1517 18.3505 91.1517 16.7311C91.1517 15.0906 91.4777 13.65 92.1297 12.4091C92.8028 11.1683 93.7283 10.2008 94.9063 9.50679C96.1052 8.81276 97.4935 8.46574 99.071 8.46574C100.607 8.46574 101.942 8.81276 103.078 9.50679C104.214 10.1798 105.097 11.0841 105.728 12.2198C106.359 13.3555 106.675 14.6069 106.675 15.9739C106.675 16.1842 106.664 16.4156 106.643 16.668C106.643 16.8993 106.633 17.1622 106.612 17.4566H94.771C94.8762 18.9709 95.3705 19.7896 96.254 20.5888C97.1584 21.367 97.8616 21.756 99.0395 21.756C99.986 21.756 100.437 21.5457 101.068 21.1251C101.72 20.6834 102.705 20.045 103.021 19.3089L105.951 20.1539C105.218 21.6524 104.94 22.399 103.678 23.3875C102.437 24.3759 100.89 24.8702 99.0395 24.8702ZM99.0395 11.5483C97.9247 11.5483 97.2741 11.8848 96.4117 12.5578C95.64 13.3262 95.1329 13.8332 94.8341 15.1852H102.992C102.795 13.9459 102.457 13.4952 101.699 12.6209C100.9 11.9059 100.238 11.5483 99.0395 11.5483Z" fill="black"/>
<path d="M59.966 20.9634L61.924 19.0414L64.1186 16.5559L66.2417 14.4707C67.6689 13.0688 68.5557 12.2921 68.9479 12.1005C69.8051 11.6817 70.6518 11.5015 71.4601 11.5226L71.4462 8.27764C71.398 8.27677 71.3105 8.27759 71.2625 8.27759H71.2619C70.0102 8.27763 68.8019 8.57377 67.5887 9.17278C66.514 9.7034 66.3347 9.85152 64.1583 12.0071L61.924 14.2199L59.7293 16.5559L57.7853 18.5081C55.5964 20.7064 55.1173 21.0709 53.9485 21.4261C53.443 21.5798 52.8753 21.6469 52.3802 21.636V24.87C52.4312 24.871 52.5432 24.8701 52.5941 24.8702H52.6038C53.249 24.8698 53.8917 24.7931 54.5132 24.634C56.5 24.1255 57.2784 23.6015 59.966 20.9634Z" fill="url(#paint0_linear_2150_1652)"/>
<path d="M49.2659 24.2385C50.2726 24.6554 51.3516 24.87 52.4412 24.87V21.6345C51.7776 21.6345 51.1205 21.4956 50.5074 21.2417C49.8943 20.9878 49.3372 20.6156 48.868 20.1464C48.3987 19.6773 48.0265 19.1203 47.7726 18.5073C47.5186 17.8942 47.3879 17.2372 47.3879 16.5737C47.3879 15.9102 47.5186 15.2532 47.7726 14.6402C48.0265 14.0271 48.3987 13.4701 48.868 13.001C49.3372 12.5318 49.8943 12.1596 50.5074 11.9057C51.1205 11.6518 51.7776 11.5211 52.4412 11.5211V11.5084C53.2494 11.4873 54.0429 11.6815 54.9 12.1003C55.2923 12.2919 56.179 13.0686 57.6063 14.4705L59.7293 16.5557L61.924 19.0413L63.8819 20.9632C66.5696 23.6013 67.3479 24.1254 69.3348 24.6339C69.9563 24.7929 70.599 24.8696 71.2442 24.87H71.2539C71.283 24.87 71.3122 24.8698 71.3414 24.8695L71.3618 24.8692L71.3825 24.8689L71.4068 24.8685V24.87C72.4964 24.87 73.5753 24.6554 74.5821 24.2385C75.5887 23.8216 76.5034 23.2105 77.2739 22.4401C78.0444 21.6697 78.6556 20.7551 79.0726 19.7486C79.4896 18.742 79.7042 17.6632 79.7042 16.5737C79.7042 15.4842 79.4896 14.4054 79.0726 13.3989C78.6556 12.3923 78.0444 11.4777 77.2739 10.7073C76.5034 9.93696 75.5887 9.32586 74.5821 8.90893C73.5753 8.492 72.4964 8.27741 71.4068 8.27741V11.5211C72.0704 11.5211 72.7275 11.6518 73.3406 11.9057C73.9537 12.1596 74.5107 12.5318 74.98 13.001C75.4492 13.4701 75.8215 14.0271 76.0754 14.6402C76.3294 15.2532 76.4601 15.9102 76.4601 16.5737C76.4601 17.2372 76.3294 17.8942 76.0754 18.5073C75.8215 19.1203 75.4492 19.6773 74.98 20.1464C74.5107 20.6156 73.9537 20.9878 73.3406 21.2417C72.7275 21.4956 72.0704 21.6263 71.4068 21.6263V21.6345C70.9117 21.6454 70.405 21.5796 69.8995 21.4259C68.7307 21.0707 68.2515 20.7062 66.0626 18.5079L64.1187 16.5557L61.924 14.2197L59.6897 12.0069C57.5133 9.85135 57.3339 9.70322 56.2593 9.17261C55.0461 8.57359 53.8378 8.27746 52.586 8.27741H52.5855C52.5374 8.27741 52.4894 8.27785 52.4412 8.27872V8.27741C51.3516 8.27741 50.2726 8.492 49.2659 8.90893C48.2592 9.32586 47.3445 9.93696 46.574 10.7073C45.8035 11.4777 45.1924 12.3923 44.7754 13.3989C44.3584 14.4054 44.1438 15.4842 44.1438 16.5737C44.1438 17.6632 44.3584 18.742 44.7754 19.7486C45.1924 20.7551 45.8035 21.6697 46.574 22.4401C47.3445 23.2105 48.2592 23.8216 49.2659 24.2385Z" fill="black"/>
<path d="M71.2097 8.27759H71.315C71.2975 8.27747 71.28 8.27741 71.2625 8.27741H71.2619C71.2445 8.27741 71.2271 8.27747 71.2097 8.27759Z" fill="black"/>
<defs>
<linearGradient id="paint0_linear_2150_1652" x1="52.4412" y1="16.5737" x2="71.4067" y2="16.5737" gradientUnits="userSpaceOnUse">
<stop offset="0.0677083"/>
<stop offset="0.53125"/>
<stop offset="0.963542"/>
</linearGradient>
</defs>
</svg>
