<svg width="116" height="28" viewBox="0 0 116 28" fill="none" xmlns="http://www.w3.org/2000/svg">
<g clip-path="url(#clip0_2150_1624)">
<path d="M50.1496 16.3551V21.0861H46.2336V16.3551L41.4315 7.35334H45.1274C45.3164 7.3533 45.5018 7.40548 45.663 7.50411C45.8242 7.60273 45.955 7.74398 46.041 7.91226L48.2004 12.1375L50.3431 7.91486C50.4288 7.74589 50.5597 7.60398 50.7212 7.50486C50.8827 7.40574 51.0685 7.3533 51.258 7.35334H54.9517L50.1496 16.3551ZM60.3962 21.5116C59.4747 21.5116 58.562 21.4029 57.6581 21.1855C56.7645 20.9716 55.8949 20.6676 55.0626 20.2782C55.0388 20.2782 54.9796 20.2547 54.885 20.2075C54.7905 20.1487 54.7436 20.1079 54.7436 20.0842C54.7436 20.0727 54.7671 20.0254 54.8143 19.9433C54.8616 19.8611 54.9207 19.7586 54.9914 19.6349C55.0627 19.5116 55.1448 19.3707 55.2397 19.2121C55.3352 19.0512 55.4296 18.8897 55.5229 18.7275C55.724 18.3984 55.9131 18.086 56.0902 17.7905C56.2673 17.4953 56.3914 17.2824 56.4622 17.1525C56.6153 17.2115 56.7634 17.2826 56.9052 17.365C57.5431 17.684 58.1838 17.9292 58.8279 18.1006C59.4715 18.2716 60.1537 18.3573 60.8742 18.3573C61.0752 18.3573 61.2908 18.3484 61.5214 18.3308C61.7516 18.3131 61.9614 18.2689 62.1505 18.1978C62.3392 18.1271 62.496 18.0175 62.6196 17.8696C62.7438 17.7215 62.8061 17.5117 62.8061 17.2396C62.8061 17.1092 62.7703 16.994 62.6996 16.8932C62.6263 16.7904 62.5364 16.7006 62.4337 16.6272C62.3272 16.5502 62.2146 16.482 62.097 16.4232C61.9883 16.3679 61.8758 16.3204 61.7604 16.2809C61.5134 16.1868 61.2583 16.1155 60.9983 16.0679C60.7386 16.0207 60.4784 15.9673 60.2191 15.908C59.8832 15.8273 59.5464 15.7506 59.2087 15.6779C58.8862 15.6091 58.567 15.526 58.2519 15.4291C57.9437 15.3381 57.6393 15.2345 57.3395 15.1186C57.0497 15.006 56.7811 14.8734 56.5333 14.7192C56.0252 14.4118 55.6206 14.0004 55.3193 13.4857C55.018 12.9711 54.8674 12.2876 54.8674 11.4359C54.8674 11.1404 54.9001 10.8417 54.965 10.5399C55.0283 10.2424 55.1265 9.95345 55.2574 9.67893C55.5168 9.1346 55.8538 8.68538 56.2674 8.33015C56.676 7.97818 57.1401 7.69634 57.6408 7.49607C58.1426 7.2951 58.6711 7.15282 59.2264 7.07026C59.7779 6.98748 60.3347 6.94582 60.8923 6.94563C61.802 6.94563 62.6996 7.05567 63.5854 7.27565C64.4716 7.49516 65.3163 7.85436 66.1195 8.35356C65.8239 8.85231 65.5376 9.34225 65.2602 9.82245C64.9782 10.3098 64.6977 10.798 64.4187 11.287C63.7334 10.9566 63.069 10.6848 62.4248 10.472C61.7807 10.2593 61.0872 10.153 60.3427 10.153C60.1656 10.153 59.9796 10.1617 59.7848 10.1799C59.5899 10.1976 59.4097 10.2418 59.2441 10.3125C59.0788 10.3835 58.9428 10.4865 58.8367 10.6221C58.7303 10.7578 58.6772 10.9376 58.6772 11.1616C58.6772 11.3267 58.7126 11.4681 58.7836 11.5861C58.8662 11.716 59.0165 11.8308 59.2352 11.9311C59.4539 12.0314 59.7229 12.1228 60.0415 12.2055C60.3609 12.288 60.709 12.3676 61.0872 12.4441C61.4649 12.5209 61.8608 12.6123 62.2742 12.7188C62.6826 12.827 63.0875 12.9479 63.4882 13.0815C63.8859 13.2126 64.2713 13.3783 64.64 13.5768C65.0004 13.7712 65.3219 14.0013 65.6057 14.2663C65.8893 14.5319 66.1137 14.8473 66.279 15.2132C66.4088 15.4844 66.4976 15.7764 66.5448 16.0892C66.5917 16.4015 66.6155 16.7112 66.6155 17.0177C66.6155 17.9141 66.4323 18.6515 66.0665 19.2293C65.7003 19.8077 65.2217 20.2645 64.6312 20.6001C64.0405 20.9364 63.373 21.1723 62.6286 21.3079C61.8921 21.4429 61.1449 21.511 60.3962 21.5115M34.9686 21.5116C34.0471 21.5116 33.1343 21.4029 32.2309 21.1855C31.3371 20.9717 30.4674 20.6677 29.635 20.2782C29.6113 20.2782 29.552 20.2547 29.4579 20.2075C29.3629 20.1487 29.3161 20.1079 29.3161 20.0842C29.3161 20.0727 29.3395 20.0254 29.3868 19.9433C29.4341 19.8611 29.4932 19.7586 29.5639 19.6349C29.6351 19.5116 29.7172 19.3707 29.8121 19.2121C29.9076 19.0511 30.0022 18.8896 30.0958 18.7275C30.2964 18.3984 30.4855 18.086 30.6626 17.7905C30.8397 17.4953 30.9639 17.2824 31.0347 17.1525C31.1878 17.2114 31.3359 17.2825 31.4777 17.365C32.1156 17.684 32.7562 17.9292 33.4003 18.1006C34.044 18.2716 34.7261 18.3573 35.4471 18.3573C35.6477 18.3573 35.8633 18.3484 36.0938 18.3308C36.3241 18.3131 36.5339 18.2689 36.723 18.1978C36.9116 18.1271 37.0685 18.0175 37.1925 17.8696C37.3163 17.7215 37.3786 17.5117 37.3786 17.2396C37.3786 17.1092 37.3432 16.994 37.272 16.8932C37.1988 16.7903 37.109 16.7004 37.0062 16.6272C36.8996 16.5502 36.787 16.482 36.6695 16.4232C36.5608 16.3679 36.4483 16.3204 36.3329 16.2809C36.086 16.1868 35.8311 16.1156 35.5712 16.0679C35.3111 16.0207 35.0513 15.9673 34.7915 15.908C34.4556 15.8273 34.1188 15.7506 33.7811 15.6779C33.4588 15.6091 33.1397 15.526 32.8247 15.4291C32.5163 15.3381 32.2118 15.2346 31.912 15.1186C31.6221 15.006 31.3535 14.8734 31.1057 14.7192C30.5977 14.4118 30.193 14.0004 29.8918 13.4857C29.5905 12.9711 29.4398 12.2876 29.4398 11.4359C29.4398 11.1404 29.4725 10.8417 29.5374 10.5399C29.6008 10.2424 29.6989 9.95345 29.8299 9.67893C30.0897 9.1346 30.4262 8.68538 30.8398 8.33015C31.2484 7.97818 31.7125 7.69634 32.2133 7.49607C32.7151 7.2951 33.2436 7.15282 33.7992 7.07026C34.3505 6.98746 34.9073 6.9458 35.4648 6.94563C36.3744 6.94563 37.272 7.05567 38.1583 7.27565C39.044 7.49516 39.8887 7.85436 40.6919 8.35356C40.4029 8.84168 40.1165 9.33132 39.8326 9.82245C39.5509 10.3099 39.2703 10.7981 38.9911 11.287C38.3059 10.9566 37.641 10.6848 36.9978 10.472C36.3536 10.2593 35.6596 10.153 34.9152 10.153C34.738 10.153 34.5521 10.1617 34.3572 10.1799C34.1624 10.1976 33.9822 10.2418 33.817 10.3125C33.6513 10.3835 33.5157 10.4865 33.4091 10.6221C33.3032 10.7578 33.2497 10.9376 33.2497 11.1616C33.2497 11.3267 33.2851 11.4681 33.3561 11.5861C33.4387 11.716 33.589 11.8308 33.8081 11.9311C34.0264 12.0314 34.2954 12.1228 34.6143 12.2055C34.9332 12.288 35.2814 12.3676 35.6596 12.4441C36.0377 12.5209 36.4332 12.6123 36.8471 12.7188C37.2482 12.8248 37.6534 12.9459 38.0607 13.0815C38.4584 13.2125 38.8438 13.3783 39.2124 13.5768C39.5724 13.7712 39.8944 14.0013 40.1782 14.2663C40.4618 14.5319 40.6862 14.8473 40.8514 15.2132C40.9812 15.4844 41.07 15.7764 41.1173 16.0892C41.1646 16.4015 41.1886 16.7112 41.1886 17.0177C41.1886 17.9141 41.0051 18.6515 40.6389 19.2293C40.2727 19.8077 39.7942 20.2645 39.2036 20.6001C38.6129 20.9364 37.9454 21.1723 37.2014 21.3079C36.457 21.4436 35.713 21.5115 34.9686 21.5115M78.5193 10.7378H75.5223V21.0861H71.7835V10.7378H68.7865C68.6519 10.7379 68.5185 10.7114 68.3941 10.6598C68.2697 10.6083 68.1566 10.5328 68.0614 10.4376C67.9662 10.3424 67.8907 10.2293 67.8391 10.1049C67.7876 9.98052 67.7611 9.84718 67.7611 9.71252V7.3357H79.5449V9.71252C79.5449 9.84718 79.5183 9.98052 79.4668 10.1049C79.4153 10.2293 79.3397 10.3424 79.2445 10.4376C79.1493 10.5328 79.0363 10.6083 78.9118 10.6598C78.7874 10.7114 78.6541 10.7379 78.5194 10.7378M81.5116 7.3357H85.2149V21.0861H81.5116V7.3357ZM97.4598 20.0607V14.0159L94.5179 18.8711C94.4827 18.9422 94.4234 18.9894 94.3408 19.0128C94.2583 19.0367 94.187 19.0487 94.1283 19.0487C94.0572 19.0487 93.9803 19.0367 93.8976 19.0128C93.8151 18.9894 93.7563 18.9422 93.7205 18.871L90.7792 14.0158V20.0608C90.7792 20.1954 90.7527 20.3288 90.7012 20.4532C90.6496 20.5776 90.5741 20.6906 90.4789 20.7858C90.3837 20.8811 90.2706 20.9566 90.1462 21.0081C90.0218 21.0596 89.8884 21.0861 89.7538 21.0861H87.1822V7.3357H90.5491C90.6666 7.3357 90.7674 7.38874 90.8504 7.49516L94.1107 12.9348L97.3887 7.49516C97.4712 7.38874 97.5659 7.3357 97.6723 7.3357H101.057V21.0861H98.485C98.2131 21.0861 97.9523 20.9781 97.76 20.7858C97.5677 20.5935 97.4597 20.3327 97.4597 20.0608M108.949 12.3504L107.85 15.9827H110.03L108.949 12.3504ZM111.517 20.42L111.057 19.1905H106.822L106.363 20.4199C106.29 20.6156 106.159 20.7843 105.987 20.9033C105.815 21.0224 105.611 21.0862 105.402 21.0861H102.233L107.319 7.3357H110.562L115.647 21.0861H112.478C112.269 21.0861 112.065 21.0223 111.893 20.9033C111.722 20.7842 111.59 20.6156 111.517 20.42ZM13.0334 0.717449C12.4409 0.379782 11.7708 0.202209 11.0889 0.202209C10.4069 0.202209 9.73678 0.379782 9.14434 0.717449L0.352954 5.72454L3.92791 7.83943L9.14751 4.84759C9.73912 4.50861 10.4088 4.32942 11.0906 4.32764C11.7725 4.32585 12.443 4.50153 13.0364 4.83741L18.2504 7.78865V16.0446L21.8247 13.9832V5.72465L13.0334 0.717449Z" fill="black"/>
<path d="M17.9588 15.2622L17.6358 12.1848L17.5669 11.5296L13.0568 8.95436C12.4584 8.61274 11.7807 8.4345 11.0917 8.43754C10.4027 8.44058 9.72656 8.62478 9.13122 8.97167L7.51599 9.91262L18.2504 16.0447L18.0277 15.9178L17.9588 15.2622ZM4.61078 16.4705L11.0891 20.1691L14.6622 18.0874L4.15003 12.0823L4.21902 12.7379L4.54191 15.8149L4.61078 16.4705Z" fill="black"/>
<path d="M13.0308 23.1524C12.4391 23.4914 11.7693 23.6706 11.0874 23.6724C10.4054 23.6742 9.73476 23.4985 9.14129 23.1626L3.9278 20.2114V11.9554L0.352954 14.0167V22.2754L9.14434 27.2825C9.73678 27.6202 10.4069 27.7978 11.0889 27.7978C11.7708 27.7978 12.4409 27.6202 13.0334 27.2825L21.8247 22.2754L18.2504 20.1605L13.0308 23.1524Z" fill="black"/>
</g>
<defs>
<clipPath id="clip0_2150_1624">
<rect width="115.294" height="28" fill="white" transform="translate(0.352951)"/>
</clipPath>
</defs>
</svg>
