<svg width="98" height="36" viewBox="0 0 98 36" fill="none" xmlns="http://www.w3.org/2000/svg">
<path d="M36.7746 18C36.7746 27.9411 28.7158 36 18.7746 36C8.8335 36 0.774628 27.9411 0.774628 18C0.774628 8.05887 8.8335 0 18.7746 0C28.7158 0 36.7746 8.05887 36.7746 18Z" fill="black"/>
<path d="M24.7322 14.1281C24.3265 15.8517 23.7039 17.4885 22.8884 19.0104C22.76 19.2657 22.6273 19.5182 22.4893 19.7669C23.8001 18.7752 25.53 18.3509 27.2597 18.7528C28.322 18.9996 29.2451 19.5259 29.9691 20.2349C30.1522 19.8194 30.3002 19.3817 30.4079 18.9241C30.8088 17.2211 30.5922 15.518 29.9029 14.0464C29.0241 12.1702 27.3768 10.6712 25.2617 10.0283C25.2273 11.3943 25.0527 12.7668 24.7322 14.1281Z" fill="url(#paint0_linear_2150_1733)"/>
<path d="M5.91748 28.975C8.33057 28.8746 10.6704 28.3284 12.8322 27.401C11.8316 26.3544 10.9304 25.1993 10.1462 23.9446C10.0579 23.8033 9.97168 23.661 9.88683 23.5182C8.78613 25.9192 7.61755 27.4326 5.91748 28.975Z" fill="url(#paint1_linear_2150_1733)"/>
<path d="M8.08656 8.05841C6.86059 13.2659 7.74939 18.4825 10.1942 22.8166C10.1951 22.8146 10.1959 22.8128 10.1967 22.8109C10.2052 22.8291 10.2133 22.8463 10.2218 22.8644C11.1014 24.414 12.1794 25.8504 13.4319 27.1318C18.2656 24.8641 22.129 20.6608 23.7929 15.2809C23.8573 15.0601 23.9185 14.8375 23.976 14.613C24.0095 14.4819 24.0431 14.3507 24.0742 14.2183C24.4178 12.759 24.5943 11.2999 24.6191 9.85991C21.5815 9.25593 18.578 10.5577 16.9078 12.9646C13.5211 11.5205 10.6679 9.23676 8.54242 6.42804C8.36998 6.96071 8.21703 7.50407 8.08656 8.05841ZM20.5131 15.0597C20.1458 14.9744 19.9176 14.6093 20.0035 14.2445C20.0894 13.8796 20.4568 13.6529 20.8241 13.7383C21.1914 13.8236 21.4196 14.1886 21.3337 14.5535C21.26 14.8664 20.9793 15.0777 20.6692 15.0777C20.6177 15.0777 20.5654 15.0719 20.5131 15.0597Z" fill="url(#paint2_linear_2150_1733)"/>
<path d="M56.9372 24.4286C56.8172 24.4286 56.7152 24.3926 56.6312 24.3206C56.5592 24.2366 56.5232 24.1346 56.5232 24.0146V13.4306H53.0672C52.9472 13.4306 52.8452 13.3946 52.7612 13.3226C52.6892 13.2386 52.6532 13.1366 52.6532 13.0166V12.2606C52.6532 12.1286 52.6892 12.0266 52.7612 11.9546C52.8452 11.8706 52.9472 11.8286 53.0672 11.8286H61.7432C61.8752 11.8286 61.9772 11.8706 62.0492 11.9546C62.1332 12.0266 62.1752 12.1286 62.1752 12.2606V13.0166C62.1752 13.1366 62.1332 13.2386 62.0492 13.3226C61.9772 13.3946 61.8752 13.4306 61.7432 13.4306H58.3052V24.0146C58.3052 24.1346 58.2632 24.2366 58.1792 24.3206C58.1072 24.3926 58.0052 24.4286 57.8732 24.4286H56.9372Z" fill="black"/>
<path d="M66.3436 24.6086C65.5756 24.6086 64.9216 24.4406 64.3816 24.1046C63.8536 23.7566 63.4516 23.2766 63.1756 22.6646C62.8996 22.0526 62.7616 21.3506 62.7616 20.5586V15.4826C62.7616 15.3626 62.7976 15.2666 62.8696 15.1946C62.9536 15.1106 63.0556 15.0686 63.1756 15.0686H64.0756C64.1956 15.0686 64.2916 15.1106 64.3636 15.1946C64.4476 15.2666 64.4896 15.3626 64.4896 15.4826V20.4686C64.4896 22.2566 65.2696 23.1506 66.8296 23.1506C67.5736 23.1506 68.1676 22.9166 68.6116 22.4486C69.0676 21.9686 69.2956 21.3086 69.2956 20.4686V15.4826C69.2956 15.3626 69.3316 15.2666 69.4036 15.1946C69.4876 15.1106 69.5896 15.0686 69.7096 15.0686H70.5916C70.7236 15.0686 70.8256 15.1106 70.8976 15.1946C70.9696 15.2666 71.0056 15.3626 71.0056 15.4826V24.0146C71.0056 24.1346 70.9696 24.2366 70.8976 24.3206C70.8256 24.3926 70.7236 24.4286 70.5916 24.4286H69.7636C69.6436 24.4286 69.5416 24.3926 69.4576 24.3206C69.3856 24.2366 69.3496 24.1346 69.3496 24.0146V23.2226C69.0256 23.6426 68.6296 23.9786 68.1616 24.2306C67.7056 24.4826 67.0996 24.6086 66.3436 24.6086Z" fill="black"/>
<path d="M80.7641 27.8486C80.6321 27.8486 80.5301 27.8066 80.4581 27.7226C80.3861 27.6506 80.3501 27.5546 80.3501 27.4346V23.2586C80.0501 23.6426 79.6601 23.9666 79.1801 24.2306C78.7121 24.4826 78.1301 24.6086 77.4341 24.6086C76.7741 24.6086 76.2041 24.4946 75.7241 24.2666C75.2441 24.0266 74.8481 23.7146 74.5361 23.3306C74.2361 22.9346 74.0081 22.4846 73.8521 21.9806C73.7081 21.4646 73.6241 20.9246 73.6001 20.3606C73.5881 20.1686 73.5821 19.9646 73.5821 19.7486C73.5821 19.5326 73.5881 19.3286 73.6001 19.1366C73.6241 18.5606 73.7081 18.0206 73.8521 17.5166C74.0081 17.0126 74.2361 16.5626 74.5361 16.1666C74.8481 15.7706 75.2441 15.4586 75.7241 15.2306C76.2041 15.0026 76.7741 14.8886 77.4341 14.8886C78.1541 14.8886 78.7541 15.0206 79.2341 15.2846C79.7141 15.5486 80.0981 15.8786 80.3861 16.2746V15.4826C80.3861 15.3626 80.4221 15.2666 80.4941 15.1946C80.5781 15.1106 80.6801 15.0686 80.8001 15.0686H81.6281C81.7481 15.0686 81.8441 15.1106 81.9161 15.1946C82.0001 15.2666 82.0421 15.3626 82.0421 15.4826V27.4346C82.0421 27.5546 82.0001 27.6506 81.9161 27.7226C81.8441 27.8066 81.7481 27.8486 81.6281 27.8486H80.7641ZM77.8121 23.1506C78.3881 23.1506 78.8561 23.0186 79.2161 22.7546C79.5881 22.4906 79.8641 22.1546 80.0441 21.7466C80.2361 21.3386 80.3381 20.9246 80.3501 20.5046C80.3621 20.3006 80.3681 20.0666 80.3681 19.8026C80.3681 19.5386 80.3621 19.3106 80.3501 19.1186C80.3381 18.6746 80.2421 18.2426 80.0621 17.8226C79.8821 17.3906 79.6061 17.0366 79.2341 16.7606C78.8741 16.4846 78.4001 16.3466 77.8121 16.3466C77.2001 16.3466 76.7141 16.4846 76.3541 16.7606C75.9941 17.0246 75.7361 17.3786 75.5801 17.8226C75.4241 18.2546 75.3341 18.7226 75.3101 19.2266C75.2981 19.5746 75.2981 19.9226 75.3101 20.2706C75.3341 20.7746 75.4241 21.2486 75.5801 21.6926C75.7361 22.1246 75.9941 22.4786 76.3541 22.7546C76.7141 23.0186 77.2001 23.1506 77.8121 23.1506Z" fill="black"/>
<path d="M91.8031 27.8486C91.6711 27.8486 91.5691 27.8066 91.4971 27.7226C91.4251 27.6506 91.3891 27.5546 91.3891 27.4346V23.2586C91.0891 23.6426 90.6991 23.9666 90.2191 24.2306C89.7511 24.4826 89.1691 24.6086 88.4731 24.6086C87.8131 24.6086 87.2431 24.4946 86.7631 24.2666C86.2831 24.0266 85.8871 23.7146 85.5751 23.3306C85.2751 22.9346 85.0471 22.4846 84.8911 21.9806C84.7471 21.4646 84.6631 20.9246 84.6391 20.3606C84.6271 20.1686 84.6211 19.9646 84.6211 19.7486C84.6211 19.5326 84.6271 19.3286 84.6391 19.1366C84.6631 18.5606 84.7471 18.0206 84.8911 17.5166C85.0471 17.0126 85.2751 16.5626 85.5751 16.1666C85.8871 15.7706 86.2831 15.4586 86.7631 15.2306C87.2431 15.0026 87.8131 14.8886 88.4731 14.8886C89.1931 14.8886 89.7931 15.0206 90.2731 15.2846C90.7531 15.5486 91.1371 15.8786 91.4251 16.2746V15.4826C91.4251 15.3626 91.4611 15.2666 91.5331 15.1946C91.6171 15.1106 91.7191 15.0686 91.8391 15.0686H92.6671C92.7871 15.0686 92.8831 15.1106 92.9551 15.1946C93.0391 15.2666 93.0811 15.3626 93.0811 15.4826V27.4346C93.0811 27.5546 93.0391 27.6506 92.9551 27.7226C92.8831 27.8066 92.7871 27.8486 92.6671 27.8486H91.8031ZM88.8511 23.1506C89.4271 23.1506 89.8951 23.0186 90.2551 22.7546C90.6271 22.4906 90.9031 22.1546 91.0831 21.7466C91.2751 21.3386 91.3771 20.9246 91.3891 20.5046C91.4011 20.3006 91.4071 20.0666 91.4071 19.8026C91.4071 19.5386 91.4011 19.3106 91.3891 19.1186C91.3771 18.6746 91.2811 18.2426 91.1011 17.8226C90.9211 17.3906 90.6451 17.0366 90.2731 16.7606C89.9131 16.4846 89.4391 16.3466 88.8511 16.3466C88.2391 16.3466 87.7531 16.4846 87.3931 16.7606C87.0331 17.0246 86.7751 17.3786 86.6191 17.8226C86.4631 18.2546 86.3731 18.7226 86.3491 19.2266C86.3371 19.5746 86.3371 19.9226 86.3491 20.2706C86.3731 20.7746 86.4631 21.2486 86.6191 21.6926C86.7751 22.1246 87.0331 22.4786 87.3931 22.7546C87.7531 23.0186 88.2391 23.1506 88.8511 23.1506Z" fill="black"/>
<path d="M96.4881 24.4286C96.3681 24.4286 96.2661 24.3926 96.1821 24.3206C96.1101 24.2366 96.0741 24.1346 96.0741 24.0146V15.4826C96.0741 15.3626 96.1101 15.2666 96.1821 15.1946C96.2661 15.1106 96.3681 15.0686 96.4881 15.0686H97.3521C97.4721 15.0686 97.5681 15.1106 97.6401 15.1946C97.7121 15.2666 97.7481 15.3626 97.7481 15.4826V24.0146C97.7481 24.1346 97.7121 24.2366 97.6401 24.3206C97.5681 24.3926 97.4721 24.4286 97.3521 24.4286H96.4881ZM96.3441 13.3226C96.2241 13.3226 96.1221 13.2866 96.0381 13.2146C95.9661 13.1306 95.9301 13.0286 95.9301 12.9086V11.9366C95.9301 11.8166 95.9661 11.7206 96.0381 11.6486C96.1221 11.5646 96.2241 11.5226 96.3441 11.5226H97.4781C97.5981 11.5226 97.6941 11.5646 97.7661 11.6486C97.8501 11.7206 97.8921 11.8166 97.8921 11.9366V12.9086C97.8921 13.0286 97.8501 13.1306 97.7661 13.2146C97.6941 13.2866 97.5981 13.3226 97.4781 13.3226H96.3441Z" fill="black"/>
<defs>
<linearGradient id="paint0_linear_2150_1733" x1="142.841" y1="28.4972" x2="59.1079" y2="-98.3453" gradientUnits="userSpaceOnUse">
<stop stop-color="white"/>
<stop offset="0.885097" stop-color="white"/>
<stop offset="1" stop-color="white"/>
</linearGradient>
<linearGradient id="paint1_linear_2150_1733" x1="314.659" y1="154.738" x2="235.848" y2="-45.7599" gradientUnits="userSpaceOnUse">
<stop stop-color="white"/>
<stop offset="1" stop-color="white"/>
</linearGradient>
<linearGradient id="paint2_linear_2150_1733" x1="96.7954" y1="43.1602" x2="82.1422" y2="-14.0996" gradientUnits="userSpaceOnUse">
<stop stop-color="white"/>
<stop offset="1" stop-color="white"/>
</linearGradient>
</defs>
</svg>
