<svg width="45" height="45" viewBox="0 0 45 45" fill="none" xmlns="http://www.w3.org/2000/svg">
<g clip-path="url(#clip0_1792_2517)">
<path fill-rule="evenodd" clip-rule="evenodd" d="M21.9836 13.1381L26.8024 17.955L25.81 18.9478C25.585 19.1728 25.3727 19.4236 25.3493 19.7306C25.3216 20.0855 25.5583 20.3222 25.6718 20.4356C25.8386 20.6025 26.0482 20.6738 26.2511 20.7427C26.5821 20.8552 26.7232 20.9231 26.7897 21.1509C26.8427 21.3319 26.7021 21.7092 26.3636 22.0369C26.0327 22.3791 25.6502 22.5009 25.4885 22.4522C25.2607 22.3861 25.1927 22.2445 25.0797 21.9141C25.0108 21.7111 24.94 21.5016 24.7732 21.3347C24.6597 21.2212 24.4488 21.0103 24.1244 21.0103C23.793 21.0103 23.5249 21.233 23.2849 21.473L21.9747 22.7831L20.5961 21.4055C20.5272 21.3361 20.4818 21.285 20.4518 21.248C20.4864 21.2245 20.6004 21.1861 20.6758 21.1603C21.0222 21.0422 21.603 20.8448 21.813 20.1277C21.9752 19.5727 21.715 18.8611 21.1605 18.3263C20.6238 17.7712 19.901 17.5022 19.3479 17.6634C18.6307 17.8739 18.4333 18.4542 18.3157 18.8006C18.2894 18.878 18.2496 18.9947 18.2336 19.0186C18.2318 19.0205 18.2294 19.0223 18.2275 19.0247C18.191 18.9947 18.1399 18.9492 18.0705 18.8803L17.156 17.9663L21.9836 13.1381ZM18.2477 20.0058C18.5721 20.0058 18.783 19.7948 18.8969 19.6809C19.0633 19.515 19.1346 19.305 19.203 19.1025C19.316 18.7716 19.3839 18.63 19.6108 18.5634C19.811 18.5072 20.2052 18.6872 20.4982 18.9895C20.8254 19.3055 20.966 19.6823 20.913 19.8642C20.8464 20.0916 20.7049 20.16 20.3735 20.273C20.1714 20.3419 19.9619 20.4131 19.795 20.5795C19.6816 20.693 19.4449 20.9297 19.4725 21.2845C19.496 21.592 19.7083 21.8428 19.9333 22.0683L21.9747 24.1087L23.9477 22.1358C24.0171 22.0669 24.0682 22.0214 24.1047 21.9919C24.1282 22.0266 24.1666 22.14 24.1924 22.2155C24.31 22.5619 24.5074 23.1422 25.225 23.3522C25.3343 23.3841 25.4505 23.4005 25.5705 23.4005C26.058 23.4005 26.6064 23.1342 27.0264 22.6997C27.5918 22.1536 27.8524 21.442 27.6897 20.887C27.4797 20.1698 26.8989 19.9725 26.5525 19.8548C26.4752 19.8286 26.3585 19.7888 26.3346 19.7728L26.3294 19.7677C26.3589 19.7302 26.4044 19.6795 26.4729 19.6106L28.128 17.955L21.9836 11.8125L15.8304 17.9663L17.4077 19.5431C17.6482 19.7836 17.9163 20.0058 18.2477 20.0058Z" fill="#1476F2" stroke="#1476F2" stroke-width="0.1"/>
<path fill-rule="evenodd" clip-rule="evenodd" d="M31.7308 22.3794C31.6853 22.3339 31.6516 22.2969 31.6258 22.2678C31.6699 22.2491 31.7383 22.2257 31.7917 22.2074C32.1199 22.0963 32.6697 21.9092 32.8694 21.2263C33.0236 20.6989 32.778 20.0249 32.2549 19.52C31.7397 18.9866 31.0671 18.7419 30.5374 18.8947C29.8549 19.0949 29.6683 19.6442 29.5563 19.9719C29.5371 20.0286 29.5122 20.1022 29.4972 20.1397C29.4682 20.1139 29.4307 20.0797 29.3842 20.0333L28.7692 19.4183L28.1064 20.0811L28.7214 20.6961C28.9352 20.9099 29.1738 21.111 29.4705 21.1339C29.8071 21.155 30.0419 20.9333 30.1511 20.8246C30.3114 20.6642 30.3817 20.4566 30.4441 20.2742C30.5467 19.9719 30.6044 19.8524 30.8008 19.7947C30.9588 19.7488 31.2996 19.881 31.5925 20.1833C31.8841 20.4646 32.0149 20.8072 31.9694 20.9633C31.9117 21.1597 31.7922 21.2174 31.4899 21.3196C31.3075 21.3819 31.0999 21.4522 30.9396 21.6125C30.3667 22.1853 30.6832 22.6569 31.068 23.0422L32.2619 24.2357L31.0047 25.4924C30.9592 25.5374 30.9222 25.5721 30.8932 25.5969C30.8744 25.5533 30.8505 25.4844 30.8322 25.4305C30.7207 25.1024 30.5336 24.5535 29.8507 24.3533C29.3214 24.1991 28.6497 24.4442 28.1444 24.9669C27.6105 25.483 27.3653 26.1571 27.52 26.6839C27.7197 27.3664 28.2686 27.553 28.5967 27.6646C28.6544 27.6838 28.728 27.7091 28.7655 27.7236C28.7397 27.7536 28.705 27.7911 28.6586 27.8375L27.8332 28.6625L23.4321 24.2628L22.7692 24.9257L27.8332 29.9882L29.3214 28.5003C29.5352 28.2871 29.7367 28.048 29.7592 27.7513C29.786 27.4067 29.5586 27.1794 29.4503 27.0711C29.29 26.9103 29.0824 26.84 28.8991 26.7772C28.5967 26.6746 28.4777 26.6169 28.42 26.42C28.3741 26.2644 28.5049 25.9222 28.8072 25.6297C29.0885 25.3382 29.4321 25.2074 29.5872 25.2533C29.7846 25.311 29.8422 25.4305 29.9444 25.7324C30.0072 25.9157 30.078 26.1233 30.2374 26.2827C30.3386 26.3839 30.5491 26.5944 30.8636 26.5949C31.1833 26.5949 31.4392 26.3835 31.6675 26.1552L33.5875 24.2357L31.7308 22.3794ZM17.3946 31.8007L12.5758 26.9838L13.5682 25.991C13.7932 25.766 14.0055 25.5152 14.0289 25.2077C14.0566 24.8524 13.8199 24.6161 13.7064 24.5032C13.5396 24.3363 13.33 24.265 13.1271 24.1961C12.7961 24.0836 12.655 24.0157 12.5885 23.7879C12.5355 23.6069 12.6761 23.2296 13.0146 22.9019C13.2953 22.6118 13.6985 22.4304 13.8897 22.4866C14.1175 22.5527 14.1855 22.6943 14.2985 23.0247C14.3674 23.2277 14.4386 23.4377 14.605 23.6036C14.7185 23.7175 14.9294 23.929 15.2542 23.9285C15.5852 23.9285 15.8533 23.7058 16.0938 23.4658L17.4035 22.1557L18.7821 23.5333C18.851 23.6027 18.8964 23.6538 18.9264 23.6904C18.8917 23.7143 18.7778 23.7527 18.7024 23.7785C18.3555 23.8966 17.7752 24.094 17.5652 24.8111C17.4035 25.3657 17.6636 26.0772 18.2177 26.6125C18.7549 27.1675 19.4777 27.4366 20.0303 27.2754C20.7471 27.0644 20.9444 26.485 21.0625 26.1386C21.0888 26.0613 21.1286 25.9446 21.145 25.9202L21.1507 25.9146C21.1877 25.9446 21.2383 25.99 21.3077 26.0585L22.2222 26.9725L17.3946 31.8007ZM21.131 24.933C20.8066 24.933 20.5957 25.144 20.4827 25.2569C20.3153 25.4238 20.2441 25.6338 20.1752 25.8363C20.0622 26.1672 19.9942 26.3088 19.7669 26.3754C19.5714 26.4307 19.1735 26.2516 18.8805 25.9497C18.5528 25.6329 18.4122 25.2555 18.4652 25.0741C18.5317 24.8472 18.6733 24.7788 19.0042 24.6658C19.2067 24.5974 19.4163 24.5257 19.5836 24.3588C20.1775 23.7635 19.8466 23.2727 19.4449 22.8705L17.4035 20.83L15.431 22.803C15.3616 22.8719 15.3105 22.9174 15.2739 22.9465C15.2505 22.9127 15.2116 22.7988 15.1858 22.7229C15.0677 22.3765 14.8703 21.7966 14.1536 21.5866C13.6014 21.4249 12.8758 21.6972 12.3517 22.2391C11.7864 22.7852 11.5258 23.4968 11.6885 24.0518C11.8985 24.769 12.4792 24.9663 12.8257 25.084C12.903 25.1102 13.0197 25.15 13.0441 25.1665C13.046 25.1683 13.0474 25.1697 13.0488 25.1711C13.0192 25.2086 12.9738 25.2593 12.9053 25.3282L11.2502 26.9838L17.3946 33.1263L23.5478 26.9725L21.9705 25.3957C21.73 25.1552 21.4619 24.933 21.131 24.933Z" fill="#1476F2" stroke="#1476F2" stroke-width="0.1"/>
</g>
<rect x="0.65" y="0.65" width="43.7" height="43.7" rx="21.85" stroke="#1476F2" stroke-width="1.3"/>
<defs>
<clipPath id="clip0_1792_2517">
<rect width="22.5" height="22.5" fill="white" transform="translate(11.25 11.25)"/>
</clipPath>
</defs>
</svg>
