<svg width="45" height="45" viewBox="0 0 45 45" fill="none" xmlns="http://www.w3.org/2000/svg">
<g clip-path="url(#clip0_1792_2664)">
<path fill-rule="evenodd" clip-rule="evenodd" d="M26.0605 30.8777H31.3265V18.4309H26.0605V30.8777ZM24.1456 32.7926H14.5711C14.0431 32.7926 13.6137 32.3631 13.6137 31.8351V30.8777H25.1031V31.8351C25.1031 32.3631 24.6736 32.7926 24.1456 32.7926ZM14.5711 12.2074H24.1456C24.6736 12.2074 25.1031 12.6369 25.1031 13.1649V13.6436H13.6137V13.1649C13.6137 12.6369 14.0431 12.2074 14.5711 12.2074ZM13.6137 29.9202H25.1031V14.6011H13.6137V29.9202ZM26.0605 17.4734H30.369V16.516H26.0605V17.4734ZM31.3265 17.4734V16.516C31.3265 15.9879 30.897 15.5585 30.369 15.5585H26.0605V13.1649C26.0605 12.1088 25.2017 11.25 24.1456 11.25H14.5711C13.5151 11.25 12.6562 12.1088 12.6562 13.1649V31.8351C12.6562 32.8912 13.5151 33.75 14.5711 33.75H24.1456C25.2017 33.75 26.0605 32.8912 26.0605 31.8351H32.2839V18.4309C32.2839 17.9028 31.8545 17.4734 31.3265 17.4734Z" fill="#1476F2"/>
<path fill-rule="evenodd" clip-rule="evenodd" d="M15.5286 20.8246C15.5286 20.5608 15.7436 20.3458 16.0073 20.3458H22.7095C22.9732 20.3458 23.1882 20.5608 23.1882 20.8246V24.6543C23.1882 24.9181 22.9732 25.1331 22.7095 25.1331H21.752V26.5305L20.0052 25.1331H16.0073C15.7436 25.1331 15.5286 24.9181 15.5286 24.6543V20.8246ZM16.0073 26.0905H19.6691L22.7095 28.5229V26.0905C23.5013 26.0905 24.1456 25.4461 24.1456 24.6543V20.8246C24.1456 20.0327 23.5013 19.3884 22.7095 19.3884H22.2307V18.4309H24.1456V17.4735H23.1882V16.516H24.1456V15.5586H23.1882C22.6602 15.5586 22.2307 15.988 22.2307 16.516V17.4735C21.7027 17.4735 21.2733 17.9029 21.2733 18.4309V19.3884H16.0073C15.2155 19.3884 14.5712 20.0327 14.5712 20.8246V24.6543C14.5712 25.4461 15.2155 26.0905 16.0073 26.0905Z" fill="#1476F2"/>
<path fill-rule="evenodd" clip-rule="evenodd" d="M18.8798 24.1757H19.8372V23.2183H20.7945V22.2604H19.8372V21.303H18.8798V22.2604H17.9224V23.2183H18.8798V24.1757Z" fill="#1476F2"/>
<path fill-rule="evenodd" clip-rule="evenodd" d="M28.4541 20.8243H29.4115V21.7817H30.3688V19.8669H27.4967V21.7817H28.4541V20.8243Z" fill="#1476F2"/>
<path fill-rule="evenodd" clip-rule="evenodd" d="M28.4541 23.6971H29.4115V24.6545H30.3688V22.7397H27.4967V24.6545H28.4541V23.6971Z" fill="#1476F2"/>
<path fill-rule="evenodd" clip-rule="evenodd" d="M28.4541 27.5266V26.5692H29.4115V27.5266H30.3688V25.6118H27.4967V27.5266H28.4541Z" fill="#1476F2"/>
</g>
<rect x="0.65" y="0.65" width="43.7" height="43.7" rx="21.85" stroke="#1476F2" stroke-width="1.3"/>
<defs>
<clipPath id="clip0_1792_2664">
<rect width="22.5" height="22.5" fill="white" transform="translate(11.25 11.25)"/>
</clipPath>
</defs>
</svg>
