<svg width="45" height="45" viewBox="0 0 45 45" fill="none" xmlns="http://www.w3.org/2000/svg">
<g clip-path="url(#clip0_1792_2668)">
<path fill-rule="evenodd" clip-rule="evenodd" d="M29.0788 26.0227L31.1317 27.3913L29.0788 28.7599L27.0259 27.3913L29.0788 26.0227ZM22.231 26.9022V32.7717H16.8505V29.3478H19.7853V25.4348H16.8505V21.5217H18.6667L22.7201 24.0554L26.7735 21.5217H28.5897V25.1726L25.9958 26.9022H22.231ZM13.9158 28.3696H18.8071V26.413H13.9158V28.3696ZM22.7201 19.1641L25.7102 21.0326L22.7201 22.9011L19.7301 21.0326L22.7201 19.1641ZM19.2962 13.9402C19.2962 13.1307 20.7024 12.2283 22.7201 12.2283C24.7378 12.2283 26.144 13.1307 26.144 13.9402C26.144 14.7497 24.7378 15.6522 22.7201 15.6522C20.7024 15.6522 19.2962 14.7497 19.2962 13.9402ZM32.8955 27.3913L29.5679 25.1726V20.5435H26.7735L23.2092 18.3155V16.6138C25.4392 16.4695 27.1223 15.3474 27.1223 13.9402C27.1223 12.4317 25.1888 11.25 22.7201 11.25C20.2515 11.25 18.3179 12.4317 18.3179 13.9402C18.3179 15.3474 20.001 16.4695 22.231 16.6138V18.3155L18.6667 20.5435H15.8723V25.4348H12.9375V29.3478H15.8723V33.75H23.2092V27.8804H25.9958L28.5897 29.6095V33.75H29.5679V29.6095L32.8955 27.3913Z" fill="#1476F2"/>
</g>
<rect x="0.65" y="0.65" width="43.7" height="43.7" rx="21.85" stroke="#1476F2" stroke-width="1.3"/>
<defs>
<clipPath id="clip0_1792_2668">
<rect width="22.5" height="22.5" fill="white" transform="translate(11.25 11.25)"/>
</clipPath>
</defs>
</svg>
