<svg width="45" height="45" viewBox="0 0 45 45" fill="none" xmlns="http://www.w3.org/2000/svg">
<g clip-path="url(#clip0_1765_2190)">
<circle cx="22.5" cy="22.5" r="21.85" stroke="#1476F2" stroke-width="1.3"/>
<path d="M14.5 23V17.112C14.5007 16.5776 14.7856 16.0839 15.248 15.816L23.5 11L31.756 15.816C32.2181 16.0856 32.5016 16.581 32.5 17.116V29C32.5 29.8284 31.8284 30.5 31 30.5H21.563" stroke="#1476F2" stroke-width="1.5" stroke-linecap="round" stroke-linejoin="round"/>
<path d="M11.688 30.904C13.2414 29.351 15.7596 29.351 17.313 30.904" stroke="#1476F2" stroke-width="1.5" stroke-linecap="round" stroke-linejoin="round"/>
<path d="M10 28.2389C12.4853 25.7537 16.5147 25.7537 19 28.2389" stroke="#1476F2" stroke-width="1.5" stroke-linecap="round" stroke-linejoin="round"/>
<path d="M14.5 32.75C14.7071 32.75 14.875 32.9179 14.875 33.125C14.875 33.3321 14.7071 33.5 14.5 33.5C14.2929 33.5 14.125 33.3321 14.125 33.125C14.125 32.9179 14.2929 32.75 14.5 32.75" stroke="#1476F2" stroke-width="1.5" stroke-linecap="round" stroke-linejoin="round"/>
</g>
<defs>
<clipPath id="clip0_1765_2190">
<rect width="45" height="45" fill="white"/>
</clipPath>
</defs>
</svg>
