<svg width="45" height="45" viewBox="0 0 45 45" fill="none" xmlns="http://www.w3.org/2000/svg">
<g clip-path="url(#clip0_1792_2660)">
<path fill-rule="evenodd" clip-rule="evenodd" d="M22.4991 17.6084C23.8055 17.6084 25.0342 18.1171 25.9577 19.0411C26.8817 19.9645 27.3904 21.1932 27.3904 22.5002C27.3904 25.1973 25.1961 27.392 22.4986 27.392C21.1921 27.392 19.9629 26.8833 19.0395 25.9593C18.1155 25.0358 17.6068 23.8071 17.6068 22.5007C17.6068 19.8031 19.8015 17.6084 22.4991 17.6084ZM22.4986 26.4137C24.6566 26.4137 26.4121 24.6582 26.4121 22.5002C26.4121 21.4544 26.0052 20.4718 25.2661 19.7327C24.5265 18.9936 23.5443 18.5867 22.4991 18.5867C20.341 18.5867 18.585 20.3421 18.585 22.5007C18.585 23.546 18.992 24.5286 19.7311 25.2677C20.4702 26.0068 21.4533 26.4137 22.4986 26.4137Z" fill="#1476F2"/>
<path fill-rule="evenodd" clip-rule="evenodd" d="M22.9891 19.5652V22.0109H24.4565V22.9891H22.0109V19.5652H22.9891ZM12.2283 22.5C12.2283 23.9645 12.5296 25.3785 13.1243 26.7026L12.2322 27.1032C11.5802 25.6524 11.25 24.1034 11.25 22.5C11.25 16.2968 16.2968 11.25 22.5 11.25C25.9611 11.25 29.1776 12.8245 31.3043 15.5035V14.1848H32.2826V17.1196H29.3478V16.1413H30.5623C28.6205 13.6776 25.6725 12.2283 22.5 12.2283C16.8359 12.2283 12.2283 16.8359 12.2283 22.5ZM32.7679 17.8967C33.4194 19.3485 33.7501 20.8971 33.7501 22.5C33.7501 28.7031 28.7033 33.75 22.5001 33.75C19.0395 33.75 15.823 32.1754 13.6957 29.4965V30.8152H12.7175V27.8804H15.6523V28.8586H14.4378C16.3801 31.3224 19.3276 32.7717 22.5001 32.7717C28.1637 32.7717 32.7718 28.1641 32.7718 22.5C32.7718 21.036 32.4705 19.6219 31.8757 18.2973L32.7679 17.8967Z" fill="#1476F2"/>
<path fill-rule="evenodd" clip-rule="evenodd" d="M28.2946 23.4767L28.2051 23.8533C28.0554 24.4892 27.8006 25.0918 27.4499 25.6436L27.2395 25.9747L28.1669 26.9021L26.902 28.167L25.9751 27.2401L25.644 27.4509C25.0932 27.8016 24.4916 28.0564 23.8547 28.2071L23.4781 28.2966V29.3477H21.5216V28.2976L21.145 28.209C20.5076 28.0584 19.905 27.8045 19.3533 27.4533L19.0221 27.2425L18.0977 28.167L16.8328 26.9021L17.7563 25.9786L17.5455 25.6475C17.1952 25.0977 16.9414 24.4975 16.7902 23.8641L16.7007 23.488L15.652 23.4884V21.5353L16.6968 21.5339L16.7853 21.1568C16.935 20.518 17.1913 19.9109 17.5464 19.3533L17.7577 19.0222L16.8328 18.0977L18.0977 16.8328L19.0226 17.7583L19.3538 17.5475C19.905 17.1973 20.5076 16.9429 21.145 16.7923L21.5216 16.7037V15.6521H23.4781V16.7047L23.8547 16.7937C24.4911 16.9449 25.0927 17.1992 25.6435 17.5494L25.9746 17.7602L26.902 16.8328L28.1669 18.0977L27.239 19.0261L27.4494 19.3573C27.8001 19.9075 28.0544 20.5096 28.2041 21.146L28.2936 21.5231L29.3477 21.5221V23.4762L28.2946 23.4767ZM30.3259 24.4535V20.5429L29.0562 20.5444C28.9143 20.066 28.7201 19.6062 28.4775 19.1709L29.5502 18.0977L26.902 15.4496L25.8299 16.5218C25.3945 16.2792 24.9347 16.085 24.4564 15.9426V14.6738H20.5433V15.9407C20.0645 16.083 19.6042 16.2767 19.1679 16.5198L18.0977 15.4496L15.4495 18.0977L16.5188 19.167C16.2718 19.6082 16.0756 20.0733 15.9328 20.5566L14.6738 20.5581V24.4677L15.9396 24.4667C16.082 24.9426 16.2757 25.4 16.5178 25.8338L15.4495 26.9021L18.0977 29.5502L19.1674 28.481C19.6037 28.7246 20.064 28.9183 20.5433 29.0606V30.326H24.4564V29.0587C24.9352 28.9158 25.3945 28.7221 25.8303 28.479L26.902 29.5502L29.5502 26.9021L28.4775 25.8294C28.7211 25.3931 28.9153 24.9328 29.0571 24.4545L30.3259 24.4535Z" fill="#1476F2"/>
</g>
<rect x="0.65" y="0.65" width="43.7" height="43.7" rx="21.85" stroke="#1476F2" stroke-width="1.3"/>
<defs>
<clipPath id="clip0_1792_2660">
<rect width="22.5" height="22.5" fill="white" transform="translate(11.25 11.25)"/>
</clipPath>
</defs>
</svg>
