<svg width="45" height="45" viewBox="0 0 45 45" fill="none" xmlns="http://www.w3.org/2000/svg">
<g clip-path="url(#clip0_1822_2445)">
<path fill-rule="evenodd" clip-rule="evenodd" d="M32.8172 23.6627L31.3894 22.7463V21.7914L32.8172 20.875C32.9935 20.7621 33.0732 20.546 33.0127 20.3453L32.491 18.611C32.4324 18.4155 32.2538 18.281 32.0499 18.2772L30.2658 18.2472L29.798 17.4372L30.6629 15.8791C30.7651 15.6958 30.7327 15.4675 30.5841 15.3194L29.3147 14.0533C29.1661 13.9057 28.9388 13.8742 28.7551 13.976L27.1941 14.8478L26.3846 14.3857L26.3541 12.6316C26.3508 12.4216 26.2074 12.2392 26.004 12.1863L24.2696 11.7339C24.0671 11.6814 23.8557 11.7682 23.7488 11.9467L22.8301 13.4828H21.8949L20.9762 11.9467C20.8716 11.7728 20.6668 11.6875 20.468 11.7307L18.7341 12.1319C18.5246 12.1807 18.3746 12.3658 18.3713 12.581L18.3413 14.365L17.5308 14.8333L15.9727 13.968C15.7885 13.8658 15.5612 13.8986 15.4135 14.0467L14.1469 15.3161C13.9993 15.4647 13.9679 15.693 14.0696 15.8758L14.9419 17.4367L14.4793 18.2463L12.7257 18.2767C12.5152 18.2805 12.3329 18.4235 12.2799 18.6274L11.8276 20.3617C11.7751 20.5633 11.8618 20.7752 12.0408 20.8821L13.5769 21.8008V22.7364L12.0408 23.6547C11.866 23.7592 11.7788 23.965 11.8247 24.1628L12.226 25.8977C12.2747 26.1072 12.4594 26.2567 12.6746 26.2605L14.4587 26.2905L14.9274 27.1024L14.0616 28.6624C13.9599 28.8457 13.9922 29.0735 14.1399 29.2211L15.4097 30.491C15.5574 30.6386 15.7852 30.671 15.9685 30.5697L17.5276 29.7053L18.5682 30.3124L19.0407 29.5019L17.7694 28.7608C17.6265 28.6783 17.4507 28.6764 17.3063 28.7557L15.8227 29.5783L15.053 28.8086L15.8757 27.325C15.9558 27.1811 15.954 27.0063 15.8719 26.8633L15.1383 25.5921C15.0558 25.45 14.9049 25.3605 14.7404 25.3577L13.0566 25.3296L12.8152 24.2842L14.2862 23.4049C14.4277 23.3205 14.5144 23.1672 14.5144 23.0027V21.535C14.5144 21.37 14.4277 21.2172 14.2862 21.1328L12.8237 20.2577L13.0974 19.2077L14.7619 19.1796C14.9274 19.1767 15.0793 19.0867 15.1608 18.9433L15.8869 17.6721C15.9685 17.5291 15.9694 17.3542 15.8893 17.2108L15.061 15.7277L15.8269 14.9599L17.3082 15.7821C17.4521 15.8617 17.6274 15.8599 17.7699 15.7783L19.0397 15.0442C19.1822 14.9617 19.2713 14.8108 19.2741 14.6463L19.3022 12.963L20.3466 12.7211L21.2265 14.1925C21.3113 14.3341 21.4641 14.4203 21.6287 14.4203H23.0963C23.2608 14.4203 23.4137 14.3341 23.4985 14.1925L24.3727 12.73L25.4232 13.0038L25.4518 14.6688C25.4546 14.8338 25.5446 14.9852 25.688 15.0672L26.9588 15.7933C27.1022 15.8753 27.2766 15.8767 27.4201 15.7957L28.9032 14.9669L29.6719 15.7333L28.8493 17.2141C28.7691 17.358 28.771 17.5338 28.853 17.6763L29.5871 18.9457C29.6696 19.0886 29.8205 19.1777 29.9851 19.18L31.6922 19.2086L32.0133 20.2764L30.6676 21.1403C30.533 21.2271 30.4519 21.3752 30.4519 21.535V23.0027C30.4519 23.1625 30.533 23.3107 30.6676 23.3974L32.0147 24.2617L31.6997 25.3291L29.993 25.3577C29.829 25.3605 29.6785 25.4491 29.596 25.5902L28.8549 26.8614C28.7719 27.0044 28.7701 27.1807 28.8502 27.3246L29.6724 28.8086L28.9018 29.5783L27.4186 28.7552C27.2752 28.675 27.0994 28.6769 26.9569 28.7589L25.6862 29.493L26.1549 30.3049L27.196 29.7039L28.756 30.5692C28.8272 30.6091 28.9055 30.6283 28.9833 30.6283C29.1047 30.6283 29.2247 30.5814 29.3147 30.491L30.5846 29.2211C30.7327 29.0735 30.7646 28.8457 30.6633 28.6628L29.7994 27.1038L30.2729 26.2905L32.0597 26.2605C32.2641 26.2567 32.4432 26.1208 32.5013 25.9244L33.0137 24.19C33.0727 23.9899 32.9926 23.7752 32.8172 23.6627Z" fill="#1476F2"/>
<path fill-rule="evenodd" clip-rule="evenodd" d="M17.3268 22.8579C16.8097 22.8579 16.3893 22.4374 16.3893 21.9204C16.3893 21.4034 16.8097 20.9829 17.3268 20.9829C17.8438 20.9829 18.2643 21.4034 18.2643 21.9204C18.2643 22.4374 17.8438 22.8579 17.3268 22.8579ZM19.2018 21.9204C19.2018 20.8863 18.3608 20.0454 17.3268 20.0454C16.2927 20.0454 15.4518 20.8863 15.4518 21.9204C15.4518 22.9545 16.2927 23.7954 17.3268 23.7954C17.6736 23.7954 17.9943 23.6946 18.2732 23.5296L19.6705 24.927V33.6392H20.608V24.5388L18.936 22.8668C19.101 22.5879 19.2018 22.2673 19.2018 21.9204ZM22.0143 18.1704C21.4972 18.1704 21.0768 17.7499 21.0768 17.2329C21.0768 16.7159 21.4972 16.2954 22.0143 16.2954C22.5313 16.2954 22.9518 16.7159 22.9518 17.2329C22.9518 17.7499 22.5313 18.1704 22.0143 18.1704ZM22.0143 15.3579C20.9802 15.3579 20.1393 16.1988 20.1393 17.2329C20.1393 18.1043 20.7393 18.8318 21.5455 19.0413V33.6392H22.483V19.0413C23.2893 18.8318 23.8893 18.1043 23.8893 17.2329C23.8893 16.1988 23.0483 15.3579 22.0143 15.3579Z" fill="#1476F2"/>
<path fill-rule="evenodd" clip-rule="evenodd" d="M26.7018 18.6392C27.2188 18.6392 27.6393 19.0596 27.6393 19.5767C27.6393 20.0937 27.2188 20.5142 26.7018 20.5142C26.1847 20.5142 25.7643 20.0937 25.7643 19.5767C25.7643 19.0596 26.1847 18.6392 26.7018 18.6392ZM23.4205 25.2017H24.358V22.5832L25.7553 21.1859C26.0343 21.3509 26.3549 21.4517 26.7018 21.4517C27.7358 21.4517 28.5768 20.6107 28.5768 19.5767C28.5768 18.5426 27.7358 17.7017 26.7018 17.7017C25.6677 17.7017 24.8268 18.5426 24.8268 19.5767C24.8268 19.9235 24.9275 20.2442 25.0925 20.5231L23.4205 22.1951V25.2017Z" fill="#1476F2"/>
<path fill-rule="evenodd" clip-rule="evenodd" d="M27.1705 23.3267C27.6875 23.3267 28.108 23.7471 28.108 24.2642C28.108 24.7812 27.6875 25.2017 27.1705 25.2017C26.6535 25.2017 26.233 24.7812 26.233 24.2642C26.233 23.7471 26.6535 23.3267 27.1705 23.3267ZM27.1705 26.1392C28.2046 26.1392 29.0455 25.2982 29.0455 24.2642C29.0455 23.2301 28.2046 22.3892 27.1705 22.3892C26.1364 22.3892 25.2955 23.2301 25.2955 24.2642C25.2955 24.611 25.3963 24.9317 25.5613 25.2106L23.4205 27.3513V33.6392H24.358V27.7395L26.2241 25.8734C26.503 26.0384 26.8236 26.1392 27.1705 26.1392Z" fill="#1476F2"/>
</g>
<rect x="0.65" y="0.65" width="43.7" height="43.7" rx="21.85" stroke="#1476F2" stroke-width="1.3"/>
<defs>
<clipPath id="clip0_1822_2445">
<rect width="22.5" height="22.5" fill="white" transform="translate(11.25 11.25)"/>
</clipPath>
</defs>
</svg>
