<svg width="45" height="45" viewBox="0 0 45 45" fill="none" xmlns="http://www.w3.org/2000/svg">
<path fill-rule="evenodd" clip-rule="evenodd" d="M15 24.8438C12.9323 24.8438 11.25 23.1614 11.25 21.0938C11.25 19.3345 12.4917 17.8247 14.1637 17.4408C14.0944 17.1014 14.0592 16.7555 14.0592 16.4072C14.0592 13.5638 16.3725 11.25 19.2159 11.25C21.195 11.25 22.9838 12.3877 23.842 14.1361C24.4242 13.7831 25.0945 13.5938 25.7813 13.5938C27.8489 13.5938 29.5312 15.2756 29.5312 17.3438V17.3728C29.6864 17.3536 29.843 17.3438 30 17.3438C32.0677 17.3438 33.75 19.0256 33.75 21.0938C33.75 23.1614 32.0677 24.8438 30 24.8438H28.5938V23.9062H30C31.5511 23.9062 32.8125 22.6448 32.8125 21.0938C32.8125 19.5427 31.5511 18.2812 30 18.2812C29.7952 18.2812 29.5922 18.3117 29.392 18.3562C29.302 18.6788 29.1694 18.9877 28.995 19.2769L28.1925 18.7927C28.3598 18.5147 28.4756 18.2123 28.538 17.895L28.5413 17.8795C28.5759 17.6986 28.5938 17.5186 28.5938 17.3438C28.5938 15.7927 27.3323 14.5313 25.7813 14.5313C25.2075 14.5313 24.6544 14.7173 24.1852 15.0441C24.2611 15.3211 24.322 15.6028 24.3506 15.8897L23.4178 15.9825C23.3897 15.6998 23.3273 15.4223 23.2434 15.1528L23.1956 15.0169C22.6045 13.3242 21.0052 12.1875 19.2159 12.1875C16.8895 12.1875 14.9967 14.0803 14.9967 16.4072C14.9967 16.7255 15.0445 17.0386 15.1153 17.3475C15.45 17.3573 15.7805 17.4098 16.102 17.5083L15.8264 18.4045C15.4988 18.3038 15.1575 18.2663 14.813 18.2902L14.783 18.292C13.328 18.4036 12.1875 19.6341 12.1875 21.0938C12.1875 22.6448 13.4489 23.9062 15 23.9062H16.4062V24.8438H15ZM12.6562 31.4062H17.3438V28.5938H12.6562V31.4062ZM11.7188 32.3438H14.5313V32.8125H13.125V33.75H16.875V32.8125H15.4688V32.3438H18.2812V27.6562H11.7188V32.3438ZM20.1562 31.4062H24.8438V28.5938H20.1562V31.4062ZM19.2188 32.3438H22.0312V32.8125H20.625V33.75H24.375V32.8125H22.9688V32.3438H25.7813V27.6562H19.2188V32.3438ZM27.6562 31.4062H32.3438V28.5938H27.6562V31.4062ZM26.7188 32.3438H29.5312V32.8125H28.125V33.75H31.875V32.8125H30.4688V32.3438H33.2812V27.6562H26.7188V32.3438Z" fill="#1476F2"/>
<path fill-rule="evenodd" clip-rule="evenodd" d="M16.875 27.1874H17.8127V23.4377H16.875V27.1874Z" fill="#1476F2"/>
<path fill-rule="evenodd" clip-rule="evenodd" d="M22.0314 27.1873H22.9686V22.5H22.0314V27.1873Z" fill="#1476F2"/>
<path fill-rule="evenodd" clip-rule="evenodd" d="M27.1873 27.1873H28.125V23.9062H27.1873V27.1873Z" fill="#1476F2"/>
<path fill-rule="evenodd" clip-rule="evenodd" d="M18.2812 24.8439H21.5623V23.9062H18.2812V24.8439Z" fill="#1476F2"/>
<path fill-rule="evenodd" clip-rule="evenodd" d="M23.4377 24.8439H26.7187V23.9062H23.4377V24.8439Z" fill="#1476F2"/>
<path fill-rule="evenodd" clip-rule="evenodd" d="M16.875 22.4999H17.8127V21.5623H16.875V22.4999Z" fill="#1476F2"/>
<path fill-rule="evenodd" clip-rule="evenodd" d="M16.875 20.6252H17.8127V19.6875H16.875V20.6252Z" fill="#1476F2"/>
<path fill-rule="evenodd" clip-rule="evenodd" d="M22.0314 21.5624H22.9686V20.6252H22.0314V21.5624Z" fill="#1476F2"/>
<path fill-rule="evenodd" clip-rule="evenodd" d="M22.0314 19.6874H22.9686V18.7498H22.0314V19.6874Z" fill="#1476F2"/>
<path fill-rule="evenodd" clip-rule="evenodd" d="M27.1873 22.9686H28.125V22.0315H27.1873V22.9686Z" fill="#1476F2"/>
<path fill-rule="evenodd" clip-rule="evenodd" d="M22.0314 17.8127H22.9686V16.875H22.0314V17.8127Z" fill="#1476F2"/>
<rect x="0.65" y="0.65" width="43.7" height="43.7" rx="21.85" stroke="#1476F2" stroke-width="1.3"/>
</svg>
