<svg width="45" height="45" viewBox="0 0 45 45" fill="none" xmlns="http://www.w3.org/2000/svg">
<path d="M18.5193 20.6371C18.5193 19.9961 17.9999 19.4767 17.3589 19.4767C16.718 19.4767 16.1985 19.9961 16.1985 20.6371C16.1985 21.278 16.718 21.7974 17.3589 21.7974C17.9999 21.7974 18.5193 21.278 18.5193 20.6371ZM19.0084 20.6371C19.0084 21.5481 18.27 22.2866 17.3589 22.2866C16.4479 22.2866 15.7094 21.5481 15.7094 20.6371C15.7094 19.726 16.4479 18.9875 17.3589 18.9875C18.27 18.9875 19.0084 19.726 19.0084 20.6371Z" fill="#1476F2" stroke="#1476F2" stroke-width="0.3"/>
<path d="M27.8856 21.5738C27.8856 20.9329 27.3662 20.4134 26.7253 20.4134C26.0843 20.4134 25.5649 20.9329 25.5649 21.5738C25.5649 22.2148 26.0843 22.7342 26.7253 22.7342C27.3662 22.7342 27.8856 22.2148 27.8856 21.5738ZM28.3748 21.5738C28.3748 22.4849 27.6363 23.2233 26.7253 23.2233C25.8142 23.2233 25.0757 22.4849 25.0757 21.5738C25.0757 20.6628 25.8142 19.9243 26.7253 19.9243C27.6363 19.9243 28.3748 20.6628 28.3748 21.5738Z" fill="#1476F2" stroke="#1476F2" stroke-width="0.3"/>
<path d="M27.8856 26.2569C27.8856 25.616 27.3662 25.0966 26.7253 25.0966C26.0843 25.0966 25.5649 25.616 25.5649 26.2569C25.5649 26.8979 26.0843 27.4173 26.7253 27.4173C27.3662 27.4173 27.8856 26.8979 27.8856 26.2569ZM28.3748 26.2569C28.3748 27.168 27.6363 27.9065 26.7253 27.9065C25.8142 27.9065 25.0757 27.168 25.0757 26.2569C25.0757 25.3459 25.8142 24.6074 26.7253 24.6074C27.6363 24.6074 28.3748 25.3459 28.3748 26.2569Z" fill="#1476F2" stroke="#1476F2" stroke-width="0.3"/>
<path d="M23.2025 18.7638C23.2025 18.1228 22.683 17.6034 22.0421 17.6034C21.4012 17.6034 20.8817 18.1228 20.8817 18.7638C20.8817 19.4047 21.4012 19.9242 22.0421 19.9242C22.683 19.9242 23.2025 19.4047 23.2025 18.7638ZM23.6916 18.7638C23.6916 19.6748 22.9532 20.4133 22.0421 20.4133C21.131 20.4133 20.3926 19.6748 20.3926 18.7638C20.3926 17.8527 21.131 17.1143 22.0421 17.1143C22.9532 17.1143 23.6916 17.8527 23.6916 18.7638Z" fill="#1476F2" stroke="#1476F2" stroke-width="0.3"/>
<path d="M21.7975 20.1689H22.2867V33.7501H21.7975V20.1689Z" fill="#1476F2" stroke="#1476F2" stroke-width="0.3"/>
<path d="M24.1599 27.1935H23.6708V24.2823L25.6157 22.3374L25.9616 22.6833L24.1599 24.4849V27.1935Z" fill="#1476F2" stroke="#1476F2" stroke-width="0.3"/>
<path d="M18.1226 21.7467L18.4685 21.4009L20.4134 23.3458V26.257H19.9243V23.5484L18.1226 21.7467Z" fill="#1476F2" stroke="#1476F2" stroke-width="0.3"/>
<path d="M24.1599 30.9402H23.6708V29.4339L25.6157 27.489L25.9616 27.8349L24.1599 29.6365V30.9402Z" fill="#1476F2" stroke="#1476F2" stroke-width="0.3"/>
<path d="M30.0035 17.5827C31.9491 17.5827 33.5263 19.1599 33.5263 21.1055C33.5263 23.0511 31.9491 24.6283 30.0035 24.6283H29.5352V24.1392H30.0035C31.6789 24.1392 33.0371 22.781 33.0371 21.1055C33.0371 19.4301 31.6789 18.0719 30.0035 18.0719C29.6871 18.0719 29.3772 18.1208 29.0805 18.2157L28.688 18.3413L28.7658 17.9366C28.8031 17.7422 28.8223 17.5502 28.8223 17.3585C28.8223 15.6831 27.4641 14.3249 25.7886 14.3249C25.052 14.3249 24.3567 14.5901 23.8074 15.0648L23.5352 15.2999L23.4166 14.9604C22.7988 13.1918 21.1299 11.9838 19.2294 11.9838C16.7779 11.9838 14.7903 13.9715 14.7903 16.4233C14.7903 16.8832 14.8609 17.3338 14.998 17.766L15.0914 18.0603L14.7836 18.0838C13.2088 18.2041 11.9837 19.5183 11.9837 21.1055C11.9837 22.7807 13.3421 24.1392 15.0173 24.1392H18.7639V24.6283H15.0173C13.0719 24.6283 11.4946 23.0508 11.4946 21.1055C11.4946 19.3623 12.7665 17.903 14.4512 17.6311C14.352 17.2387 14.3012 16.8342 14.3012 16.4233C14.3012 13.7013 16.5077 11.4946 19.2294 11.4946C21.2248 11.4946 22.9901 12.6938 23.7561 14.4841C24.345 14.0661 25.0492 13.8357 25.7886 13.8357C27.7342 13.8357 29.3114 15.4129 29.3114 17.3585C29.3114 17.457 29.3071 17.5554 29.2986 17.6539C29.529 17.6068 29.7647 17.5827 30.0035 17.5827Z" fill="#1476F2" stroke="#1476F2" stroke-width="0.3"/>
<path d="M23.4247 14.9572L23.8865 14.7961C24.0141 15.1619 24.0985 15.5415 24.1369 15.9288L23.6501 15.977C23.6156 15.6285 23.5396 15.2867 23.4247 14.9572Z" fill="#1476F2" stroke="#1476F2" stroke-width="0.3"/>
<path d="M28.7674 17.9365L29.2476 18.0293C29.1692 18.4355 29.0201 18.8222 28.8082 19.1744L28.3891 18.9223C28.5715 18.619 28.6998 18.2861 28.7674 17.9365Z" fill="#1476F2" stroke="#1476F2" stroke-width="0.3"/>
<path d="M14.783 18.0808L14.7459 17.5931C15.1865 17.5596 15.6299 17.6079 16.0522 17.737L15.9092 18.2047C15.5454 18.0935 15.1632 18.0519 14.783 18.0808Z" fill="#1476F2" stroke="#1476F2" stroke-width="0.3"/>
<path d="M19.9243 27.1936H20.4134V28.1302H19.9243V27.1936Z" fill="#1476F2" stroke="#1476F2" stroke-width="0.3"/>
<path d="M19.9243 29.0669H20.4134V30.0035H19.9243V29.0669Z" fill="#1476F2" stroke="#1476F2" stroke-width="0.3"/>
<path d="M23.6708 31.8767H24.1599V32.8133H23.6708V31.8767Z" fill="#1476F2" stroke="#1476F2" stroke-width="0.3"/>
<path d="M19.9243 30.9402H20.4134V31.8768H19.9243V30.9402Z" fill="#1476F2" stroke="#1476F2" stroke-width="0.3"/>
<rect x="0.65" y="0.65" width="43.7" height="43.7" rx="21.85" stroke="#1476F2" stroke-width="1.3"/>
</svg>
