<svg width="45" height="45" viewBox="0 0 45 45" fill="none" xmlns="http://www.w3.org/2000/svg">
<g clip-path="url(#clip0_1792_2433)">
<path fill-rule="evenodd" clip-rule="evenodd" d="M22.5 21.5217C20.6824 21.5217 17.1196 22.408 17.1196 24.4565V28.8587C17.1196 29.9729 18.0034 30.9986 19.0761 31.2461V33.75H20.0544V25.4348H19.0761V30.2204C18.5063 29.9852 18.0978 29.3821 18.0978 28.8587V24.4565C18.0978 23.3403 20.7685 22.5 22.5 22.5C24.2315 22.5 26.9022 23.3403 26.9022 24.4565V28.8587C26.9022 29.3821 26.4938 29.9852 25.9239 30.2204V25.4348H24.9457V33.75H25.9239V31.2461C26.9966 30.9986 27.8804 29.9729 27.8804 28.8587V24.4565C27.8804 22.408 24.3176 21.5217 22.5 21.5217Z" fill="#1476F2"/>
<path fill-rule="evenodd" clip-rule="evenodd" d="M28.8587 22.9893C28.6934 22.9893 28.5134 22.9981 28.3236 23.0157L28.4151 23.99C28.5726 23.9753 28.7217 23.9675 28.8587 23.9675C30.398 23.9675 32.7717 24.8078 32.7717 25.924V30.3262C32.7717 30.8315 32.2909 31.1284 31.7935 31.2458V26.9023H30.8152V33.7501H31.7935V32.2431C32.8123 32.0822 33.75 31.4224 33.75 30.3262V25.924C33.75 23.8756 30.511 22.9893 28.8587 22.9893Z" fill="#1476F2"/>
<path fill-rule="evenodd" clip-rule="evenodd" d="M21.0326 17.9021C21.0326 17.1415 21.6225 16.6304 22.5 16.6304C23.3775 16.6304 23.9674 17.1415 23.9674 17.9021V18.783C23.9674 19.5431 23.3775 20.0543 22.5 20.0543C21.6225 20.0543 21.0326 19.5431 21.0326 18.783V17.9021ZM20.0544 18.783C20.0544 20.0866 21.083 21.0325 22.5 21.0325C23.917 21.0325 24.9457 20.0866 24.9457 18.783V17.9021C24.9457 16.5986 23.917 15.6521 22.5 15.6521C21.083 15.6521 20.0544 16.5986 20.0544 17.9021V18.783Z" fill="#1476F2"/>
<path fill-rule="evenodd" clip-rule="evenodd" d="M30.8152 19.3694V20.2503C30.8152 21.0104 30.2253 21.5216 29.3478 21.5216C28.4703 21.5216 27.8804 21.0104 27.8804 20.2503V19.3694C27.8804 18.6088 28.4703 18.0976 29.3478 18.0976C30.2253 18.0976 30.8152 18.6088 30.8152 19.3694ZM26.9022 19.3694V20.2503C26.9022 21.5538 27.9308 22.4998 29.3478 22.4998C30.7648 22.4998 31.7935 21.5538 31.7935 20.2503V19.3694C31.7935 18.0659 30.7648 17.1194 29.3478 17.1194C27.9308 17.1194 26.9022 18.0659 26.9022 19.3694Z" fill="#1476F2"/>
<path fill-rule="evenodd" clip-rule="evenodd" d="M11.25 25.924V30.3262C11.25 31.4224 12.1877 32.0822 13.2065 32.2431V33.7501H14.1848V26.9023H13.2065V31.2458C12.7091 31.1284 12.2283 30.8315 12.2283 30.3262V25.924C12.2283 24.8078 14.602 23.9675 16.1413 23.9675C16.2783 23.9675 16.4274 23.9753 16.5849 23.99L16.6764 23.0157C16.4866 22.9981 16.3066 22.9893 16.1413 22.9893C14.489 22.9893 11.25 23.8756 11.25 25.924Z" fill="#1476F2"/>
<path fill-rule="evenodd" clip-rule="evenodd" d="M14.1848 19.3699C14.1848 18.6088 14.7747 18.0976 15.6522 18.0976C16.5297 18.0976 17.1196 18.6088 17.1196 19.3699V20.2503C17.1196 21.0104 16.5297 21.5216 15.6522 21.5216C14.7747 21.5216 14.1848 21.0104 14.1848 20.2503V19.3699ZM15.6522 22.4998C17.0692 22.4998 18.0978 21.5538 18.0978 20.2503V19.3699C18.0978 18.0659 17.0692 17.1194 15.6522 17.1194C14.2352 17.1194 13.2065 18.0659 13.2065 19.3699V20.2503C13.2065 21.5538 14.2352 22.4998 15.6522 22.4998Z" fill="#1476F2"/>
<path fill-rule="evenodd" clip-rule="evenodd" d="M16.6304 13.5005C16.6304 12.7394 17.2203 12.2283 18.0978 12.2283C18.9753 12.2283 19.5652 12.7394 19.5652 13.5005V14.3809C19.5652 15.141 18.9753 15.6522 18.0978 15.6522C17.2203 15.6522 16.6304 15.141 16.6304 14.3809V13.5005ZM18.0978 16.6304C19.5148 16.6304 20.5435 15.6845 20.5435 14.3809V13.5005C20.5435 12.1965 19.5148 11.25 18.0978 11.25C16.6808 11.25 15.6522 12.1965 15.6522 13.5005V14.3809C15.6522 15.6845 16.6808 16.6304 18.0978 16.6304Z" fill="#1476F2"/>
<path fill-rule="evenodd" clip-rule="evenodd" d="M25.4348 13.5005C25.4348 12.7394 26.0247 12.2283 26.9022 12.2283C27.7797 12.2283 28.3696 12.7394 28.3696 13.5005V14.3809C28.3696 15.141 27.7797 15.6522 26.9022 15.6522C26.0247 15.6522 25.4348 15.141 25.4348 14.3809V13.5005ZM26.9022 16.6304C28.3192 16.6304 29.3478 15.6845 29.3478 14.3809V13.5005C29.3478 12.1965 28.3192 11.25 26.9022 11.25C25.4852 11.25 24.4565 12.1965 24.4565 13.5005V14.3809C24.4565 15.6845 25.4852 16.6304 26.9022 16.6304Z" fill="#1476F2"/>
</g>
<rect x="0.65" y="0.65" width="43.7" height="43.7" rx="21.85" stroke="#1476F2" stroke-width="1.3"/>
<defs>
<clipPath id="clip0_1792_2433">
<rect width="22.5" height="22.5" fill="white" transform="translate(11.25 11.25)"/>
</clipPath>
</defs>
</svg>
