<svg width="45" height="45" viewBox="0 0 45 45" fill="none" xmlns="http://www.w3.org/2000/svg">
<path fill-rule="evenodd" clip-rule="evenodd" d="M29.5332 25.9967V23.4262C29.5332 23.2999 29.3992 23.1972 29.2342 23.1972H14.5603C14.3954 23.1972 14.2614 23.2999 14.2614 23.4262V25.9967H29.5332ZM29.8457 26.4754H13.9489C13.7763 26.4754 13.6364 26.3683 13.6364 26.2361V23.4262C13.6364 23.0355 14.0502 22.7185 14.5603 22.7185H29.2342C29.7443 22.7185 30.1582 23.0355 30.1582 23.4262V26.2361C30.1582 26.3683 30.0182 26.4754 29.8457 26.4754Z" fill="#1476F2" stroke="#1476F2" stroke-width="0.3"/>
<path fill-rule="evenodd" clip-rule="evenodd" d="M29.5332 26.2361H30.1582V29.5143C30.1582 29.6465 30.0182 29.7537 29.8457 29.7537H13.9489C13.7763 29.7537 13.6364 29.6465 13.6364 29.5143V26.2361H14.2614V29.2749H29.5332V26.2361Z" fill="#1476F2" stroke="#1476F2" stroke-width="0.3"/>
<path fill-rule="evenodd" clip-rule="evenodd" d="M29.5332 29.5144H30.1582V32.3243C30.1582 32.715 29.7443 33.032 29.2342 33.032H14.5603C14.0502 33.032 13.6364 32.715 13.6364 32.3243V29.5144H14.2614V32.3243C14.2614 32.4506 14.3954 32.5533 14.5603 32.5533H29.2342C29.3992 32.5533 29.5332 32.4506 29.5332 32.3243V29.5144Z" fill="#1476F2" stroke="#1476F2" stroke-width="0.3"/>
<path fill-rule="evenodd" clip-rule="evenodd" d="M15.1717 25.0705V24.5918H16.3945V25.0705H15.1717Z" fill="#1476F2" stroke="#1476F2" stroke-width="0.3"/>
<path fill-rule="evenodd" clip-rule="evenodd" d="M15.1717 28.3488V27.8701H16.3945V28.3488H15.1717Z" fill="#1476F2" stroke="#1476F2" stroke-width="0.3"/>
<path fill-rule="evenodd" clip-rule="evenodd" d="M15.1717 31.6269V31.1482H16.3945V31.6269H15.1717Z" fill="#1476F2" stroke="#1476F2" stroke-width="0.3"/>
<path fill-rule="evenodd" clip-rule="evenodd" d="M24.6554 16.0323V22.0213H24.0304V15.834L26.6591 13.8206H30.4571V14.2993H26.918L24.6554 16.0323Z" fill="#1476F2" stroke="#1476F2" stroke-width="0.3"/>
<path fill-rule="evenodd" clip-rule="evenodd" d="M28.4019 12.8241L28.8438 12.4856L30.899 14.0598L28.8438 15.634L28.4019 15.2955L30.0151 14.0598L28.4019 12.8241Z" fill="#1476F2" stroke="#1476F2" stroke-width="0.3"/>
<path fill-rule="evenodd" clip-rule="evenodd" d="M30.2361 16.5707L30.678 16.2322L32.7332 17.8064L30.678 19.3806L30.2361 19.0421L31.8494 17.8064L30.2361 16.5707Z" fill="#1476F2" stroke="#1476F2" stroke-width="0.3"/>
<path fill-rule="evenodd" clip-rule="evenodd" d="M20.284 12.8243L19.8421 12.4858L21.6763 11.0808C21.7983 10.9874 21.9962 10.9874 22.1183 11.0808L23.9525 12.4858L23.5105 12.8243L21.8973 11.5886L20.284 12.8243Z" fill="#1476F2" stroke="#1476F2" stroke-width="0.3"/>
<path fill-rule="evenodd" clip-rule="evenodd" d="M21.5848 11.25H22.2098V22.0213H21.5848V11.25Z" fill="#1476F2" stroke="#1476F2" stroke-width="0.3"/>
<path fill-rule="evenodd" clip-rule="evenodd" d="M27.1011 22.0213H26.4761V19.1123L28.4934 17.5671H32.2913V18.0459H28.7523L27.1011 19.3106V22.0213Z" fill="#1476F2" stroke="#1476F2" stroke-width="0.3"/>
<path fill-rule="evenodd" clip-rule="evenodd" d="M13.3375 14.2993V13.8206H17.1354L19.7641 15.834V22.0213H19.1391V16.0323L16.8765 14.2993H13.3375Z" fill="#1476F2" stroke="#1476F2" stroke-width="0.3"/>
<path fill-rule="evenodd" clip-rule="evenodd" d="M15.3927 15.2955L14.9507 15.634L12.8955 14.0598L14.9507 12.4856L15.3927 12.8241L13.7794 14.0598L15.3927 15.2955Z" fill="#1476F2" stroke="#1476F2" stroke-width="0.3"/>
<path fill-rule="evenodd" clip-rule="evenodd" d="M11.9452 17.8064L13.5585 19.0421L13.1165 19.3806L11.0613 17.8064L13.1165 16.2322L13.5585 16.5707L11.9452 17.8064Z" fill="#1476F2" stroke="#1476F2" stroke-width="0.3"/>
<path fill-rule="evenodd" clip-rule="evenodd" d="M11.5032 18.0459V17.5671H15.3012L17.3185 19.1123V22.0213H16.6935V19.3106L15.0423 18.0459H11.5032Z" fill="#1476F2" stroke="#1476F2" stroke-width="0.3"/>
<rect x="0.65" y="0.65" width="43.7" height="43.7" rx="21.85" stroke="#1476F2" stroke-width="1.3"/>
</svg>
