<svg xmlns="http://www.w3.org/2000/svg" width="45" height="46" viewBox="0 0 45 46" fill="none">
  <g clip-path="url(#clip0_4_872)">
    <circle cx="22.5" cy="22.8799" r="21.85" fill="white" stroke="#1476F2" stroke-width="1.3"/>
    <path d="M34.5094 28.2195L27.2532 29.606" stroke="#1476F2" stroke-width="1.3" stroke-linecap="round" stroke-linejoin="round"/>
    <path d="M26.2491 19.976L21.3722 21.5875C20.591 21.8447 19.7411 21.4751 19.3964 20.7283C19.0234 19.9279 19.3526 18.9758 20.1403 18.5767L24.8639 16.2016C25.6777 15.7912 26.6252 15.7362 27.481 16.0497L34.4743 18.6077" stroke="#1476F2" stroke-width="1.3" stroke-linecap="round" stroke-linejoin="round"/>
    <path d="M11.1586 28.2307H14.5969L19.5356 33.7657C20.0507 34.3626 20.8825 34.5764 21.6216 34.3018C22.3606 34.0273 22.8511 33.3222 22.8515 32.5338V31.669L23.0976 31.7674C23.815 32.0543 24.6279 31.9668 25.2677 31.5338C25.9076 31.1008 26.291 30.3786 26.2912 29.606H26.9789C27.7603 29.6055 28.4744 29.1638 28.8239 28.4648C29.1734 27.7659 29.0982 26.9296 28.6298 26.3041L24.2156 20.6482" stroke="#1476F2" stroke-width="1.3" stroke-linecap="round" stroke-linejoin="round"/>
    <path d="M20.8589 18.2139L20.3555 17.799C19.8482 17.4255 19.2347 17.2239 18.6047 17.2239C18.2293 17.2237 17.8574 17.2958 17.5092 17.4362L11.25 19.9393" stroke="#1476F2" stroke-width="1.3" stroke-linecap="round" stroke-linejoin="round"/>
    <path d="M7.03125 17.5459H9.84375C10.5872 17.5149 11.2158 18.0907 11.25 18.834V27.8579C11.2158 28.6014 10.5874 29.1776 9.84375 29.1474H7.03125" stroke="#1476F2" stroke-width="1.3" stroke-linecap="round" stroke-linejoin="round"/>
    <path d="M38.6719 29.1474H35.8594C35.1157 29.1776 34.4873 28.6014 34.4531 27.8579V18.834C34.4873 18.0907 35.1159 17.5149 35.8594 17.5459H38.6719" stroke="#1476F2" stroke-width="1.3" stroke-linecap="round" stroke-linejoin="round"/>
    <path d="M22.8515 31.669L21.4762 30.2937" stroke="#1476F2" stroke-width="1.3" stroke-linecap="round" stroke-linejoin="round"/>
    <path d="M26.2913 29.6059L24.2269 27.5415" stroke="#1476F2" stroke-width="1.3" stroke-linecap="round" stroke-linejoin="round"/>
  </g>
  <defs>
    <clipPath id="clip0_4_872">
      <rect width="45" height="45" fill="white" transform="translate(0 0.379883)"/>
    </clipPath>
  </defs>
</svg>