<svg xmlns="http://www.w3.org/2000/svg" width="45" height="45" viewBox="0 0 45 45" fill="none">
  <g clip-path="url(#clip0_63_721)">
    <circle cx="22.5" cy="22.5" r="21.85" fill="white" stroke="#1476F2" stroke-width="1.3"/>
    <path d="M35.0241 35.1562L35.1366 33.8929C35.2901 32.2026 34.1644 30.6612 32.5076 30.2931L28.6029 29.3808V22.9224C28.5911 22.3535 28.353 21.8128 27.9412 21.4201C27.5295 21.0273 26.9781 20.8149 26.4093 20.83C25.8535 20.807 25.3144 21.0225 24.9276 21.4222C24.5408 21.8219 24.3431 22.3678 24.3844 22.9224V33.2719L22.7217 32.0311C22.0353 31.5185 21.0766 31.5875 20.4706 32.1931C19.8647 32.7988 19.7952 33.7575 20.3076 34.4441L20.8419 35.1562" stroke="#1476F2" stroke-width="1.3" stroke-linecap="round" stroke-linejoin="round"/>
    <path d="M21.7731 15.1481H18.0507C17.6217 15.1137 17.1992 15.2693 16.895 15.5737C16.5907 15.8782 16.4354 16.3008 16.4701 16.7297C16.4701 18.4622 21.7731 19.7885 21.7731 21.522C21.7792 21.9415 21.6153 22.3457 21.3186 22.6424C21.0219 22.9391 20.6177 23.1031 20.1982 23.0969H16.4701" stroke="#1476F2" stroke-width="1.3" stroke-linecap="round" stroke-linejoin="round"/>
    <path d="M19.1227 15.1479V13.159" stroke="#1476F2" stroke-width="1.3" stroke-linecap="round" stroke-linejoin="round"/>
    <path d="M19.1227 25.0914V23.1025" stroke="#1476F2" stroke-width="1.3" stroke-linecap="round" stroke-linejoin="round"/>
    <path d="M24.5167 28.2673C23.09 29.0721 21.4424 29.5312 19.6875 29.5312C14.2509 29.5312 9.84375 25.1241 9.84375 19.6875C9.84375 14.2509 14.2509 9.84375 19.6875 9.84375C25.1241 9.84375 29.5312 14.2509 29.5312 19.6875C29.5312 20.6648 29.3888 21.6088 29.1236 22.5C29.0126 22.873 28.8801 23.2368 28.7274 23.5898" stroke="#1476F2" stroke-width="1.3"/>
  </g>
  <defs>
    <clipPath id="clip0_63_721">
      <rect width="45" height="45" fill="white"/>
    </clipPath>
  </defs>
</svg>