<svg width="45" height="45" viewBox="0 0 45 45" fill="none" xmlns="http://www.w3.org/2000/svg">
  <rect x="0.65" y="0.65" width="43.7" height="43.7" rx="21.85" stroke="#1476F2" stroke-width="1.3"/>
  <path fill-rule="evenodd" clip-rule="evenodd" d="M21.5625 33.6715C21.3113 33.6715 21.0605 33.6321 20.8214 33.5524L12.8522 30.896C11.8941 30.5763 11.25 29.6829 11.25 28.6723V28.0938C11.25 27.0837 11.8941 26.1902 12.8522 25.8705L18.6019 23.9543L18.8981 24.8435L13.1489 26.7598C12.5737 26.9515 12.1875 27.4877 12.1875 28.0938V28.6723C12.1875 29.2784 12.5737 29.8146 13.1489 30.0063L21.1177 32.6627C21.4041 32.7584 21.72 32.7584 22.0073 32.6627L31.3819 29.5376C31.9575 29.3459 32.3438 28.8101 32.3438 28.2035V27.6251C32.3438 27.019 31.9575 26.4827 31.3819 26.291L25.635 24.3752L25.9313 23.486L31.6786 25.4018C32.6372 25.7215 33.2812 26.6149 33.2812 27.6251V28.2035C33.2812 29.2141 32.6372 30.1076 31.6786 30.4273L22.3041 33.5524C22.0645 33.6321 21.8138 33.6715 21.5625 33.6715ZM21.5625 30.4926C21.5123 30.4926 21.4627 30.4846 21.4144 30.4687L14.3831 28.1249C14.1914 28.0612 14.0625 27.8821 14.0625 27.6801C14.0625 27.478 14.1914 27.2994 14.3831 27.2352L20.0081 25.3602L20.3044 26.2499L16.0134 27.6801L21.5625 29.5297L28.5178 27.2113L24.2264 25.7812L24.5227 24.8915L30.1481 26.7665C30.3398 26.8307 30.4688 27.0093 30.4688 27.2113C30.4688 27.4133 30.3398 27.5924 30.1481 27.6562L21.7106 30.4687C21.6623 30.4846 21.6127 30.4926 21.5625 30.4926Z" fill="#1476F2" stroke="#1476F2" stroke-width="0.3"/>
  <path fill-rule="evenodd" clip-rule="evenodd" d="M22.0312 12.1875C19.4653 12.1875 17.3775 14.2753 17.3775 16.8412C17.376 18.0717 17.579 18.8123 18.1818 19.777C18.7279 20.6503 21.0923 24.1022 22.0312 25.47C22.9701 24.1022 25.3349 20.6503 25.8806 19.777C26.4839 18.8123 26.6868 18.0717 26.6849 16.8417C26.6849 14.2753 24.5976 12.1875 22.0312 12.1875ZM22.0312 27.1242L21.645 26.5631C21.4996 26.3522 18.0796 21.382 17.3868 20.2739C16.5928 19.0036 16.4385 18.053 16.44 16.8403C16.44 13.7583 18.9482 11.25 22.0312 11.25C25.1142 11.25 27.6224 13.7583 27.6224 16.8412C27.6243 18.053 27.4701 19.0041 26.6751 20.2739C25.9832 21.382 22.5628 26.3522 22.4174 26.5631L22.0312 27.1242ZM22.0342 15.4926C22.8334 15.4926 23.4367 16.0963 23.4376 16.8969C23.4381 17.2869 23.2965 17.6441 23.0382 17.9024C22.779 18.1621 22.4246 18.3051 22.0398 18.3051H22.0229C21.6381 18.3051 21.2832 18.1621 21.024 17.9024C20.7662 17.6441 20.6242 17.2869 20.6251 16.8969C20.626 16.0963 21.2293 15.4926 22.0342 15.4926ZM22.0398 19.2426C22.6754 19.2426 23.2651 19.0016 23.702 18.5647C24.137 18.1288 24.376 17.5358 24.3751 16.8955C24.3732 15.583 23.3448 14.5551 22.0281 14.5551C20.7174 14.5551 19.6895 15.583 19.6876 16.8955C19.6867 17.5363 19.9257 18.1293 20.3607 18.5647C20.7971 19.0021 21.3873 19.2426 22.0313 19.2426H22.0398Z" fill="#1476F2" stroke="#1476F2" stroke-width="0.3"/>
</svg>
