<svg width="45" height="46" viewBox="0 0 45 46" fill="none" xmlns="http://www.w3.org/2000/svg">
<rect x="0.65" y="1.60068" width="43.7" height="43.7" rx="21.85" stroke="#1476F2" stroke-width="1.3"/>
<path fill-rule="evenodd" clip-rule="evenodd" d="M22.1978 16.9879H22.2198H22.2227C23.2764 16.9879 24.1347 17.8453 24.1366 18.9004C24.1371 19.4117 23.9389 19.8928 23.5779 20.2552C23.217 20.6171 22.7368 20.8172 22.2054 20.8177C21.6942 20.8172 21.214 20.6171 20.8531 20.2552C20.4921 19.8928 20.2934 19.4117 20.2944 18.9004C20.2958 17.8487 21.1489 16.9937 22.1978 16.9879ZM22.227 21.7752C22.9939 21.7742 23.7144 21.4745 24.2558 20.9312C24.7977 20.3878 25.095 19.6659 25.0941 18.899C25.0912 17.3417 23.8451 16.0721 22.2571 16.0333L22.2121 16.0305H22.2078C20.6271 16.0305 19.3393 17.3163 19.3369 18.899C19.3355 19.6659 19.6333 20.3878 20.1747 20.9312C20.7166 21.4745 21.4371 21.7742 22.227 21.7752ZM27.3473 25.6201L27.1601 26.5594C30.5059 27.2258 32.7535 28.5791 32.7535 29.9281C32.7535 31.7607 28.625 33.7311 22.4816 33.7431C16.3357 33.7311 12.2077 31.7607 12.2077 29.9281C12.2077 28.5791 14.4553 27.2258 17.8006 26.5594L17.6134 25.6201C13.629 26.4138 11.2502 28.0238 11.2502 29.9281C11.2502 32.5918 16.1825 34.6881 22.4816 34.7005C28.7782 34.6881 33.711 32.5918 33.711 29.9281C33.711 28.0238 31.3322 26.4138 27.3473 25.6201Z" fill="#1476F2" stroke="#1476F2" stroke-width="0.4"/>
<path fill-rule="evenodd" clip-rule="evenodd" d="M22.2217 13.1581C25.3894 13.1581 27.9664 15.7351 27.9664 18.9033C27.9683 20.4175 27.7184 21.3295 26.9754 22.5181C26.2966 23.6044 23.306 27.9679 22.2217 29.5467C21.1374 27.9679 18.1468 23.6044 17.468 22.5181C16.725 21.3295 16.4751 20.4175 16.477 18.9028C16.477 15.7351 19.054 13.1581 22.2217 13.1581ZM21.8272 30.6636L22.2217 31.2366L22.6161 30.6636C22.7923 30.4075 26.9472 24.3703 27.7873 23.0256C28.7404 21.5004 28.9257 20.3591 28.9238 18.9028C28.9238 15.2071 25.9174 12.2007 22.2217 12.2007C18.5259 12.2007 15.5195 15.2071 15.5195 18.9023C15.5176 20.3591 15.7029 21.5004 16.656 23.0256C17.4962 24.3703 21.651 30.4075 21.8272 30.6636Z" fill="#1476F2" stroke="#1476F2" stroke-width="0.4"/>
</svg>
