<svg xmlns="http://www.w3.org/2000/svg" width="83" height="45" viewBox="0 0 83 45">
    <path fill="#000" fill-rule="evenodd" d="M82.955 28.674c-.022.028-.05.04-.089.04h-.011l-6.232-.584a.123.123 0 0 1-.118-.122l-.06-10.18c0-.033.022-.073.05-.095a.132.132 0 0 1 .095-.034l1.88.174a.124.124 0 0 1 .119.13l.039 8.06 4.243.387c.067.005.118.067.118.134L83 28.58a.118.118 0 0 1-.045.095zm-7.843-.683h-.011l-2.162-.163a.12.12 0 0 1-.111-.084l-.728-2.022-3.516-.252-.745 1.898c-.017.051-.073.09-.129.079l-1.814-.129a.137.137 0 0 1-.1-.067.115.115 0 0 1-.012-.112l3.886-9.854a.127.127 0 0 1 .128-.078l1.518.106c.05 0 .09.04.112.09l3.807 10.414a.121.121 0 0 1-.017.123c-.022.034-.067.05-.106.05zm-4.748-7.014l-.923 2.33 1.813.135-.89-2.465zm-8.907-.533c1.54.656 3.655 1.541 3.66 3.675.007.958-.268 1.72-.816 2.27-.645.638-1.612.969-2.895.969-.14 0-.28-.006-.425-.012-1.551-.084-3.175-1.053-3.634-1.35a.137.137 0 0 1-.062-.112l-.01-2.32a.132.132 0 1 1 .2-.105c1.412.94 2.75 1.546 3.511 1.585.717.045 1.192-.061 1.428-.302a.579.579 0 0 0 .173-.46c0-.23-.229-.448-.728-.7a18.104 18.104 0 0 0-1.007-.438c-1.568-.643-3.712-1.523-3.724-3.898-.005-.79.247-1.446.74-1.95.644-.638 1.668-.963 2.822-.908 1.354.079 2.966.768 3.723 1.221.04.023.063.067.061.113l.012 2.247a.13.13 0 0 1-.202.106c-.465-.302-2.094-1.305-3.594-1.384-.538-.028-.801.117-.919.23a.4.4 0 0 0-.128.286c.005.246.24.487.733.755.302.163.678.32 1.08.482zm-1.792-7.764c-.012-.017-.022-.022-.034-.033v-.045c.028.028.028.022.034.078zm.045.201a.223.223 0 0 1-.034.04c-.017-.023-.028-.056-.045-.078.017.01.028.022.045.038-.005-.022-.017-.038-.022-.061.022.023.039.045.056.061zm.039.824c-.017-.01-.028-.022-.05-.039-.006-.011-.006-.028-.012-.045l.062.04v.044zm-.106-.15a.26.26 0 0 0-.034-.04v-.096c.028.04.05.085.079.13-.006.005-.006.016-.017.022a.106.106 0 0 0-.028-.017zm-2.156-1.766l-.033-.084c.123.067.207.387.212.566h-.01c-.012-.011-.017-.022-.029-.028-.095-.056-.207-.258-.207-.409a.49.49 0 0 0 .067-.045zm.314 1.29c-.023-.063.005-.175-.034-.265-.045-.117-.185-.246-.196-.386.056.028.04.028.09-.006.011-.033.016-.067.028-.106a.19.19 0 0 1 .039.017c.134.19.257.487.297.762h-.012c-.033-.023-.039-.028-.067-.028 0 .028.006.062.012.095-.102-.017-.107-.056-.157-.084zM55.987 7.99c-.006-.017-.011-.039-.023-.056.056.022.079.034.112.084-.033-.011-.062-.017-.09-.028zM40.63 2.165v.04c-.022.021-.057.043-.079.066-.106.056-.37.006-.454-.04v-.01l.018-.056c.05-.023.1-.04.156-.056.157 0 .24.027.359.056zm-3.802 2.498c.016-.005.04-.011.056-.022a.715.715 0 0 1 .246.056c.011.04.023.062.011.117h-.016c-.084-.022-.264-.084-.297-.15zm1.12-1.91c.073-.022.135-.04.195-.056.112.017.225.034.337.056-.006.006-.011.011-.011.023-.163.045-.33.033-.51.05a.348.348 0 0 0-.011-.073zm.716.247c.006-.017.017-.034.022-.045.04-.017.085-.028.124-.045a.281.281 0 0 1 .145.045c-.01.017-.028.028-.045.045-.077.017-.122.067-.212.05L38.664 3zm.297.268h-.078l-.023-.022c.034.005.062.005.101.01v.012zm.32-.47c.005-.006.005-.017.01-.022.068.016.13.038.19.055v.035c-.005 0-.01.01-.01.016-.034-.006-.073-.016-.107-.016-.028-.023-.05-.045-.084-.068zm.223-.09c.028.006.056.017.079.023v.01h-.079v-.033zm.207.146c-.006.005-.006.012-.011.022h-.05c-.045-.033-.073-.039-.096-.09.04.006.079.018.118.023a.3.3 0 0 1 .04.045zm.51.263h-.05c-.04-.017-.068-.023-.09-.056a.347.347 0 0 1 .14.056zm1.125.717c.006-.011.017-.022.022-.033a.088.088 0 0 1 .04-.023c.017.006.039.006.055.011a.51.51 0 0 0 .062.034c0 .011-.011.016-.017.023-.056.01-.123.016-.162-.012zm.879-.112c.084.005.073.011.084-.028.034.006.062.017.096.023.01.022.022.05.038.072-.022.017-.044.028-.061.045a.296.296 0 0 1-.157-.1v-.012zm-.655 2.745c.32.018.638.236.829.404v.033a.044.044 0 0 0-.023.012c-.358-.113-.549-.252-.817-.426.006-.005.006-.017.011-.023zm-.045.98s.499.118.583.152v.011c-.006.006-.012.006-.012.011-.162-.005-.145.05-.262.073-.045-.023-.062-.028-.09-.062-.012-.033.011-.011-.029-.033a1.3 1.3 0 0 1-.424-.258c.005-.005.01-.011.01-.022.05-.017.095-.034.14-.051.01.006.022.01.034.011-.017.074-.045.057.011.112.006.057-.011.034.04.057zm18.123 4.679c.056.094.1.2.162.274.023.05.04.235.028.38-.011-.055-.016-.061-.022-.111-.073 0-.118-.13-.18-.084l-.066.05c.045.067.09.14.14.201h-.012c-.055-.05-.145-.016-.162-.144h-.017c.029.223.258.363.297.514-.05-.011-.028-.027-.045.023.13.056.291.325.353.46-.05-.046-.09-.09-.129-.13.017.045.034.101.056.146h-.01c-.029-.028-.057-.062-.085-.09-.006 0-.011.006-.022.006.04.062.106.135.095.19v.028c-.012-.01-.017-.016-.022-.016-.018-.017-.028-.034-.04-.05.062.123.118.252.18.37h-.012c-.022-.029-.05-.057-.073-.085.006.028.012.062.023.09-.011 0-.017-.006-.023-.012l-.083-.184h-.012a.4.4 0 0 1 .022.09h-.01c-.012-.012-.023-.017-.034-.034-.05-.152-.129-.264-.213-.387.006-.095.006-.073.028-.14a.313.313 0 0 1-.19-.134c-.029-.062 0-.112 0-.124-.034.012-.006.006-.034.012-.073-.163-.252-.314-.33-.46-.073-.179-.134-.353-.201-.527-.079-.122-.292-.347-.426-.414-.062-.033-.056.017-.101-.033l.067-.017c-.006-.012-.006-.017-.011-.028l-.067-.05c-.011 0-.017.005-.023.005l.057.056c-.017-.006-.04-.006-.057-.006-.033-.045-.055-.062-.084-.112a.1.1 0 0 0 .045.011c-.078-.078-.207-.14-.291-.246-.061-.067-.1-.258-.213-.303.017.04.034.073.045.112a.177.177 0 0 0-.033-.028c-.017-.039-.045-.078-.062-.129l-.011.09c-.006-.005-.017-.011-.023-.017a1.717 1.717 0 0 0-.168-.302c-.01 0-.028 0-.045-.006-.027.045-.027.062-.089.079.022.084.09.1.112.162 0 .034-.006.056-.011.084.061.208.285.263.403.42.134.174.213.398.386.538.073.062.129.034.196.073 0 .084.011.112.04.157.224.112.476.33.543.594a1.17 1.17 0 0 1-.264-.264c-.005.006-.017.011-.022.018l.067.28c.078.095.152.112.19.263-.045.022-.038.005-.05.072.045.09.057.193.034.291h-.012l-.067-.05c0 .219.09.32.117.499h-.01c-.057-.022-.488-.364-.504-.409-.028-.05-.017-.107-.012-.157h.012a.3.3 0 0 0 .045.04c.005-.04.005-.035.022-.062.073.062.073.072.19.078.034-.056.107-.073.14-.09-.15-.492-.252-.588-.593-.913-.028-.05-.062-.095-.09-.14-.04-.033-.09 0-.1-.005a42.984 42.984 0 0 1-.47-.449c-.163-.224-.348-.661-.667-.722v.022a2.104 2.104 0 0 0-.039.169c-.14.016-.123.161-.202.24-.162-.067-.274-.146-.459-.201-.022.045-.084.072-.095.112-.05.14.157.33.173.465-.038.044-.095.162-.15.195-.09.068-.152.034-.214.124.101.196-.223.51.135.75-.017.096-.078.096-.101.163-.039.123.011.235.011.302a.25.25 0 0 0-.128.023c-.04.073-.067.219-.107.302-.033-.028-.033-.033-.1-.045-.012.023-.023.04-.029.057-.128-.045-.24-.023-.402-.017-.017.039-.19.207-.236.252-.218-.04-.325-.533-.526-.437-.073.017-.095.067-.135.078-.061.022-.207-.039-.307-.005a1.524 1.524 0 0 0-.102-.577c-.027.016-.05.028-.072.045-.05-.056-.078-.09-.134-.14.039-.174.072-.678.01-.847-.066-.196-.19-.341-.212-.543-.033.017-.028.017-.067.022-.017-.089-.084-.078-.09-.2.017-.012.029-.018.045-.03.022-.05.1-.05.157-.072-.028-.056.006-.128.079-.112.078-.023.1.022.15.04.112.038.291-.04.364-.034.275.033.762.174.969.09 0-.37-.157-.65-.297-.847 0-.005.006-.005.011-.01.017.016.034.033.056.044-.005-.028-.565-.555-.576-.555-.18-.067-.364-.033-.493-.15.028-.006.05-.012.073-.012-.062-.05-.14-.04-.157-.14.005 0 .017 0 .022-.006.068-.067.197-.05.28-.09.045.034.09.068.146.101.062-.05.117-.033.212-.016v-.012c-.01-.01-.022-.027-.033-.039-.044-.123-.129-.179-.201-.28.005-.006.005-.011.017-.011.105.033.268.162.42.134l.033-.033c-.056-.04-.029-.079 0-.118a.275.275 0 0 0 .134-.062c-.033-.078-.073-.15-.1-.224.05-.072.173-.084.234-.14.096-.09-.038-.347-.078-.504h.011c.012.006.017.011.023.011.04.124.09.241.128.359.028.006.062.011.09.016-.039-.05-.033-.06-.045-.15h.012c.05.016.028.033.056-.012.01-.056-.018-.067-.045-.134-.051.016-.04.023-.085 0-.016-.034-.033-.062-.044-.084l.022-.057.163-.016v-.05c.095-.011.106.005.173.027-.005-.072-.022-.05.028-.067-.061-.09-.106-.134-.157-.224a.517.517 0 0 0-.09-.011c.023-.101-.408-.426-.447-.639.023-.005.04-.022.062-.033h.044c-.01-.034-.016-.062-.028-.096.028-.011.057-.022.079-.033.056.179.212.246.325.375a.155.155 0 0 0-.012.056c-.016-.011-.033-.016-.05-.028.034.05.044.14.079.174.128-.045.24.118.285.224-.078-.045-.157-.101-.235-.145a.039.039 0 0 0-.012.022c0 .005.006.017.012.022.055.006.072.023.1.056-.011.011-.033.011-.011.017.073.056.146.14.247.14a.181.181 0 0 1-.022-.05c.038.01.033.01.055.04.006.027.017.088.039.111l.056.017c.017-.085.05-.062.04-.129.022.005.044.005.067.01v-.066c.034.028.067.067.112.095-.017.045-.034.017.011.056.095.011.118.101.201 0l.057-.017-.005-.023c-.173-.16-.346-.32-.525-.476-.001.005-.004.01-.014.029l.101.117v.034h-.011c-.05-.005-.095-.005-.14-.011-.017-.029-.044-.045-.067-.068-.028.029-.022.006-.022.045.061.023.1.096.134.13v.089c-.022 0-.045 0-.067-.006a.208.208 0 0 1-.1-.078v-.012c.06.012.05.04.083-.005a.718.718 0 0 1-.252-.213c.028-.04.033-.073.095-.09a1.251 1.251 0 0 0-.056-.129c-.347-.14-.515-.56-.85-.722v.017c.005.022.016.039.021.055a.314.314 0 0 1-.067.029c.022.073.017.157-.039.19-.118.067-.437-.112-.492-.185-.017-.05-.04-.095-.051-.146-.04.023-.04.04-.095.029-.09-.202-.32-.28-.425-.448-.017-.04-.023-.079-.035-.13-.038-.05-.094-.09-.139-.156.045-.022.067-.04.106-.05-.034-.046-.017-.05-.028-.13.013-.003.016-.012.027-.017a22.9 22.9 0 0 0-2.356-1.382c-.287.284-1.058-.098-1.383-.18-.005-.017-.016-.034-.022-.056.006 0 .006-.006.01-.011l.119.033c-.005-.011-.012-.016-.012-.028-.145-.073-.235-.134-.453-.19-.006-.006-.011-.011-.011-.023l.011-.011c.13.023.208.045.286-.005-.152-.04-.308-.079-.465-.119 0-.01.006-.022.011-.027.028-.028.062-.05.09-.079.039.017.067.029.1.04-.022-.018-.038-.04-.055-.056.224.022.341.173.475.28.051-.04.034-.029.095-.006v-.011a.407.407 0 0 0-.072-.073V3.98c.09.011.134.056.196.1-.006-.016-.022-.033-.028-.05.006 0 .006-.005.01-.011.082.02.17.055.255.078a22.441 22.441 0 0 0-2.229-.877c-.222-.042-.452-.085-.64-.03v.073c-.269.04-.46.15-.745.09 0-.006-.005-.017-.01-.028.022-.029.038-.057.061-.09-.023.006-.04.006-.061.011-.006.028-.017.062-.023.095-.14 0-.196-.005-.291-.061 0 .006-.005.006-.012.011.017.022.04.045.05.067-.005 0-.01.006-.027.006a.483.483 0 0 1-.201-.017v.011h.022c.04.034.073.067.112.096-.017.011-.028.022-.04.033-.044-.011-.039-.022-.072 0 .056.034.045.045.061.106-.112.028-.157.107-.29.124-.012.084 0 .09.033.15-.067.08-.09.18-.19.242.016.04.016.04.011.078-.017.006-.028.012-.04.012-.162-.045-.33-.085-.486-.13 0-.05.017-.033-.012-.06-.162-.096-.453-.085-.644-.175.012-.033.034-.022 0-.039-.078-.067-.19-.107-.285-.168-.045-.034-.028-.078-.05-.106-.056-.084-.325-.218-.392-.303-.028-.034.01-.079-.045-.129-.04.006-.04.011-.073-.01a1.22 1.22 0 0 1-.022-.158.73.73 0 0 1-.286-.19l.017-.068c.017-.005.039-.011.056-.022-.028-.023-.056-.045-.079-.073.095-.28.28-.19.544-.146-.028-.064.019-.084.052-.145l-.003-.001a.322.322 0 0 1-.038.029c-.024-.015-.052-.028-.077-.042l-.08-.01c.003.004.009.004.011.007v.011c-.227.027-.39-.039-.552-.079-.343-.037-.687-.07-1.037-.091.005.003.011.004.016.008v.011c-.067.006-.079-.011-.117.04.168-.011.19-.006.297.072v.04c-.006 0-.012 0-.012.01-.045-.01-.09-.033-.128-.044a.133.133 0 0 0-.012.033c.079 0 .157.034.213.09a.043.043 0 0 0-.023.022 6.898 6.898 0 0 0-.268-.073c.016.04.016.023.011.068-.022.005-.045.005-.073.01V2.4c.095.022.19.045.286.073-.006.011-.017.023-.023.034.124.017.118.044.19.106.085-.045.113-.011.241.011-.016.011-.033.017-.05.028.006.011.017.017.022.023a.41.41 0 0 1 .23.095c-.045.01-.023 0-.05.022.129.006.162.079.207.096a.862.862 0 0 0 .117.005c-.028.017-.05 0-.033.034.123-.011.252.028.285.135a.441.441 0 0 1-.24-.007c.01.023.028.045.045.068-.012.006-.023.006-.035.011-.044-.01-.01-.022-.05 0a.185.185 0 0 1 .034.05h-.078v-.05c-.062.028-.123.005-.18-.017-.028.022-.022.006-.039.045.011.006.023.022.04.028-.062 0-.062.028-.14.04-.107-.085-.415-.13-.365-.286-.14-.006-.274-.135-.43-.146.016.023.033.028.044.05a.039.039 0 0 1-.011.023h-.1c.09.022.123.112.123.184.15-.022.364.152.425.203v.01c-.023.006-.045.006-.068.012 0 .006.007.016.012.023a.652.652 0 0 1 .224.122v.023h-.084a.1.1 0 0 1 .022.044h-.01c-.034-.027-.04-.027-.057-.072-.039.045-.017.05-.09.056-.01-.034-.005-.028-.033-.045-.006.006-.006.017-.01.023.026.038.038.05.033.089h-.012c-.033-.01-.062-.022-.1-.034.055.079.095.073.167.118v.011h-.022c-.017.006-.04.006-.056.012-.218-.13-.47-.275-.683-.404v.045c-.073-.04-.157-.078-.23-.123.006.022.012.028.012.05.19.078.464.247.582.403v.012c-.05.005-.029-.022-.045.033.045.006.034.006.056.022V3.7c-.045-.012-.033-.006-.056-.034-.398-.061-.717-.313-1.07-.42v.012c.046.016.034.005.05.055h-.05c-.061-.033-.09-.062-.14-.106.012-.011.029-.017.05-.023-.105-.016-.15-.055-.19-.129.057.017.074.034.118.007-.185-.029-.223-.14-.392-.213-.162-.079-.364-.096-.514-.118-.152-.023-.381.028-.454-.107a.079.079 0 0 0-.011-.033c.257-.157.458-.017.722.027.117.017.263-.01.397.023V2.63a2.313 2.313 0 0 1-.123-.112.06.06 0 0 0 .017-.022c.185-.017.375-.04.566-.062-.023-.062-.04-.124-.057-.185-.1-.017-.134-.056-.2-.078l-.018.067c.04.004.08.013.118.028-.006.017-.006.027-.012.044-.1-.005-.246-.022-.269-.106a.43.43 0 0 1 .152.022c-.011-.028-.017-.061-.028-.089-.084.028-.162.05-.196-.033h.028c.056-.017.073.022.112 0 0-.007-.006-.017-.011-.029-.042 0-.194.006-.285-.014a25.83 25.83 0 0 0-1.253.047c-.124.02-.256.032-.4.068-.005.011-.005.022-.005.034-.034-.023-.064-.045-.094-.068l-.044.005c.002.021.004.042.004.063-.03-.016-.067-.035-.106-.05h-.012v.005c.056.04.067.045.084.09.034-.017.017-.012.045-.012l-.011.012c-.006.033.011.011-.012.033a.592.592 0 0 1-.19-.117c-.026.002-.05.006-.076.009.027.033.013.077.048.108.062.084.246.146.341.201-.005.029-.028.057-.038.084a.363.363 0 0 1 .217.05c.018.024.029.04.045.057-.207.012-.414.006-.526-.095.017-.006.04-.012.057-.022a5.208 5.208 0 0 0-.202-.05c-.107.072-.398.122-.577.089.017-.023.028-.045.04-.068.016-.01.027-.022.05-.033-.084 0-.247.011-.314-.028.067-.05.168-.05.275-.045.048-.1.174-.179.316-.217l-.27.031c-.003.003 0 .004-.013.013-.24.122-.71.146-.972.119l-.087.017c.019.025.024.04-.01.088-.129.017-.258 0-.37-.006a.386.386 0 0 0 .045.05c-.325-.016-1.08.258-1.31.532-.006.017-.006.04-.006.057a.57.57 0 0 1 .252.027c-.072.107-.129.236-.212.331h.022c.123-.005.246-.005.37-.005.112.05.218.095.33.151.073.056.084.168.14.213.14.14.856.358 1.108.375-.056.09-.128.124-.195.196 0 .028.005.057.005.095-.045.068-.1.113-.157.168.078.174.202.286.235.477.04.017.079.039.124.056.067-.04.117-.079.217-.09.017.05.04.05.045.09.017-.006.034-.006.045-.012.006-.033.006-.067.006-.1.084 0 .168-.068.235-.113-.095-.14.04-.285.101-.408-.068-.029-.056-.101-.068-.151h.029c.123-.007.246-.007.369-.012.353-.056.644-.106.768-.38-.007-.191-.14-.309-.286-.354l.033-.067c.106-.006.398-.117.437-.157-.05-.067.017-.084-.079-.196.102-.017.169-.05.219-.112-.039-.017-.034-.017-.056-.045.006-.017.006-.027.011-.044l.073-.073c.252-.006.493.095.739.179.106-.006.201-.006.302-.012.118.045.308.186.404.27v.011c-.04.01-.034.005-.057.022v.012c0 .005.006.016.012.022.134.04.313.078.392.168.033-.017.072-.028.106-.045l.04.056c-.051.023-.09.04-.136.056.007.13-.027.146-.061.241l.078.017c.006.034.006.067.012.1.128.018.173.124.235.118.409.325.79-.15 1.08-.23-.005.113.275.466.342.577.022 0 .04.006.061.006-.016.123.107.168.219.213 0 .073-.039.134-.028.14.029.011.057.024.084.04-.006.083-.006.157-.011.184-.04 0-.028-.01-.067.017.095.023.307.174.313.202-.04.033-.028.005-.011.056.084.033.095.078.145.123.045.04.18.028.23.062 0 .044-.011.05.033.079.085.05.168.027.269.055.017.084.152.096.202.174a6.294 6.294 0 0 0-.314-.04v.012c.152.022.28.067.302.213.085-.006.09.022.219.033-.012.045-.012.012-.012.05l.202.074c-.039.067-.005.258-.039.319-.006 0-.011-.006-.022-.011.022.056.028.017.011.06-.202.22-.79-.088-1.075.035a1.617 1.617 0 0 1-.392.118c-.18.027-.7-.186-.873-.247-.275-.095-.544-.118-.818-.202-.218-.055-.459-.089-.621-.005a2.235 2.235 0 0 1-.107.117c-.033.006-.43-.022-.43-.022-.196.062-.83.297-.936.404.247 0 .364-.169.55-.202.447-.084 1.483-.219 1.78.179v.011c-.017-.006-.034-.011-.045-.017.011.045.044.045.011.073 0 .011 0 .023-.006.034l-.375.05c-.14-.017-.196-.095-.364-.106.006.005.012.011.012.022.095.017.162.05.184.135.18.005.286.022.409-.011v.01c-.005.018-.017.035-.022.045-.124.05-.18.118-.309.135v.022c.067 0 .102.012.135.04a.226.226 0 0 0-.056.05c.028.05.061.163.1.19.079.028.147.057.219.084-.005.006-.012.017-.012.023h-.05c.017.017.034.045.05.061.23.028.342.169.623.14.005.096.044.101.128.09.006-.168.286-.24.403-.297l.073.017c0 .056-.006.034.022.073-.028.039-.061.072-.095.112v.011c.079.006.19.068.185.14v.034c-.207-.006-.37.028-.515-.023-.022.034-.028.029-.062.045.078.006.112.017.146.056h-.023c-.19.057-.84-.084-.94.028-.062-.023-.107-.023-.117-.1-.018.01-.035.027-.051.044-.006-.017-.017-.028-.023-.039-.056.022-.038.039-.061.084-.185.011-.341.123-.51.112-.095-.005-.067-.045-.112-.107-.022 0-.05 0-.073-.005 0-.124.017-.129.073-.196a.206.206 0 0 0 .05-.022.485.485 0 0 1-.083.022c.005-.005.005-.017.011-.022.23-.04.465-.079.694-.112-.062-.012-.129-.029-.19-.04 0-.005.006-.017.011-.022.056-.012.107-.034.168-.039-.006-.018-.011-.023-.022-.028-.157.05-.51.089-.695.05-.039-.006-.162-.056-.19-.056.011.023.023.05.034.078-.247.062-.47.045-.706.062 0-.045.005-.034-.022-.067a.698.698 0 0 1-.504.067c-.073.067-.246.129-.324.224a.477.477 0 0 1 .044.079c-.05.01-.112.027-.168.039v.022c.129.017.095.123.117.19l.096.017c.067 0 .045-.005.073-.067.016.016.03.036.039.057-.017.022-.04.044-.05.067-.14-.006-.213 0-.241-.073-.286.112-.94-.13-1.154.04.18-.04.342.027.52.005.023.022.04.05.063.078-.236.022-.55-.045-.767-.011.006.006.01.014.01.023.04.022.023.005.04.044-.084.135-.342.375-.526.353v-.012c.017-.022.033-.038.045-.06-.085-.029-.107-.068-.163-.119.028.107-.01.157.068.236-.124.201-.41.297-.476.448-.045-.011-.04-.006-.062-.028.005-.011.01-.017.01-.023.046-.089.119-.112.186-.179l-.107-.034c.045-.224-.027-.23.112-.42a2.01 2.01 0 0 0-.167.152c-.007.056-.04.252-.007.28-.038.056-.122.174-.122.224.005.056-.028.034.01.061.026.004.05.012.074.023a3.51 3.51 0 0 1-.04.375v-.09a3.09 3.09 0 0 0-.235-.039v.012c.096.005.18.039.224.095-.022.034-.045.061-.067.09a.826.826 0 0 0-.308.078v.011c.023.056.011.04.056.068-.006.005-.006.016-.011.022-.219.056-.6.011-.717.23-.447-.09-.358.117-.604.195-.521.157-1.042.314-1.098.97.023.167.05.341.079.51-.028.01-.051.016-.073.027 0 .225.078.482-.006.673-.067.14-.257.297-.252.448-.056-.012-.268.05-.33-.04.084-.195-.107-.195-.112-.38.017-.068.005-.096-.022-.135-.028.012-.017.017-.045.012.034-.057.034-.084.078-.146 0-.006-.006-.017-.011-.023a.118.118 0 0 1-.022.045l-.056-.017c-.017-.106-.05-.23-.029-.274l.135-.1c-.061-.006-.033.004-.056-.057-.01.006-.017.006-.028.011.017.057.023.05-.022.1-.012-.01-.023-.016-.029-.016-.027-.173.252-.285.152-.515-.067-.017-.185-.303-.235-.37-.129 0-.381.14-.47.073-.023-.022-.023-.118-.068-.163-.201-.213-.397-.106-.666-.14v-.156c-.01.016-.022.022-.034.028-.011.027-.028.055-.039.084-.19-.034-.403-.062-.587.055a.07.07 0 0 0 .022.035h.011l.09-.057c.005.073.017.067-.011.112-.068.012-.096.023-.13.062l.023.022c.04.045.078.079.117.118l-.05.056h-.01l-.035-.017c-.06-.033-.106-.106-.15-.157-.051.05-.057.096-.146.112-.006-.022-.012-.05-.023-.078-.055.024-.111.047-.168.067-.033-.027-.073-.056-.112-.09a.133.133 0 0 0 .023-.033c.011-.006.016-.011.022-.017-.034-.045-.106-.112-.118-.157-.028.012-.061.017-.089.028 0 .017.006.029.01.04.03 0 .051.005.08.005v.045c-.012.006-.023.006-.034.006a1.78 1.78 0 0 0-.431-.152c-.118-.01-.309.095-.359.05l-.044-.022.05-.05a.011.011 0 0 1-.011-.012c-.039.023-.073.034-.1.068.01.061.055.14-.057.112-.179.1-.336.185-.543.162a.2.2 0 0 0 .039.057c-.017.022-.034.045-.05.061-.028-.006-.012.006-.067.034.016-.045.016-.028.011-.073-.011.023-.028.04-.04.067-.01.062-.14.118-.218.112.006.169-.14.207-.19.336-.056.146-.006.252-.034.364-.044.169-.196.146-.274.236-.078.201-.157.397-.24.605-.101.224-.28.487-.169.745-.027.045-.05.084-.078.123-.028.118.13.924.163.964.038.028.122.055.095.055-.795.017-2.128.062-2.128.062-.033-.017-.056-.039-.084-.05-.006-.33-.37-.437-.201-.846.055-.023.078-.017.117-.067-.028-.079-.028-.057.023-.135.218-.157.067-1.21-.045-1.367.017-.072.01-.1.055-.15-.061-.113-.128-.147-.145-.292.078-.107.14-.157.14-.314-.023 0-.04.006-.056.006l.033-.146c-.039-.012-.033-.005-.06-.028-.007-.13.033-.168.072-.252-.012-.005-.017-.017-.022-.022-.034.005-.017.022-.034-.006-.073-.067-.04-.292-.04-.364-.022.022-.044.05-.067.072-.01-.01-.022-.022-.033-.028a.406.406 0 0 1 .14-.15c-.033-.28.224-.594.156-.802a.107.107 0 0 0-.039.034c-.016-.034-.033-.057-.045-.084-.296.224-.335.991-.414 1.35-.033.151.034.37.012.499-.04.196-.224.66-.196.846h.01a.354.354 0 0 1 .057-.074c.005.023.01.057.022.084-.022.281.028.258-.184.477-.006 0-.012-.006-.023-.006v-.01c.045-.365-.079-.5-.134-.735.184-.173.234-.448.14-.706-.034.022-.023.022-.056.022.011-.14-.057-.235-.034-.397.005 0 .005 0 .012-.005.06.022.077.005.134.005l.134-.236c.04-.14 0-.28-.017-.392-.017-.084.045-.24.062-.308.095-.313.296-.666.358-.958.05-.196-.05-.201-.028-.364-.034 0-.067-.006-.1-.006 0-.027.212-.576.24-.638.045-.056.084-.1.129-.146.026-.068.066-.129.096-.195a25.125 25.125 0 0 0-4.777 6.06C24.001 6.25 31.767.754 40.815.754c9.047 0 16.817 5.5 20.144 13.338-.474-.849-1-1.667-1.574-2.45.079.162.163.317.263.484zm-36.85 4.509a.132.132 0 0 1 .045.101l.044 10.016c0 .079-.056.135-.123.135L20.592 27h-.006c-.04 0-.067-.017-.095-.04a.133.133 0 0 1-.04-.095l-.055-10.022c0-.067.056-.123.123-.129l2.183-.112c.034 0 .074.012.096.034zm19.69 17.983h-.061c-.006-.005-.017-.01-.022-.022.01-.005.022-.017.038-.023a.329.329 0 0 1 .045.034v.011zm-6.298 7.137c-.061-.016-.118-.011-.146-.05.05.005.101.017.157.022-.005.012-.005.017-.011.028zM24.937 10.831c.01-.062.027-.117.038-.173l.034.017c-.017.056-.028.117-.045.173l-.017.006c-.005-.011-.005-.017-.01-.023zm7.68 5.496c.017-.05.062-.078.119-.078l1.964-.057c.051 0 .09.017.112.057a.136.136 0 0 1 .011.123l-4.378 10.157a.13.13 0 0 1-.112.072l-1.707.057h-.005c-.051 0-.096-.029-.118-.085l-4.266-9.893c-.023-.045-.023-.09.005-.123a.145.145 0 0 1 .107-.062l2.497-.073a.13.13 0 0 1 .123.079l2.782 6.464 2.866-6.638zm15.285 12.235c.006 0-.173.998-.207 1.149-.005.078-.011.162-.011.24-.134.42-.403.61-.733.824-.09.073-.185.14-.275.219-.078.011-.146.028-.218.045-.207.179-.409.358-.616.537-.14.096-.269.067-.414.151-.017.202-.151.298-.219.454-.062.146-.028.28-.084.437-.047.064-.1.124-.157.18-.1.134-.15.274-.201.453-.33.118-.224.236-.381.499-.044.067-.117.062-.184.106-.157.107-.146.174-.37.291-.14.062-.146.286-.235.365-.145.061-.37-.011-.359.18-.038.016-.038.016-.061.044a2.608 2.608 0 0 0-.868-.19v.033c.04.039.04.028 0 .062-.106-.034-.213.129-.325.156v.012c.017.005.034.005.05.011a.758.758 0 0 0-.022.09c-.05-.04-.095-.08-.145-.113-.219-.067-1.058.359-1.114.494-.062.167-.073.325-.101.437.014.006.03.01.045.01-.084.315-.364.348-.582.516-.18.134-.28.365-.47.487-.158.067-.314.14-.471.208-.067.078-.129.162-.19.24-.09.04-.168.08-.258.113-.14.1-.185.213-.426.24-.095.012-.134-.055-.19-.084-.078-.039-.134.017-.207 0-.09-.016-.168-.156-.235-.207-.084-.016-.157-.034-.235-.05-.017-.068-.05-.084-.085-.135-.01.006-.022.012-.033.012-.017.022-.034.045-.05.061.1.168.313.19.364.403-.034.028-.062.062-.095.09.01.124.056.13.162.168v.169c-.073.055-.252.28-.303.302-.207.123-.974.011-1.147-.056.011.022.017.045.028.067h-.011a.206.206 0 0 1-.05-.022c.044.117-.034.207-.096.297a.18.18 0 0 1 .045.045c.022-.006.039-.017.056-.023l-.062.129c-.095.011-.196.011-.286.016-.122-.033-.33-.257-.42-.145.034.09.034.23.074.303.078.028.078.055.123.083.028.012.056.017.078.029v-.017a.411.411 0 0 1-.056-.045.95.95 0 0 1 .13-.012c.01.012.016.023.027.034.028.04.034.067.034.146a.223.223 0 0 0-.034.04l-.101-.017a.258.258 0 0 0-.117-.13l-.084.034c.01 0 .017.006.022.012.045.039.117.055.146.112-.124 0-.163.033-.213.106.022.067.045.134.039.207-.05.017-.062.01-.09.062.045.022.028 0 .04.044h-.05a.333.333 0 0 0-.331.057c-.067.285.224.325.42.454.01.078.01.156-.011.184-.062.067-.219.1-.297.157.005.084.022.157-.022.19l-.169.034c-.005.011-.005.017-.01.028.016.202.167.286.263.403v.023c-.057-.034-.118-.056-.174-.078-.017.005-.028.016-.039.022.005.005.01.011.022.011.067.084.162.079.24.157l-.033.05c.258.073.37.353.689.393 0 .017.006.028.006.039-.006.011-.012.016-.017.023h-.011c-.05-.007-.107-.012-.169-.023v.05a.19.19 0 0 0-.069-.041l.024.024c-.038-.014-.038-.002-.033-.026-.061-.018-.127-.012-.213-.046.029.033.05.062.079.089v.011c-.174-.045-.543-.179-.655-.29.017-.034.01 0 .01-.046-.105.023-.492-.235-.587-.319.017-.04.006-.006.017-.045-.101-.017-.163-.05-.246-.157.067.034.128.062.19.09v-.011a1.811 1.811 0 0 0-.202-.168c.006.01.017.027.023.044a.463.463 0 0 1-.18-.168c.006-.011.006-.016.012-.022.045.01.083.022.123.034a.207.207 0 0 1 .022-.05c-.05-.012-.045-.017-.072-.046a1.132 1.132 0 0 1-.146.045c0-.101-.011-.135-.056-.202 0-.005.005-.005.011-.011h.045l-.034-.09a1.302 1.302 0 0 0-.044.113c-.028-.006-.045-.017-.068-.023a3.84 3.84 0 0 0-.033-.146v-.01c.028.005.061.01.095.022l-.168-.084c-.078-.1-.095-.28-.157-.404.017-.01.04-.022.056-.033l-.033-.034v-.011c.067.006.078.016.123.045l.033-.118c-.022-.023-.016-.011-.033-.05.011 0 .028.01.045.017-.057-.062-.163-.079-.219-.124-.011.017-.033.028-.05.045l-.078-.045v-.05c.028-.028.061-.05.09-.073l-.035-.073v-.011h.085c.005-.061.005-.112.01-.168l-.1-.1a.448.448 0 0 1 .078-.22.315.315 0 0 1 .162.135c-.027.017.023.202.04.263h.022c.005-.218-.033-.364 0-.565-.022-.017-.039-.034-.067-.05.079-.03.05-.163-.011-.208.011-.017.028-.029.04-.05-.029-.023-.046-.051-.068-.073a.182.182 0 0 1-.023.05c.05.006.017-.006.029.05h-.017c-.023-.01-.051-.028-.079-.04a.13.13 0 0 0-.022.03c.061.094.073.246.05.374a.073.073 0 0 1-.039.012c-.067-.028-.112-.034-.15-.084.027-.14-.035-.263.005-.381.016.016.038.028.055.04v-.051c-.19-.291-.039-.365-.027-.616-.09-.191-.197-.432-.219-.65 0-.006.006-.012.012-.012l.1.034v-.163c.017.012.028.017.039.034.023-.313.14-.571.241-.84.017-.04-.028-.163-.045-.168.123-.303-.078-.521-.044-.925.05 0 .033 0 .078-.011.011-.185-.045-.269-.062-.442.112-.08.045-.213.112-.342.062-.13.107-.32.124-.533l-.023-.128c.011-.062.078-.079.09-.118-.012-.112-.022-.218-.04-.325.018-.107.028-.213.045-.32h-.056c0-.055.006-.117.006-.173.061.006.033.017.083 0 0-.207.074-.375.102-.537-.012-.051-.023-.102-.034-.163-.011-.078.017-.18.028-.258.028-.168-.045-.392-.061-.554l.016-.163c-.118-.118-.235-.23-.353-.347-.246-.516-.879-.729-1.27-1.126-.185-.19-.314-.52-.46-.757 0 0 6.881-.112 16.158-.095zM44.85 7.957v.034c-.016.017-.044.028-.06.039h-.035c0-.01.006-.022.012-.04.011-.01.028-.021.045-.033h.038zm-6.202.381c.044.017.033.011.056.045v.011c-.04 0-.079-.006-.118-.011v-.022c.023-.006.04-.017.062-.023zm.145.107c.005-.006.005-.017.011-.022.045.005.045.005.073.022a.071.071 0 0 1-.017.023h-.01l-.057-.023zm5.66 7.86l.011 1.954c.006.035-.016.062-.038.09a.13.13 0 0 1-.09.034l-5.599.005.006 1.743 3.762-.006c.072 0 .134.056.134.123l.006 1.972c.006.034-.011.068-.04.095a.13.13 0 0 1-.09.04H38.76l.012 1.882 5.655-.006c.072 0 .128.057.128.13l.01 1.966c0 .04-.01.073-.038.095-.022.023-.056.033-.095.033l-8.08.012a.13.13 0 0 1-.128-.129l-.062-10.022c0-.034.017-.067.045-.095a.113.113 0 0 1 .09-.04l8.028-.01c.073 0 .129.061.129.133zM43.199 7.24h.073c.017.023.04.045.056.068a1.97 1.97 0 0 1-.163-.023c.006-.016.006-.028.012-.04.011 0 .017-.005.022-.005zm1.747.18c-.028 0-.061-.006-.09-.006 0-.016.006-.028.011-.045.068.006.062-.005.079.05zm.375.65c.006.033.006.061.011.1-.078.05-.1.14-.195.19-.062-.016-.112-.033-.18-.05 0-.078.011-.095.034-.134l-.163.05c-.044-.028-.038-.017-.055-.061.067-.045.123-.073.128-.174-.016-.017-.033-.045-.05-.067-.224.072-.425.19-.683.09a.292.292 0 0 0 .017-.051.747.747 0 0 0 .375-.05 1.403 1.403 0 0 0-.163-.062c-.005.04 0 .033-.022.056-.078-.034-.162-.062-.24-.095.016 0 .033.005.05.005-.067-.072-.88-.235-1.08-.285a.848.848 0 0 1-.023-.124c.118-.017.241-.072.341-.055a.85.85 0 0 1-.073-.062c.045-.05.079-.107.157-.124.028.023.012.017.062.028v-.011c-.017-.05-.022-.039 0-.084.174-.039.224-.201.352-.268.067-.035.197-.107.247-.119.067 0 .146 0 .213-.005.067.022.134.039.195.056a.086.086 0 0 0-.01.033c-.012.006-.017.018-.023.023-.067.006-.112-.011-.174-.028v.023c.062.005.062.01.101.039a.213.213 0 0 0-.05.062c-.118.027-.336.128-.37.251.079-.027.146-.055.219-.084.078.062.157.062.235.112v.012c-.056.005-.1.005-.145.005v.056a.48.48 0 0 0 .022.023c.045-.012.011-.023.056 0-.006.011-.017.022-.023.033.056 0 .079.017.123.04.012-.034-.01-.023.045-.028-.006.06-.028.06.04.055.027 0 .05.006.072.006-.022-.028-.016-.017-.011-.05.04.016.006.006.04-.006.072.028.033.056.078.112.112-.023.24.05.319.118-.04.045-.068.056-.135.067.012.095.04.045.006.118.096.01.224 0 .274.05l-.022.022c-.034.034-.213.079-.297.158.029.022.006.005.034.01l.028.045c.084-.062.112-.095.269-.106 0 .006.005.006.01.01a.046.046 0 0 0-.01.03c-.062.021-.107.05-.135.1 0 .011.005.028.012.045.1-.017.111-.067.167-.05zm7.85.055c-.023.006-.046.006-.062.017-.011-.017-.011-.028-.017-.039.006-.022.023-.045.028-.067.022.017.04.039.062.056-.006.011-.012.022-.012.033zM52.128 6.95a.822.822 0 0 0 .029.118.516.516 0 0 0-.085.073.09.09 0 0 0-.039-.023c-.005-.039-.022-.056-.062-.095a.664.664 0 0 0 .096-.084c.022.005.038.005.061.011zm-.106.19c.016.006.033.018.05.023.011.056.023.106.04.15a.11.11 0 0 1-.04-.01.452.452 0 0 0-.1-.14.408.408 0 0 0 .05-.022zm.543.415c.04.045.022.129-.012.162-.05-.033-.067-.01-.089-.084.062-.016.067-.033.1-.078zm-.325.527c0-.051.022-.034.045-.102-.056.017-.101.029-.145-.016.044-.05.039-.05.05-.13a.307.307 0 0 0 .179-.066c.04.011.073.028.107.045-.017.033-.017.022-.023.05.067-.062.146-.079.23-.028.078.107.15.107.24.19v.057c-.056.027-.05.06-.123.084.001.01.005.02.011.027.157.079.224.326.236.482-.224-.005-.734.449-.88.096.034-.017.062-.04.09-.057a1.518 1.518 0 0 0-.14.028c.011-.028.017-.044.028-.067.034 0 .067.006.095.006-.011-.061-.016-.028.017-.084-.05-.034-.056-.017 0-.073 0-.078-.028-.078.056-.135-.146-.044-.224.035-.313-.089l.078-.09c-.067 0-.112.006-.157-.039l.034-.017c-.028-.045-.04 0-.045-.067.112 0 .218-.005.33-.005zm2.116 1.059l-.397-.034c-.034.028-.017.1-.023.14-.06-.016-.134-.05-.196-.033-.089.022-.067.06-.106.111-.061-.044-.067-.033-.129-.039v-.022c.09-.085.168-.207.163-.32h.24c0-.044-.005-.038.012-.078-.028.011-.062.028-.101.045-.134-.045-.252-.129-.386-.062-.04-.034-.08-.069-.118-.106.011-.011.028-.023.04-.04.072-.005.14-.038.156-.112-.033-.044-.073-.089-.101-.128l-.095.033c-.006-.005-.011-.01-.011-.022.01-.017.027-.034.045-.056-.045-.045-.073-.028-.09-.106.1.016.196.072.291 0-.034-.062-.056-.096-.062-.197-.195.034-.157-.128-.246-.23-.056.046-.083.068-.168.034v.045c-.039-.011-.072-.028-.106-.04v.012c.006.012.017.028.022.045h-.011c-.034-.033-.079-.062-.112-.09.023-.072.023-.123 0-.174-.034-.022-.067-.05-.095-.072l.033.117h-.01a.511.511 0 0 0-.079-.045c.017.017.022.04.034.057a.039.039 0 0 0-.012.022h-.055c-.035-.134-.102-.23-.124-.359h-.011v.023c0 .022-.012.045-.017.061l-.117.017c.01-.072-.006-.072-.034-.134.017-.012.04-.022.056-.034-.005-.011-.011-.028-.022-.045a.466.466 0 0 1-.258-.117c.034-.045.028-.022.05-.067.051.039.101.072.157.112V7.24a1.214 1.214 0 0 1-.072-.112c.022-.039.005-.033.044-.028.006-.005.023-.005.028-.01-.039-.046-.05-.05-.028-.101-.022-.04-.028-.045 0-.085.118.045.241-.017.364.012.003.03.013.058.028.083a.166.166 0 0 0-.09.113c.062.028.04 0 .04.073.145-.034.341-.057.453.044-.016.095.034.169-.011.27.022.01.04.027.062.044a2.165 2.165 0 0 1-.1.062c.301.005.397.151.587.336.072.033.14.061.218.1.19.112.302.292.38.449a.07.07 0 0 1 .034.011c.135-.152.347.084.375.202.017.078-.044.157-.067.202l.168.016c.006.023.017.05.023.073-.006.005-.006.017-.012.023-.145.072-.235.078-.42.067.006.022.018.039.028.056h-.039zm1.456 17.568a.13.13 0 0 1-.112.062h-.006l-2.597-.074a.138.138 0 0 1-.107-.067l-2.2-3.787-1.422-.045.017 3.653a.13.13 0 0 1-.04.09c-.022.022-.06.033-.094.033l-2.19-.061a.126.126 0 0 1-.128-.129l-.045-10.056c0-.034.01-.073.039-.095.023-.023.056-.04.09-.034l5.514.162c1.83.057 2.884 1.222 2.894 3.199.012 1.91-1.007 2.706-1.93 3.037l2.317 3.977a.145.145 0 0 1 0 .135zm-4.143-8.151l-2.334-.073.01 2.112 1.781.05c.079 0 .156.006.23.006.66 0 1.041-.095 1.248-.308.168-.163.24-.426.24-.852-.005-.476-.094-.902-1.175-.935zm-10.883 24.65c9.696 0 17.943-5.827 20.893-13.917-2.832 8.678-10.81 15.435-20.916 15.435-10.716 0-17.916-6.662-20.816-15.244 3.018 7.994 11.203 13.725 20.839 13.725zm-22.732-16.09l-1.679.123a.14.14 0 0 1-.118-.056l-4.641-6.151.033 6.409a.13.13 0 0 1-.123.129l-1.635.117h-.017a.113.113 0 0 1-.083-.034.122.122 0 0 1-.045-.1l-.05-10.05c0-.074.056-.13.123-.135l2.027-.14c.044 0 .089.017.117.05l4.294 5.676-.027-5.905c0-.067.05-.124.122-.13l1.641-.117a.15.15 0 0 1 .095.034c.028.022.04.056.04.095l.05 10.056a.125.125 0 0 1-.124.129zM3.941 28.528c-.195.017-.38.029-.56.029-2.183 0-3.342-1.395-3.353-4.051L0 18.416c0-.067.05-.124.117-.134l1.899-.185c.038-.005.072.011.1.04a.11.11 0 0 1 .04.089l.033 6.028c.006 1.322.51 1.995 1.5 1.995.073 0 .157 0 .236-.012 1.159-.112 1.752-.902 1.741-2.347l-.028-6.023c0-.067.05-.124.117-.134l1.91-.185c.039-.006.072.011.1.04a.11.11 0 0 1 .04.09l.027 6.094c.012 1.636-.48 4.426-3.89 4.756z" opacity=".7"/>
</svg>
