<svg width="176" height="62" viewBox="0 0 176 62" fill="none" xmlns="http://www.w3.org/2000/svg"><g opacity=".2"><rect x="91.342" y="35.042" width="3.527" height="3.527" fill="#fff"/><rect x="103.688" y="35.042" width="3.527" height="3.527" fill="#fff"/><rect x="115.152" y="35.042" width="3.527" height="3.527" fill="#fff"/><rect x="126.616" y="35.042" width="3.527" height="3.527" fill="#fff"/><rect x="138.08" y="35.042" width="3.527" height="3.527" fill="#fff"/><rect x="149.544" y="35.042" width="3.527" height="3.527" fill="#fff"/><rect x="161.008" y="35.042" width="3.527" height="3.527" fill="#fff"/><rect x="172.473" y="35.042" width="3.527" height="3.527" fill="#fff"/><rect x="91.342" y="58.056" width="3.527" height="3.527" fill="#fff"/><rect x="103.688" y="58.056" width="3.527" height="3.527" fill="#fff"/><rect x="115.152" y="58.056" width="3.527" height="3.527" fill="#fff"/><rect x="126.616" y="58.056" width="3.527" height="3.527" fill="#fff"/><rect x="138.08" y="58.056" width="3.527" height="3.527" fill="#fff"/><rect x="149.544" y="58.056" width="3.527" height="3.527" fill="#fff"/><rect x="161.008" y="58.056" width="3.527" height="3.527" fill="#fff"/><rect x="172.473" y="58.056" width="3.527" height="3.527" fill="#fff"/><rect x="91.342" y="46.506" width="3.527" height="3.527" fill="#fff"/><rect x="103.688" y="46.506" width="3.527" height="3.527" fill="#fff"/><rect x="115.152" y="46.506" width="3.527" height="3.527" fill="#fff"/><rect x="126.616" y="46.506" width="3.527" height="3.527" fill="#fff"/><rect x="138.08" y="46.506" width="3.527" height="3.527" fill="#fff"/><rect x="149.544" y="46.506" width="3.527" height="3.527" fill="#fff"/><rect x="161.008" y="46.506" width="3.527" height="3.527" fill="#fff"/><rect x="172.473" y="46.506" width="3.527" height="3.527" fill="#fff"/><rect x="91.342" y=".281" width="3.527" height="3.527" fill="#fff"/><rect x="103.688" y=".281" width="3.527" height="3.527" fill="#fff"/><rect x="115.152" y=".281" width="3.527" height="3.527" fill="#fff"/><rect x="126.616" y=".281" width="3.527" height="3.527" fill="#fff"/><rect x="138.08" y=".281" width="3.527" height="3.527" fill="#fff"/><rect x="149.544" y=".281" width="3.527" height="3.527" fill="#fff"/><rect x="161.008" y=".281" width="3.527" height="3.527" fill="#fff"/><rect x="172.473" y=".281" width="3.527" height="3.527" fill="#fff"/><rect x="91.342" y="23.295" width="3.527" height="3.527" fill="#fff"/><rect x="103.688" y="23.295" width="3.527" height="3.527" fill="#fff"/><rect x="115.152" y="23.295" width="3.527" height="3.527" fill="#fff"/><rect x="126.616" y="23.295" width="3.527" height="3.527" fill="#fff"/><rect x="138.08" y="23.295" width="3.527" height="3.527" fill="#fff"/><rect x="149.544" y="23.295" width="3.527" height="3.527" fill="#fff"/><rect x="161.008" y="23.295" width="3.527" height="3.527" fill="#fff"/><rect x="172.473" y="23.295" width="3.527" height="3.527" fill="#fff"/><rect x="91.342" y="11.746" width="3.527" height="3.527" fill="#fff"/><rect x="103.688" y="11.746" width="3.527" height="3.527" fill="#fff"/><rect x="115.152" y="11.746" width="3.527" height="3.527" fill="#fff"/><rect x="126.616" y="11.746" width="3.527" height="3.527" fill="#fff"/><rect x="138.08" y="11.746" width="3.527" height="3.527" fill="#fff"/><rect x="149.544" y="11.746" width="3.527" height="3.527" fill="#fff"/><rect x="161.008" y="11.746" width="3.527" height="3.527" fill="#fff"/><rect x="172.473" y="11.746" width="3.527" height="3.527" fill="#fff"/><rect x="12.346" y="35.042" width="3.527" height="3.527" fill="#fff"/><rect x="23.81" y="35.042" width="3.527" height="3.527" fill="#fff"/><rect x="35.274" y="35.042" width="3.527" height="3.527" fill="#fff"/><rect x="46.738" y="35.042" width="3.527" height="3.527" fill="#fff"/><rect x="58.203" y="35.042" width="3.527" height="3.527" fill="#fff"/><rect x="69.667" y="35.042" width="3.527" height="3.527" fill="#fff"/><rect x="81.131" y="35.042" width="3.527" height="3.527" fill="#fff"/><rect x="12.346" y="58.056" width="3.527" height="3.527" fill="#fff"/><rect x="23.81" y="58.056" width="3.527" height="3.527" fill="#fff"/><rect x="35.274" y="58.056" width="3.527" height="3.527" fill="#fff"/><rect x="46.738" y="58.056" width="3.527" height="3.527" fill="#fff"/><rect x="58.203" y="58.056" width="3.527" height="3.527" fill="#fff"/><rect x="69.667" y="58.056" width="3.527" height="3.527" fill="#fff"/><rect x="81.131" y="58.056" width="3.527" height="3.527" fill="#fff"/><rect y="46.506" width="3.527" height="3.527" fill="#fff"/><rect x="23.81" y="46.506" width="3.527" height="3.527" fill="#fff"/><rect x="35.274" y="46.506" width="3.527" height="3.527" fill="#fff"/><rect x="46.738" y="46.506" width="3.527" height="3.527" fill="#fff"/><rect x="58.203" y="46.506" width="3.527" height="3.527" fill="#fff"/><rect x="69.667" y="46.506" width="3.527" height="3.527" fill="#fff"/><rect x="81.131" y="46.506" width="3.527" height="3.527" fill="#fff"/><rect x="46.738" y=".281" width="3.527" height="3.527" fill="#fff"/><rect x="58.203" y=".281" width="3.527" height="3.527" fill="#fff"/><rect x="69.667" y=".281" width="3.527" height="3.527" fill="#fff"/><rect x="81.131" y=".281" width="3.527" height="3.527" fill="#fff"/><rect x="23.81" y="23.295" width="3.527" height="3.527" fill="#fff"/><rect x="46.738" y="23.295" width="3.527" height="3.527" fill="#fff"/><rect x="58.203" y="23.295" width="3.527" height="3.527" fill="#fff"/><rect x="69.667" y="23.295" width="3.527" height="3.527" fill="#fff"/><rect x="81.131" y="23.295" width="3.527" height="3.527" fill="#fff"/><rect x="35.274" y="11.746" width="3.527" height="3.527" fill="#fff"/><rect x="46.738" y="11.746" width="3.527" height="3.527" fill="#fff"/><rect x="69.667" y="11.746" width="3.527" height="3.527" fill="#fff"/><rect x="81.131" y="11.746" width="3.527" height="3.527" fill="#fff"/></g></svg>