<svg width="213" height="40" viewBox="0 0 213 40" fill="none" xmlns="http://www.w3.org/2000/svg"><path d="M1 19L212 19" stroke="#2A82F2"/><path d="M207 13L212 19L207 25" stroke="#2A82F2"/><path d="M6 25L0.999999 19L6 13" stroke="#2A82F2"/><path d="M127 20C127 31.0457 118.046 40 107 40C95.9543 40 87 31.0457 87 20C87 8.95431 95.9543 0 107 0C118.046 0 127 8.95431 127 20Z" fill="#DCEBFF"/><path d="M112.052 24.434V26H102.998V24.776L108.128 19.826C108.752 19.226 109.172 18.71 109.388 18.278C109.604 17.834 109.712 17.39 109.712 16.946C109.712 16.286 109.478 15.776 109.01 15.416C108.554 15.044 107.894 14.858 107.03 14.858C105.638 14.858 104.564 15.314 103.808 16.226L102.584 15.164C103.076 14.564 103.718 14.096 104.51 13.76C105.314 13.424 106.208 13.256 107.192 13.256C108.512 13.256 109.562 13.574 110.342 14.21C111.122 14.834 111.512 15.686 111.512 16.766C111.512 17.438 111.368 18.074 111.08 18.674C110.792 19.274 110.246 19.958 109.442 20.726L105.59 24.434H112.052Z" fill="#2A82F2"/></svg>