<svg width="213" height="40" viewBox="0 0 213 40" fill="none" xmlns="http://www.w3.org/2000/svg"><path d="M1 19L212 19" stroke="#2A82F2"/><path d="M207 13L212 19L207 25" stroke="#2A82F2"/><path d="M6 25L0.999999 19L6 13" stroke="#2A82F2"/><path d="M127 20C127 31.0457 118.046 40 107 40C95.9543 40 87 31.0457 87 20C87 8.95431 95.9543 0 107 0C118.046 0 127 8.95431 127 20Z" fill="#DCEBFF"/><path d="M108.038 18.692C109.274 18.812 110.216 19.196 110.864 19.844C111.512 20.48 111.836 21.296 111.836 22.292C111.836 23.012 111.656 23.666 111.296 24.254C110.936 24.83 110.396 25.292 109.676 25.64C108.968 25.976 108.098 26.144 107.066 26.144C106.166 26.144 105.302 26.012 104.474 25.748C103.646 25.472 102.968 25.094 102.44 24.614L103.268 23.192C103.7 23.6 104.252 23.93 104.924 24.182C105.596 24.422 106.31 24.542 107.066 24.542C108.002 24.542 108.728 24.344 109.244 23.948C109.772 23.552 110.036 23.006 110.036 22.31C110.036 21.614 109.778 21.074 109.262 20.69C108.746 20.306 107.966 20.114 106.922 20.114H105.914V18.854L109.082 14.966H103.016V13.4H111.332V14.624L108.038 18.692Z" fill="#2A82F2"/></svg>