<svg width="64" height="62" viewBox="0 0 64 62" fill="none" xmlns="http://www.w3.org/2000/svg"><path d="M39.0279 44.6621V40.4368C39.0279 38.8875 35.0842 36.2114 31.9856 36.2114C28.887 36.2114 24.9434 38.8875 24.9434 40.4368V44.6621" stroke="#323232" stroke-width="1.348" stroke-miterlimit="10" stroke-linejoin="round"/><path d="M31.9861 50.2959C40.5426 50.2959 47.4791 43.3594 47.4791 34.8029C47.4791 26.2464 40.5426 19.3099 31.9861 19.3099C23.4296 19.3099 16.4932 26.2464 16.4932 34.8029C16.4932 43.3594 23.4296 50.2959 31.9861 50.2959Z" stroke="#909090" stroke-width="1.348" stroke-miterlimit="10" stroke-linejoin="round"/><path d="M31.9851 36.2111C29.4499 36.2111 27.7598 34.0984 27.7598 31.4224V29.8731C27.7598 27.197 29.4499 25.0844 31.9851 25.0844C34.5203 25.0844 36.2105 27.197 36.2105 29.8731V31.4224C36.2105 33.9576 34.5203 36.2111 31.9851 36.2111Z" stroke="#323232" stroke-width="1.348" stroke-miterlimit="10" stroke-linejoin="round"/><path d="M27.7603 16.4927C27.7603 14.9434 23.8166 12.2673 20.718 12.2673C17.6194 12.2673 13.6758 14.9434 13.6758 16.4927V20.718" stroke="#323232" stroke-width="1.348" stroke-miterlimit="10" stroke-linejoin="round"/><path d="M20.7185 12.2676C18.1833 12.2676 16.4932 10.1549 16.4932 7.47887V5.78873C16.4932 3.11268 18.1833 1 20.7185 1C23.2537 1 24.9439 3.11268 24.9439 5.78873V7.33803C24.9439 10.0141 23.2537 12.2676 20.7185 12.2676Z" stroke="#323232" stroke-width="1.348" stroke-miterlimit="10" stroke-linejoin="round"/><path d="M36.2109 16.4927C36.2109 14.9434 40.1546 12.2673 43.2532 12.2673C46.3518 12.2673 50.2954 14.9434 50.2954 16.4927V20.718" stroke="#323232" stroke-width="1.348" stroke-miterlimit="10" stroke-linejoin="round"/><path d="M43.2537 12.2676C45.7889 12.2676 47.479 10.1549 47.479 7.47887V5.78873C47.479 3.11268 45.7889 1 43.2537 1C40.7185 1 39.0283 3.11268 39.0283 5.78873V7.33803C39.0283 10.0141 40.7185 12.2676 43.2537 12.2676Z" stroke="#323232" stroke-width="1.348" stroke-miterlimit="10" stroke-linejoin="round"/><path d="M62.972 43.2533V39.028C62.972 37.4787 59.0283 34.8026 55.9297 34.8026C53.9579 34.8026 51.7043 35.7885 50.2959 36.9153" stroke="#323232" stroke-width="1.348" stroke-miterlimit="10" stroke-linejoin="round"/><path d="M55.9295 34.8028C53.3942 34.8028 51.7041 32.6901 51.7041 30.0141V28.4648C51.7041 25.7887 53.3942 23.676 55.9295 23.676C58.4647 23.676 60.1548 25.7887 60.1548 28.4648V30.0141C60.1548 32.5493 58.4647 34.8028 55.9295 34.8028Z" stroke="#323232" stroke-width="1.348" stroke-miterlimit="10" stroke-linejoin="round"/><path d="M1 43.2533V39.028C1 37.4787 4.94366 34.8026 8.04225 34.8026C10.0141 34.8026 12.2676 35.7885 13.6761 36.9153" stroke="#323232" stroke-width="1.348" stroke-miterlimit="10" stroke-linejoin="round"/><path d="M8.04176 34.8029C10.577 34.8029 12.2671 32.6902 12.2671 30.0142V28.4649C12.2671 25.648 10.577 23.5353 8.04176 23.5353C5.50655 23.5353 3.81641 25.648 3.81641 28.324V29.8733C3.81641 32.5494 5.50655 34.8029 8.04176 34.8029Z" stroke="#323232" stroke-width="1.348" stroke-miterlimit="10" stroke-linejoin="round"/><path d="M45.0849 43.2534L57.0567 55.2253C58.1834 56.352 58.1834 58.0422 57.0567 59.1689L56.0708 60.1548C54.944 61.2816 53.2539 61.2816 52.1271 60.1548L40.1553 48.183" stroke="#909090" stroke-width="1.348" stroke-miterlimit="10" stroke-linejoin="round"/></svg>