<svg width="62" height="61" viewBox="0 0 62 61" fill="none" xmlns="http://www.w3.org/2000/svg"><path d="M37.5206 41.4348C40.3902 41.4348 42.738 38.6957 42.738 36.2174V24.4783C42.738 20.1739 35.5641 17.9565 30.9989 17.9565C26.4337 17.9565 19.2598 20.1739 19.2598 24.4783V36.2174C19.2598 38.6957 21.6076 41.4348 24.4772 41.4348" stroke="#323232" stroke-width="1.348" stroke-miterlimit="10" stroke-linejoin="round"/><path d="M30.9996 14.0435C33.9996 14.0435 36.217 11.9565 36.217 8.82608V6.21739C36.217 3.08696 33.9996 1 30.9996 1C27.9996 1 25.7822 3.08696 25.7822 6.21739V8.82608C25.7822 11.9565 27.9996 14.0435 30.9996 14.0435Z" stroke="#323232" stroke-width="1.348" stroke-miterlimit="10" stroke-linejoin="round"/><path d="M37.5225 60.9999V27.0869" stroke="#323232" stroke-width="1.348" stroke-miterlimit="10" stroke-linejoin="round"/><path d="M24.4775 27.0869V60.9999" stroke="#323232" stroke-width="1.348" stroke-miterlimit="10" stroke-linejoin="round"/><path d="M31 40.1304V60.9999" stroke="#323232" stroke-width="1.348" stroke-miterlimit="10" stroke-linejoin="round"/><path d="M1 31H14.0435" stroke="#909090" stroke-width="1.348" stroke-miterlimit="10" stroke-linejoin="round"/><path d="M6.21739 36.2175L1 31.0001L6.21739 25.7827" stroke="#909090" stroke-width="1.348" stroke-miterlimit="10" stroke-linejoin="round"/><path d="M15.3482 19.2608L6.21777 10.1304" stroke="#909090" stroke-width="1.348" stroke-miterlimit="10" stroke-linejoin="round"/><path d="M6.21777 16.6521V10.1304H12.7395" stroke="#909090" stroke-width="1.348" stroke-miterlimit="10" stroke-linejoin="round"/><path d="M15.3482 42.7393L6.21777 51.8697" stroke="#909090" stroke-width="1.348" stroke-miterlimit="10" stroke-linejoin="round"/><path d="M6.21777 45.3477V51.8694H12.7395" stroke="#909090" stroke-width="1.348" stroke-miterlimit="10" stroke-linejoin="round"/><path d="M61.0005 31H47.957" stroke="#909090" stroke-width="1.348" stroke-miterlimit="10" stroke-linejoin="round"/><path d="M55.7822 36.2175L60.9996 31.0001L55.7822 25.7827" stroke="#909090" stroke-width="1.348" stroke-miterlimit="10" stroke-linejoin="round"/><path d="M46.6523 19.2608L55.7828 10.1304" stroke="#909090" stroke-width="1.348" stroke-miterlimit="10" stroke-linejoin="round"/><path d="M55.7815 16.6521V10.1304H49.2598" stroke="#909090" stroke-width="1.348" stroke-miterlimit="10" stroke-linejoin="round"/><path d="M46.6523 42.7393L55.7828 51.8697" stroke="#909090" stroke-width="1.348" stroke-miterlimit="10" stroke-linejoin="round"/><path d="M55.7815 45.3477V51.8694H49.2598" stroke="#909090" stroke-width="1.348" stroke-miterlimit="10" stroke-linejoin="round"/></svg>