<svg width="67" height="61" viewBox="0 0 67 61" fill="none" xmlns="http://www.w3.org/2000/svg"><path d="M27.3418 15.6341V1H65.3905V41.9755H27.3418V31.7316" stroke="#909090" stroke-width="1.348" stroke-miterlimit="10" stroke-linejoin="round"/><path d="M14.171 15.6341C17.5369 15.6341 20.0247 12.8536 20.0247 9.34144V7.29266C20.0247 3.78048 17.5369 1 14.171 1C10.8052 1 8.31738 3.78048 8.31738 7.29266V9.34144C8.31738 12.8536 10.8052 15.6341 14.171 15.6341Z" stroke="#323232" stroke-width="1.348" stroke-miterlimit="10" stroke-linejoin="round"/><path d="M21.4877 60.9995V25.8777H30.2682C34.6584 25.8777 36.1218 23.2435 36.1218 20.024C33.7804 20.024 10.9512 20.024 8.31705 20.024C3.04877 20.024 1 22.2192 1 28.8045V39.0484C1 42.1215 2.31707 44.902 5.39023 44.902H6.85364" stroke="#323232" stroke-width="1.348" stroke-miterlimit="10" stroke-linejoin="round"/><path d="M14.1699 40.5122V60.9999" stroke="#323232" stroke-width="1.348" stroke-miterlimit="10" stroke-linejoin="round"/><path d="M6.85352 28.8049V60.9999" stroke="#323232" stroke-width="1.348" stroke-miterlimit="10" stroke-linejoin="round"/><path d="M33.1953 33.1951H40.5124L43.4392 27.3415H50.7562L56.6099 12.7074H61.0001" stroke="#909090" stroke-width="1.348" stroke-miterlimit="10" stroke-linejoin="round"/></svg>