<svg width="247" height="62" viewBox="0 0 247 62" fill="none" xmlns="http://www.w3.org/2000/svg"><path d="M125 61V51" stroke="#1476F2"/><path d="M30 52V61H220V53.3231" stroke="#1476F2"/><path d="M29.4118 40.2353C26.3169 40.2353 24 37.6478 24 34.4346V32.5067C24 29.3103 26.3169 26.7059 29.4118 26.7059C32.5066 26.7059 34.8235 29.2934 34.8235 32.5067V34.4346C34.8235 37.6478 32.5066 40.2353 29.4118 40.2353Z" stroke="#1476F2"/><path d="M19.9414 46.9999V45.647C19.9414 41.9433 26.0465 40.2352 29.412 40.2352C32.7774 40.2352 38.8826 41.9095 38.8826 45.6132V46.9999" stroke="#1476F2"/><path d="M18.5875 14.5294C15.4927 14.5294 13.1758 11.9419 13.1758 8.72868V6.80074C13.1758 3.5875 15.4927 1 18.5875 1C21.6824 1 23.9993 3.5875 23.9993 6.80074V8.72868C23.9993 11.9419 21.6824 14.5294 18.5875 14.5294Z" stroke="#53A0FD"/><path d="M9.11719 21.294V19.9411C9.11719 16.2374 15.2223 14.5293 18.5878 14.5293C21.9532 14.5293 28.0584 16.2036 28.0584 19.9072V21.294" stroke="#53A0FD"/><path d="M41.5875 14.5294C38.4927 14.5294 36.1758 11.9419 36.1758 8.72868V6.80074C36.1758 3.5875 38.4927 1 41.5875 1C44.6824 1 46.9993 3.5875 46.9993 6.80074V8.72868C46.9993 11.9419 44.6824 14.5294 41.5875 14.5294Z" stroke="#53A0FD"/><path d="M32.1172 21.294V19.9411C32.1172 16.2374 38.2223 14.5293 41.5878 14.5293C44.9532 14.5293 51.0584 16.2036 51.0584 19.9072V21.294" stroke="#53A0FD"/><path d="M10.4704 40.2353C7.37551 40.2353 5.05859 37.6478 5.05859 34.4346V32.5067C5.05859 29.3103 7.37551 26.7059 10.4704 26.7059C13.5652 26.7059 15.8821 29.2934 15.8821 32.5067V34.4346C15.8821 37.6478 13.5652 40.2353 10.4704 40.2353Z" stroke="#1476F2"/><path d="M1 46.9999V45.647C1 41.9433 7.10515 40.2352 10.4706 40.2352C13.836 40.2352 19.9412 41.9095 19.9412 45.6132V46.9999" stroke="#1476F2"/><path d="M48.3522 40.2353C45.2573 40.2353 42.9404 37.6478 42.9404 34.4346V32.5067C42.9404 29.3103 45.2573 26.7059 48.3522 26.7059C51.447 26.7059 53.764 29.2934 53.764 32.5067V34.4346C53.764 37.6478 51.447 40.2353 48.3522 40.2353Z" stroke="#1476F2"/><path d="M38.8818 46.9999V45.647C38.8818 41.9433 44.987 40.2352 48.3524 40.2352C51.7179 40.2352 57.823 41.9095 57.823 45.6132V46.9999" stroke="#1476F2"/><path d="M123.667 40.2353C120.572 40.2353 118.255 37.6478 118.255 34.4346V32.5067C118.255 29.3103 120.572 26.7059 123.667 26.7059C126.762 26.7059 129.078 29.2934 129.078 32.5067V34.4346C129.078 37.6478 126.762 40.2353 123.667 40.2353Z" stroke="#1476F2"/><path d="M114.196 46.9999V45.647C114.196 41.9433 120.301 40.2352 123.667 40.2352C127.032 40.2352 133.137 41.9095 133.137 45.6132V46.9999" stroke="#1476F2"/><path d="M112.842 14.5294C109.748 14.5294 107.431 11.9419 107.431 8.72868V6.80074C107.431 3.5875 109.748 1 112.842 1C115.937 1 118.254 3.5875 118.254 6.80074V8.72868C118.254 11.9419 115.937 14.5294 112.842 14.5294Z" stroke="#53A0FD"/><path d="M103.372 21.294V19.9411C103.372 16.2374 109.477 14.5293 112.843 14.5293C116.208 14.5293 122.313 16.2036 122.313 19.9072V21.294" stroke="#53A0FD"/><path d="M135.843 14.5294C132.749 14.5294 130.432 11.9419 130.432 8.72868V6.80074C130.432 3.5875 132.749 1 135.843 1C138.938 1 141.255 3.5875 141.255 6.80074V8.72868C141.255 11.9419 138.938 14.5294 135.843 14.5294Z" stroke="#53A0FD"/><path d="M126.372 21.294V19.9411C126.372 16.2374 132.477 14.5293 135.843 14.5293C139.208 14.5293 145.313 16.2036 145.313 19.9072V21.294" stroke="#53A0FD"/><path d="M104.725 40.2353C101.63 40.2353 99.3135 37.6478 99.3135 34.4346V32.5067C99.3135 29.3103 101.63 26.7059 104.725 26.7059C107.82 26.7059 110.137 29.2934 110.137 32.5067V34.4346C110.137 37.6478 107.82 40.2353 104.725 40.2353Z" stroke="#1476F2"/><path d="M95.2549 46.9999V45.647C95.2549 41.9433 101.36 40.2352 104.725 40.2352C108.091 40.2352 114.196 41.9095 114.196 45.6132V46.9999" stroke="#1476F2"/><path d="M142.608 40.2353C139.513 40.2353 137.196 37.6478 137.196 34.4346V32.5067C137.196 29.3103 139.513 26.7059 142.608 26.7059C145.703 26.7059 148.02 29.2934 148.02 32.5067V34.4346C148.02 37.6478 145.703 40.2353 142.608 40.2353Z" stroke="#1476F2"/><path d="M133.137 46.9999V45.647C133.137 41.9433 139.242 40.2352 142.607 40.2352C145.973 40.2352 152.078 41.9095 152.078 45.6132V46.9999" stroke="#1476F2"/><path d="M217.922 40.2353C214.827 40.2353 212.51 37.6478 212.51 34.4346V32.5067C212.51 29.3103 214.827 26.7059 217.922 26.7059C221.016 26.7059 223.333 29.2934 223.333 32.5067V34.4346C223.333 37.6478 221.016 40.2353 217.922 40.2353Z" stroke="#1476F2"/><path d="M208.451 46.9999V45.647C208.451 41.9433 214.556 40.2352 217.922 40.2352C221.287 40.2352 227.392 41.9095 227.392 45.6132V46.9999" stroke="#1476F2"/><path d="M207.097 14.5294C204.002 14.5294 201.686 11.9419 201.686 8.72868V6.80074C201.686 3.5875 204.002 1 207.097 1C210.192 1 212.509 3.5875 212.509 6.80074V8.72868C212.509 11.9419 210.192 14.5294 207.097 14.5294Z" stroke="#53A0FD"/><path d="M197.627 21.294V19.9411C197.627 16.2374 203.732 14.5293 207.098 14.5293C210.463 14.5293 216.568 16.2036 216.568 19.9072V21.294" stroke="#53A0FD"/><path d="M230.098 14.5294C227.003 14.5294 224.687 11.9419 224.687 8.72868V6.80074C224.687 3.5875 227.003 1 230.098 1C233.193 1 235.51 3.5875 235.51 6.80074V8.72868C235.51 11.9419 233.193 14.5294 230.098 14.5294Z" stroke="#53A0FD"/><path d="M220.627 21.294V19.9411C220.627 16.2374 226.732 14.5293 230.098 14.5293C233.463 14.5293 239.568 16.2036 239.568 19.9072V21.294" stroke="#53A0FD"/><path d="M198.98 40.2353C195.885 40.2353 193.568 37.6478 193.568 34.4346V32.5067C193.568 29.3103 195.885 26.7059 198.98 26.7059C202.075 26.7059 204.392 29.2934 204.392 32.5067V34.4346C204.392 37.6478 202.075 40.2353 198.98 40.2353Z" stroke="#1476F2"/><path d="M189.51 46.9999V45.647C189.51 41.9433 195.615 40.2352 198.98 40.2352C202.346 40.2352 208.451 41.9095 208.451 45.6132V46.9999" stroke="#1476F2"/><path d="M236.863 40.2353C233.768 40.2353 231.451 37.6478 231.451 34.4346V32.5067C231.451 29.3103 233.768 26.7059 236.863 26.7059C239.958 26.7059 242.275 29.2934 242.275 32.5067V34.4346C242.275 37.6478 239.958 40.2353 236.863 40.2353Z" stroke="#1476F2"/><path d="M227.392 46.9999V45.647C227.392 41.9433 233.497 40.2352 236.862 40.2352C240.228 40.2352 246.333 41.9095 246.333 45.6132V46.9999" stroke="#1476F2"/></svg>