<svg width="62" height="61" viewBox="0 0 62 61" fill="none" xmlns="http://www.w3.org/2000/svg"><path d="M51.8697 34.913C48.886 34.913 46.6523 32.4184 46.6523 29.3206V27.4619C46.6523 24.3804 48.886 21.8695 51.8697 21.8695C54.8534 21.8695 57.0871 24.3641 57.0871 27.4619V29.3206C57.0871 32.4184 54.8534 34.913 51.8697 34.913Z" stroke="#53A0FD"/><path d="M42.7393 40.1305C42.7393 36.5598 48.6251 34.9131 51.8697 34.9131C55.1143 34.9131 61.0001 36.5272 61.0001 40.0979" stroke="#53A0FD"/><path d="M51.8697 55.7826C48.886 55.7826 46.6523 53.2881 46.6523 50.1902V48.3315C46.6523 45.25 48.886 42.7391 51.8697 42.7391C54.8534 42.7391 57.0871 45.2337 57.0871 48.3315V50.1902C57.0871 53.2881 54.8534 55.7826 51.8697 55.7826Z" stroke="#53A0FD"/><path d="M42.7393 61C42.7393 57.4293 48.6251 55.7826 51.8697 55.7826C55.1143 55.7826 61.0001 57.3967 61.0001 60.9674" stroke="#53A0FD"/><path d="M51.8697 14.0435C48.886 14.0435 46.6523 11.5489 46.6523 8.45109V6.59239C46.6523 3.49456 48.886 1 51.8697 1C54.8534 1 57.0871 3.49456 57.0871 6.59239V8.45109C57.0871 11.5489 54.8534 14.0435 51.8697 14.0435Z" stroke="#53A0FD"/><path d="M42.7393 19.2608C42.7393 15.6902 48.6251 14.0435 51.8697 14.0435C55.1143 14.0435 61.0001 15.6576 61.0001 19.2282" stroke="#53A0FD"/><path d="M10.1305 34.913C7.14678 34.913 4.91309 32.4184 4.91309 29.3206V27.4619C4.91309 24.3804 7.14678 21.8695 10.1305 21.8695C13.1142 21.8695 15.3479 24.3641 15.3479 27.4619V29.3206C15.3479 32.4184 13.1142 34.913 10.1305 34.913Z" stroke="#1476F2"/><path d="M1 40.1305C1 36.5598 6.88587 34.9131 10.1304 34.9131C13.375 34.9131 19.2609 36.5272 19.2609 40.0979" stroke="#1476F2"/><path d="M21.8691 31H29.6952" stroke="#1476F2"/><path d="M29.6953 31H38.8257" stroke="#1476F2"/><path d="M38.8257 10.1305H30.9997C30.2823 10.1305 29.6953 10.7174 29.6953 11.4348V50.5653C29.6953 51.2827 30.2823 51.8696 30.9997 51.8696H38.8257" stroke="#1476F2"/></svg>