<svg width="57" height="62" viewBox="0 0 57 62" fill="none" xmlns="http://www.w3.org/2000/svg"><path d="M20.5652 31H16.6522V38.9565C16.6522 40.1304 15.087 40.7826 14.3043 39.7391L7.52174 31H4.91304C2.69565 31 1 29.3043 1 27.087V4.91304C1 2.69565 2.69565 1 4.91304 1H51.8696C54.087 1 55.7826 2.69565 55.7826 4.91304V27.087C55.7826 29.3043 54.087 31 51.8696 31H41.4348" stroke="#53A0FD"/><path d="M19.2607 15.3478H23.1738" stroke="#53A0FD"/><path d="M25.7822 15.3478H29.6953" stroke="#53A0FD"/><path d="M32.3047 15.3478H36.2177" stroke="#53A0FD"/><path d="M30.9993 40.1304C34.6515 40.1304 37.521 37.2609 37.521 33.6087V31C37.521 27.3478 34.6515 24.4783 30.9993 24.4783C27.3471 24.4783 24.4775 27.3478 24.4775 31V33.6087C24.4775 37.2609 27.3471 40.1304 30.9993 40.1304Z" stroke="#1476F2"/><path d="M45.347 61V51.8695C45.347 46.6522 35.8253 44.0435 30.9992 44.0435C26.1731 44.0435 16.6514 46.6522 16.6514 51.8695V61" stroke="#1476F2"/><path d="M38.8252 61.0001V54.4784" stroke="#1476F2"/><path d="M23.1738 54.4784V61.0001" stroke="#1476F2"/><path d="M12.7393 60.9998H49.261" stroke="#1476F2"/><path d="M10.1302 60.9998H7.52148" stroke="#1476F2"/><path d="M4.91241 60.9998H2.30371" stroke="#1476F2"/><path d="M54.4778 60.9998H51.8691" stroke="#1476F2"/></svg>